<svg width="38" height="44" viewBox="0 0 38 44" fill="none" xmlns="http://www.w3.org/2000/svg">
<path fill-rule="evenodd" clip-rule="evenodd" d="M11.3928 0.0469384C9.80832 0.336521 8.42262 1.09114 7.37152 2.237L6.93393 2.71399L6.42988 2.61982C5.82387 2.50655 4.71769 2.5763 4.06714 2.76878C1.20069 3.6168 -0.531345 6.55727 0.146916 9.4242C0.336229 10.2244 0.814991 11.1765 1.09115 11.3018C1.40157 11.4428 1.50845 11.4307 1.77044 11.2253C2.06007 10.9985 2.06637 10.6726 1.79177 10.1322C1.14476 8.85931 1.14545 7.40899 1.79349 6.1348C2.12611 5.48081 3.04004 4.60931 3.74247 4.2763C4.604 3.86777 5.51431 3.75622 6.43877 3.94577C6.83388 4.02679 7.23771 4.0931 7.33621 4.0931C7.45474 4.0931 7.67987 3.88772 8.00101 3.48676C10.0468 0.932201 13.4995 0.529519 16.0611 2.5468C16.6445 3.00633 17.2283 3.7907 17.6275 4.6518C17.9987 5.45217 17.9614 5.42766 18.9235 5.50197C20.8134 5.64801 22.1981 7.10272 22.1981 8.94222C22.1981 10.2598 21.492 11.4423 20.3613 12.0182C19.5426 12.4354 19.575 12.4336 12.1412 12.4334C4.66029 12.4331 4.5548 12.4277 3.71467 12.0008C3.30419 11.7921 2.92928 11.8367 2.73177 12.1177C2.37904 12.6194 2.74075 13.0591 3.81075 13.4291L4.54452 13.6828L11.8391 13.7077C18.265 13.7295 19.2076 13.7161 19.7558 13.5951C20.6953 13.3876 21.3739 13.0119 22.0712 12.3129C23.0434 11.3387 23.493 10.2758 23.493 8.95246C23.493 7.62435 23.0417 6.5589 22.0721 5.59795C21.3377 4.87017 20.596 4.48125 19.5514 4.27647C18.8682 4.14247 18.807 4.11306 18.704 3.86914C18.643 3.72457 18.4909 3.44487 18.3659 3.24757L18.1387 2.88901H19.3439C21.3687 2.88901 23.4445 3.24551 25.3791 3.92539L26.3849 4.27888L28.2841 4.29969C30.3389 4.32214 30.9596 4.42122 32.136 4.91455C34.4556 5.88719 35.9242 7.99615 36.3644 10.9865C36.516 12.0173 36.492 14.4173 36.3166 15.7469C36.1045 17.3551 35.2686 21.2019 35.0932 21.3767C35.071 21.3988 34.8797 21.4824 34.6682 21.5623L34.2837 21.7078V20.8091C34.2837 19.9816 34.2678 19.8945 34.0817 19.7093C33.9662 19.594 33.717 19.4811 33.499 19.445C31.3803 19.0947 29.2976 17.0929 28.1651 14.3186C27.6588 13.0783 27.4018 13.0185 26.3849 13.9038C23.4167 16.4883 17.9893 18.3984 10.3763 19.538C9.04322 19.7376 8.9903 19.7898 8.9903 20.9056V21.7288L8.73132 21.5954C8.58888 21.522 8.47217 21.4339 8.47191 21.3996C8.46958 21.0898 7.84847 18.6578 7.74548 18.5552C7.53649 18.347 7.01327 18.3839 6.82102 18.6205C6.73219 18.7298 6.6595 18.8974 6.6595 18.9928C6.6595 19.1449 7.02984 20.9179 7.14345 21.3101C7.17444 21.4171 7.07741 21.5023 6.77138 21.6368C6.22554 21.8768 5.76569 22.3348 5.52674 22.8763C5.23841 23.5296 5.19723 24.782 5.43808 25.572C5.90545 27.1048 7.2138 28.2923 8.79002 28.6139L9.32343 28.7228L9.59389 29.4761C10.7722 32.7581 13.9385 35.177 17.515 35.5275L18.1408 35.5888V35.8811V36.1734H17.2071C15.6574 36.1734 14.6662 36.4446 13.5566 37.1722C12.6255 37.7828 11.7936 38.8199 11.4049 39.8551C11.2022 40.395 10.6305 43.0071 10.6305 43.3935C10.6305 43.5611 10.7054 43.7022 10.858 43.8217C11.0853 43.9999 11.0928 44 21.6526 44H32.2198L32.4316 43.7889C32.5482 43.6727 32.6436 43.5012 32.6436 43.4076C32.6436 43.1202 32.0374 40.2869 31.9348 40.0951C31.7047 39.6644 31.239 39.5733 30.9321 39.8987C30.6948 40.1504 30.6973 40.2915 30.9606 41.5277C31.0791 42.0836 31.176 42.5771 31.176 42.6242C31.176 42.6806 27.9153 42.7099 21.637 42.7099C13.6493 42.7099 12.098 42.6909 12.098 42.5929C12.098 42.311 12.4787 40.6501 12.6326 40.2605C12.8794 39.6354 13.5102 38.8002 14.0239 38.4182C15.0101 37.6847 15.8384 37.4445 17.2522 37.4822L18.1679 37.5065L18.3206 37.9549C18.6306 38.8642 19.2611 39.5445 20.2086 39.9919C20.7235 40.235 20.8505 40.2587 21.637 40.2587C22.4288 40.2587 22.5485 40.2359 23.0822 39.9841C23.4241 39.8228 23.8438 39.5304 24.0998 39.2754C24.5187 38.8581 25.0467 37.9317 25.0468 37.614C25.0469 37.4796 25.1509 37.4635 26.0215 37.4635C27.4751 37.4635 28.4456 37.767 29.3358 38.4999C29.8979 38.9626 30.2901 38.955 30.5386 38.4763C30.6467 38.268 30.6525 38.1739 30.5696 37.9742C30.3424 37.4278 28.8097 36.5424 27.6773 36.3034C27.3464 36.2336 26.6386 36.1758 26.1044 36.1749L25.1332 36.1734V35.8862V35.599L25.9403 35.5002C28.2053 35.2228 30.1087 34.2623 31.6941 32.5965C32.633 31.6101 33.2854 30.5509 33.7626 29.2381L33.9545 28.7102L34.486 28.6075C36.0742 28.3008 37.444 27.0071 37.8703 25.4114C38.1257 24.4555 37.9939 23.2305 37.5629 22.5535C37.3437 22.2091 36.779 21.7074 36.5102 21.6181C36.4499 21.598 36.5418 21.0866 36.7698 20.1721C37.4925 17.2748 37.7582 15.3843 37.7607 13.1238C37.7619 12.0749 37.7155 11.2395 37.6246 10.6726C36.9333 6.35902 34.4979 3.79449 30.4385 3.10558C29.8222 3.001 29.1685 2.96513 28.1126 2.97803L26.6439 2.99592L25.6356 2.64708C23.4054 1.8756 21.3256 1.5634 18.7883 1.61922L17.0618 1.65723L16.5438 1.2942C15.3216 0.437579 14.2084 0.0605274 12.7455 0.00754754C12.2232 -0.0112878 11.6145 0.00634345 11.3928 0.0469384ZM5.91166 14.1109C5.53977 14.3703 5.57732 14.5916 6.26715 16.2053C6.92133 17.7357 7.0623 17.9401 7.46337 17.9401C7.7321 17.9401 8.04072 17.6 8.04072 17.304C8.04072 16.9595 6.9354 14.4067 6.68687 14.1773C6.44438 13.9535 6.17073 13.9301 5.91166 14.1109ZM9.37488 14.195C9.25834 14.3111 9.16295 14.4859 9.16295 14.5836C9.16295 14.8722 10.359 17.6256 10.5556 17.7896C10.6547 17.8724 10.8305 17.9401 10.9461 17.9401C11.2133 17.9401 11.5801 17.5794 11.5801 17.3167C11.5801 17.0176 10.3934 14.3088 10.186 14.1343C9.93557 13.9236 9.62376 13.9469 9.37488 14.195ZM12.9298 14.1621C12.774 14.2841 12.7023 14.422 12.7023 14.5991C12.7023 14.959 13.7993 17.5096 14.0562 17.7466C14.1715 17.8531 14.3625 17.9401 14.4807 17.9401C14.7353 17.9401 15.1194 17.587 15.1194 17.353C15.1194 17.0874 13.8605 14.2443 13.6837 14.111C13.4545 13.9381 13.193 13.9558 12.9298 14.1621ZM16.4434 14.1109C16.0838 14.3618 16.1151 14.6016 16.683 15.9459C17.2886 17.3794 17.4415 17.5961 17.8475 17.5961C18.1441 17.5961 18.4855 17.2798 18.4867 17.0039C18.4879 16.7366 17.4253 14.369 17.2181 14.1773C16.9762 13.9535 16.7025 13.9301 16.4434 14.1109ZM27.4102 15.7685C28.572 18.1193 30.3342 19.7873 32.3846 20.4765L32.9457 20.6652L32.9705 23.5814C32.9854 25.341 32.958 26.7831 32.9012 27.2172C32.6583 29.0748 31.8099 30.7408 30.4544 32.0215C29.3963 33.0211 28.2748 33.6502 26.8596 34.0375C26.1345 34.236 26.0736 34.2383 21.637 34.2383C17.2051 34.2383 17.1388 34.2357 16.4143 34.0381C15.5813 33.8108 14.4683 33.3154 13.8528 32.898C13.2525 32.4908 12.2269 31.4855 11.7847 30.8706C11.301 30.1982 10.7646 29.0605 10.5251 28.1993C10.3526 27.5787 10.3365 27.2871 10.3058 24.2052L10.2728 20.8807L10.5164 20.8317C10.6503 20.8048 11.2456 20.706 11.8391 20.6121C18.3088 19.5884 23.9067 17.5896 26.7734 15.2796C26.8921 15.184 27.0099 15.1048 27.0351 15.1038C27.0603 15.1028 27.229 15.4019 27.4102 15.7685ZM15.1517 21.4315C14.9848 21.5132 14.7879 21.7338 14.6357 22.0095C14.4203 22.3999 14.3895 22.5465 14.3876 23.1865C14.386 23.7859 14.4228 23.9926 14.5917 24.3345C14.8041 24.7644 15.1943 25.0778 15.5178 25.0783C16.3402 25.0797 16.8761 23.2988 16.3952 22.1624C16.1022 21.4697 15.6351 21.1952 15.1517 21.4315ZM27.4631 21.4456C26.9982 21.6767 26.6871 22.3576 26.6871 23.1436C26.6871 23.9277 26.877 24.4844 27.2585 24.818C27.7814 25.2756 28.2958 25.0925 28.6575 24.32C29.0704 23.4379 28.9233 22.1569 28.3473 21.6196C28.0184 21.3128 27.8119 21.2722 27.4631 21.4456ZM8.22675 22.8026C8.50101 22.8677 8.77138 23.1382 8.89983 23.4757C8.99039 23.7138 8.9859 23.7201 8.76602 23.6651C8.22278 23.5292 8.05177 23.5209 7.70672 23.6135C7.02604 23.7961 6.78571 24.3275 7.20603 24.7209C7.37368 24.8779 7.49229 24.9054 7.91822 24.8867C8.3369 24.8682 8.47986 24.9 8.70974 25.0632L8.9903 25.2623L8.99151 26.095C8.99211 26.553 9.01611 27.0148 9.04469 27.1213C9.11849 27.3956 8.88144 27.3759 8.23434 27.0537C7.23521 26.5562 6.65493 25.6574 6.59131 24.5088C6.54771 23.72 6.6494 23.3067 6.95854 23.0174C7.17047 22.819 7.63516 22.6666 7.86806 22.7191C7.93928 22.7351 8.10071 22.7727 8.22675 22.8026ZM36.1258 22.9036C36.7393 23.2119 36.8898 24.5931 36.4211 25.6132C36.2976 25.8818 36.0173 26.2801 35.7982 26.4985C35.4033 26.8919 34.6501 27.3123 34.3372 27.3139C34.1975 27.3147 34.1823 27.2697 34.2283 26.9923C34.2578 26.8149 34.2823 26.3531 34.2828 25.966C34.2837 25.2732 34.288 25.2593 34.5596 25.0667C34.7759 24.9132 34.9553 24.8702 35.3915 24.8673C35.8954 24.864 35.9642 24.8414 36.1252 24.6273C36.3407 24.3404 36.2629 24.0264 35.9114 23.7658C35.6658 23.5836 34.9593 23.5213 34.5142 23.6427C34.2888 23.7041 34.2745 23.6941 34.3288 23.5124C34.4194 23.2092 34.8333 22.8327 35.1573 22.7589C35.4888 22.6833 35.7711 22.7255 36.1258 22.9036ZM20.1161 24.3052C19.8765 24.4446 19.7493 24.8587 19.8743 25.0923C20.0801 25.4773 20.1879 25.5031 21.6038 25.5059C22.8391 25.5084 22.9708 25.4938 23.1792 25.3304C23.4731 25.1001 23.4916 24.6482 23.2177 24.3939C23.0436 24.2323 22.9203 24.2187 21.6423 24.2211C20.8798 24.2226 20.193 24.2604 20.1161 24.3052ZM20.8108 26.7388C20.5938 26.8001 20.2442 26.9514 20.0339 27.0749C18.6991 27.8588 18.259 29.4574 19.4039 29.3631C19.7002 29.3388 19.7688 29.2841 20.0671 28.8341C20.8742 27.6165 22.4054 27.6248 23.2183 28.8511C23.5006 29.2771 23.5781 29.3391 23.8567 29.3623C24.2411 29.3943 24.5294 29.1523 24.5282 28.7984C24.5261 28.1994 23.6993 27.2522 22.8532 26.8793C22.3414 26.6537 21.3525 26.5857 20.8108 26.7388ZM23.8383 36.3776C23.8383 37.607 23.5353 38.262 22.7564 38.7168C21.6799 39.3453 20.2606 38.9309 19.6768 37.8177C19.458 37.4004 19.4357 37.2753 19.4357 36.4646V35.5714H21.637H23.8383V36.3776Z" fill="#989B86"/>
</svg>
