<svg width="44" height="44" viewBox="0 0 44 44" fill="none" xmlns="http://www.w3.org/2000/svg">
<path fill-rule="evenodd" clip-rule="evenodd" d="M12.6978 0.0547739C10.8777 0.257759 9.13922 0.738818 7.56334 1.47567C6.52479 1.96129 5.30403 2.71603 4.94734 3.0931C4.67188 3.38434 4.6664 3.8033 4.93524 4.01841C5.26598 4.28298 5.54057 4.21271 6.31324 3.66594C10.0644 1.01113 16.042 0.515792 21.2881 2.42497L22.1346 2.73306L24.1369 2.7513C25.8617 2.76695 26.2359 2.79482 26.8358 2.95196C29.9534 3.76846 31.7329 5.65089 32.4657 8.90761C32.6503 9.72823 32.6684 10.011 32.6641 12.004C32.6602 13.8424 32.6283 14.3846 32.4674 15.355C32.3618 15.9917 32.2464 16.5372 32.2109 16.5672C32.1755 16.5973 31.9044 16.709 31.6086 16.8154C30.9765 17.0429 30.0674 17.5535 29.428 18.0401L28.9731 18.3864L28.566 18.2494C27.9147 18.0301 26.9439 17.3827 26.2736 16.7204C25.294 15.7526 24.1735 13.9538 23.7507 12.6699C23.6329 12.3123 23.4462 12.176 23.0745 12.176C22.8942 12.176 22.6524 12.3289 22.1764 12.744C19.1907 15.3477 13.7364 17.3081 6.15896 18.5011C3.83846 18.8664 3.89539 18.8272 3.89539 20.0566C3.89539 20.865 3.89304 20.874 3.69951 20.8162C3.59173 20.7841 3.47298 20.73 3.43554 20.6959C3.3443 20.6129 2.80862 18.2348 2.59175 16.9496C2.30071 15.225 2.22531 14.3523 2.22749 12.7351C2.23141 9.87789 2.66201 8.27095 4.07482 5.84046C4.24572 5.54648 4.26731 5.43913 4.19584 5.23856C4.08388 4.92384 3.71004 4.74021 3.39175 4.84342C3.09383 4.94001 2.38481 6.0296 1.9462 7.06482C1.22664 8.76293 0.917838 10.461 0.915139 12.7351C0.912615 14.8709 1.13627 16.6875 1.72306 19.2968C1.86436 19.9254 1.98006 20.4886 1.98006 20.5481C1.98006 20.6077 1.84773 20.7038 1.68589 20.7616C0.231454 21.2812 -0.388591 23.1277 0.251042 25.0346C0.746939 26.5131 2.14043 27.7169 3.71405 28.0261L4.27271 28.1358L4.46329 28.6925C5.66855 32.2124 9.06556 34.8561 12.8142 35.1917L13.472 35.2506V35.5711V35.8916L12.1879 35.9382C10.7383 35.9908 10.3112 36.0911 9.24961 36.6282C8.00647 37.2572 6.81514 38.6181 6.38193 39.9038C6.19832 40.4488 5.6366 43.0834 5.6366 43.3995C5.6366 43.5607 5.71452 43.704 5.86601 43.8217C6.09541 44 6.09593 44 17.1621 43.9972C29.0256 43.9943 28.4363 44.0164 28.6044 43.5676C28.7032 43.3038 28.1214 40.4671 27.8151 39.7185C27.1113 37.9989 25.8309 36.8049 24.0499 36.2073C23.4524 36.0068 23.1709 35.968 22.0693 35.9337L20.7851 35.8937V35.5789V35.2642L21.6809 35.1591C22.9164 35.0141 23.7128 34.7826 24.8334 34.2424C26.1321 33.6166 27.2268 32.7742 28.118 31.7152L28.4315 31.3427L29.0701 31.8745C30.0828 32.7178 31.6655 33.545 32.6313 33.7358L32.8865 33.7862V34.5066C32.8865 35.1435 32.8683 35.2269 32.7295 35.2269C32.4255 35.2269 31.7743 35.7224 31.523 36.1448L31.2759 36.5601L31.2505 40.0653L31.2251 43.5705L31.4424 43.7852L31.6597 44H33.583H35.5063L35.7199 43.7888C35.93 43.5814 35.9336 43.5528 35.9336 42.1237V40.6696L36.3786 40.6175C36.9903 40.5459 37.6517 40.1576 37.9915 39.6704C38.3089 39.2153 38.4584 38.6372 38.4584 37.8648C38.4584 36.768 38.0914 35.9831 37.3673 35.5309L36.972 35.284L36.997 34.5634L37.0219 33.8428L37.8054 33.5838C40.1472 32.8097 42.0272 31.1656 43.112 28.9433C44.4972 26.1058 44.2509 22.8121 42.4498 20.089C41.9955 19.402 40.6215 18.0335 40.1771 17.8253C39.8969 17.694 39.8161 17.688 39.6138 17.7838C39.3205 17.9228 39.1563 18.2326 39.2307 18.5072C39.2617 18.6218 39.5778 18.9569 39.9332 19.2518C41.1254 20.2412 42.0671 21.7316 42.4734 23.2714C42.7262 24.2295 42.7475 25.7678 42.5215 26.7302C41.8934 29.4043 40.0068 31.4739 37.3983 32.3507C36.0708 32.7968 34.2052 32.8483 32.8872 32.4751C31.3784 32.0479 29.8574 31.0527 28.9246 29.8824C28.3483 29.1594 27.6679 27.8111 27.433 26.9269C27.1901 26.0126 27.2094 24.0613 27.4702 23.1605C28.1037 20.9729 29.51 19.268 31.4935 18.283C33.2024 17.4344 35.0951 17.2416 36.98 17.7241C37.4113 17.8346 37.5754 17.843 37.7666 17.7648C38.297 17.5477 38.2809 16.8322 37.7407 16.6093C37.0938 16.3424 36.0647 16.1953 34.8576 16.1972L33.6509 16.1992L33.7105 15.8433C34.0056 14.0774 34.1108 11.1656 33.9291 9.79541C33.5834 7.19049 32.6932 5.2604 31.1768 3.82772C30.1976 2.90259 29.2031 2.32812 27.8519 1.90719C26.5968 1.5161 25.7728 1.41409 24.0064 1.43095C22.4079 1.44626 22.3905 1.44436 21.6991 1.18616C20.8349 0.863447 18.766 0.351769 17.6074 0.174243C16.5501 0.0121986 13.7014 -0.0571261 12.6978 0.0547739ZM23.785 15.7025C24.7646 17.2415 26.083 18.4853 27.467 19.1757C27.7183 19.3012 27.9241 19.4266 27.9241 19.4545C27.9241 19.4824 27.8061 19.6523 27.6619 19.8322C27.2841 20.3034 26.6499 21.5151 26.396 22.2508C25.5649 24.6583 25.8351 27.335 27.1342 29.5615C27.4758 30.1469 27.5376 30.3134 27.4654 30.4533C27.4167 30.5479 27.0004 30.9964 26.5404 31.4498C25.5782 32.3983 24.6194 33.0206 23.5072 33.4182C22.1023 33.9204 21.6961 33.9502 16.7562 33.9139C12.4453 33.8822 12.2735 33.8746 11.6002 33.6871C8.49906 32.8233 6.22522 30.5121 5.44481 27.4305C5.26259 26.7108 5.25171 26.4844 5.2484 23.32L5.24483 19.9711L7.16016 19.6481C13.8713 18.5164 18.977 16.7453 22.0942 14.4677L22.831 13.9293L23.1848 14.6223C23.3794 15.0035 23.6495 15.4896 23.785 15.7025ZM10.3677 20.5586C10.1977 20.6313 9.99868 20.8345 9.84536 21.0921C9.61587 21.478 9.59785 21.5738 9.59785 22.4113C9.59785 23.214 9.62205 23.3574 9.8155 23.7015C9.95724 23.9535 10.1471 24.1435 10.3596 24.2461C10.6762 24.3989 10.696 24.3989 11.0126 24.2461C11.2611 24.1262 11.4011 23.9657 11.5991 23.5741C12.3215 22.145 11.4797 20.0835 10.3677 20.5586ZM23.2214 20.5937C23.0268 20.6968 22.8401 20.904 22.7004 21.172C22.513 21.5317 22.4828 21.7035 22.4828 22.4113C22.4828 23.4343 22.7155 23.9873 23.2568 24.2506C23.5677 24.4018 23.6093 24.4034 23.8819 24.2749C24.2797 24.0876 24.6014 23.5759 24.721 22.9404C24.9121 21.9252 24.5199 20.8224 23.8728 20.5553C23.5118 20.4063 23.5832 20.4021 23.2214 20.5937ZM30.5359 21.7232C30.4326 21.8252 30.3618 22.0099 30.3618 22.1771C30.3618 22.4118 30.4637 22.5588 30.9712 23.0564C31.3064 23.3849 31.5806 23.6832 31.5806 23.7192C31.5806 23.7551 31.3749 23.8864 31.1235 24.0108C30.4891 24.3249 30.3618 24.4552 30.3618 24.7899C30.3618 25.1466 30.6216 25.4217 30.9583 25.4217C31.2917 25.4217 33.091 24.5415 33.2681 24.2918C33.5571 23.8842 33.4697 23.7261 32.3386 22.6086C31.4147 21.6959 31.23 21.5512 30.9891 21.5512C30.8261 21.5512 30.6376 21.6228 30.5359 21.7232ZM37.6576 22.5607C36.1516 24.0302 36.1526 24.1517 37.6752 24.9058C38.2481 25.1895 38.8282 25.4217 38.9642 25.4217C39.266 25.4217 39.5902 25.1058 39.5902 24.8117C39.5902 24.4837 39.3942 24.28 38.8164 24.0071L38.285 23.7562L38.9376 23.0936C39.665 22.3551 39.7415 22.1229 39.3764 21.7623C38.9772 21.3678 38.7919 21.4538 37.6576 22.5607ZM3.24967 22.0334C3.55037 22.1744 3.89539 22.6218 3.89539 22.8708C3.89539 22.9837 3.85439 22.9937 3.67208 22.9252C3.34395 22.802 2.62814 22.823 2.28147 22.9662C1.76528 23.1793 1.70399 23.7587 2.16385 24.077C2.31063 24.1785 2.4804 24.1992 2.85223 24.1608C3.31017 24.1135 3.36493 24.1276 3.61227 24.3572C3.87502 24.601 3.87946 24.6195 3.9263 25.6582C3.98158 26.8828 4.0003 26.8632 3.15538 26.4663C2.58531 26.1985 1.93131 25.5725 1.65002 25.0253C1.25285 24.253 1.2007 23.1087 1.53457 22.4937C1.82962 21.9502 2.61987 21.7382 3.24967 22.0334ZM15.4359 23.7206C15.2417 23.9944 15.2643 24.4166 15.4835 24.6127C15.6485 24.7603 15.8134 24.7766 17.145 24.7766H18.6235L18.8337 24.5352C19.0912 24.2396 19.0984 24.0512 18.8634 23.7561L18.683 23.5294H17.1272C15.6182 23.5294 15.5673 23.5352 15.4359 23.7206ZM34.065 26.4584C33.0241 26.6183 32.0731 27.0256 31.1639 27.7009C30.5002 28.1937 30.3031 28.5145 30.4494 28.8636C30.561 29.1297 30.9559 29.3359 31.2042 29.2578C31.2915 29.2303 31.5784 29.0321 31.8418 28.8175C32.7607 28.0683 33.7334 27.7214 34.9324 27.7154C36.1596 27.7092 37.2514 28.1064 38.1826 28.8977C38.6964 29.3344 38.9303 29.3807 39.2737 29.1139C39.4398 28.9848 39.5031 28.8563 39.5031 28.648C39.5031 28.4054 39.4205 28.2866 38.9738 27.8873C37.7272 26.7727 35.7554 26.1988 34.065 26.4584ZM13.4872 27.3409C13.1098 27.7379 13.3368 28.2822 13.9242 28.3885C14.0825 28.4173 15.6553 28.429 17.4193 28.4148L20.6265 28.389L20.7929 28.186C21.0086 27.9227 21.0051 27.5313 20.7851 27.3139C20.6168 27.1477 20.4949 27.1419 17.1437 27.1419H13.6765L13.4872 27.3409ZM35.6725 34.5818V35.1409H34.9324H34.1924V34.5818V34.0228H34.9324H35.6725V34.5818ZM19.4783 36.1515C19.4773 37.2657 19.2959 37.7455 18.6698 38.2899C17.6993 39.1339 16.1927 39.0217 15.3441 38.0423C14.9356 37.5708 14.7779 37.01 14.7779 36.0284V35.2269H17.1286H19.4792L19.4783 36.1515ZM33.2698 36.8318C33.2026 37.0521 33.1477 37.5298 33.1477 37.8932C33.1477 38.2566 33.2026 38.7343 33.2698 38.9547L33.3918 39.3554H32.965H32.5383V38.1983C32.5383 37.5311 32.5794 36.9522 32.6353 36.8309C32.7351 36.6143 32.9952 36.4471 33.248 36.4369C33.3788 36.4316 33.3807 36.4676 33.2698 36.8318ZM36.7203 36.6463C37.0113 36.9026 37.1525 37.3102 37.1525 37.8932C37.1525 38.4763 37.0113 38.8839 36.7203 39.1401C36.5693 39.2732 36.3722 39.3188 35.846 39.3424C35.1729 39.3726 35.1638 39.3702 34.832 39.0697L34.4971 38.7666V37.8932V37.0199L34.832 36.7168C35.1638 36.4163 35.1729 36.4138 35.846 36.444C36.3722 36.4677 36.5693 36.5133 36.7203 36.6463ZM13.6408 37.5707C14.151 39.2787 15.8602 40.3584 17.667 40.1143C19.0034 39.9338 20.2301 38.9251 20.5917 37.7095L20.7416 37.2054L21.7428 37.2065C23.5139 37.2086 24.6071 37.6224 25.6065 38.6691C26.314 39.41 26.6475 40.0858 26.9214 41.3337C27.0408 41.8777 27.1592 42.4098 27.1847 42.5163L27.2309 42.7098H17.1738C8.30309 42.7098 7.11663 42.6946 7.11663 42.5812C7.11663 42.5104 7.21361 42.0002 7.3321 41.4475C7.62611 40.076 7.9969 39.3275 8.74901 38.5872C9.75787 37.594 10.7714 37.22 12.4789 37.2108L13.5315 37.2052L13.6408 37.5707ZM34.6277 41.6777V42.7098H33.583H32.5383V41.6777V40.6456H33.583H34.6277V41.6777Z" fill="#989B86"/>
</svg>
