<svg width="38" height="44" viewBox="0 0 38 44" fill="none" xmlns="http://www.w3.org/2000/svg">
<path fill-rule="evenodd" clip-rule="evenodd" d="M3.41336 0.146968C1.6998 0.617218 0.52327 2.17314 0.527821 3.9628C0.528748 4.31979 0.590178 4.9021 0.664333 5.25685C0.738571 5.6116 0.87601 6.38328 0.969799 6.97161C1.06367 7.55994 1.17819 8.11327 1.22428 8.20124C1.35043 8.44187 1.70503 8.55169 1.98024 8.43534C2.41034 8.25353 2.42626 8.03354 2.13268 6.32884C1.75677 4.14598 1.73966 3.99737 1.81086 3.53762C1.93929 2.70832 2.50792 1.94816 3.30036 1.54628L3.69945 1.34383H18.9938H34.2882L34.6873 1.54628C35.2395 1.8263 35.7407 2.3484 35.9893 2.90276C36.2385 3.45841 36.266 4.2153 36.0684 5.08485C35.5953 7.16761 35.2585 10.6739 35.2578 13.5243L35.2573 15.5568L34.9413 15.446C34.7675 15.3851 34.4485 15.3083 34.2324 15.2755L33.8394 15.2156L33.5338 14.2506C32.8457 12.0782 31.4061 9.75217 30.1289 8.74915C28.259 7.2807 25.7312 6.93687 23.6285 7.8649C22.8424 8.21191 21.5125 9.10855 20.6792 9.85348C19.9291 10.524 19.5013 10.7564 19.0122 10.759C18.4876 10.7617 18.1646 10.5918 17.3822 9.9019C16.5979 9.2102 15.5845 8.50121 14.8069 8.10019C12.1848 6.74801 9.25237 7.24165 7.188 9.38272C6.12363 10.4867 5.03389 12.4316 4.44656 14.2756L4.14707 15.2158L3.7688 15.2737C3.56074 15.3056 3.24677 15.3833 3.07124 15.4465L2.75195 15.5615L2.71429 12.9246C2.68943 11.1798 2.64409 10.2264 2.58039 10.1062C2.52738 10.0062 2.37267 9.87739 2.23666 9.81986C2.03274 9.73368 1.94468 9.73884 1.73545 9.84927C1.59582 9.92297 1.46537 10.0324 1.44548 10.0926C1.4256 10.1527 1.42728 11.2287 1.44919 12.4837C1.47119 13.7388 1.46192 15.1367 1.42863 15.59C1.36981 16.3907 1.35818 16.4265 1.02567 16.8341C-0.200496 18.3374 -0.341137 20.4844 0.678574 22.1336C1.40706 23.3119 2.90667 24.1769 4.22089 24.1769H4.66472L5.089 25.0948C6.15523 27.4019 7.9512 29.5011 10.0616 30.9075C10.4092 31.1391 10.6874 31.3475 10.6798 31.3708C10.6723 31.3939 10.4538 31.6849 10.1941 32.0174C9.5805 32.8035 9.09799 33.6542 8.69587 34.659C8.37683 35.456 7.93772 37.0174 7.82548 37.7536C7.79396 37.9603 7.65433 38.3777 7.51512 38.6812C6.85591 40.119 7.48479 41.8613 8.92398 42.5844C9.3304 42.7885 9.41669 42.7969 11.365 42.8233L13.3848 42.8506L13.7905 43.2379C14.0136 43.4509 14.375 43.7095 14.5937 43.8126C14.9844 43.9968 15.0592 44 18.9938 44C22.9285 44 23.0032 43.9968 23.394 43.8126C23.6127 43.7095 23.9741 43.4509 24.1972 43.2379L24.6029 42.8506L26.6227 42.8233C28.571 42.7969 28.6573 42.7885 29.0637 42.5844C30.508 41.8587 31.119 40.1554 30.4738 38.6526C30.3353 38.3299 30.1384 37.6596 30.0363 37.163C29.5833 34.96 28.7721 33.189 27.513 31.6545L27.2624 31.349L27.9962 30.8562C29.344 29.9512 29.566 29.6292 29.1839 29.1336C28.8958 28.7597 28.582 28.8246 27.8059 29.418C27.1262 29.9377 25.9261 30.6522 25.2162 30.9599L24.8235 31.1301L24.7239 30.8848C24.5774 30.5238 23.9359 29.8958 23.4793 29.6662L23.0808 29.4659H18.9938H14.9069L14.5114 29.6648C14.0385 29.9026 13.4978 30.4191 13.2889 30.8328L13.1373 31.1331L12.4632 30.8087C8.41796 28.862 5.70019 25.104 5.13063 20.6697C4.70197 17.3322 5.43273 14.0903 7.21261 11.4331C8.20409 9.95298 9.42621 9.02986 10.7778 8.74021C12.6818 8.33231 14.2634 8.92571 16.5922 10.922C17.7221 11.8904 17.9817 12.0078 18.9938 12.0078C20.0028 12.0078 20.2861 11.8824 21.3112 10.9822C24.057 8.57104 26.1727 8.04739 28.4799 9.20788C29.6344 9.78855 30.6932 11.0077 31.5467 12.7389C33.7844 17.2778 33.3622 22.7876 30.476 26.7123C29.8798 27.5231 29.7961 27.8185 30.0739 28.1318C30.1759 28.2468 30.3338 28.3049 30.5442 28.3049C30.832 28.3049 30.8991 28.2558 31.2788 27.7674C31.9081 26.9579 32.3582 26.2156 32.8691 25.1444L33.3305 24.1769H33.7706C35.0809 24.1769 36.5815 23.3104 37.3091 22.1336C37.8647 21.235 38.1096 20.0636 37.954 19.0482C37.8449 18.3361 37.4278 17.4053 36.962 16.8341C36.6294 16.4264 36.618 16.3909 36.559 15.589C36.4708 14.3887 36.5727 10.4766 36.7273 9.12687C36.8788 7.80478 37.1254 6.20303 37.3233 5.25685C37.5166 4.33278 37.5009 3.43304 37.2799 2.76344C36.8351 1.4159 35.8701 0.496731 34.5248 0.139142C33.8083 -0.0513491 4.10856 -0.0438671 3.41336 0.146968ZM3.87523 16.8024C3.84531 16.9089 3.7977 17.557 3.76947 18.2429C3.71403 19.592 3.81169 20.778 4.08421 22.0659C4.17387 22.4893 4.24718 22.8526 4.24718 22.8731C4.24718 22.8935 4.07536 22.8862 3.86545 22.8569C2.96835 22.7314 1.96002 21.9634 1.57837 21.1148C1.00519 19.8404 1.19892 18.5479 2.11347 17.5452C2.53202 17.0862 3.35606 16.6091 3.73037 16.609C3.89714 16.6089 3.92082 16.6405 3.87523 16.8024ZM34.9624 16.8544C36.1795 17.4451 36.9302 18.8905 36.6947 20.1903C36.5011 21.2594 35.8507 22.1533 34.9501 22.5881C34.5539 22.7794 33.7405 22.971 33.7405 22.8731C33.7405 22.8526 33.8138 22.4893 33.9035 22.0659C34.176 20.778 34.2737 19.592 34.2182 18.2429C34.19 17.557 34.1424 16.9089 34.1124 16.8024C34.0669 16.6405 34.0905 16.6089 34.2573 16.609C34.367 16.609 34.6843 16.7194 34.9624 16.8544ZM10.5364 17.3892C10.3773 17.5168 10.3144 17.6472 10.3144 17.8488C10.3144 18.2211 10.527 18.4044 11.166 18.5829L11.6842 18.7277L11.6689 19.6386C11.6546 20.4823 11.6675 20.5628 11.8425 20.7293C12.0457 20.9224 12.3385 20.9601 12.5863 20.8247C12.804 20.7058 12.9266 20.2839 12.9266 19.6531V19.111L13.3272 19.1594C13.6427 19.1976 13.7672 19.1739 13.9135 19.0479C14.2026 18.7988 14.2381 18.4807 14.0072 18.2075C13.8457 18.0164 13.5688 17.9089 12.4246 17.5933C11.6617 17.383 10.9749 17.2109 10.898 17.2109C10.8212 17.2109 10.6585 17.2911 10.5364 17.3892ZM25.5245 17.6019C24.4299 17.909 24.1394 18.0234 23.9805 18.2097C23.7494 18.4804 23.7851 18.7988 24.0742 19.0479C24.2205 19.1739 24.345 19.1976 24.6605 19.1594L25.061 19.111V19.6531C25.061 20.2839 25.1836 20.7058 25.4014 20.8247C25.6491 20.9601 25.942 20.9224 26.1452 20.7293C26.3201 20.5628 26.333 20.4823 26.3188 19.6386L26.3035 18.7277L26.839 18.5781C27.4143 18.4174 27.6733 18.1891 27.6733 17.8425C27.6733 17.5751 27.3178 17.209 27.0662 17.2172C26.9598 17.2206 26.266 17.3937 25.5245 17.6019ZM16.7598 19.878C16.3703 20.3172 16.7953 21.0252 17.7298 21.4936C18.1347 21.6965 18.2946 21.7259 18.9938 21.7259C19.6931 21.7259 19.853 21.6965 20.2578 21.4936C20.8787 21.1824 21.3814 20.6533 21.3814 20.3112C21.3814 19.6948 20.7429 19.502 20.2283 19.9632C20.0698 20.1052 19.8042 20.2794 19.6381 20.3502C19.0245 20.6119 18.3218 20.4671 17.7594 19.9632C17.4119 19.6518 16.9921 19.616 16.7598 19.878ZM23.0452 30.9085C23.452 31.1883 23.6939 31.6001 23.7536 32.1148C23.7822 32.3607 23.7942 33.5488 23.7803 34.755L23.7549 36.948L23.2417 36.9981C22.2595 37.0941 21.4468 37.6765 20.9987 38.6053C20.7508 39.1192 20.7213 39.2583 20.7213 39.9132C20.7213 40.5406 20.755 40.7161 20.9557 41.1331C21.2347 41.7128 21.748 42.2603 22.276 42.5411L22.6594 42.745L18.9938 42.7451L15.3282 42.7453L15.694 42.5499C16.2126 42.2729 16.7663 41.685 17.0356 41.1256C17.2322 40.7171 17.2664 40.5376 17.2664 39.915C17.2664 39.3025 17.2299 39.1046 17.0414 38.6941C16.6042 37.7422 15.7268 37.094 14.746 36.9981L14.2328 36.948L14.2104 34.5542C14.197 33.121 14.2224 32.0299 14.2738 31.835C14.3781 31.4397 14.635 31.0926 14.9837 30.8756C15.2283 30.7234 15.4701 30.7136 19.0024 30.7133L22.7609 30.7129L23.0452 30.9085ZM12.4527 32.2168L12.9266 32.4308V34.7061V36.9815L11.0938 37.0077C10.0858 37.0222 9.25321 37.0324 9.24369 37.0306C9.23416 37.0287 9.37388 36.5779 9.55421 36.0287C9.92507 34.8994 10.2537 34.1905 10.7827 33.379C11.1275 32.8501 11.8361 32.003 11.9337 32.003C11.9585 32.003 12.192 32.0992 12.4527 32.2168ZM26.4596 32.4115C26.912 32.892 27.4621 33.7195 27.8375 34.4841C28.06 34.9374 28.8012 37.0195 28.744 37.0306C28.7345 37.0324 27.9018 37.0222 26.8938 37.0077L25.061 36.9815V34.7055V32.4296L25.5034 32.2233C25.7467 32.1099 25.9749 32.0139 26.0105 32.01C26.046 32.0061 26.2481 32.1867 26.4596 32.4115ZM18.3827 32.3785C17.0129 32.8997 16.6674 34.7099 17.7564 35.6611C18.1755 36.0273 18.6371 36.1652 19.2348 36.1027C20.9765 35.9205 21.4848 33.4677 19.9688 32.5609C19.5083 32.2856 18.8317 32.2077 18.3827 32.3785ZM19.3513 33.7209C19.6226 33.9387 19.6734 34.148 19.5358 34.4817C19.4151 34.7748 19.1325 34.8951 18.7779 34.8043C18.5383 34.7429 18.3152 34.3181 18.3832 34.0527C18.4351 33.8505 18.7995 33.551 18.9938 33.551C19.0741 33.551 19.2349 33.6274 19.3513 33.7209ZM15.2195 38.475C16.3427 39.169 16.2826 40.7704 15.1103 41.3808C14.8112 41.5365 14.6023 41.549 12.2953 41.549C9.67867 41.549 9.4364 41.5185 9.02375 41.1374C8.41678 40.5768 8.36596 39.3914 8.92347 38.7975C9.39806 38.292 9.44348 38.285 12.2946 38.2834C14.8546 38.2819 14.9131 38.2857 15.2195 38.475ZM28.8243 38.5875C29.8557 39.4273 29.5844 41.1004 28.3571 41.4684C28.1624 41.5268 27.1356 41.55 25.5111 41.5328L22.9697 41.506L22.646 41.243C22.1604 40.8484 21.9213 40.3222 21.9733 39.7629C22.0263 39.1944 22.2762 38.7753 22.7289 38.496L23.0808 38.2788L25.7907 38.3014L28.5006 38.324L28.8243 38.5875Z" fill="#989B86"/>
</svg>
