<svg width="44" height="44" viewBox="0 0 44 44" fill="none" xmlns="http://www.w3.org/2000/svg">
<path fill-rule="evenodd" clip-rule="evenodd" d="M11.728 0.0199238C8.71158 0.172227 8.03151 0.237413 7.62264 0.413021C7.05614 0.656482 6.46957 1.31635 6.30857 1.89133C5.99889 2.99735 5.84219 7.03557 6.00784 9.64286C6.07095 10.6361 6.12458 11.6036 6.12717 11.7928L6.13182 12.1368L5.52915 12.1568C3.48593 12.2245 2.09394 12.3618 1.68964 12.5355C1.21387 12.74 0.649347 13.3064 0.452619 13.7766C0.171948 14.4476 -0.0709273 18.2746 0.0190424 20.6076C0.122099 23.2781 0.271388 24.5908 0.532774 25.1245C0.910474 25.8955 1.76222 26.4555 2.55731 26.4555C2.94732 26.4555 2.98933 26.5802 2.98985 27.7412C2.99011 28.3347 3.03281 28.9734 3.08481 29.1604C3.33845 30.0729 4.46053 30.4767 5.27026 29.9468C6.0192 29.4566 7.38519 28.1766 8.2842 27.1228L8.62858 26.719L10.1223 26.6979L11.6161 26.6769L11.6034 29.633L11.5907 32.5892L11.3665 32.8548C10.5691 33.7993 10.7139 35.4379 11.6931 36.5491C12.0239 36.9245 12.0294 36.9418 12.0294 37.6153V38.2999L11.6455 38.3524C10.743 38.476 9.94137 39.0717 9.5158 39.9352C9.27146 40.4311 9.23375 40.5951 9.23547 41.1571C9.23874 42.2704 9.75781 43.1246 10.7564 43.6602C11.2826 43.9425 11.3302 43.9513 12.4868 43.9847C13.6312 44.0176 13.6839 44.0115 13.8858 43.8221C14.1589 43.5658 14.1662 43.1489 13.9019 42.9028C13.7306 42.7433 13.5833 42.7193 12.6253 42.6944C11.6212 42.6682 11.5173 42.6496 11.1966 42.4373C10.3087 41.8496 10.3052 40.4746 11.1903 39.8895C11.4638 39.7088 11.6683 39.656 12.244 39.6177C13.2629 39.5499 13.3208 39.4841 13.3208 38.3899C13.3208 37.5703 13.3278 37.5383 13.503 37.5647C13.6355 37.5848 13.7354 37.724 13.869 38.0745C14.5603 39.89 16.1087 41.3568 18.013 42.0002L18.7017 42.2329L21.969 42.2608C25.7703 42.2934 26.0074 42.2638 27.4284 41.5788C28.2112 41.2015 28.4168 41.0523 29.1089 40.3596C29.7889 39.6788 29.955 39.4519 30.3158 38.7102C30.5458 38.2373 30.7623 37.7922 30.7969 37.7213C30.8314 37.6503 30.9233 37.5798 31.0011 37.5645C31.1244 37.5402 31.1425 37.6427 31.1425 38.3638C31.1425 39.1274 31.1588 39.2073 31.3539 39.4021C31.5385 39.5866 31.6422 39.6132 32.176 39.6132C33.03 39.6132 33.5003 39.8643 33.8206 40.4913C34.1118 41.0611 33.9653 41.8722 33.4947 42.2974C33.0258 42.7209 33.2876 42.7092 24.295 42.7092C18.9787 42.7092 15.8345 42.7401 15.7348 42.7934C15.3301 43.0097 15.4015 43.8501 15.8337 43.9559C15.9432 43.9827 19.8877 43.9937 24.5993 43.9804L33.1658 43.9561L33.6515 43.7179C34.2187 43.4396 34.7833 42.863 35.0452 42.2943C35.307 41.7259 35.307 40.5964 35.0452 40.0281C34.6477 39.1653 33.7402 38.4742 32.8495 38.3562L32.434 38.3011L32.4367 37.6027C32.4394 36.9158 32.4446 36.8993 32.7486 36.6033C32.9187 36.4377 33.179 36.0507 33.327 35.7433C33.5674 35.2442 33.5962 35.1015 33.5957 34.4103C33.595 33.5877 33.4455 33.1456 33.0458 32.7845C32.8681 32.6241 32.8644 32.5611 32.8644 29.6747C32.8644 26.6408 32.8147 26.0456 32.4768 25.0365C31.6853 22.6727 29.6513 20.7512 27.2252 20.0754C26.566 19.8918 26.3632 19.8822 22.5115 19.8539L18.4865 19.8243L18.4856 18.7325C18.4848 17.6561 18.3597 15.4407 18.2657 14.8371L18.2175 14.5275L19.7059 14.4656C22.4854 14.3501 22.9014 14.2467 23.551 13.5095C24.0086 12.9903 24.1372 12.5603 24.2704 11.1048C24.4157 9.51765 24.4123 5.003 24.2645 3.40799C24.1272 1.92599 23.9666 1.43287 23.4594 0.936836C22.879 0.36942 22.5092 0.250571 20.9831 0.141181C19.6809 0.0477872 12.9278 -0.0407049 11.728 0.0199238ZM20.9402 1.42771C22.6777 1.55439 22.7959 1.67203 22.9738 3.45099C23.122 4.93352 23.1245 9.46803 22.978 11.0188C22.7994 12.9098 22.7084 12.9946 20.7201 13.1205C19.9888 13.1668 18.2476 13.2297 16.8507 13.2602C13.7976 13.327 13.8761 13.3047 13.0671 14.3305C12.3259 15.2706 10.4972 16.8978 10.3111 16.7829C10.2558 16.7488 10.2213 16.2669 10.2213 15.5252C10.2213 14.5016 10.1963 14.2739 10.0529 13.9932C9.75867 13.417 9.14808 13.0424 8.49944 13.04C8.17684 13.0388 7.72915 12.728 7.59854 12.4144C7.14878 11.3349 7.14705 2.99262 7.59639 2.11785C7.88825 1.54966 8.23289 1.46538 10.7379 1.3492C12.7631 1.25537 19.2626 1.30534 20.9402 1.42771ZM14.7613 2.95195C14.6809 3.03218 14.4369 3.63202 14.2191 4.28492L13.8231 5.47195H12.7674C11.8188 5.47195 11.6957 5.48949 11.5548 5.64506C11.3399 5.88225 11.355 6.29848 11.5867 6.53024C11.7495 6.69278 11.8894 6.72305 12.5972 6.74894C13.171 6.76992 13.4075 6.80879 13.3812 6.87793C13.3606 6.93237 13.2534 7.25753 13.1431 7.6004L12.9425 8.22389H11.9224C10.9541 8.22389 10.8915 8.23464 10.691 8.43502C10.4198 8.70582 10.4147 9.07897 10.6789 9.3269C10.8536 9.49082 10.9755 9.51386 11.669 9.51386C12.104 9.51386 12.4598 9.545 12.4598 9.58301C12.4598 9.62093 12.3242 10.0543 12.1585 10.5458C11.806 11.5914 11.8005 11.6546 12.0356 11.9532C12.2597 12.2379 12.7185 12.2645 12.9588 12.0069C13.0475 11.9118 13.2852 11.3119 13.4869 10.6739L13.8539 9.51386H14.6635C15.1088 9.51386 15.4732 9.545 15.4732 9.58301C15.4732 9.62093 15.3376 10.0543 15.1718 10.5458C14.8194 11.5914 14.8139 11.6546 15.049 11.9532C15.2731 12.2379 15.7319 12.2645 15.9722 12.0069C16.0609 11.9118 16.2986 11.3119 16.5003 10.6739L16.8672 9.51386H17.896C18.8735 9.51386 18.9353 9.50337 19.1361 9.30274C19.4055 9.03374 19.4055 8.70402 19.1361 8.43502C18.9415 8.24057 18.8604 8.22389 18.1089 8.22389H17.2931L17.5314 7.51441L17.7698 6.80492L18.8147 6.76192C19.7436 6.72374 19.8806 6.69794 20.0484 6.53024C20.2801 6.29848 20.2952 5.88225 20.0803 5.64506C19.9433 5.49388 19.8159 5.47195 19.0758 5.47195C18.6096 5.47195 18.2282 5.45871 18.2282 5.44245C18.2282 5.4262 18.3631 4.99088 18.528 4.47497C18.6928 3.95907 18.8284 3.45667 18.8293 3.35846C18.8331 2.92425 18.1218 2.64201 17.7869 2.94481C17.7024 3.02117 17.454 3.62101 17.2349 4.27778L16.8364 5.47195H16.0256C15.5798 5.47195 15.2149 5.45871 15.2149 5.44245C15.2149 5.4262 15.3498 4.99088 15.5147 4.47497C15.6795 3.95907 15.8151 3.45667 15.816 3.35846C15.8199 2.91935 15.0796 2.63401 14.7613 2.95195ZM31.6122 5.51108C31.3466 5.7763 31.342 6.10902 31.6006 6.36728L31.8003 6.56671L35.9699 6.62028C38.2631 6.64978 40.499 6.70637 40.9384 6.74601C42.2854 6.86761 42.4392 7.0876 42.6024 9.12687C42.8055 11.6643 42.6914 16.6764 42.4102 17.5734C42.2969 17.9347 41.8944 18.2662 41.493 18.3288C40.5753 18.4717 40.2024 18.6871 39.9219 19.2364C39.7767 19.5206 39.7521 19.7442 39.7521 20.7789C39.7521 21.7622 39.7284 21.998 39.626 22.0373C39.3845 22.1299 38.2212 21.0694 36.4755 19.1651C35.9583 18.6009 35.6741 18.5436 33.3983 18.5439C32.418 18.5441 30.8025 18.502 29.8081 18.4505C27.2516 18.318 27.1856 18.2737 26.9945 16.5655C26.847 15.2453 26.8463 9.89406 26.9935 8.57838C27.17 7.00169 27.3103 6.85626 28.7599 6.7473C29.6373 6.68143 29.739 6.65571 29.9157 6.45568C30.224 6.10662 30.1313 5.62735 29.7256 5.47333C29.3767 5.3408 27.7123 5.51031 27.1999 5.73055C26.6458 5.96868 26.1221 6.53515 25.9422 7.09121C25.6998 7.8406 25.5895 9.55308 25.5895 12.5668C25.5895 15.5736 25.6998 17.2928 25.9405 18.0371C26.1106 18.5632 26.5858 19.1024 27.1154 19.3705C27.6735 19.653 28.7415 19.7402 32.5917 19.8184C35.3269 19.8739 35.4672 19.8847 35.5862 20.0486C36.2483 20.9612 37.3161 22.0144 38.518 22.9406C39.1283 23.4109 39.7107 23.4905 40.2649 23.1793C40.9041 22.8204 40.9962 22.5655 41.0297 21.0589C41.0579 19.7949 41.0657 19.7457 41.245 19.7093C42.4688 19.4608 42.9376 19.2089 43.3588 18.5738C43.6681 18.1072 43.7596 17.6839 43.8951 16.0927C44.0979 13.7097 43.9917 8.84566 43.7051 7.39349C43.528 6.49619 42.7734 5.74241 41.8748 5.56526C41.1157 5.41553 38.0676 5.29995 34.8791 5.29995H31.8235L31.6122 5.51108ZM16.3978 6.86942C16.3754 6.92859 16.2667 7.25753 16.1564 7.6004L15.9558 8.22389H15.117H14.2781L14.4888 7.6004C14.6047 7.25753 14.7174 6.92859 14.7393 6.86942C14.7673 6.79357 15.0236 6.76192 15.6089 6.76192C16.2371 6.76192 16.4287 6.78807 16.3978 6.86942ZM31.5261 8.86501L31.3147 9.07605V11.5348V13.9936L31.5261 14.2046C31.6423 14.3207 31.8378 14.4158 31.9604 14.4158C32.0831 14.4158 32.2786 14.3207 32.3948 14.2046L32.6062 13.9936V11.5348V9.07605L32.3948 8.86501C32.2786 8.74891 32.0831 8.65388 31.9604 8.65388C31.8378 8.65388 31.6423 8.74891 31.5261 8.86501ZM34.3827 8.83216L34.1559 9.01034V11.5348V14.0593L34.3827 14.2375C34.5075 14.3355 34.7012 14.4158 34.8132 14.4158C35.0518 14.4158 35.3361 14.1588 35.4062 13.8799C35.4333 13.772 35.444 12.626 35.4298 11.3331L35.4043 8.98248L35.201 8.81814C34.9376 8.60529 34.6655 8.60994 34.3827 8.83216ZM37.2239 8.83216L36.997 9.01034V11.5348V14.0593L37.2239 14.2375C37.4827 14.4409 37.5925 14.4545 37.8875 14.3203C38.2584 14.1515 38.2885 13.9419 38.2885 11.5265C38.2885 9.69437 38.2637 9.19963 38.1625 9.00407C37.958 8.60908 37.5928 8.54226 37.2239 8.83216ZM7.00586 13.7213C7.39819 14.0663 8.00723 14.3298 8.41223 14.3298C8.88007 14.3298 8.91597 14.4315 8.94567 15.8416C8.97262 17.1207 8.97641 17.143 9.22195 17.4643C9.74068 18.1433 10.5295 18.2604 11.2715 17.7687C11.9114 17.3447 13.3441 16.0212 13.9546 15.2899L14.541 14.5878H15.7336H16.9262L16.9764 14.9532C17.1974 16.563 17.2605 20.214 17.1052 22.3975C16.958 24.4671 16.8724 24.7585 16.3287 25.0394C16.0534 25.1815 13.9137 25.3146 10.7379 25.3871C7.89419 25.4519 7.93371 25.4404 7.16496 26.4235C6.68412 27.0383 5.61206 28.0697 4.86277 28.6382C4.33587 29.038 4.29721 28.9647 4.26553 27.5074C4.23944 26.3073 4.2242 26.2072 4.02248 25.9098C3.77168 25.5402 3.08929 25.1655 2.66682 25.1655C2.50806 25.1655 2.26958 25.1095 2.1369 25.0409C1.59218 24.7596 1.51168 24.3852 1.34965 21.3816C1.2509 19.5503 1.27535 18.1632 1.44745 15.8347C1.55189 14.4229 1.62291 14.1501 1.96015 13.8667C2.25184 13.6215 2.5642 13.5779 4.75429 13.4771C5.55928 13.44 6.30883 13.4039 6.41998 13.3968C6.54516 13.3887 6.76798 13.5122 7.00586 13.7213ZM31.6862 15.6203C31.2725 15.7869 31.1924 16.3653 31.5356 16.7082C31.7125 16.8849 31.8097 16.9183 32.0225 16.8758C32.3621 16.808 32.4892 16.7 32.5597 16.4199C32.6352 16.1192 32.4712 15.7503 32.2088 15.6309C31.9629 15.5189 31.9394 15.5185 31.6862 15.6203ZM34.5274 15.6203C34.1042 15.7907 34.0189 16.4456 34.3827 16.7314C34.5075 16.8295 34.6607 16.9097 34.7231 16.9097C34.968 16.9097 35.2684 16.7036 35.3659 16.4685C35.4973 16.1515 35.353 15.7688 35.05 15.6309C34.8041 15.5189 34.7805 15.5185 34.5274 15.6203ZM37.4275 15.5947C36.9422 15.773 36.8264 16.4192 37.2239 16.7314C37.4827 16.9348 37.5925 16.9485 37.8875 16.8142C38.0986 16.7181 38.2885 16.4122 38.2885 16.1681C38.2885 16.0029 37.8244 15.5314 37.6709 15.5405C37.608 15.5442 37.4985 15.5687 37.4275 15.5947ZM3.81886 18.464C3.64908 18.5973 3.592 18.7198 3.592 18.9507C3.592 19.2297 3.6911 19.3594 4.62368 20.3017L5.65545 21.3441L4.62368 22.3721C3.72623 23.2662 3.592 23.4364 3.592 23.6807C3.592 24.042 3.8521 24.3055 4.20853 24.3055C4.44073 24.3055 4.63341 24.1547 5.52217 23.277L6.56376 22.2485L7.6031 23.277C8.49169 24.1563 8.68214 24.3055 8.91537 24.3055C9.27249 24.3055 9.53259 24.0423 9.53259 23.6807C9.53259 23.4364 9.39836 23.2662 8.5009 22.3721L7.46914 21.3441L8.5009 20.3017C9.43349 19.3594 9.53259 19.2297 9.53259 18.9507C9.53259 18.6104 9.22591 18.2857 8.90443 18.2857C8.79707 18.2857 8.32863 18.6821 7.68498 19.3177C7.11021 19.8852 6.605 20.3496 6.56229 20.3496C6.51959 20.3496 6.01438 19.8852 5.43961 19.3177C4.79596 18.6821 4.32752 18.2857 4.22015 18.2857C4.12416 18.2857 3.94362 18.3659 3.81886 18.464ZM27.1391 21.4041C29.1568 22.0905 30.6096 23.5422 31.2907 25.5525C31.5234 26.2396 31.5238 26.2448 31.5543 29.2289C31.5712 30.8726 31.5532 32.2179 31.5144 32.2186C31.4756 32.2192 31.3567 32.2431 31.2502 32.2716C31.061 32.3222 31.0564 32.3072 31.0564 31.6288C31.0564 30.8225 30.9597 30.675 30.3116 30.4938C29.2501 30.1969 27.8329 28.8064 26.9277 27.1738C26.7109 26.783 26.3996 26.591 26.1239 26.6784C26.0263 26.7094 25.7004 26.9374 25.3997 27.1852C23.6329 28.6409 19.0236 30.1623 15.3584 30.4995C13.4221 30.6776 13.4069 30.6868 13.4069 31.6746C13.4069 32.0204 13.3778 32.3029 13.3423 32.3022C13.3068 32.3016 13.1906 32.2777 13.084 32.2492L12.8903 32.1973L12.8913 29.7349C12.8918 28.3806 12.9157 27.1307 12.9444 26.9573L12.9965 26.642L13.8259 26.5913C16.7086 26.4147 16.9324 26.3618 17.5515 25.7103C18.1074 25.1252 18.2426 24.6641 18.3538 22.9726C18.3818 22.5469 18.4264 21.9546 18.4529 21.6564L18.5012 21.1142L22.4757 21.142L26.4503 21.1699L27.1391 21.4041ZM26.4293 28.799C27.2014 29.9431 28.2849 30.9575 29.2596 31.4491L29.765 31.7039V34.0925C29.765 35.938 29.7355 36.5977 29.6351 36.9937C29.166 38.845 27.6184 40.3908 25.765 40.8594C25.002 41.0524 19.4709 41.0481 18.721 40.8541C17.2187 40.4652 15.9325 39.4099 15.2503 38.0063C14.7741 37.0266 14.7015 36.5052 14.6998 34.0517L14.6983 31.8871L15.2795 31.8287C19.0611 31.4484 23.7328 29.9906 25.7185 28.5713C25.8843 28.4528 26.0434 28.354 26.0722 28.3517C26.101 28.3494 26.2617 28.5507 26.4293 28.799ZM16.9368 32.4754C16.5604 32.8514 16.8645 33.4169 17.4481 33.4263C17.6167 33.429 17.9048 33.4581 18.0881 33.4908L18.4215 33.5504L17.9829 33.96C17.5479 34.3664 17.3673 34.6115 17.3673 34.7956C17.3673 34.9559 17.7791 35.3133 17.9638 35.3133C18.148 35.3133 20.2379 33.5209 20.3283 33.2853C20.4135 33.0636 20.3896 32.9355 20.2249 32.7324C20.0863 32.5615 19.933 32.5278 18.8259 32.4254C17.1863 32.2738 17.1373 32.2751 16.9368 32.4754ZM25.5894 32.4324C24.3853 32.5561 24.2719 32.5929 24.1988 32.884C24.11 33.2371 24.2516 33.4388 25.1589 34.2518C26.4492 35.4079 26.5582 35.4631 26.9076 35.138C27.2373 34.8312 27.1549 34.5568 26.5699 34.0145L26.0439 33.5267L26.6775 33.4659C27.4756 33.3894 27.6987 33.2581 27.6987 32.8653C27.6987 32.6588 27.6417 32.5312 27.5073 32.4373C27.289 32.2845 27.0342 32.2839 25.5894 32.4324ZM13.18 33.6856C13.405 33.8624 13.4069 33.8735 13.4069 35.0186C13.4069 35.6537 13.3778 36.1731 13.3423 36.173C13.1514 36.172 12.6837 35.7811 12.4691 35.4432C11.7746 34.3493 12.3173 33.0077 13.18 33.6856ZM32.0886 33.6612C32.3276 33.8546 32.405 34.4366 32.2626 34.9702C32.1898 35.2432 32.036 35.4759 31.7375 35.7648C31.0688 36.4119 31.0382 36.377 31.0713 35.0045C31.098 33.8967 31.1101 33.8272 31.3028 33.6715C31.5574 33.4658 31.8423 33.4621 32.0886 33.6612ZM21.124 34.3736C20.8673 34.5753 20.8343 34.8414 21.0312 35.1221C21.1574 35.302 21.2275 35.3133 22.2232 35.3133C23.1545 35.3133 23.299 35.2937 23.4297 35.1494C23.5242 35.0451 23.5682 34.8814 23.5506 34.6998C23.5112 34.2913 23.2652 34.1981 22.2218 34.1966C21.4699 34.1955 21.3199 34.2197 21.124 34.3736ZM21.6715 36.0816C21.0326 36.2758 20.2732 36.9726 20.1652 37.464C20.0107 38.1667 20.8491 38.4094 21.2261 37.7711C21.4763 37.3474 21.8035 37.1623 22.3018 37.1623C22.7072 37.1623 22.7414 37.1819 23.1666 37.658C23.4324 37.9557 23.6789 38.1531 23.7837 38.1525C24.0725 38.1505 24.341 37.907 24.341 37.6472C24.341 37.343 23.923 36.6851 23.5701 36.4341C23.0566 36.0689 22.2229 35.9141 21.6715 36.0816Z" fill="#989B86"/>
</svg>
