<svg width="42" height="44" viewBox="0 0 42 44" fill="none" xmlns="http://www.w3.org/2000/svg">
<path fill-rule="evenodd" clip-rule="evenodd" d="M30.0568 0.0584989C26.3623 0.575926 23.3706 2.50916 22.0005 5.26476C21.8345 5.59868 21.6378 6.08239 21.5634 6.33977L21.4282 6.80776L19.9971 6.80767C18.5038 6.8075 17.7853 6.91 16.6501 7.28511C16.1652 7.44532 16.0378 7.454 15.3737 7.37205C14.3009 7.23953 12.1081 7.26009 10.9455 7.41341C7.7206 7.83883 4.82962 9.1652 2.80887 11.1464C0.245524 13.6596 -0.55755 16.9665 0.37581 21.1656C0.724464 22.7341 1.56974 25.0152 2.47064 26.8187C2.6597 27.1972 2.80229 27.5154 2.78759 27.5258C2.7729 27.5363 2.63604 27.6315 2.48354 27.7375C1.84723 28.1798 1.52463 29.1504 1.68858 30.129C2.01801 32.0949 3.65637 33.5022 5.62287 33.5084L6.17819 33.5102L6.51992 34.0469C7.26618 35.219 8.93769 36.665 10.0329 37.086C10.2388 37.1651 10.4071 37.2537 10.4071 37.2828C10.4071 37.3119 10.2255 37.4325 10.0036 37.5506C9.47088 37.8341 8.57092 38.6862 8.21578 39.2431C7.7904 39.9102 7.61347 40.4344 7.28712 41.9933C7.01672 43.2852 7.00168 43.4298 7.11531 43.6509C7.18374 43.7842 7.30198 43.9172 7.3781 43.9466C7.45414 43.9759 11.7178 44 16.8528 44C26.1689 44 26.1898 43.9996 26.4144 43.8217C26.5608 43.7058 26.6395 43.5602 26.6395 43.4052C26.6395 43.0722 26.1658 40.7754 25.995 40.2797C25.7695 39.6256 25.3446 39.4402 24.8919 39.7987C24.6165 40.0167 24.6198 40.0733 24.9971 41.6352L25.2464 42.6671L16.8732 42.689C12.2679 42.7011 8.49019 42.7011 8.47823 42.689C8.46627 42.677 8.5335 42.2801 8.62757 41.8071C8.86413 40.6179 9.24328 39.848 9.88865 39.2467C10.743 38.4505 11.5824 38.1524 12.9703 38.1524H13.731L13.8147 38.4574C13.9487 38.946 14.2999 39.4787 14.7662 39.9007C15.956 40.9775 17.7422 40.9628 18.9801 39.8659C19.3113 39.5725 19.7843 38.7912 19.9265 38.3029C19.9642 38.1735 20.0819 38.1524 20.7667 38.1524C21.686 38.1524 22.3799 38.3109 23.0427 38.6722C23.299 38.812 23.5895 38.9263 23.6882 38.9263C23.9444 38.9263 24.2188 38.7084 24.2821 38.4547C24.3786 38.0679 24.1401 37.7745 23.4502 37.4314C22.6591 37.038 21.8709 36.8659 20.8514 36.8639C20.1385 36.8627 20.0611 36.8468 20.0611 36.7026C20.0611 36.571 20.2222 36.5023 20.9686 36.3148C24.524 35.4221 27.0253 32.5792 27.4477 28.951L27.5027 28.478L27.9864 28.2658C28.5887 28.0016 29.4364 27.183 29.7465 26.5661C30.2194 25.6256 30.337 24.6801 30.0967 23.7514C29.8244 22.6987 29.2606 21.9887 28.5404 21.7913C28.2068 21.6999 28.1773 21.6688 28.1773 21.4087C28.1773 21.133 28.1869 21.1255 28.5404 21.1247C29.3585 21.1228 30.1955 20.464 30.4438 19.6265C30.6008 19.0967 30.6007 18.9409 30.4432 18.4071C30.1897 17.5478 29.3754 16.9118 28.5289 16.9118H28.1098L28.0719 16.5463C28.0509 16.3453 28.0391 16.1726 28.0455 16.1626C28.0519 16.1525 28.2667 16.2007 28.523 16.2698C29.2127 16.4558 30.8191 16.6538 31.6373 16.6538C33.1262 16.6538 35.5009 16.1951 36.0372 15.8038C36.3358 15.5858 36.3685 15.1544 36.1074 14.8746C35.8773 14.6281 35.8041 14.6322 34.5786 14.9599C31.3658 15.819 27.8104 15.2118 25.3656 13.3863C24.1379 12.4697 23.2801 11.3216 22.8275 9.98928C22.6252 9.3942 22.5939 9.16787 22.5954 8.3124C22.5974 7.14184 22.8063 6.37521 23.3987 5.36469C23.8439 4.60527 24.9207 3.50592 25.7705 2.94318C28.3969 1.20411 32.0673 0.788848 35.2873 1.86653C38.5322 2.95255 40.733 5.55766 40.733 8.3124C40.733 10.191 39.6691 12.0964 37.874 13.4327C37.4327 13.7611 37.3247 13.9002 37.3214 14.1442C37.3173 14.4443 37.4578 14.648 37.7366 14.7458C38.1121 14.8776 38.5717 14.6073 39.5134 13.7011C41.0902 12.1839 41.8624 10.6088 41.9867 8.65637C42.2349 4.75516 38.9939 1.24814 34.2003 0.230917C33.2254 0.0240152 30.9723 -0.0697185 30.0568 0.0584989ZM28.9148 3.1923C27.9166 3.60542 27.1964 4.49425 26.9855 5.57357C26.8635 6.1978 26.9767 6.86503 27.2812 7.31667C27.3969 7.4884 27.4497 7.64173 27.4029 7.67079C27.3576 7.699 27.2382 7.88397 27.1376 8.08176C26.8826 8.58285 26.8817 9.27269 27.1353 9.76183L27.3295 10.1362L27.1362 10.5358C26.7242 11.3868 26.9975 12.422 27.7699 12.9365L28.1221 13.1711H31.7655H35.4089L35.761 12.9365C36.5413 12.4167 36.8417 11.2744 36.3973 10.5169L36.2022 10.1846L36.395 9.78599C36.6727 9.21198 36.6581 8.56556 36.3552 8.02113L36.1215 7.60079L36.3347 7.16119C36.632 6.54831 36.6822 6.05204 36.5146 5.38421C36.258 4.36079 35.5194 3.52819 34.5417 3.15997C34.1016 2.99426 33.8906 2.98093 31.7409 2.98282C29.4813 2.9848 29.402 2.99064 28.9148 3.1923ZM34.4797 4.54826C34.9783 4.88054 35.3014 5.4696 35.3068 6.05591C35.3106 6.47195 35.2826 6.54582 35.0387 6.76527C34.8701 6.91705 34.6263 7.03117 34.398 7.06505C34.1953 7.09515 32.8693 7.10762 31.4512 7.09265C28.9845 7.06668 28.8625 7.05765 28.632 6.88429C28.4995 6.78462 28.3391 6.56577 28.2757 6.39808C28.035 5.76138 28.5754 4.72437 29.3213 4.39175C29.5293 4.29896 30.0798 4.27763 31.8574 4.29346L34.1278 4.31367L34.4797 4.54826ZM20.8499 8.10756L21.2355 8.16079L21.2926 8.79594C21.5382 11.5238 23.3042 13.9296 26.1056 15.3531C26.7008 15.6555 26.6913 15.6363 26.8022 16.7717C26.8729 17.4962 26.8664 17.5496 26.6738 17.8353C26.1791 18.5692 26.1827 19.4735 26.6834 20.2162C26.8645 20.4849 26.8958 20.6295 26.8958 21.1994V21.8677L26.6097 22.0049L26.3236 22.1422L26.1796 21.4678C25.9711 20.4915 25.9032 20.431 24.9716 20.3919C23.619 20.3352 22.5798 19.9268 21.4183 18.9951C20.6924 18.4128 20.3668 18.0638 19.6668 17.1174C19.0727 16.3141 19.0713 16.3129 18.7155 16.3111C18.4748 16.31 18.3835 16.3812 18.032 16.844C17.2366 17.8911 16.5783 18.5966 15.6989 19.3444C14.7782 20.1273 12.9291 21.407 11.7314 22.0901C10.1143 23.0124 7.41826 24.2867 5.45201 25.0581C4.91164 25.27 4.40229 25.5034 4.32001 25.5767C4.13838 25.7385 4.12804 26.1599 4.29054 26.7745C4.4169 27.252 4.40024 27.3345 4.19349 27.2546C3.9494 27.1604 2.64953 24.2194 2.07192 22.4547C1.49362 20.6876 1.31165 19.6155 1.31361 17.9867C1.31549 16.4858 1.40161 15.9818 1.86107 14.7824C2.91626 12.0284 6.07644 9.70292 9.83705 8.91332C11.5034 8.56341 13.7807 8.4702 15.405 8.68544C16.1496 8.78407 16.1976 8.77977 16.9265 8.54819C18.2778 8.11891 19.7411 7.95457 20.8499 8.10756ZM35.1828 8.57038C35.4114 8.80041 35.3982 9.04937 35.144 9.3052L34.9343 9.51632H31.7655H28.5967L28.3788 9.29703C28.2098 9.12693 28.1734 9.02555 28.2165 8.84556C28.3239 8.39684 28.3113 8.39839 31.7818 8.39839C34.8981 8.39839 35.018 8.4045 35.1828 8.57038ZM35.204 11.0754C35.3835 11.3174 35.3576 11.5639 35.1284 11.7946C35.0184 11.9054 34.5322 11.9242 31.7656 11.9242H28.5314L28.3544 11.6976C28.1327 11.414 28.1328 11.3163 28.3552 11.0318L28.533 10.8042L31.7846 10.8267L35.0363 10.8492L35.204 11.0754ZM19.7424 19.1692C21.2517 20.6908 22.5917 21.4292 24.2105 21.6315C24.5672 21.6761 24.8764 21.7301 24.8977 21.7515C24.9189 21.7729 25.2092 22.9469 25.5427 24.3603C26.1366 26.8773 26.1491 26.9541 26.151 28.0911C26.1533 29.4522 25.9967 30.1653 25.4593 31.241C24.8281 32.5045 24.1048 33.3189 22.9115 34.1095C22.0304 34.6933 21.4123 34.8936 17.9302 35.7243L14.807 36.4693L13.44 36.4709C12.126 36.4725 12.0443 36.4623 11.3279 36.2057C9.25029 35.4613 7.75726 34.0702 6.94103 32.1184C6.75828 31.6813 5.49011 26.4605 5.55641 26.4181C5.56948 26.4098 6.07994 26.1957 6.69079 25.9423C9.30018 24.8602 11.829 23.5735 13.8105 22.3201C15.5566 21.2154 17.712 19.4056 18.3952 18.4706C18.5361 18.2777 18.6618 18.1189 18.6744 18.1178C18.6871 18.1167 19.1677 18.5897 19.7424 19.1692ZM28.9893 18.4093C29.2587 18.6805 29.3329 19.0026 29.2004 19.3247C29.0616 19.6621 28.8073 19.8356 28.4517 19.8356C28.072 19.8356 27.8658 19.714 27.7007 19.3927C27.4056 18.8182 27.7929 18.2017 28.449 18.2017C28.6883 18.2017 28.8416 18.2606 28.9893 18.4093ZM20.3114 22.791C19.4394 23.0276 18.6803 23.6833 18.2934 24.5341C18.0037 25.171 17.9885 25.7315 18.2551 25.9488C18.4769 26.1296 18.7884 26.1606 19.0373 26.0264C19.135 25.9738 19.2569 25.7295 19.3472 25.4056C19.7406 23.9946 21.2703 23.5145 22.3127 24.4746C22.7373 24.8658 22.9601 24.9474 23.2456 24.8165C23.4578 24.7191 23.6493 24.4146 23.6493 24.1745C23.6493 24.0038 23.0772 23.38 22.7018 23.1415C22.0254 22.7117 21.1024 22.5763 20.3114 22.791ZM28.2247 23.0684C28.8076 23.3469 29.111 24.5487 28.8224 25.4366C28.6336 26.0177 28.2529 26.5713 27.8547 26.8436C27.6814 26.9621 27.514 27.0591 27.4828 27.0591C27.4515 27.0591 27.3839 26.8173 27.3324 26.5217C27.281 26.2261 27.2016 25.854 27.1559 25.6949C27.0814 25.4351 27.0981 25.3804 27.3195 25.1575C27.5006 24.9752 27.6484 24.9093 27.8756 24.9093C28.0902 24.9093 28.2493 24.8446 28.3947 24.6982C28.8475 24.2425 28.5006 23.6194 27.794 23.6194C27.5789 23.6194 27.2696 23.6754 27.1066 23.744C26.8351 23.8582 26.8104 23.8561 26.8104 23.7201C26.8104 23.49 27.0612 23.1838 27.3552 23.055C27.707 22.9009 27.8796 22.9036 28.2247 23.0684ZM9.74657 25.8464C9.18758 26.0552 8.88882 26.2678 8.45072 26.7687C8.05918 27.2166 7.75871 27.9386 7.75871 28.432C7.75871 28.691 7.80954 28.8068 7.98383 28.9447C8.10762 29.0428 8.27541 29.123 8.35674 29.123C8.59997 29.123 8.9376 28.796 9.00134 28.4985C9.20228 27.5613 9.89266 26.9731 10.7916 26.9731C11.287 26.9731 11.6658 27.1331 12.0954 27.5238C12.4905 27.8831 12.8709 27.933 13.141 27.6611C13.5638 27.2355 13.1032 26.4634 12.1406 25.9843C11.4792 25.6551 10.4218 25.5941 9.74657 25.8464ZM15.766 26.9685C15.2129 27.1003 14.6842 27.2774 14.5913 27.3619C14.2219 27.6985 14.4891 28.435 14.9807 28.435C15.0996 28.435 15.6956 28.3158 16.305 28.1699C17.486 27.8873 17.669 27.7723 17.669 27.313C17.669 27.0149 17.3393 26.7134 17.0228 26.722C16.8848 26.7257 16.3193 26.8367 15.766 26.9685ZM4.58742 28.8156L4.80741 29.037H4.5289C3.95009 29.037 3.23074 29.4941 3.23074 29.8619C3.23074 30.1831 3.3289 30.3406 3.60066 30.4557C3.81767 30.5475 3.91873 30.5431 4.22552 30.4287C4.56162 30.3033 4.61553 30.3036 4.88541 30.4332C5.13266 30.5519 5.19349 30.6399 5.26901 30.988C5.3183 31.2157 5.41433 31.5856 5.48242 31.8103C5.60425 32.2123 5.60314 32.2188 5.41647 32.2188C5.06687 32.2188 4.37264 31.9649 4.02108 31.7086C3.82954 31.5689 3.55393 31.2808 3.4087 31.0682C3.09866 30.6147 2.8521 29.7348 2.92523 29.3427C2.97478 29.0768 3.30763 28.6832 3.57247 28.5772C3.84022 28.47 4.36709 28.5938 4.58742 28.8156ZM18.0348 28.8005C17.9378 28.907 17.8314 29.1219 17.7986 29.2781C17.7657 29.4344 17.5982 29.7109 17.4263 29.8926C16.807 30.5472 15.9063 30.5508 15.2341 29.9015C14.8063 29.4882 14.5899 29.4199 14.2571 29.5931C13.3137 30.0842 14.5365 31.4873 16.0657 31.6683C17.4245 31.829 18.8736 30.7339 19.088 29.3844C19.1354 29.0862 19.113 28.9961 18.9471 28.8184C18.6907 28.5437 18.2766 28.5356 18.0348 28.8005ZM18.7507 37.4413C18.6795 38.2079 18.4119 38.7231 17.9067 39.0661C16.8444 39.7871 15.485 39.3269 15.0665 38.1044C15.0026 37.918 14.9615 37.754 14.975 37.7401C15.0139 37.7002 18.4618 36.8852 18.6425 36.8732C18.7912 36.8633 18.7999 36.9093 18.7507 37.4413Z" fill="#989B86"/>
</svg>
