<svg width="40" height="44" viewBox="0 0 40 44" fill="none" xmlns="http://www.w3.org/2000/svg">
<path fill-rule="evenodd" clip-rule="evenodd" d="M31.2962 0.140359C29.6863 0.579427 28.4092 1.89224 27.993 3.53589C27.3874 5.92759 28.9252 8.49527 31.3425 9.12856C31.968 9.29242 32.9903 9.29242 33.6158 9.12856C35.2151 8.70952 36.5512 7.36575 36.9678 5.75719C37.5587 3.47579 36.2184 1.01609 33.9496 0.21765C33.2178 -0.0398413 32.0785 -0.0730271 31.2962 0.140359ZM33.2758 1.38956C33.9676 1.57079 34.3626 1.79329 34.8341 2.26743C36.5616 4.00504 35.8654 7.00767 33.5525 7.79416C31.528 8.48255 29.3732 7.07525 29.1744 4.93494C29.0238 3.3121 30.0561 1.82329 31.6264 1.39884C32.2361 1.23403 32.6729 1.23162 33.2758 1.38956ZM5.57229 4.05061C4.46285 4.32083 3.23244 5.2606 2.65186 6.2812C1.86339 7.66718 1.88091 9.53796 2.69546 10.9358C3.07653 11.5899 3.96492 12.4078 4.64851 12.7339C6.49736 13.6161 8.47743 13.2745 9.92828 11.8228C11.3734 10.3767 11.6977 8.27338 10.7627 6.41033C10.4289 5.74549 9.5237 4.83185 8.83593 4.46569C7.88616 3.96008 6.61028 3.79776 5.57229 4.05061ZM7.97677 5.49995C8.91038 5.92991 9.54114 6.62569 9.85682 7.57389C10.4334 9.30592 9.36522 11.2691 7.55903 11.7973C5.28705 12.4616 2.96677 10.3722 3.39631 8.04898C3.64736 6.69146 4.51764 5.71222 5.80933 5.33377C6.4194 5.15511 7.38918 5.22939 7.97677 5.49995ZM28.8035 9.99216C27.125 10.4458 25.7655 11.7543 25.1909 13.4693C25.0067 14.0189 25.0032 14.1253 24.9737 19.9173C24.9405 26.4523 24.9439 26.5039 25.4447 27.0614C25.835 27.4959 26.3611 27.6549 27.4087 27.6549H28.2052V34.9155C28.2052 39.8704 28.235 42.316 28.2992 42.6169C28.4114 43.1432 28.7827 43.6055 29.2729 43.8296C29.78 44.0613 31.6011 44.0553 32.1159 43.8203C32.4747 43.6564 32.4836 43.6564 32.8425 43.8203C33.1372 43.9548 33.404 43.9865 34.2556 43.988C35.4061 43.9901 35.7557 43.9 36.1838 43.491C36.7446 42.9552 36.708 43.5057 36.734 35.2096L36.7576 27.676L37.7598 27.6382C38.4605 27.6117 38.8417 27.5581 39.0271 27.4601C39.4073 27.2589 39.8086 26.7663 39.9145 26.3706C39.9753 26.1436 39.9979 24.4953 39.9822 21.435C39.9598 17.0554 39.9511 16.8317 39.7959 16.6592C39.5732 16.4119 39.1449 16.4206 38.9051 16.6773L38.7192 16.8763V21.4488C38.7192 26.8726 38.8383 26.3653 37.5652 26.3653H36.7532V20.6438C36.7532 15.7905 36.7342 14.8853 36.6281 14.6791C36.4198 14.274 35.9608 14.2025 35.6568 14.528L35.471 14.727V28.5226C35.471 40.8695 35.457 42.3382 35.3379 42.5092C35.2144 42.6866 35.1388 42.7003 34.2799 42.7003C33.6191 42.7003 33.3282 42.668 33.2615 42.5871C33.1967 42.5086 33.1607 40.836 33.1442 37.1301L33.1203 31.7863L32.9327 31.5978C32.7024 31.3661 32.2887 31.3511 32.0529 31.5657C31.8841 31.7194 31.8808 31.8211 31.8795 36.9749C31.8786 41.0371 31.8538 42.2762 31.7702 42.4424C31.6644 42.6528 31.6415 42.6573 30.6841 42.6573C29.7267 42.6573 29.7038 42.6528 29.598 42.4424C29.5121 42.2718 29.4896 39.3853 29.4886 28.4502C29.4874 14.7884 29.4859 14.6714 29.3164 14.501C28.9911 14.1737 28.4573 14.3148 28.2996 14.7699C28.2344 14.9583 28.2052 16.7922 28.2052 20.7039V26.3653H27.3931C26.1106 26.3653 26.2388 27.0179 26.2408 20.4976C26.2418 17.4595 26.2777 14.7298 26.3205 14.4317C26.4243 13.7097 26.8198 12.8851 27.3205 12.3466C27.7903 11.8415 28.2246 11.5646 28.9305 11.3204C29.3928 11.1604 29.6476 11.1481 32.4712 11.1489C34.834 11.1496 35.6019 11.1768 35.9086 11.2703C37.4551 11.7425 38.4729 12.9918 38.6805 14.6729C38.7533 15.2618 38.8404 15.4319 39.1248 15.5406C39.5749 15.7128 40.0036 15.3383 40 14.7763C39.9966 14.2639 39.7299 13.3033 39.4101 12.6525C38.8481 11.5091 37.7868 10.561 36.5585 10.105C36.0412 9.91298 35.9338 9.90696 32.6501 9.88633C29.8904 9.86896 29.1878 9.8883 28.8035 9.99216ZM3.62958 13.9415C2.26515 14.2467 1.0462 15.2114 0.465875 16.4452C0.0165904 17.4004 -0.000420178 17.6462 7.2235e-06 23.1843C0.000434625 27.9631 0.0107777 28.3226 0.157376 28.6471C0.356973 29.0892 0.769586 29.439 1.24092 29.5658C1.57148 29.6548 1.6061 29.688 1.57225 29.8852C1.49796 30.3184 1.1934 33.3606 1.1934 33.6692C1.1934 34.2076 1.33743 34.3119 2.14795 34.3609L2.86026 34.4038L2.903 38.6595C2.94053 42.3971 2.96292 42.9467 3.08661 43.1733C3.42597 43.7954 3.88996 43.9899 5.03428 43.9899C5.57648 43.9899 6.02961 43.9418 6.274 43.8584C6.62327 43.7391 6.69901 43.74 7.08735 43.8677C7.41208 43.9746 7.75153 44.001 8.49281 43.9774C9.43754 43.9472 9.48096 43.9373 9.79809 43.6795C10.4575 43.1434 10.468 43.0966 10.468 40.6939V38.5586L10.2662 38.3941C10.0046 38.1809 9.61559 38.1843 9.3995 38.4016C9.2388 38.5632 9.22854 38.6882 9.22854 40.4916C9.22854 41.9034 9.19999 42.4488 9.12032 42.5584C9.02835 42.6848 8.88987 42.7035 8.20141 42.6823L7.39072 42.6573L7.34797 39.0034C7.32447 36.9938 7.27429 35.2871 7.23642 35.2107C7.16428 35.0652 6.82142 34.8767 6.62891 34.8767C6.56694 34.8767 6.41487 34.9569 6.29101 35.0549L6.06577 35.2331V38.8213C6.06577 41.5807 6.04081 42.4439 5.95755 42.5584C5.86558 42.6848 5.7271 42.7035 5.03864 42.6823L4.22795 42.6573L4.20572 38.5078L4.18358 34.3583L6.68465 34.3811L9.1858 34.4038L9.20931 35.7465C9.23051 36.9603 9.24905 37.1041 9.40275 37.2439C9.63654 37.4568 10.0508 37.4408 10.2805 37.2102C10.4546 37.0352 10.47 36.9269 10.4954 35.6947L10.5227 34.3677L11.2131 34.3427C11.8354 34.3203 11.919 34.2967 12.0625 34.1029C12.2181 33.8926 12.2169 33.8459 12.0079 31.9536C11.7364 29.4957 11.7321 29.6586 12.0708 29.5883C12.5209 29.4948 12.9539 29.1589 13.1503 28.7511C13.329 28.3798 13.3316 28.2997 13.3303 23.1356C13.3289 17.3544 13.3224 17.2703 12.7952 16.2746C12.4216 15.5689 11.5141 14.6711 10.8361 14.3362C9.91213 13.8799 9.38523 13.8156 6.62139 13.8215C4.88563 13.8252 3.98869 13.8612 3.62958 13.9415ZM9.25598 15.1857C10.3795 15.3708 11.248 16.0284 11.7353 17.0629L12.0066 17.639V22.917C12.0066 27.7934 11.9956 28.202 11.8612 28.2873C11.7812 28.3381 11.6915 28.3553 11.662 28.3257C11.6325 28.2959 11.3428 25.8446 11.0183 22.8781C10.61 19.1461 10.3898 17.4254 10.3035 17.2929C10.0556 16.9124 9.54465 16.9494 9.27231 17.3674C9.15742 17.5438 9.22281 18.2729 9.95256 24.9515C10.3966 29.0154 10.7832 32.5049 10.8115 32.7059L10.8632 33.0713H6.68721H2.51133L3.35639 25.3551C3.9268 20.146 4.17726 17.5692 4.12716 17.4242C4.02074 17.1162 3.64155 16.9505 3.3351 17.0782C3.20364 17.133 3.0555 17.2675 3.00583 17.3771C2.95617 17.4867 2.65331 19.9844 2.33285 22.9273C1.91938 26.7246 1.71867 28.2903 1.64166 28.3201C1.58199 28.3431 1.47591 28.3142 1.40599 28.2558C1.29623 28.1641 1.27888 27.4793 1.27888 23.2285C1.27888 20.2642 1.31333 18.1231 1.36555 17.8441C1.61481 16.5126 2.70494 15.4088 3.98433 15.193C4.5744 15.0934 8.66129 15.0878 9.25598 15.1857ZM19.5829 24.4797C17.3846 24.9196 16.5658 27.6143 18.1452 29.211C18.9606 30.0352 20.3298 30.2504 21.3684 29.7174C21.7615 29.5157 22.3621 28.9117 22.5626 28.5164C22.9388 27.7747 22.9381 26.674 22.5609 25.9303C22.0422 24.9078 20.7031 24.2554 19.5829 24.4797ZM20.7766 25.8968C21.2978 26.1678 21.6927 26.9431 21.5719 27.4583C21.2957 28.6361 20.0227 29.116 19.1451 28.3732C18.7828 28.0666 18.6116 27.6982 18.6116 27.225C18.6116 26.0934 19.7784 25.3776 20.7766 25.8968ZM14.4349 28.113C13.8904 28.4022 13.5472 28.9887 13.5511 29.6233C13.5529 29.9111 13.6141 30.2191 13.7033 30.3881C13.7853 30.5437 14.495 31.353 15.2803 32.1864L16.7081 33.7018L16.7508 38.2797L16.7935 42.8577L17.05 43.2238C17.191 43.4251 17.4795 43.6819 17.6911 43.7947C18.0711 43.997 18.1013 43.9991 20.2203 43.9731L22.3649 43.9469L22.7055 43.7093C22.8929 43.5786 23.1395 43.3078 23.2536 43.1075C23.4578 42.7488 23.461 42.711 23.461 40.6079V38.4725L23.2592 38.3081C22.986 38.0855 22.6343 38.0998 22.4074 38.3426C22.228 38.5348 22.2215 38.6082 22.2215 40.4787C22.2215 42.7706 22.2495 42.7003 21.3386 42.7003H20.7684V40.0407C20.7684 38.4087 20.734 37.2903 20.6796 37.1461C20.4974 36.6643 19.9974 36.5327 19.672 36.8811C19.489 37.077 19.4862 37.1234 19.4862 39.8902V42.7003H18.8939C18.4695 42.7003 18.2636 42.662 18.1673 42.5652C18.0486 42.4457 18.033 41.8982 18.033 37.8396V33.2492L16.484 31.594C15.6321 30.6835 14.8951 29.8506 14.8463 29.7429C14.7762 29.588 14.7901 29.5109 14.9126 29.3747C15.2251 29.0276 15.3865 29.1343 16.7 30.5565C17.3878 31.3013 18.071 31.9976 18.2182 32.1041C18.4737 32.2888 18.559 32.2973 20.1186 32.2945C21.2401 32.2923 21.807 32.2587 21.9288 32.187C22.0264 32.1296 22.7125 31.4345 23.4537 30.6425C24.8668 29.1323 25.0628 29.0002 25.3273 29.38C25.3953 29.4776 25.4335 29.6241 25.4123 29.7057C25.3911 29.7872 24.6646 30.6184 23.7977 31.5527L22.2215 33.2515V35.0155C22.2215 36.0944 22.2568 36.8456 22.3122 36.9499C22.5408 37.3794 23.249 37.3055 23.412 36.835C23.463 36.6882 23.5037 35.9404 23.5037 35.1535V33.7366L24.7229 32.4368C25.3933 31.7218 26.0816 30.9769 26.2523 30.7814C26.8682 30.0762 26.84 29.0618 26.1863 28.4043C25.8018 28.0175 25.4146 27.8819 24.833 27.9304C24.2364 27.9802 23.98 28.1812 22.5313 29.7354L21.3453 31.0079H20.1264H18.9076L17.5995 29.6259C16.88 28.8657 16.1462 28.1693 15.9688 28.0783C15.5211 27.8485 14.9066 27.8625 14.4349 28.113Z" fill="#989B86"/>
</svg>
