<svg width="34" height="44" viewBox="0 0 34 44" fill="none" xmlns="http://www.w3.org/2000/svg">
<path fill-rule="evenodd" clip-rule="evenodd" d="M12.5957 0.0552315C9.31423 0.423526 6.31372 1.69897 4.3393 3.56495C0.846159 6.86618 -0.0211566 12.1861 1.73156 19.5593C1.84786 20.0484 1.94279 20.4935 1.94261 20.5485C1.94244 20.6033 1.7596 20.7231 1.53617 20.8143C0.954671 21.0521 0.533171 21.4693 0.249517 22.088C0.0287727 22.5693 0.00220729 22.7225 4.39758e-05 23.5296C-0.00272507 24.5291 0.124564 25.0342 0.583706 25.8452C1.18493 26.9071 2.44372 27.797 3.66124 28.0208C4.01965 28.0867 4.22517 28.1685 4.25113 28.2555C5.02516 30.8521 7.05816 33.204 9.49656 34.3238C10.3744 34.727 11.5142 35.0435 12.5216 35.1639L13.3653 35.2648V35.59V35.9151L12.3485 35.9165C11.7892 35.9174 11.0776 35.9716 10.767 36.037C10.0498 36.1882 9.15 36.55 8.89187 36.791C8.60969 37.0545 8.62292 37.4823 8.92051 37.715C9.2174 37.9471 9.38458 37.9398 9.91711 37.6716C10.5438 37.356 11.3567 37.2084 12.4783 37.2067C13.3712 37.2053 13.4518 37.2185 13.4518 37.3657C13.4518 37.454 13.5878 37.7965 13.7541 38.1267C14.4771 39.5632 15.9382 40.3313 17.5348 40.1143C18.6857 39.9579 19.6967 39.2166 20.2451 38.1267C20.4114 37.7965 20.5475 37.454 20.5475 37.3657C20.5475 37.2185 20.628 37.2053 21.5209 37.2067C23.3218 37.2094 24.2937 37.5685 25.3517 38.6218C26.1387 39.4053 26.4051 39.9489 26.7441 41.4627L27.0137 42.6668L22.0067 42.689C19.2528 42.7012 14.7465 42.7012 11.9926 42.689L6.98556 42.6668L7.25736 41.4627C7.42955 40.6996 7.63126 40.0607 7.80796 39.7184C8.13904 39.077 8.15513 38.8472 7.88653 38.5963C7.6227 38.35 7.21712 38.353 6.98651 38.6029C6.52884 39.0987 6.24622 39.9012 5.83891 41.8611C5.51347 43.4269 5.51061 43.5914 5.80534 43.8217C6.03327 43.9999 6.03638 44 16.9996 44C27.9629 44 27.966 43.9999 28.1939 43.8217C28.4947 43.5865 28.4888 43.4279 28.1125 41.6415C27.6446 39.42 27.2767 38.6551 26.1694 37.6015C25.4139 36.8826 24.8453 36.5368 23.879 36.2087C23.2832 36.0064 23.0088 35.9681 21.9103 35.9337L20.634 35.8937V35.5604C20.634 35.2401 20.6452 35.227 20.9216 35.227C21.8916 35.227 23.7562 34.7188 24.8741 34.1497C25.3491 33.9079 25.5256 33.8642 26.009 33.8679C27.1639 33.8769 28.087 33.3408 28.5838 32.3728C28.8376 31.8784 28.8796 31.7045 28.9069 31.0352C28.9315 30.4334 28.9884 30.1553 29.1684 29.7576C29.2949 29.4781 29.4884 28.9979 29.5984 28.6906L29.7985 28.1319L30.3433 28.0242C31.5787 27.78 32.8176 26.9012 33.4155 25.8452C33.8741 25.0352 34.0019 24.5289 34 23.5296C33.9985 22.7255 33.9719 22.57 33.7579 22.1105C33.4781 21.5096 33.1803 21.1715 32.7269 20.9397C32.5485 20.8485 32.4024 20.7338 32.4024 20.685C32.4024 20.6361 32.5163 20.1602 32.6554 19.6275C33.7933 15.2714 34.0764 11.4702 33.4773 8.58784C33.2318 7.40641 32.6307 5.8787 32.2702 5.52047C32.0652 5.31671 31.5798 5.3432 31.3674 5.56984C31.1234 5.83019 31.1449 6.0441 31.484 6.72676C31.8181 7.39961 32.0524 8.11358 32.2843 9.166C32.5132 10.2044 32.5115 13.569 32.2815 15.0577C32.0683 16.4374 31.7044 18.1822 31.3594 19.4782C31.0932 20.4782 31.0613 20.5458 30.8094 20.6481C30.1072 20.9333 30.1526 20.977 30.1526 20.013C30.1526 19.539 30.1093 19.057 30.0565 18.9416C29.9576 18.7259 29.6509 18.5411 29.3916 18.5411C29.3108 18.5411 28.9428 18.4412 28.5741 18.3192C26.5904 17.6625 24.8159 15.7353 23.7147 13.0414C23.4306 12.3466 23.2755 12.1763 22.9265 12.1763C22.7109 12.1763 22.5184 12.2919 22.053 12.7011C19.0183 15.3689 13.5093 17.3552 5.86159 18.539C3.82409 18.8544 3.84668 18.8374 3.84668 20.0568C3.84668 20.8652 3.84434 20.8743 3.65198 20.8165C3.34929 20.7256 3.3248 20.6785 3.11046 19.7762C2.43299 16.9238 2.17478 14.9849 2.1785 12.7784C2.18257 10.3814 2.49668 8.78713 3.28863 7.14477C4.16987 5.31714 5.76588 3.74411 7.74064 2.75646C9.11227 2.07053 11.088 1.52394 12.8893 1.33205C15.3568 1.06929 18.7572 1.5309 21.2639 2.4691L21.9752 2.7353L23.9655 2.7513C25.7408 2.76566 26.0352 2.78871 26.6913 2.96529C27.6195 3.21506 28.7115 3.71676 29.419 4.21863C30.0436 4.66158 30.3892 4.71714 30.6684 4.4192C31.1041 3.9544 30.7361 3.42183 29.4892 2.71276C28.6738 2.249 28.0048 1.98185 26.9622 1.70378C26.1986 1.50003 25.9656 1.47973 24.1814 1.4608L22.234 1.44025L21.2393 1.10034C20.0748 0.702456 18.7057 0.37063 17.4323 0.177796C16.3365 0.0117965 13.6002 -0.0575274 12.5957 0.0552315ZM23.0322 14.6926C23.631 15.8566 24.2582 16.732 25.0867 17.5595C26.1695 18.6411 27.179 19.2753 28.357 19.6143L28.8546 19.7574L28.8541 22.8692C28.8535 25.9581 28.7682 27.1941 28.5085 27.8732L28.4121 28.1252L28.0225 27.4004C27.3731 26.1924 26.4319 25.1651 25.9737 25.1642C25.5829 25.1633 24.4689 26.4831 23.8898 27.6331C23.3538 28.6974 23.1904 29.4244 23.1884 30.7545C23.1869 31.8098 23.2053 31.9509 23.3909 32.3027C23.5032 32.5155 23.6915 32.7921 23.8094 32.9171L24.0236 33.1445L23.329 33.4108C22.0119 33.9157 21.5551 33.9502 16.6295 33.9165C12.3937 33.8876 12.1672 33.878 11.5235 33.6993C8.64811 32.9011 6.42335 30.7906 5.54773 28.0304C5.208 26.9593 5.14466 26.1573 5.14466 22.9284V19.9573L6.16142 19.8032C12.9799 18.7693 18.7404 16.818 21.933 14.4606C22.2891 14.1977 22.6 13.9827 22.624 13.983C22.6479 13.9832 22.8317 14.3025 23.0322 14.6926ZM10.2492 20.5846C10.0303 20.6931 9.87739 20.8732 9.69333 21.2394C9.47795 21.6678 9.43945 21.8458 9.43945 22.4115C9.43945 23.2814 9.76559 24.0005 10.2717 24.2463C10.5863 24.3991 10.6061 24.3991 10.9207 24.2463C11.6898 23.8727 12.0034 22.3087 11.5198 21.2587C11.2031 20.571 10.7553 20.3335 10.2492 20.5846ZM23.056 20.5846C22.8398 20.6918 22.6845 20.8725 22.5092 21.2208C21.9858 22.2609 22.2871 23.8619 23.0785 24.2463C23.3932 24.3991 23.4129 24.3991 23.7275 24.2463C24.5085 23.867 24.8224 22.3351 24.3357 21.2785C24.0099 20.5711 23.5672 20.331 23.056 20.5846ZM3.13711 22.0163C3.46195 22.1843 3.73635 22.4967 3.80678 22.7786C3.86398 23.0077 3.8574 23.0134 3.6345 22.9291C3.50703 22.881 3.18141 22.8417 2.91083 22.8419C2.08721 22.8424 1.63161 23.2482 1.85444 23.7829C1.98588 24.0983 2.28762 24.2264 2.75074 24.1634C3.1307 24.1116 3.53827 24.2477 3.73358 24.4916C3.78342 24.5539 3.84451 25.0947 3.86926 25.6935L3.91426 26.7823L3.44586 26.6221C2.56556 26.3211 1.95698 25.7552 1.527 24.8381C1.33178 24.4217 1.29647 24.2287 1.29535 23.5727C1.29422 22.9513 1.32815 22.7411 1.46703 22.5072C1.78685 21.9689 2.58927 21.733 3.13711 22.0163ZM32.0577 22.0557C32.5546 22.3198 32.7055 22.6739 32.7039 23.5727C32.7028 24.2328 32.6679 24.4206 32.4673 24.8489C32.0574 25.7235 31.4048 26.3309 30.5673 26.6173L30.085 26.7823L30.1263 25.6935L30.1676 24.6048L30.4413 24.3611C30.6886 24.1409 30.7596 24.1217 31.1772 24.1622C31.7267 24.2154 32.0099 24.1067 32.1409 23.7923C32.2717 23.4786 32.1341 23.144 31.8047 22.9747C31.5105 22.8235 30.7112 22.7982 30.3647 22.9291C30.1418 23.0134 30.1353 23.0077 30.1928 22.7786C30.3757 22.0506 31.3427 21.6757 32.0577 22.0557ZM15.3112 23.7028C15.0951 23.9401 15.1104 24.3563 15.3435 24.5881C15.5241 24.7675 15.6054 24.7768 16.9996 24.7768C18.3938 24.7768 18.4752 24.7675 18.6558 24.5881C18.8889 24.3563 18.9041 23.9401 18.688 23.7028C18.5414 23.5417 18.4238 23.5296 16.9996 23.5296C15.5755 23.5296 15.4579 23.5417 15.3112 23.7028ZM26.3245 27.1206C26.7502 27.6623 27.0147 28.18 27.3023 29.0343C27.6468 30.0577 27.7067 31.2719 27.4393 31.8067C26.9031 32.8787 25.0318 32.8254 24.5601 31.7248C24.2813 31.0746 24.4868 29.455 24.9916 28.3218C25.2242 27.7998 25.89 26.798 26.0043 26.798C26.041 26.798 26.1851 26.9432 26.3245 27.1206ZM16.2641 27.435C15.4355 27.6385 14.8316 28.0469 14.3691 28.7164C13.9601 29.3087 13.9029 29.6131 14.1435 29.9173C14.2684 30.075 14.4107 30.1524 14.5759 30.1524C14.9588 30.1524 15.0902 30.0707 15.2697 29.721C15.6733 28.9346 16.5983 28.4914 17.4247 28.6884C17.9266 28.8081 18.4897 29.2538 18.7296 29.721C18.909 30.0707 19.0404 30.1524 19.4233 30.1524C19.6829 30.1524 20.0283 29.8176 20.0283 29.5659C20.0283 29.3023 19.6575 28.6793 19.2733 28.2974C18.8152 27.8421 18.264 27.5461 17.6227 27.4108C17.0644 27.293 16.8246 27.2973 16.2641 27.435ZM19.336 36.0718C19.336 37.0913 19.1931 37.5653 18.7271 38.0915C17.8257 39.1094 16.1736 39.1094 15.2722 38.0915C14.8061 37.5653 14.6632 37.0913 14.6632 36.0718V35.227H16.9996H19.336V36.0718Z" fill="#989B86"/>
</svg>
