<svg width="40" height="39" viewBox="0 0 40 39" fill="none" xmlns="http://www.w3.org/2000/svg">
<path fill-rule="evenodd" clip-rule="evenodd" d="M31.843 0.105195C30.7358 0.305651 29.5541 0.826835 28.8527 1.42402C28.4404 1.77509 28.3942 2.12716 28.7265 2.38582C29.0127 2.6088 29.1309 2.59038 29.6838 2.2366C30.9234 1.44337 31.7129 1.19632 33.0156 1.19377C34.1603 1.1916 34.5749 1.28579 35.6301 1.78801C36.3394 2.12562 36.5357 2.26493 37.1262 2.84958C37.7139 3.43136 37.8596 3.63197 38.2018 4.33078C38.7095 5.36765 38.8794 6.1588 38.8154 7.18847C38.6603 9.68194 36.9061 11.7939 34.4619 12.4295C33.7644 12.6109 32.3315 12.607 31.6475 12.4219C28.2023 11.4895 26.4109 7.94517 27.7329 4.67659C27.942 4.15974 27.9667 4.03335 27.8933 3.85766C27.8099 3.65844 27.5329 3.47501 27.3156 3.47501C26.824 3.47501 26.233 4.96581 26.1245 6.47976L26.0746 7.17624L25.5581 7.39009C24.3783 7.87861 23.3467 8.55405 22.1885 9.59634L21.4455 10.265L20.8201 9.69014C19.24 8.23811 17.719 7.3702 15.9625 6.91836C13.2976 6.23286 10.7928 6.67549 8.7616 8.19075C7.92863 8.81216 7.64735 9.13513 7.64735 9.47026C7.64735 9.75275 7.93128 10.0537 8.19787 10.0537C8.27409 10.0537 8.61228 9.8214 8.94953 9.53752C9.71504 8.89304 10.2774 8.53323 10.9337 8.26791C12.851 7.49279 15.1305 7.61949 17.2383 8.61828C18.2599 9.1024 18.9979 9.62025 20.0128 10.5653C21.0114 11.4952 21.2852 11.6532 21.6772 11.5251C21.8214 11.478 22.3398 11.0663 22.8564 10.5887C23.7927 9.72296 24.6614 9.09783 25.5136 8.67618C26.2481 8.31288 26.24 8.31063 26.4408 8.93329C26.8119 10.0835 27.3332 10.9099 28.2458 11.7951C30.1968 13.6872 32.9527 14.2461 35.5565 13.2778L36.2452 13.0217L36.4068 13.5693C36.6525 14.4024 36.7208 14.7672 36.8019 15.6825C36.9926 17.8337 36.4222 20.0736 35.2281 21.8637C34.7461 22.5862 34.2341 23.1412 31.42 25.9918C29.6317 27.8033 27.6475 29.8134 27.0106 30.4587L25.8525 31.6322L24.9389 31.8077C24.4223 31.907 23.7705 31.9789 23.439 31.9734C23.092 31.9674 21.7405 31.7591 20.1279 31.4629C17.8473 31.0441 17.3734 30.9347 17.2199 30.792C16.9725 30.562 16.916 30.2531 17.0591 29.9139C17.2564 29.4465 17.3537 29.4357 19.2694 29.6702C21.676 29.9648 22.2737 29.992 22.8892 29.8355C25.3793 29.2019 25.4977 26.2491 23.0803 25.0709C22.3385 24.7094 19.2986 24.1419 17.8103 24.0871C16.6383 24.044 16.2063 24.0966 12.6116 24.7204L10.579 25.0732L9.43603 23.9214C8.1834 22.659 7.65806 21.9805 7.12685 20.9386C6.3368 19.3892 6.04223 17.9849 6.1043 16.0635C6.15082 14.6241 6.32828 13.8048 6.86074 12.571C7.21824 11.7427 7.24693 11.5147 7.02194 11.292C6.82548 11.0975 6.3873 11.0869 6.22227 11.2727C5.92254 11.6103 5.39665 12.9664 5.13437 14.0783C4.9132 15.0161 4.85176 17.1792 5.01788 18.1812C5.41979 20.6049 6.38394 22.4662 8.20232 24.3286L9.14279 25.2918L8.88363 25.3348C7.55229 25.556 6.71603 25.6876 6.64192 25.6876C6.59298 25.6876 6.55288 25.6053 6.55288 25.5047C6.55288 25.2968 6.21875 24.9306 5.97382 24.8702C5.88384 24.848 4.60605 24.8399 3.13438 24.8524L0.458474 24.875L0.241847 25.0895L0.0251423 25.3042L0.00403463 30.6336C-0.00941172 34.0339 0.0110705 36.0364 0.0607126 36.1657C0.103475 36.277 0.25373 36.4385 0.394526 36.5244C0.640235 36.6742 0.759845 36.6796 3.36218 36.6598L6.07373 36.6392L6.31334 36.4119C6.44538 36.2866 6.55288 36.1042 6.55288 36.0055C6.55288 35.9071 6.59572 35.8265 6.6481 35.8265C6.70055 35.8265 9.25982 36.5037 12.3354 37.3312C15.4111 38.1589 18.2236 38.8777 18.5856 38.9287C19.9873 39.1261 21.0056 38.9476 24.0943 37.963C25.0883 37.6461 27.6253 36.84 29.7322 36.1717C31.8391 35.5033 33.7346 34.8707 33.9446 34.7658C34.4871 34.4948 35.0502 33.9436 35.2994 33.4392C35.4739 33.0859 35.5137 32.899 35.5153 32.4234C35.5169 31.9224 35.4853 31.7836 35.2897 31.434C34.9322 30.7952 34.4165 30.467 33.5358 30.3175C32.9242 30.2136 32.9952 30.2036 29.9276 30.8246C28.9602 31.0204 28.1218 31.1811 28.0645 31.1817C27.9536 31.1828 28.7988 30.3018 32.9765 26.0609C34.9065 24.1019 35.7257 23.2136 36.0904 22.6845C38.0212 19.8841 38.5267 16.3264 37.464 13.0174L37.26 12.3823L37.7493 11.9338C40.1996 9.68828 40.7046 6.17667 38.991 3.29824C38.5546 2.5653 37.4133 1.4354 36.673 1.00337C35.1837 0.134373 33.4564 -0.18682 31.843 0.105195ZM32.6638 4.17158C32.5241 4.30988 32.5075 4.42954 32.5075 5.29382V6.26127H31.6592C30.7517 6.26127 30.3612 6.34718 30.2387 6.57387C30.1117 6.80877 30.1518 7.07609 30.3404 7.25139C30.4997 7.39961 30.6219 7.4195 31.4935 7.439L32.4684 7.4609L32.4905 8.42603C32.5102 9.28892 32.5303 9.40989 32.68 9.56762C32.8571 9.7543 33.1271 9.79401 33.3644 9.66831C33.5933 9.54703 33.6801 9.16044 33.6801 8.26203V7.42221H34.6573C35.5303 7.42221 35.6512 7.40572 35.7909 7.26742C35.9883 7.07191 35.9916 6.71961 35.798 6.4827C35.6578 6.31119 35.5887 6.29842 34.6706 6.27443L33.6926 6.24888L33.6668 5.28066C33.6426 4.37172 33.6297 4.30331 33.4564 4.16453C33.2172 3.9729 32.8613 3.97608 32.6638 4.17158ZM21.2354 14.701C21.1627 14.7429 20.5823 15.6818 19.9454 16.7874C19.3085 17.8931 18.7699 18.7979 18.7484 18.7981C18.7269 18.7983 18.398 18.3106 18.0175 17.7143C17.3161 16.6153 17.1204 16.3982 16.8352 16.4026C16.5678 16.4067 16.442 16.5594 15.7015 17.7775L14.9861 18.9542H13.2066C11.4476 18.9542 11.4251 18.9563 11.2571 19.1333C11.0166 19.3868 11.0325 19.7518 11.2931 19.9547C11.4889 20.1072 11.5948 20.1151 13.4393 20.1151C14.6613 20.1151 15.448 20.0842 15.5647 20.0316C15.676 19.9814 15.9624 19.5945 16.2828 19.0613C16.576 18.5736 16.8474 18.185 16.886 18.1977C16.9245 18.2104 17.2663 18.708 17.6453 19.3034C18.4035 20.4944 18.5885 20.6639 18.9628 20.5104C19.1585 20.4301 19.3954 20.0732 20.3572 18.4095C20.9945 17.3072 21.5352 16.4244 21.5589 16.4478C21.5825 16.4712 22.2907 17.7325 23.1328 19.2508C25.1638 22.9132 24.9818 22.8512 26.465 20.3877L27.4651 18.7267L29.8194 18.7243C32.0809 18.7221 32.1818 18.7157 32.3796 18.5616C32.6489 18.3519 32.6605 17.9672 32.4047 17.7293C32.2263 17.5635 32.1861 17.5611 29.6077 17.5611C27.4285 17.5611 26.9642 17.5801 26.8271 17.6752C26.7366 17.738 26.3176 18.3655 25.8962 19.0695C25.4747 19.7735 25.1039 20.3229 25.0723 20.2904C25.0405 20.2579 24.34 19.0122 23.5154 17.5224C22.6909 16.0325 21.9604 14.77 21.8919 14.7168C21.7442 14.602 21.4202 14.5942 21.2354 14.701ZM20.1832 25.5671C21.2449 25.757 22.2736 25.9842 22.4796 26.0742C22.9306 26.2714 23.3195 26.6268 23.5326 27.0363C23.9862 27.9081 23.2381 28.7793 22.0318 28.784C21.8383 28.7847 20.7453 28.6742 19.6028 28.5383C17.763 28.3195 17.4841 28.3027 17.1631 28.3917C15.7801 28.775 15.3511 30.6281 16.4158 31.6191C16.5593 31.7527 16.7875 31.9172 16.9229 31.9847C17.3323 32.1888 22.7457 33.1374 23.5172 33.1403C24.0454 33.1423 24.9272 32.9972 27.8169 32.4331C29.8162 32.0428 31.6456 31.6724 31.8821 31.6101C32.9284 31.3343 33.6721 31.3927 34.0896 31.7835C34.6723 32.3291 34.2495 33.3995 33.2952 33.7942C32.5717 34.0935 21.5111 37.5514 20.8469 37.6859C19.9691 37.8637 19.2572 37.876 18.4357 37.7274C18.1132 37.6691 15.3222 36.9389 12.2335 36.1048C9.14482 35.2707 6.60275 34.5882 6.58454 34.5882C6.56632 34.5882 6.56054 32.8575 6.57172 30.7423L6.59197 26.8964L10.8917 26.1759C16.5085 25.2346 16.4629 25.2412 17.4292 25.2316C18.0972 25.2249 18.6362 25.2906 20.1832 25.5671ZM5.38023 30.7571V35.5169H3.26947H1.1587V30.7571V25.9972H3.26947H5.38023V30.7571Z" fill="#989B86"/>
</svg>
