<svg width="20" height="20" viewBox="0 0 20 20" fill="none" xmlns="http://www.w3.org/2000/svg">
<g clip-path="url(#clip0_173_847)">
<path fill-rule="evenodd" clip-rule="evenodd" d="M6.62068 0.0568421C7.63092 0.0103349 7.95302 0 10.5264 0C13.0998 0 13.4219 0.0111962 14.4313 0.0568421C15.4407 0.102488 16.1297 0.263541 16.7325 0.496938C17.3638 0.735502 17.9366 1.10842 18.4102 1.59072C18.8925 2.06354 19.2646 2.63541 19.5023 3.26756C19.7366 3.87043 19.8968 4.55943 19.9433 5.56708C19.9898 6.57904 20.0001 6.90115 20.0001 9.47368C20.0001 12.0471 19.9889 12.3692 19.9433 13.3794C19.8976 14.3871 19.7366 15.0761 19.5023 15.6789C19.2646 16.3112 18.8919 16.884 18.4102 17.3575C17.9366 17.8398 17.3638 18.2119 16.7325 18.4496C16.1297 18.6838 15.4407 18.844 14.433 18.8905C13.4219 18.937 13.0998 18.9474 10.5264 18.9474C7.95302 18.9474 7.63092 18.9362 6.62068 18.8905C5.61302 18.8449 4.92403 18.6838 4.32116 18.4496C3.68893 18.2118 3.11612 17.8392 2.64259 17.3575C2.16062 16.8844 1.78765 16.3119 1.54967 15.6798C1.31628 15.0769 1.15608 14.3879 1.10958 13.3803C1.06307 12.3683 1.05273 12.0462 1.05273 9.47368C1.05273 6.90029 1.06393 6.57818 1.10958 5.5688C1.15522 4.55943 1.31628 3.87043 1.54967 3.26756C1.788 2.63548 2.16126 2.06295 2.64345 1.58986C3.11631 1.10799 3.68855 0.735023 4.32029 0.496938C4.92317 0.263541 5.61216 0.103349 6.61982 0.0568421H6.62068ZM14.3546 1.76211C13.3556 1.71646 13.0559 1.70699 10.5264 1.70699C7.99694 1.70699 7.69723 1.71646 6.69819 1.76211C5.77407 1.80431 5.27283 1.95847 4.93867 2.08852C4.49685 2.26077 4.18077 2.46488 3.84919 2.79646C3.53488 3.10225 3.29299 3.4745 3.14125 3.88593C3.0112 4.2201 2.85704 4.72134 2.81484 5.64545C2.76919 6.6445 2.75972 6.94421 2.75972 9.47368C2.75972 12.0032 2.76919 12.3029 2.81484 13.3019C2.85704 14.226 3.0112 14.7273 3.14125 15.0614C3.29283 15.4722 3.53484 15.8452 3.84919 16.1509C4.15494 16.4653 4.52785 16.7073 4.93867 16.8589C5.27283 16.9889 5.77407 17.1431 6.69819 17.1853C7.69723 17.2309 7.99608 17.2404 10.5264 17.2404C13.0568 17.2404 13.3556 17.2309 14.3546 17.1853C15.2788 17.1431 15.78 16.9889 16.1142 16.8589C16.556 16.6866 16.8721 16.4825 17.2036 16.1509C17.518 15.8452 17.76 15.4722 17.9116 15.0614C18.0416 14.7273 18.1958 14.226 18.238 13.3019C18.2836 12.3029 18.2931 12.0032 18.2931 9.47368C18.2931 6.94421 18.2836 6.6445 18.238 5.64545C18.1958 4.72134 18.0416 4.2201 17.9116 3.88593C17.7393 3.44411 17.5352 3.12804 17.2036 2.79646C16.8978 2.48217 16.5256 2.24028 16.1142 2.08852C15.78 1.95847 15.2788 1.80431 14.3546 1.76211ZM9.31637 12.3942C9.99215 12.6755 10.7446 12.7134 11.4453 12.5016C12.146 12.2897 12.7513 11.8412 13.158 11.2326C13.5647 10.6239 13.7475 9.893 13.6752 9.16459C13.6028 8.43618 13.2798 7.75548 12.7613 7.23876C12.4308 6.90845 12.0312 6.65553 11.5912 6.49821C11.1512 6.34089 10.6818 6.28309 10.2168 6.32895C9.75178 6.37482 9.30272 6.52321 8.90194 6.76346C8.50116 7.00371 8.15864 7.32983 7.89902 7.71834C7.63941 8.10685 7.46916 8.5481 7.40055 9.0103C7.33193 9.47251 7.36664 9.94418 7.50219 10.3914C7.63774 10.8385 7.87076 11.2501 8.18446 11.5964C8.49815 11.9427 8.88474 12.2152 9.31637 12.3942ZM7.08316 6.03043C7.53534 5.57826 8.07215 5.21957 8.66294 4.97486C9.25374 4.73014 9.88695 4.60419 10.5264 4.60419C11.1659 4.60419 11.7991 4.73014 12.3899 4.97486C12.9807 5.21957 13.5175 5.57826 13.9697 6.03043C14.4218 6.4826 14.7805 7.01941 15.0252 7.61021C15.27 8.201 15.3959 8.83421 15.3959 9.47368C15.3959 10.1132 15.27 10.7464 15.0252 11.3372C14.7805 11.928 14.4218 12.4648 13.9697 12.9169C13.0565 13.8301 11.8179 14.3432 10.5264 14.3432C9.23495 14.3432 7.99637 13.8301 7.08316 12.9169C6.16996 12.0037 5.65692 10.7652 5.65692 9.47368C5.65692 8.18221 6.16996 6.94364 7.08316 6.03043ZM16.4759 5.32938C16.5879 5.22368 16.6776 5.09657 16.7397 4.95558C16.8017 4.81458 16.8349 4.66258 16.8371 4.50855C16.8394 4.35453 16.8107 4.20162 16.7528 4.05888C16.6949 3.91614 16.6089 3.78647 16.5 3.67755C16.3911 3.56862 16.2614 3.48266 16.1186 3.42475C15.9759 3.36684 15.823 3.33816 15.669 3.34041C15.5149 3.34265 15.3629 3.37578 15.2219 3.43782C15.081 3.49987 14.9538 3.58958 14.8481 3.70163C14.6426 3.91955 14.53 4.209 14.5344 4.50855C14.5388 4.8081 14.6597 5.09415 14.8715 5.30599C15.0834 5.51782 15.3694 5.63876 15.669 5.64313C15.9685 5.6475 16.258 5.53495 16.4759 5.32938Z" fill="white"/>
</g>
<defs>
<clipPath id="clip0_173_847">
<rect width="20" height="20" fill="white"/>
</clipPath>
</defs>
</svg>
