<svg width="45" height="44" viewBox="0 0 45 44" fill="none" xmlns="http://www.w3.org/2000/svg">
<path fill-rule="evenodd" clip-rule="evenodd" d="M22.1297 0.127239C21.8172 0.368026 21.7966 0.669166 21.7966 5.00378V9.27707H17.2655C12.3998 9.27707 12.3141 9.28446 12.0042 9.73323C11.8834 9.90796 11.8608 10.2172 11.8608 11.6919C11.8608 13.321 11.8733 13.4591 12.0406 13.6748C12.2429 13.9355 12.6901 14.0898 13.2456 14.0905L13.6193 14.091V15.0717V16.0523H7.15224C0.0756466 16.0523 0.303819 16.0355 0.0846158 16.572C0.0118117 16.7503 -0.0129838 17.2865 0.0062723 18.2678C0.0327385 19.6134 0.046719 19.7153 0.230576 19.9014C0.356048 20.0284 0.577538 20.1175 0.846069 20.1488L1.26548 20.1976L1.30945 24.8189L1.35341 29.4403L1.56101 29.6106C1.84326 29.8423 2.15364 29.8247 2.4125 29.5621L2.62836 29.3434V24.7475V20.1517L8.10185 20.1746L13.5753 20.1976L13.5977 31.4525L13.62 42.7074H8.12419H2.62836V37.3706C2.62836 32.1064 2.6259 32.0305 2.44609 31.7988C2.21774 31.5045 1.74715 31.4767 1.4853 31.7422C1.31314 31.9168 1.30945 32.0394 1.30945 37.6273V43.334L1.61042 43.667L1.9114 44H22.4916H43.0717L43.3591 43.7086L43.6466 43.4172L43.6906 31.8074L43.7345 20.1976L44.1539 20.1488C44.4225 20.1175 44.644 20.0284 44.7694 19.9014C44.9533 19.7153 44.9673 19.6134 44.9937 18.2678C45.013 17.2865 44.9882 16.7503 44.9154 16.572C44.6962 16.0355 44.9244 16.0523 37.8478 16.0523H31.3807V15.0717V14.091L31.7544 14.0905C32.3099 14.0898 32.7571 13.9355 32.9594 13.6748C33.1268 13.4591 33.1392 13.321 33.1392 11.684C33.1392 10.0471 33.1268 9.90903 32.9594 9.6933C32.8604 9.56581 32.6329 9.42024 32.4538 9.36978C32.2501 9.31246 30.4381 9.27787 27.6188 9.2776L23.1095 9.27707L23.1345 8.31873L23.1595 7.3604L26.0459 7.31582L28.9324 7.27125L29.2333 6.93828L29.5342 6.60523L29.5339 4.26386C29.5336 2.07261 29.5222 1.9035 29.3561 1.62732C29.04 1.10162 28.8736 1.0755 25.8441 1.0755H23.1155V0.722387C23.1155 0.139809 22.5538 -0.199308 22.1297 0.127239ZM28.2153 4.19566V5.97861H25.6654H23.1155V4.19566V2.41271H25.6654H28.2153V4.19566ZM31.8203 11.684V12.7538H27.6877C23.6723 12.7538 23.5501 12.7589 23.3793 12.9321C23.1571 13.1574 23.1536 13.5631 23.3715 13.836L23.5394 14.0465L26.8006 14.0728L30.0618 14.0992V28.4033V42.7074H29.2265H28.3911V41.7685C28.3911 41.1722 28.3469 40.7221 28.2699 40.5354C28.1269 40.1884 27.7466 39.8621 27.4043 39.7927L27.1602 39.7432V35.6953C27.1602 31.3031 27.1546 31.2479 26.6753 30.8657C26.4349 30.674 26.4014 30.6725 22.5 30.6725C18.5986 30.6725 18.5651 30.674 18.3247 30.8657C17.8454 31.2479 17.8398 31.3031 17.8398 35.6953V39.7432L17.5957 39.7927C17.2534 39.8621 16.8731 40.1884 16.7301 40.5354C16.6531 40.7221 16.6089 41.1722 16.6089 41.7685V42.7074H15.7735H14.9382V28.3992V14.091H17.8707C20.8926 14.091 21.2771 14.0523 21.4467 13.731C21.5851 13.4688 21.5464 13.1242 21.3569 12.9321C21.1863 12.7591 21.0639 12.7538 17.1804 12.7538H13.1797V11.684V10.6143H22.5H31.8203V11.684ZM21.7063 15.7858C19.9401 16.0648 18.3663 17.2273 17.6045 18.8158C17.1377 19.7889 17.0079 20.3544 17.0107 21.4011C17.0162 23.5237 18.1465 25.3599 20.0597 26.3544C20.824 26.7517 21.567 26.9256 22.5 26.9256C23.4694 26.9256 24.2066 26.7436 25.0595 26.2937C26.3058 25.6363 27.2549 24.4871 27.7386 23.0495C27.9433 22.4412 27.9781 22.1939 27.9764 21.3565C27.9748 20.5449 27.9348 20.2518 27.7441 19.6558C27.3441 18.4052 26.6024 17.4126 25.5191 16.6779C24.4369 15.944 22.9328 15.5922 21.7063 15.7858ZM23.5991 17.228C25.0783 17.6009 26.362 19.0617 26.6309 20.678C26.9687 22.7081 25.6845 24.8032 23.723 25.4221C23.0168 25.645 21.9832 25.645 21.277 25.4221C19.3199 24.8046 18.0299 22.7167 18.3641 20.7076C18.7877 18.1618 21.1292 16.6054 23.5991 17.228ZM13.6193 18.1027V18.8158H7.46438H1.30945V18.1027V17.3895H7.46438H13.6193V18.1027ZM43.6906 18.1027V18.8158H37.5356H31.3807V18.1027V17.3895H37.5356H43.6906V18.1027ZM22.008 19.0926C21.8646 19.2531 21.8361 19.4524 21.8098 20.4799C21.7559 22.5853 21.7978 22.6492 23.2321 22.6492C24.1593 22.6492 24.2411 22.635 24.4191 22.4429C24.6727 22.1691 24.6628 21.8029 24.3944 21.5308C24.2129 21.3467 24.0942 21.312 23.647 21.312H23.1155V20.256C23.1155 19.3463 23.0932 19.1797 22.9547 19.0525C22.724 18.8409 22.2135 18.8625 22.008 19.0926ZM42.3716 31.4302V42.7074H36.8762H31.3807V31.4897C31.3807 25.3199 31.4071 20.2451 31.4393 20.2125C31.4715 20.1798 33.9445 20.1531 36.9348 20.1531H42.3716V31.4302ZM4.45427 23.5332L4.16709 23.7931L4.13984 25.5968C4.11064 27.5351 4.14968 27.7769 4.54255 28.0902C4.75234 28.2575 4.91448 28.2655 8.11372 28.2651C11.278 28.2649 11.4807 28.2551 11.7455 28.0915C11.9338 27.975 12.0563 27.807 12.1187 27.5792C12.2617 27.057 12.2397 24.2251 12.0899 23.8615C11.8421 23.2603 11.9286 23.2732 8.1496 23.2732H4.74144L4.45427 23.5332ZM33.2375 23.4186C32.8536 23.6911 32.7875 24.0363 32.7875 25.7693C32.7875 27.5716 32.8577 27.8919 33.3038 28.1259C33.5318 28.2453 34.049 28.2655 36.8962 28.2655C40.5394 28.2655 40.467 28.2756 40.7455 27.7296C40.936 27.356 40.936 24.1827 40.7455 23.8091C40.4666 23.2623 40.5458 23.2732 36.8322 23.2732C33.8404 23.2732 33.4181 23.2903 33.2375 23.4186ZM7.46438 25.7693V26.9283H6.45321H5.44204V25.7693V24.6104H6.45321H7.46438V25.7693ZM10.8936 25.7693V26.9283H9.83842H8.78329V25.7693V24.6104H9.83842H10.8936V25.7693ZM36.2167 25.7693V26.9283H35.1616H34.1064V25.7693V24.6104H35.1616H36.2167V25.7693ZM39.558 25.7693V26.9283H38.5468H37.5356V25.7693V24.6104H38.5468H39.558V25.7693ZM4.45427 30.2192L4.16709 30.4792L4.13984 32.2829C4.11064 34.2211 4.14968 34.4629 4.54255 34.7763C4.75234 34.9436 4.91448 34.9515 8.11372 34.9512C11.278 34.9509 11.4807 34.9412 11.7455 34.7775C11.9338 34.6611 12.0563 34.493 12.1187 34.2653C12.2617 33.7431 12.2397 30.9112 12.0899 30.5476C11.8421 29.9464 11.9286 29.9593 8.1496 29.9593H4.74144L4.45427 30.2192ZM33.2375 30.1047C32.8536 30.3772 32.7875 30.7224 32.7875 32.4554C32.7875 34.2109 32.8515 34.5308 33.256 34.7996C33.4615 34.9361 33.8276 34.9515 36.8535 34.9515C40.5437 34.9515 40.4668 34.9621 40.7455 34.4157C40.936 34.0421 40.936 30.8688 40.7455 30.4951C40.4666 29.9484 40.5458 29.9593 36.8322 29.9593C33.8404 29.9593 33.4181 29.9764 33.2375 30.1047ZM7.46438 32.4554V33.6143H6.45321H5.44204V32.4554V31.2965H6.45321H7.46438V32.4554ZM10.8936 32.4554V33.6143H9.83842H8.78329V32.4554V31.2965H9.83842H10.8936V32.4554ZM36.2167 32.4554V33.6143H35.1616H34.1064V32.4554V31.2965H35.1616H36.2167V32.4554ZM39.558 32.4554V33.6143H38.5468H37.5356V32.4554V31.2965H38.5468H39.558V32.4554ZM21.7966 35.8876V39.7655H20.4777H19.1588V35.8876V32.0097H20.4777H21.7966V35.8876ZM25.8412 35.8899V39.7701L24.5004 39.7455L23.1595 39.7209L23.1365 35.8653L23.1136 32.0097H24.4774H25.8412V35.8899ZM27.0722 41.905V42.7074H22.5H17.9278V41.905V41.1027H22.5H27.0722V41.905Z" fill="#989B86"/>
</svg>
