<svg width="42" height="44" viewBox="0 0 42 44" fill="none" xmlns="http://www.w3.org/2000/svg">
<path fill-rule="evenodd" clip-rule="evenodd" d="M15.1541 0.0920581C12.1368 0.406968 9.16086 1.58279 6.69315 3.43519C5.78461 4.11719 4.05975 5.84271 3.38708 6.7423C1.78813 8.88116 0.695209 11.3988 0.233531 14.007C-0.10121 15.8979 -0.0739105 18.4202 0.301392 20.2828C1.45339 25.9997 5.42007 30.6887 10.9117 32.8252C11.9717 33.2375 12.2335 33.4163 12.5384 33.9357C12.8211 34.4173 12.8477 35.0115 12.6519 36.4732C12.5171 37.4803 12.5408 37.5973 12.924 37.8146C13.2111 37.9774 13.6301 37.814 13.7538 37.491C13.9087 37.0863 14.1346 35.1477 14.0874 34.6278C14.0365 34.0677 13.6722 33.2101 13.2972 32.7674C12.9371 32.3423 12.3945 32.0043 11.5537 31.6813C10.4594 31.2609 9.76955 30.9367 8.98742 30.4754C4.20796 27.656 1.27986 22.5265 1.27986 16.973C1.27986 10.1961 5.5595 4.24572 11.9745 2.10308C15.9902 0.76194 20.2435 1.07865 24.0703 3.00396C24.7267 3.33426 25.5987 3.84415 26.0081 4.13714L26.7524 4.66981L26.7517 5.57714C26.7511 6.57861 26.909 7.22889 27.3318 7.96446C27.469 8.20337 28.5398 9.35142 29.8856 10.7026L32.2031 13.0292L32.3709 13.8405C33.4085 18.8573 31.8747 24.1031 28.2785 27.837C26.5996 29.5803 24.8274 30.7402 22.3516 31.7165C21.1996 32.1707 20.6308 32.645 20.2064 33.5055C19.805 34.3189 19.7938 34.9562 20.1387 37.3428C20.4581 39.5536 20.4426 39.9442 20.0004 40.8266C18.9694 42.8838 16.2488 43.3421 14.5946 41.7372C14.2364 41.3897 13.6811 40.4402 13.6809 40.1751C13.6809 40.1224 13.6005 39.9773 13.5023 39.8527C13.2644 39.5507 12.8411 39.5438 12.5648 39.8375C12.3954 40.0175 12.3746 40.1034 12.425 40.4178C12.4575 40.6207 12.6217 41.0726 12.79 41.422C13.3705 42.627 14.5556 43.5554 15.9245 43.8775C18.2246 44.4187 20.5796 43.1227 21.401 40.8635C21.7362 39.9416 21.7411 39.3842 21.4324 37.262C21.0975 34.9594 21.1051 34.3816 21.4771 33.8564C21.8366 33.3491 22.0163 33.2369 23.297 32.7202C25.5327 31.8183 27.41 30.5581 29.0999 28.825C32.001 25.8497 33.5751 22.3701 33.9293 18.1492C34.0242 17.0178 33.9528 15.2309 33.7776 14.3566L33.7278 14.1081H34.3371C35.4041 14.1081 35.6495 13.9434 37.8574 11.7451C39.6672 9.94324 39.7746 9.81858 39.7746 9.51786C39.7746 9.1291 39.5101 8.84875 39.1434 8.84875C38.9269 8.84875 38.5912 9.14354 36.8915 10.8261C34.8058 12.8906 34.846 12.8613 34.1769 12.804C34.0585 12.7938 33.8648 12.7343 33.7463 12.6717C33.6279 12.6091 32.4209 11.4429 31.064 10.08C29.2557 8.26372 28.539 7.48594 28.3796 7.16691C26.9948 4.39539 29.8384 1.4718 32.6544 2.77176C32.8997 2.88498 33.3442 3.19611 33.642 3.46304C33.9398 3.72998 34.2426 3.94843 34.3151 3.94843C34.528 3.94843 34.795 3.77873 35.2534 3.35188C36.3001 2.37715 37.7644 2.18054 39.0163 2.84672C40.3418 3.55194 41.0169 5.12657 40.6031 6.54758C40.4163 7.18909 40.4272 7.43273 40.6521 7.64181C40.8833 7.85691 41.2465 7.86774 41.4813 7.66666C41.9236 7.28787 42.1476 5.6381 41.8928 4.6362C41.4969 3.07927 40.327 1.82746 38.8335 1.36253C37.4901 0.944369 35.7076 1.26151 34.715 2.09534C34.5712 2.21613 34.4296 2.315 34.4003 2.315C34.3711 2.315 34.1137 2.15586 33.8283 1.9614C33.046 1.42838 32.2458 1.18087 31.2977 1.17881C30.8683 1.17786 30.3425 1.22429 30.1294 1.28197C29.599 1.42537 28.8259 1.81748 28.3987 2.15965C28.054 2.43561 27.4187 3.16842 27.3528 3.36598C27.3342 3.42178 26.9535 3.22233 26.4642 2.90045C25.3311 2.15492 24.661 1.79264 23.5724 1.33734C20.9068 0.222475 18.0103 -0.206001 15.1541 0.0920581ZM16.0457 3.87458C11.5054 4.13791 7.34171 6.89404 5.24844 11.0216C3.1798 15.1007 3.34833 19.8355 5.70142 23.7485C7.54495 26.8139 10.5208 28.955 14.1108 29.7987C15.4529 30.1141 17.7163 30.1715 19.1493 29.9264C21.9435 29.4484 24.212 28.2662 26.2598 26.221C28.2203 24.2629 29.3769 22.1051 29.9282 19.377C30.1731 18.1652 30.1518 15.5452 29.8874 14.3667C29.5962 13.069 29.32 12.2847 28.7462 11.127C27.4999 8.61173 25.5303 6.60165 23.0664 5.33032C20.8305 4.1766 18.6465 3.72379 16.0457 3.87458ZM19.7372 5.44337C20.7542 5.68805 21.8625 6.11085 22.6733 6.56348C23.1191 6.81237 23.2274 6.9163 23.2718 7.13802C23.3017 7.28692 23.3261 8.17285 23.3261 9.10666V10.8046L23.0569 10.8583C22.4089 10.9877 20.2719 11.0951 19.3646 11.0438C18.0927 10.972 17.3866 10.8693 16.2506 10.5911C15.3774 10.3772 15.3218 10.3733 15.1109 10.5112C14.6476 10.8143 14.7425 11.4267 15.2881 11.6541C15.8198 11.8759 17.4975 12.1853 18.7418 12.291C20.0231 12.3998 21.4868 12.3529 23.0247 12.1537C24.4543 11.9685 24.763 11.9869 25.3779 12.2937C25.9808 12.5944 26.3625 13.0077 26.5531 13.5661C26.8239 14.3595 26.651 15.5686 26.1432 16.4337C25.7052 17.1798 24.7483 17.9149 23.8281 18.2122C23.3975 18.3513 23.341 18.441 23.1937 19.2197C22.5384 22.6837 20.2419 25.5535 17.0491 26.8985C16.073 27.3096 16.006 27.3959 16.006 28.242V28.7998L15.5539 28.7463C14.8808 28.6667 13.4478 28.3185 12.8159 28.081C10.0688 27.0487 7.74862 24.9723 6.41241 22.3504C5.87348 21.2929 5.56966 20.426 5.31432 19.2171C5.07241 18.0717 5.05398 16.0434 5.27522 14.9128C5.62357 13.1321 6.41155 11.3017 7.41715 9.93688C7.91577 9.2602 9.38684 7.73113 9.53935 7.73113C9.58026 7.73113 9.8356 8.00185 10.1068 8.33275C10.9465 9.35735 12.2633 10.3962 12.7223 10.3962C13.1822 10.3962 13.4591 9.95588 13.2846 9.50195C13.2562 9.42784 12.9938 9.19693 12.7015 8.98879C12.0943 8.55619 11.0409 7.52506 10.8173 7.1443L10.6665 6.8875L11.5063 6.45834C13.0479 5.67051 14.501 5.26361 16.1352 5.16242C17.3563 5.08677 18.6859 5.19045 19.7372 5.44337ZM26.8571 10.4035C28.1405 12.3547 28.7232 14.1857 28.8113 16.5447C28.8913 18.688 28.5456 20.2933 27.5898 22.2172C26.4079 24.5965 24.6016 26.4061 22.2346 27.5821C20.8553 28.2675 18.8912 28.7939 17.7132 28.7939C17.2988 28.7939 17.2978 28.7932 17.2978 28.5037C17.2978 28.2237 17.3243 28.2009 18.0513 27.8526C19.6999 27.0629 21.3823 25.6714 22.408 24.2493C23.3406 22.9562 24.2192 20.9744 24.4034 19.7482C24.4575 19.388 24.495 19.3342 24.7501 19.2501C25.2186 19.0958 26.07 18.5015 26.5642 17.9841C26.8186 17.7176 27.1817 17.2022 27.3711 16.8388C27.833 15.9525 28.0013 15.2003 27.9595 14.2103C27.93 13.5128 27.8904 13.3524 27.6055 12.777C27.0992 11.7545 26.2261 11.0698 25.113 10.8226L24.6178 10.7128L24.62 9.28642L24.6221 7.86009L25.4738 8.72779C25.9513 9.21412 26.5592 9.95055 26.8571 10.4035ZM24.5152 13.7436C24.2021 13.9894 23.7846 14.8343 23.6743 15.4447C23.5398 16.1893 23.7472 16.5861 24.2709 16.5861C24.5864 16.5861 24.818 16.2855 24.9318 15.7281C25.0032 15.3787 25.1519 15.0303 25.3551 14.7357C25.6849 14.2576 25.6966 14.0507 25.4124 13.7276C25.2365 13.5276 24.7799 13.5358 24.5152 13.7436ZM7.32974 15.083C6.70116 15.2193 6.10101 15.526 5.64303 15.9448C5.36306 16.2009 5.32086 16.2872 5.34377 16.5564C5.36254 16.7769 5.43859 16.9204 5.5998 17.0401C5.88364 17.2507 6.12624 17.2009 6.58335 16.8382C7.08111 16.4432 7.45771 16.3069 8.08318 16.2954C8.72683 16.2836 9.0564 16.3978 9.71193 16.8596C10.2465 17.236 10.3834 17.2569 10.6982 17.0097C11.0375 16.7432 11.0132 16.3022 10.6396 15.9515C10.216 15.5537 9.54056 15.2184 8.88236 15.0791C8.18291 14.9312 8.02815 14.9316 7.32974 15.083ZM17.2452 15.0806C16.5762 15.2259 16.0889 15.4747 15.61 15.9153C15.1441 16.344 15.0915 16.7221 15.4579 17.0097C15.7526 17.2411 15.9163 17.2344 16.2732 16.9763C17.4902 16.0961 18.4622 16.0456 19.5441 16.8061C20.1577 17.2375 20.2814 17.2612 20.6017 17.0097C20.7709 16.8768 20.8286 16.7537 20.8286 16.5255C20.8286 15.9672 19.9048 15.316 18.7731 15.0764C18.0889 14.9317 17.9289 14.9321 17.2452 15.0806ZM10.7804 21.4071C10.5627 21.4874 10.3223 21.8097 10.3223 22.0211C10.3223 22.2831 10.8941 22.8205 11.4989 23.127C12.0596 23.4111 12.1114 23.4207 13.0754 23.4207C14.0264 23.4207 14.0981 23.4079 14.6422 23.1405C15.2466 22.8435 15.8338 22.2847 15.8338 22.0068C15.8338 21.915 15.7444 21.7361 15.6352 21.6094C15.3904 21.3252 15.0438 21.3081 14.7277 21.5645C14.6019 21.6666 14.2949 21.8486 14.0455 21.969C13.2483 22.354 12.1581 22.2039 11.5279 21.6224C11.2715 21.3859 11.0279 21.3157 10.7804 21.4071Z" fill="#989B86"/>
</svg>
