<svg width="46" height="44" viewBox="0 0 46 44" fill="none" xmlns="http://www.w3.org/2000/svg">
<path fill-rule="evenodd" clip-rule="evenodd" d="M6.40966 0.0903448C5.50356 0.308241 4.6344 1.02602 4.23334 1.88774L3.99336 2.40337L3.96963 11.3972C3.94716 19.8935 3.93718 20.3876 3.78986 20.3269C3.07395 20.0319 2.07068 20.0426 1.47665 20.3515C1.06373 20.5662 0.52417 21.1082 0.329036 21.5043C0.255422 21.6537 0.1499 21.9918 0.0944429 22.2556C-0.203876 23.6751 0.213627 25.1606 1.21815 26.2534C1.97766 27.0796 2.86551 27.5631 3.95713 27.745C4.24422 27.7929 4.29293 27.8417 4.39243 28.1821C4.56977 28.7887 5.1638 30.0148 5.60162 30.6781C6.74852 32.4157 8.52765 33.7911 10.5851 34.531C11.2917 34.7851 12.56 35.0379 13.1282 35.0379C13.4626 35.0379 13.4759 35.0495 13.4759 35.3408V35.6437L12.3292 35.7022C10.9547 35.7723 10.3491 35.9153 9.35762 36.4042C8.12075 37.014 7.04926 38.1781 6.49046 39.519C6.27717 40.0308 5.65618 42.8662 5.65618 43.3283C5.65618 43.5229 5.72629 43.6966 5.85293 43.8154C6.04869 43.9991 6.10325 44 17.139 44C24.2007 44 28.2882 43.9678 28.3929 43.9114C28.7405 43.724 28.7457 43.4039 28.4268 41.8274C28.2606 41.0059 28.0599 40.13 27.9807 39.8811C27.5386 38.4911 26.3002 37.0582 24.9809 36.4106C23.9709 35.9148 23.3704 35.7724 21.993 35.7022L20.8463 35.6437V35.3539V35.064L21.5562 35.0044C22.847 34.8959 24.2246 34.4525 25.4585 33.7483L26.0966 33.3841L26.8644 33.582C27.7464 33.8093 28.9226 33.9477 29.9918 33.95L30.7333 33.9516V34.4424C30.7333 34.9118 30.7219 34.9356 30.4689 34.9915C30.0067 35.0938 29.4787 35.5554 29.2445 36.0618L29.0274 36.5316L29.0265 40.0395C29.0256 43.4122 29.0324 43.5543 29.2031 43.7262C29.4691 43.9941 29.6482 44.0135 31.5783 43.9829L33.3558 43.9547L33.5726 43.7007C33.7819 43.4555 33.7893 43.3975 33.7893 42.0157V40.5846L34.1941 40.5288C34.9812 40.4201 35.728 39.8682 36.048 39.1589C36.2442 38.7239 36.2824 37.0467 36.1093 36.465C35.9926 36.0728 35.3243 35.2622 35.0436 35.1725C34.8933 35.1244 34.8679 35.0323 34.8679 34.534V33.9516L35.5645 33.9501C37.1398 33.9465 38.8277 33.6442 39.8738 33.1783C40.6366 32.8384 40.8042 32.4914 40.434 32.0175C40.1889 31.7036 39.9861 31.7134 38.8816 32.0918C37.5284 32.5555 36.6577 32.6171 32.0816 32.5723C28.2275 32.5346 28.1595 32.5308 27.3178 32.3023C25.8039 31.8914 24.6238 31.2336 23.5591 30.2075C22.446 29.1347 21.7695 28.0702 21.3077 26.6643C20.8658 25.3193 20.835 24.7084 20.8643 17.8833L20.8912 11.637L32.7818 11.614L44.6724 11.5911L44.644 18.494C44.616 25.3191 44.6134 25.4051 44.4148 26.1211C44.0097 27.581 43.2382 28.9283 42.1512 30.0736C41.487 30.7735 41.3946 31.0164 41.652 31.3864C41.8339 31.6481 42.1851 31.7208 42.4929 31.5605C42.8793 31.3592 43.8223 30.2971 44.3965 29.4163C44.9933 28.5009 45.3962 27.5745 45.7281 26.3542L45.9639 25.4875L45.9926 18.2001C46.0085 14.1921 45.9979 10.8185 45.9693 10.7031C45.8516 10.231 45.9021 10.2339 37.8405 10.2339H30.3809L30.3549 6.27335L30.3289 2.31284L30.0206 1.74018C29.6634 1.07671 29.1841 0.622908 28.4863 0.287329L27.9919 0.0496987L19.5186 0.0248041L11.0453 0L10.8225 0.224414C10.5393 0.509661 10.5385 0.856193 10.8204 1.14008L11.0409 1.36232H19.2965H27.5521L28.0253 1.59977C28.3334 1.75439 28.5824 1.96514 28.7395 2.20412L28.9806 2.57093L29.0059 6.4L29.0311 10.229L24.4815 10.254L19.9318 10.2791L19.7149 10.5331C19.577 10.6946 19.498 10.8999 19.498 11.0971V11.4071L13.1983 11.4315L6.89862 11.456L6.72677 11.6697C6.57082 11.8637 6.555 12.0455 6.555 13.6438C6.555 15.7854 6.49271 16.0864 5.9278 16.6767C5.6977 16.9171 5.46158 17.1138 5.40307 17.1138C5.32199 17.1138 5.29665 15.4091 5.29665 9.95866C5.29665 3.09562 5.30366 2.78983 5.46814 2.46764C5.90138 1.61942 6.44714 1.36232 7.81452 1.36232C8.75181 1.36232 8.82318 1.34929 9.03081 1.14008C9.15215 1.01787 9.25147 0.812379 9.25147 0.68338C9.25147 0.55438 9.15215 0.348887 9.03081 0.226677C8.8203 0.0145746 8.76179 0.0048884 7.74998 0.0136694C7.16692 0.0188294 6.56372 0.0533197 6.40966 0.0903448ZM19.498 18.542C19.498 21.9911 19.5357 24.6242 19.5916 25.0825C19.7363 26.269 20.0111 27.2073 20.5319 28.2938C21.3145 29.9267 22.4013 31.2037 23.8296 32.1688C24.2123 32.4274 24.5268 32.6658 24.5284 32.6985C24.5327 32.7829 23.3365 33.272 22.6439 33.4688C22.1101 33.6205 21.641 33.6348 17.206 33.6348C12.4115 33.6348 12.3431 33.6323 11.5884 33.4251C8.43677 32.5602 6.04312 29.9584 5.42383 26.7242C5.32694 26.2179 5.29665 25.1724 5.29665 22.3277V18.5955L5.81347 18.3805C6.43519 18.1217 7.21231 17.4116 7.50047 16.8388C7.79987 16.2438 7.90323 15.5318 7.90323 14.0645V12.7686H13.7006H19.498V18.542ZM26.1044 19.0452C25.5712 19.2218 25.3531 19.3578 24.8651 19.8175C24.3456 20.3069 23.9552 21.0142 24.0434 21.3062C24.1401 21.626 24.3617 21.8212 24.6279 21.8212C25.0171 21.8212 25.1554 21.7336 25.339 21.3714C25.5562 20.9424 26.0398 20.5137 26.4663 20.3719C27.2503 20.1114 28.309 20.474 28.6515 21.1205C29.0165 21.8094 29.5429 22.0243 29.9244 21.6401C30.4434 21.1174 29.7134 19.8683 28.5345 19.2621C28.078 19.0273 27.8708 18.9785 27.2279 18.9546C26.7619 18.9372 26.3237 18.9725 26.1044 19.0452ZM37.285 19.1374C36.442 19.4868 35.9527 19.9223 35.5827 20.6528C35.3571 21.098 35.3606 21.3746 35.5951 21.628C35.7364 21.7808 35.8639 21.8242 36.1098 21.8035C36.3922 21.7797 36.4799 21.711 36.7534 21.2991C37.1884 20.6441 37.6232 20.3525 38.242 20.3008C39.1077 20.2285 39.5285 20.4787 40.3351 21.5448C40.617 21.9176 41.0614 21.9303 41.34 21.5737C41.5925 21.2502 41.5307 20.9305 41.0914 20.289C40.2696 19.0886 38.6128 18.5874 37.285 19.1374ZM10.1671 20.2366C9.38557 20.8989 9.33344 22.7386 10.0721 23.5861C10.294 23.8405 10.4139 23.9033 10.6789 23.9033C11.1249 23.9033 11.3866 23.697 11.6421 23.1445C12.0737 22.2109 11.8453 20.6005 11.2185 20.1584C10.9101 19.9408 10.4782 19.973 10.1671 20.2366ZM3.22585 21.593C3.5408 21.7571 3.85853 22.1494 3.85853 22.3743C3.85853 22.5157 3.82366 22.5275 3.62798 22.4526C3.33739 22.3413 2.67937 22.3384 2.39525 22.4472C1.83214 22.6629 1.68904 23.2853 2.12335 23.6294C2.32604 23.7899 2.44001 23.8121 2.81994 23.7648C3.20527 23.7167 3.32211 23.7407 3.58889 23.9223L3.90347 24.1364L3.92873 25.242C3.94895 26.1304 3.92972 26.3475 3.83076 26.3475C3.54772 26.3475 2.59164 25.77 2.24182 25.3877C1.62882 24.7179 1.38677 24.0926 1.38686 23.1791C1.38695 22.2909 1.5073 21.9743 1.96184 21.6661C2.31777 21.4248 2.84439 21.3943 3.22585 21.593ZM15.4533 23.2696C15.2596 23.4647 15.2201 23.8145 15.3616 24.0808C15.507 24.3544 15.9599 24.4464 17.1611 24.4464C18.3623 24.4464 18.8152 24.3544 18.9606 24.0808C19.1021 23.8145 19.0626 23.4647 18.8689 23.2696C18.7032 23.1027 18.5693 23.0885 17.1611 23.0885C15.7529 23.0885 15.619 23.1027 15.4533 23.2696ZM28.2059 25.4428C28.1259 25.4899 28.0094 25.6523 27.9472 25.8038C27.8445 26.0533 27.861 26.1344 28.1237 26.6717C29.4101 29.3036 32.8173 30.2662 35.3965 28.7267C36.1141 28.2983 36.9424 27.3988 37.3079 26.651C37.557 26.1415 37.5756 26.0501 37.4784 25.8136C37.4159 25.6618 37.2519 25.4993 37.0949 25.4339C36.7078 25.2724 36.4179 25.4576 36.0865 26.0784C35.3126 27.528 33.6504 28.3637 32.1097 28.0778C30.9013 27.8534 29.9213 27.166 29.3965 26.1744C28.9991 25.4235 28.6272 25.1949 28.2059 25.4428ZM16.181 26.6597C15.2952 26.9495 14.2851 27.9406 14.1446 28.6573C14.0216 29.2845 14.8358 29.6967 15.2701 29.2272C15.3708 29.1183 15.4533 28.9974 15.4533 28.9588C15.4533 28.7931 16.0654 28.2067 16.3963 28.0552C17.2682 27.6564 18.2062 27.9732 18.8462 28.8828C19.1886 29.3694 19.2604 29.4253 19.5428 29.4253C19.9191 29.4253 20.2171 29.1637 20.2171 28.8333C20.2171 28.217 19.3722 27.211 18.527 26.8209C17.9007 26.5319 16.8021 26.4564 16.181 26.6597ZM33.5197 34.4043V34.8569H32.8006H32.0816V34.4043V33.9516H32.8006H33.5197V34.4043ZM19.4812 36.0564C19.4523 36.8711 19.407 37.1472 19.2547 37.4369C18.4906 38.8904 16.6774 39.1762 15.5328 38.0234C15.0002 37.4869 14.8242 36.9439 14.8242 35.8362V35.0379H17.1708H19.5175L19.4812 36.0564ZM31.0766 36.4637C31.0207 36.6006 30.9749 37.1608 30.9749 37.7085C30.9749 38.2561 31.0207 38.8163 31.0766 38.9532L31.1782 39.2021H30.776H30.3738V37.9521C30.3738 36.6576 30.407 36.5238 30.7783 36.3193C31.1 36.1421 31.1902 36.1857 31.0766 36.4637ZM34.2748 36.341C34.7699 36.5494 34.8679 36.7783 34.8679 37.7272C34.8679 38.5233 34.8549 38.5803 34.6088 38.8577C34.3717 39.1249 34.2972 39.1523 33.7324 39.1796C32.8079 39.2242 32.4058 38.9221 32.2956 38.1003C32.1758 37.2078 32.4999 36.3769 33.0059 36.2782C33.4392 36.1938 33.9897 36.221 34.2748 36.341ZM13.5319 37.1879C13.5597 37.275 13.7192 37.6352 13.8865 37.9883C14.633 39.5637 16.3942 40.4089 18.0433 39.9831C18.8035 39.7868 19.3021 39.4775 19.891 38.8369C20.3363 38.3525 20.4615 38.1189 20.8068 37.129C20.8722 36.9415 22.8923 37.0634 23.6557 37.3009C24.7913 37.6541 25.8867 38.5927 26.4311 39.6789C26.577 39.9701 26.7963 40.6642 26.9184 41.2215C27.0404 41.7788 27.1608 42.3264 27.1858 42.4384L27.2313 42.6421H17.1724H7.11353L7.32556 41.6337C7.67772 39.9588 7.9622 39.3173 8.69842 38.5375C9.68245 37.4951 10.8302 37.0746 12.7821 37.0414C13.3755 37.0313 13.4892 37.0535 13.5319 37.1879ZM32.4216 41.5784L32.3961 42.5969L31.385 42.6225L30.3738 42.6481V41.604V40.56H31.4104H32.447L32.4216 41.5784Z" fill="#989B86"/>
</svg>
