<svg width="40" height="44" viewBox="0 0 40 44" fill="none" xmlns="http://www.w3.org/2000/svg">
<path fill-rule="evenodd" clip-rule="evenodd" d="M18.1802 0.0527428C16.0443 0.281266 13.7815 0.926757 11.8853 1.84851C7.37605 4.04017 4.55322 7.52685 3.61398 12.0646C3.44053 12.9027 3.42034 13.2707 3.40735 15.8317C3.3934 18.577 3.38577 18.6968 3.17256 19.4884C2.91689 20.438 2.42583 21.4883 1.50764 23.0491C0.447018 24.8521 0.081839 25.9457 0.011749 27.5288C-0.0569548 29.0822 0.156521 30.0149 1.16351 32.5603C1.44084 33.2613 1.48684 33.4751 1.48736 34.0654C1.48788 34.6997 1.45306 34.8366 1.04109 35.8172C0.504545 37.0943 0.362026 37.7794 0.499953 38.418C0.69125 39.3033 1.33376 40.1445 2.12467 40.5451C2.67552 40.8241 3.38291 40.9031 5.33045 40.9031H7.17722V42.2401C7.17722 43.545 7.18233 43.5822 7.38991 43.7882C7.80656 44.2019 8.41796 43.9797 8.51153 43.3806C8.53596 43.2243 8.57555 42.3609 8.59938 41.4621C8.64625 39.6969 8.74528 39.0514 9.18323 37.654L9.46021 36.7702L9.28468 36.5359C9.09763 36.2862 8.8521 36.2112 8.50512 36.2977C8.35099 36.336 8.23377 36.4798 8.08605 36.8114C7.86867 37.2993 7.48807 38.6362 7.39243 39.2474L7.33525 39.6129H5.38858C3.07951 39.6129 2.78737 39.5599 2.27083 39.0471C1.60086 38.3821 1.58336 37.7766 2.19528 36.4313C2.66365 35.4015 2.78641 34.8067 2.73677 33.8079C2.69934 33.0566 2.6419 32.8053 2.28443 31.8292C1.39128 29.3907 1.3503 29.2372 1.3062 28.16C1.24001 26.5461 1.60415 25.349 2.7184 23.5181C3.74705 21.8278 4.24132 20.6996 4.54585 19.3471C4.67356 18.7799 4.69972 18.2022 4.70709 15.7887C4.71653 12.6875 4.73793 12.4931 5.23116 11.0153C6.33648 7.70334 8.80566 4.85139 12.0289 3.16366C16.7766 0.677764 22.9747 0.642845 27.7886 3.0749C28.4273 3.3976 29.0002 3.66156 29.0617 3.66156C29.3082 3.66156 29.6453 3.26394 29.6453 2.97323C29.6453 2.60349 29.4187 2.42364 28.1869 1.81582C26.561 1.01363 24.7858 0.454745 22.9611 0.17066C21.9436 0.012319 19.1928 -0.0555414 18.1802 0.0527428ZM31.5775 4.78594C31.4106 4.91616 31.3492 5.04311 31.3492 5.25727C31.3492 5.50041 31.454 5.66434 31.9638 6.21858C33.3832 7.76182 34.4927 9.82266 35.0518 11.9541C35.2743 12.8022 35.2795 12.8852 35.2887 15.7027C35.2986 18.747 35.3319 19.0919 35.7401 20.3864C35.9781 21.141 36.5746 22.3801 37.1392 23.2927C37.6725 24.1545 38.1645 25.1608 38.4211 25.9141C38.9008 27.323 38.7739 29.1243 38.068 30.9261C37.4562 32.4878 37.3293 32.8833 37.2323 33.5304C37.1079 34.3606 37.2548 35.1373 37.7569 36.304C38.4193 37.843 38.4139 38.3667 37.7284 39.0471C37.2121 39.5597 36.9192 39.6129 34.6166 39.6129H32.6759L32.5318 38.8852C32.2173 37.2962 31.5216 35.6751 30.5373 34.2374C30.0453 33.5188 28.5157 31.8825 27.9339 31.4524L27.681 31.2654L28.141 30.8184C29.175 29.8132 30.1799 28.3369 30.6954 27.0657L30.951 26.4354L31.4374 26.4901C32.7759 26.6403 34.2113 25.8254 34.7984 24.5818C35.0025 24.1495 35.0313 23.9822 35.0313 23.2284C35.0313 22.4548 35.0068 22.3208 34.7875 21.8953C34.2534 20.859 33.1944 20.1059 32.1544 20.023L31.6091 19.9795V17.7708C31.6091 15.276 31.5537 14.9388 31.0477 14.3519C30.5577 13.7837 30.1975 13.6646 28.7934 13.6069C27.4348 13.5511 26.4821 13.3513 25.7895 12.9771C25.5501 12.8477 24.9779 12.4201 24.518 12.0268C23.5484 11.1976 22.5687 10.6727 21.761 10.5495C21.4669 10.5046 20.5061 10.4905 19.6257 10.518C16.9005 10.6033 15.7429 10.1985 14.8095 8.834C14.4341 8.2851 14.3355 8.21999 13.8806 8.21999C13.5402 8.21999 13.1852 8.50966 13.1256 8.83615C12.8614 10.2829 12.7609 10.6693 12.5147 11.1873C12.1979 11.8537 11.6893 12.4257 11.1878 12.6796C11.0071 12.771 10.5471 12.9653 10.1655 13.1114C9.38952 13.4084 8.89204 13.8183 8.63871 14.3696C8.4968 14.6783 8.48042 14.9833 8.47869 17.3466L8.47679 19.9795L7.90896 20.0248C6.0576 20.1724 4.6331 22.0294 5.00226 23.8141C5.15284 24.5424 5.47374 25.0924 6.06548 25.6362C6.73866 26.2549 7.32511 26.4748 8.33522 26.4873L9.10335 26.4967L9.42131 27.2292C9.96557 28.483 10.767 29.6713 11.7568 30.6921L12.3222 31.2752L11.9806 31.5431C11.3998 31.9985 10.0212 33.4363 9.90718 33.7054C9.77072 34.0277 9.82556 34.2387 10.1019 34.4545C10.4388 34.7175 10.6749 34.6686 11.0449 34.2589C11.6395 33.6006 12.6855 32.6082 13.0457 32.3607L13.3989 32.1181L14.1919 32.5878C14.6281 32.8461 15.275 33.1674 15.6296 33.3018L16.2742 33.5461V34.6327C16.2742 36.349 16.5085 37.1517 17.2392 37.9386C18.0869 38.8518 18.982 39.2199 20.225 39.1667C20.9076 39.1376 21.0939 39.0938 21.6113 38.841C22.3835 38.4636 23.0092 37.8403 23.3857 37.0733C23.6769 36.4801 23.6805 36.458 23.7242 35.0228L23.7684 33.572L24.5267 33.2478C24.9438 33.0695 25.5676 32.7547 25.9129 32.5484C26.2582 32.3421 26.571 32.16 26.608 32.1438C26.7161 32.0965 27.8428 33.0498 28.4563 33.7078C29.4911 34.8173 30.448 36.4226 30.911 37.826C31.3192 39.063 31.4446 39.9201 31.4968 41.8309C31.5467 43.6539 31.5478 43.6627 31.763 43.8306C32.0359 44.0437 32.3124 44.0453 32.5742 43.8352C32.7714 43.6768 32.7797 43.6218 32.8063 42.287L32.834 40.9031H34.6748C37.2131 40.9031 37.7675 40.7805 38.5765 40.0402C39.304 39.3745 39.6513 38.3968 39.4975 37.4481C39.4522 37.1691 39.2125 36.4487 38.9648 35.8472C38.5523 34.8452 38.5145 34.6958 38.5135 34.0654C38.5126 33.4739 38.5576 33.2628 38.8345 32.5603C39.8443 29.9986 40.0554 29.0783 39.9888 27.5288C39.9182 25.8888 39.5071 24.7215 38.2685 22.644C37.4551 21.2796 37.1031 20.5126 36.8245 19.4973C36.6015 18.6844 36.5979 18.6264 36.6155 16.1757C36.635 13.4646 36.5789 12.8135 36.2003 11.3593C35.6263 9.15472 34.453 6.99764 32.9254 5.33872C32.214 4.56619 31.9812 4.47064 31.5775 4.78594ZM15.6244 11.1965C16.7707 11.7378 17.0406 11.7796 19.4798 11.7935C22.1024 11.8083 22.2398 11.842 23.338 12.7379C24.9505 14.0534 25.4739 14.3695 26.469 14.6289C27.0732 14.7864 28.3081 14.9251 29.124 14.9272C30.3459 14.9303 30.3097 14.8009 30.3088 19.1602C30.3081 22.7012 30.2533 23.7214 30.0024 24.8626C29.7096 26.1948 29.1473 27.5117 28.4019 28.6111C27.5691 29.8396 25.8853 31.2389 24.4832 31.8678C22.0285 32.9689 19.1281 33.112 16.567 32.2585C14.8472 31.6854 13.2141 30.5753 12.1509 29.2565C10.9307 27.7431 10.2923 26.313 9.94582 24.3165C9.79325 23.4377 9.77635 22.9182 9.77635 19.1065V14.8726L9.97293 14.6893C10.0811 14.5884 10.5146 14.3678 10.9363 14.199C12.3244 13.6435 13.0572 13.0193 13.6198 11.9133C13.7776 11.6029 13.977 11.0916 14.0628 10.7768L14.2189 10.2045L14.6184 10.5573C14.8382 10.7514 15.2909 11.039 15.6244 11.1965ZM17.5738 15.8436C17.0634 16.1099 16.6512 16.2567 16.2309 16.3221C15.5619 16.4263 15.4288 16.4969 15.3083 16.8116C15.1965 17.1033 15.3613 17.4689 15.6598 17.5916C16.3594 17.8793 18.7338 16.9949 19.0374 16.3335C19.1727 16.0386 19.0342 15.6779 18.7334 15.5419C18.4316 15.4053 18.3965 15.4145 17.5738 15.8436ZM21.4252 15.6558C20.9985 16.0794 21.1912 16.4843 22.0454 16.9584C23.1476 17.5704 24.4638 17.8131 24.8419 17.474C25.0602 17.2783 25.0927 16.7259 24.8955 16.5635C24.8245 16.505 24.4834 16.4047 24.1374 16.3407C23.748 16.2685 23.2108 16.0758 22.727 15.8345C22.2972 15.62 21.8763 15.4447 21.7916 15.4447C21.7071 15.4447 21.5422 15.5397 21.4252 15.6558ZM12.8724 19.2885C12.3294 19.4292 12.3157 21.4483 12.8507 22.4939C13.1197 23.0195 13.701 23.5731 14.2809 23.8558C14.7034 24.0618 14.8573 24.0884 15.6244 24.0877C16.3682 24.0871 16.546 24.0581 16.8807 23.8828C18.185 23.1996 18.7001 22.254 18.7001 20.5426C18.7001 19.7109 18.6858 19.6371 18.4874 19.4402C18.2324 19.187 17.9265 19.1699 17.6484 19.3933C17.4597 19.5448 17.4402 19.6376 17.3966 20.5889C17.353 21.5397 17.3294 21.6524 17.0934 22.0307C16.2672 23.3548 14.1865 22.993 13.857 21.4678C13.8046 21.2252 13.7617 20.7024 13.7617 20.3061C13.7617 19.6301 13.7476 19.5745 13.5334 19.4073C13.3097 19.2326 13.1792 19.2092 12.8724 19.2885ZM21.5016 19.4503C21.2813 19.669 21.2792 19.6843 21.3192 20.7189C21.3845 22.4076 21.8362 23.2306 23.0131 23.8058C23.5441 24.0653 23.6589 24.0885 24.4163 24.0885C25.1275 24.0885 25.3086 24.0571 25.7305 23.8607C26.9398 23.2979 27.5343 22.1757 27.5364 20.4519C27.5374 19.7199 27.3738 19.3498 27.0149 19.2715C26.8054 19.2258 26.6803 19.2525 26.5087 19.3793C26.2926 19.5391 26.2781 19.5986 26.2268 20.528C26.197 21.0671 26.1263 21.6244 26.0696 21.7663C25.9308 22.114 25.5733 22.4763 25.1617 22.6863C24.6748 22.9349 23.8755 22.8771 23.3903 22.5583C22.8257 22.1874 22.6623 21.7754 22.6046 20.5759C22.5594 19.6395 22.539 19.5443 22.3509 19.3933C22.0695 19.1673 21.7662 19.1877 21.5016 19.4503ZM8.47679 22.3491C8.47679 23.3086 8.58907 24.6401 8.701 25.0083C8.76945 25.2334 8.24564 25.2951 7.67201 25.1295C6.76725 24.8685 6.13367 23.9287 6.25747 23.0317C6.31431 22.6204 6.61 22.0424 6.89426 21.787C7.19455 21.5172 7.73196 21.3002 8.10857 21.2967L8.47679 21.2932V22.3491ZM32.3999 21.4246C34.2547 22.052 34.2217 24.5691 32.3514 25.1231C31.4215 25.3985 31.3163 25.3142 31.4257 24.3819C31.4724 23.984 31.5367 23.1263 31.5687 22.4758C31.6347 21.1325 31.6139 21.1588 32.3999 21.4246ZM18.7867 26.2715C18.1228 26.4842 17.7875 26.6712 17.3473 27.074C17.0444 27.3511 16.9673 27.4799 16.9673 27.7084C16.9673 28.3276 17.6066 28.5385 18.1218 28.0894C19.1856 27.1622 20.8137 27.1622 21.8774 28.0894C22.3926 28.5385 23.0319 28.3276 23.0319 27.7084C23.0319 27.2097 22.1837 26.5578 21.1318 26.2481C20.5076 26.0644 19.3987 26.0755 18.7867 26.2715ZM19.0249 34.1175C19.9438 34.2138 21.5383 34.1386 22.2305 33.9663C22.4249 33.9179 22.4255 33.9211 22.4255 34.9885C22.4255 36.015 22.4143 36.0813 22.1554 36.5957C21.7016 37.4972 20.8825 37.9478 19.8331 37.8733C19.1461 37.8245 18.634 37.5757 18.1919 37.0758C17.7324 36.5562 17.6395 36.237 17.5939 35.021L17.5525 33.9123L17.8014 33.9638C17.9382 33.9921 18.4889 34.0612 19.0249 34.1175Z" fill="#989B86"/>
</svg>
