<svg width="44" height="44" viewBox="0 0 44 44" fill="none" xmlns="http://www.w3.org/2000/svg">
<path fill-rule="evenodd" clip-rule="evenodd" d="M35.9276 0.0906632C35.8094 0.136585 35.2581 0.739701 34.7026 1.43086C33.8669 2.4705 33.6925 2.73696 33.6925 2.97417C33.6925 3.18125 33.7555 3.31073 33.919 3.43987C34.3566 3.78558 34.5893 3.65359 35.4548 2.56847C35.833 2.09423 36.1882 1.66798 36.2439 1.6212C36.3149 1.56164 37.1777 2.03087 39.1238 3.18738C40.652 4.09564 41.9288 4.86526 41.9611 4.89772C41.9935 4.93017 40.5755 5.74589 38.81 6.71043C37.0446 7.67497 35.5383 8.53264 35.4629 8.61628C35.2627 8.83838 35.2904 9.25341 35.5193 9.46264C35.6257 9.55993 36.0315 9.82243 36.4212 10.046C36.811 10.2695 37.1454 10.4783 37.1645 10.51C37.1989 10.5671 29.98 13.9744 29.9233 13.9278C29.9071 13.9143 30.5551 12.932 31.3633 11.7447C33.2352 8.99488 33.2173 9.12738 31.824 8.32763L31.1163 7.92132L32.177 6.61168C32.7605 5.89134 33.2648 5.21658 33.2976 5.11214C33.4425 4.65214 32.8943 4.17488 32.453 4.37678C32.2443 4.47225 29.713 7.53314 29.5554 7.88058C29.3904 8.24424 29.6141 8.52987 30.4453 9.01663C30.858 9.25824 31.2168 9.47723 31.2427 9.50313C31.2685 9.52911 31.0645 9.88173 30.7894 10.2867L30.289 11.0229L29.9516 10.3636C29.4735 9.42933 28.7272 8.33488 28.0986 7.64657L27.5595 7.05623L27.1571 4.2006C26.8052 1.70398 26.7324 1.32693 26.5778 1.20125C26.4232 1.07548 26.0091 1.05036 23.2768 1.00056C20.3247 0.946781 20.1408 0.952392 19.9377 1.10285C19.5729 1.37329 19.6126 1.73859 20.0984 2.58297C20.3306 2.98651 20.5151 3.32221 20.5086 3.32894C20.5019 3.33568 20.3031 3.3065 20.0667 3.26403C19.8303 3.22156 18.6504 3.16269 17.4447 3.13317C14.113 3.0516 12.4568 3.2327 10.6059 3.88104C6.59439 5.28607 3.43579 8.61378 2.2657 12.6677C1.82426 14.1971 1.78359 14.6057 1.7382 17.9625L1.69548 21.128L1.43474 21.2364C0.344422 21.6898 -0.221155 23.1687 0.0806751 24.777C0.214698 25.4911 0.683303 26.3928 1.22644 26.9818L1.71276 27.5092V32.9958V38.4823L1.92011 38.7245L2.12746 38.9667L4.33475 38.9925C6.01188 39.0121 6.53163 39.0432 6.49836 39.122C6.13189 39.9913 5.98334 40.506 5.71366 41.8407C5.41226 43.3328 5.40237 43.4318 5.53545 43.6357C5.61291 43.7543 5.77461 43.889 5.89488 43.9349C6.03251 43.9875 10.0391 44.01 16.7132 43.9959C26.9992 43.9739 27.3183 43.9684 27.4938 43.8088C27.7413 43.5839 27.7271 43.3188 27.3789 41.666C27.08 40.247 26.941 39.7636 26.694 39.2839L26.5582 39.0205L28.8006 38.9935C31.0387 38.9668 31.0432 38.9663 31.2071 38.7629C31.365 38.567 31.3713 38.344 31.3713 33.0424V27.5256L31.8452 27.0422C32.4831 26.3914 32.9779 25.3799 33.0745 24.529C33.2527 22.9606 32.7578 21.7621 31.7104 21.2255L31.3713 21.0518L31.357 18.0325C31.3492 16.3718 31.3395 14.95 31.3355 14.873C31.3284 14.7332 31.5903 14.6044 37.0406 12.0703C38.0547 11.5988 38.9734 11.129 39.0823 11.0263C39.3244 10.798 39.3376 10.4461 39.1133 10.2042C39.0214 10.1052 38.5947 9.82053 38.1652 9.57158C37.7357 9.32272 37.3683 9.09311 37.3487 9.06135C37.3292 9.02958 38.7324 8.22905 40.4671 7.2823C42.2016 6.33563 43.7081 5.47537 43.8147 5.37066C44.0616 5.12828 44.0618 4.80881 43.8151 4.53923C43.5935 4.29719 36.2971 -0.033896 36.1683 0.00020025C36.1541 0.00391199 36.0458 0.0446549 35.9276 0.0906632ZM25.5849 2.3575C25.6106 2.37908 26.2993 7.36465 26.2993 7.529C26.2993 7.65287 26.2076 7.67583 25.7125 7.67583C25.2015 7.67583 25.1002 7.70302 24.9286 7.88654L24.7314 8.09724L24.822 9.63304C24.8718 10.4777 24.9031 11.1782 24.8916 11.1897C24.8801 11.2013 24.3013 10.3668 23.6054 9.33541L22.3402 7.46003L22.952 7.41687C23.4619 7.38087 23.5913 7.3397 23.728 7.16991C23.8184 7.05787 23.8922 6.87047 23.8922 6.7535C23.8922 6.6362 23.3523 5.61175 22.6887 4.46983C22.0267 3.33076 21.4852 2.37019 21.4852 2.33523C21.4852 2.28465 25.5242 2.30666 25.5849 2.3575ZM19.2087 4.48537C19.7297 4.5344 20.4436 4.64161 20.7951 4.72361L21.4343 4.87277L21.7589 5.43264C21.9374 5.74063 22.0843 6.02177 22.0852 6.05734C22.0861 6.0929 21.7968 6.12208 21.4422 6.12208C20.912 6.12208 20.7668 6.1528 20.6255 6.29471C20.2708 6.65087 20.341 6.78492 22.8212 10.4866C24.1235 12.4301 25.2527 14.0689 25.3307 14.1282C25.5597 14.3025 25.9075 14.2553 26.1278 14.0199L26.3301 13.8037L26.2031 11.4087C26.1333 10.0915 26.078 9.00886 26.0803 9.00282C26.0826 8.99678 26.4068 8.9739 26.8011 8.95189L27.5177 8.91201L27.9362 9.51038C28.3279 10.0704 29.0608 11.4327 29.302 12.0491C29.4069 12.3173 29.3903 12.3494 28.3699 13.8546C27.7607 14.7532 27.3309 15.472 27.3309 15.5924C27.3309 15.8507 27.6917 16.2215 27.9432 16.2215C28.0479 16.2215 28.5497 16.0273 29.0585 15.7899C29.5672 15.5525 30.0056 15.3583 30.0327 15.3583C30.0597 15.3583 30.0818 16.6356 30.0818 18.1967V21.0353L29.8884 21.0815C29.782 21.1069 29.608 21.1548 29.5016 21.188L29.3081 21.2481V20.0728C29.3081 18.7314 29.2685 18.6407 28.6035 18.4616C26.9154 18.0069 24.9377 16.1825 23.4874 13.7423C22.7593 12.5173 22.5353 12.4326 21.7975 13.1036C20.474 14.307 18.2413 15.4615 15.3461 16.4393C12.2263 17.4931 8.07551 18.3594 5.39721 18.5157C4.30414 18.5795 4.00266 18.6648 3.87457 18.9471C3.81783 19.0723 3.77596 19.6062 3.77596 20.2055C3.77596 21.1616 3.76367 21.2417 3.62552 21.188C3.54274 21.1559 3.36478 21.1073 3.2299 21.08L2.98472 21.0303L3.02719 17.9569C3.06373 15.3061 3.09356 14.7708 3.24374 14.0635C4.35839 8.81439 8.60369 4.97592 13.8341 4.48796C14.9302 4.38567 18.1325 4.38412 19.2087 4.48537ZM22.6784 14.8955C23.4678 16.2048 24.8933 17.7841 25.9984 18.5739C26.5992 19.0031 27.7008 19.5879 27.9088 19.5879C28.0884 19.5879 28.0648 26.6213 27.8821 27.5114C27.3709 30.0028 25.7336 32.1046 23.4313 33.2255C21.7674 34.0355 21.7853 34.0332 17.0149 34.0698C12.4753 34.1046 12.0044 34.0735 10.6942 33.6526C8.54842 32.9634 6.47962 31.0122 5.676 28.9197C5.13089 27.5005 5.12762 27.4702 5.08842 23.5047L5.05249 19.8684L5.72526 19.8092C11.434 19.3065 18.2311 17.2173 21.5136 14.9562C21.9471 14.6575 22.3212 14.4133 22.3448 14.4134C22.3685 14.4136 22.5186 14.6305 22.6784 14.8955ZM8.33221 21.8323C8.10999 22.0554 8.10483 22.532 8.32258 22.7298C8.4193 22.8178 8.98324 22.9807 9.71955 23.1336C10.3986 23.2746 10.9916 23.4015 11.0372 23.4158C11.083 23.43 10.7089 23.7496 10.206 24.1259C9.076 24.9718 8.93174 25.2121 9.28412 25.6618C9.62266 26.094 9.86191 26.0028 11.4304 24.8427C13.2268 23.5142 13.3183 23.4281 13.3183 23.0677C13.3183 22.5636 13.1754 22.502 10.9913 22.0638C9.8834 21.8414 8.87062 21.6595 8.74055 21.6595C8.61049 21.6596 8.42677 21.7373 8.33221 21.8323ZM22.0537 22.0828C20.3799 22.4291 20.0624 22.5194 19.9261 22.6885C19.7612 22.8929 19.727 23.0974 19.8177 23.3352C19.8464 23.41 20.599 24.0153 21.4904 24.6802C23.2255 25.9746 23.4499 26.0744 23.8112 25.7117C23.9393 25.583 23.9807 25.4467 23.9616 25.2165C23.9349 24.8943 23.7394 24.7133 22.2112 23.5959L21.9671 23.4173L23.1661 23.1819C24.6029 22.8999 24.7865 22.8341 24.9127 22.556C25.0487 22.2564 25.0354 22.1472 24.8316 21.8871C24.5912 21.5802 24.4261 21.5919 22.0537 22.0828ZM3.0265 22.3822C3.34622 22.519 3.64452 22.8261 3.72885 23.1055C3.79685 23.3304 3.79935 23.3298 3.30151 23.204C2.81778 23.0816 2.11242 23.2337 1.9263 23.5005C1.74465 23.7609 1.76855 24.1326 1.98063 24.3455C2.13365 24.4992 2.23277 24.521 2.60389 24.483C2.96762 24.4457 3.10955 24.475 3.4106 24.6492L3.77596 24.8607L3.77691 25.6124C3.77743 26.0257 3.80279 26.5154 3.83322 26.7004C3.88849 27.0365 3.88824 27.0368 3.63885 26.9759C2.80161 26.7716 1.94186 26.0456 1.55836 25.2191C1.36339 24.799 1.3284 24.6063 1.32728 23.9471C1.32616 23.3207 1.35978 23.1117 1.50076 22.8681C1.80706 22.3389 2.44812 22.1347 3.0265 22.3822ZM31.2082 22.4592C31.6372 22.7461 31.8107 23.1686 31.8107 23.9262C31.8107 24.7773 31.5727 25.4033 31.0168 26.014C30.6201 26.4499 29.723 27.0114 29.4233 27.0114C29.3335 27.0114 29.3081 26.7864 29.3081 25.9906C29.3081 25.0435 29.3221 24.9568 29.5016 24.7879C29.7871 24.5193 30.0727 24.4377 30.5623 24.4851C30.9614 24.5237 31.0162 24.5066 31.1856 24.2904C31.4332 23.9743 31.4197 23.7666 31.1327 23.4784C30.8529 23.1975 30.3011 23.0875 29.7834 23.2097C29.5956 23.2539 29.4224 23.2706 29.3986 23.2466C29.3748 23.2227 29.4317 23.0597 29.5251 22.8846C29.8419 22.2904 30.6503 22.0861 31.2082 22.4592ZM15.0063 23.9965C14.7224 24.2207 14.6957 24.6827 14.9517 24.9398C15.1098 25.0985 15.2382 25.1124 16.5459 25.1124C17.9415 25.1124 17.9723 25.1084 18.1793 24.9005C18.2953 24.784 18.3903 24.588 18.3903 24.465C18.3903 24.342 18.2953 24.146 18.1793 24.0295C17.973 23.8223 17.9382 23.8176 16.6005 23.8176C15.3469 23.8176 15.2139 23.8325 15.0063 23.9965ZM15.6824 26.9595C14.9137 27.2037 14.3125 27.6576 13.905 28.3016C13.4686 28.9912 13.6482 29.6298 14.2786 29.6298C14.561 29.6298 14.6824 29.5182 15.1355 28.8421C15.7007 27.9987 17.0451 27.8946 17.8163 28.6345C17.9498 28.7625 18.1397 29.0114 18.2384 29.1874C18.4591 29.5808 18.7735 29.7105 19.1358 29.5575C19.623 29.3518 19.6318 28.9437 19.1638 28.2401C18.7729 27.6522 18.1203 27.1551 17.4892 26.9644C16.9871 26.8127 16.1518 26.8105 15.6824 26.9595ZM4.10745 28.4377C4.12499 28.4553 4.22574 28.7181 4.3314 29.0216C4.63916 29.9058 5.28589 31.0532 5.93322 31.8634C6.75257 32.8887 7.78546 33.7083 9.06293 34.3464C10.2127 34.9209 10.9412 35.1471 12.154 35.3065L12.9744 35.4143V35.6909V35.9674L11.9468 36.0042C10.7536 36.0469 10.5674 36.138 10.5674 36.6792C10.5674 37.2429 10.7453 37.3204 11.9807 37.2948L13.043 37.2727L13.1928 37.7312C13.6511 39.1342 14.8638 40.095 16.3013 40.1939C17.4016 40.2696 18.2002 39.975 19.0203 39.1909C19.4768 38.7545 19.6317 38.5116 19.9065 37.8014L20.0902 37.3266L20.806 37.3012C22.9395 37.2256 24.5963 38.1024 25.4671 39.7678C25.769 40.3453 26.2133 42.0014 26.2133 42.5493C26.2133 42.7205 26.1501 42.7216 16.5421 42.7216C10.7126 42.7216 6.87077 42.6901 6.87077 42.6422C6.87077 42.5985 6.968 42.1033 7.08681 41.5416C7.40093 40.0571 7.7883 39.3077 8.67341 38.4723C9.24595 37.9318 9.36381 37.7753 9.36381 37.5554C9.36381 37.2332 9.07754 36.9382 8.76497 36.9382C8.53028 36.9382 8.30023 37.0703 7.83326 37.4729L7.54931 37.7179L5.29723 37.6949L3.04524 37.6719L3.02307 32.9141L3.0008 28.1564L3.53818 28.281C3.83373 28.3496 4.08991 28.4201 4.10745 28.4377ZM30.0818 32.9243V37.7151H27.8513H25.6207L25.0358 37.2696C23.8939 36.3998 22.9482 36.086 21.2487 36.0131L20.1097 35.9642V35.6844V35.4045L20.69 35.3439C24.053 34.9921 26.8581 33.0609 28.342 30.0758C28.5308 29.696 28.7549 29.1623 28.8401 28.8899C28.9845 28.4284 29.016 28.3911 29.302 28.3433C29.4709 28.3151 29.7057 28.2595 29.8239 28.2196C29.9421 28.1799 30.0486 28.1441 30.0604 28.1404C30.0721 28.1367 30.0818 30.2894 30.0818 32.9243ZM18.8041 36.3555C18.7655 37.4394 18.6386 37.797 18.1185 38.2881C17.0144 39.3304 15.2219 39.0283 14.5699 37.6899C14.3833 37.307 14.3322 37.054 14.2898 36.303L14.2381 35.3844H16.5384H18.8387L18.8041 36.3555Z" fill="#989B86"/>
</svg>
