<svg width="44" height="44" viewBox="0 0 44 44" fill="none" xmlns="http://www.w3.org/2000/svg">
<path fill-rule="evenodd" clip-rule="evenodd" d="M5.57638 0.123319C2.74209 0.695822 0.658236 2.80337 0.10868 5.65299C-0.265458 7.59311 0.350568 9.91914 1.58468 11.226C2.05883 11.7282 2.44767 11.7145 2.72945 11.1859C2.86317 10.9351 2.79403 10.7253 2.41516 10.232C1.4618 8.99072 1.07855 7.27347 1.40582 5.70989C1.83852 3.64309 3.63758 1.84487 5.70536 1.41238C6.96286 1.14946 8.15949 1.30803 9.35989 1.89678C10.8114 2.60861 11.9961 4.13153 12.3266 5.70989C12.9543 8.70864 10.9914 11.7047 7.98407 12.3381C7.16666 12.5103 6.01337 12.4525 5.20129 12.1987C4.51089 11.9829 4.19617 12.0524 4.02814 12.4578C3.79572 13.0188 4.26754 13.3586 5.64844 13.6246C7.50588 13.9823 9.60488 13.4677 11.0799 12.293L11.3811 12.0532L11.6776 12.5605C11.8407 12.8396 12.1042 13.2198 12.2632 13.4056L12.5524 13.7432L12.3415 14.024C11.748 14.8138 11.3149 16.0373 11.1613 17.3578C10.9707 18.9963 11.3582 20.8537 12.111 21.9105L12.2917 22.1641L11.8852 22.5534L11.4787 22.9427L10.9568 22.6032C9.75819 21.8238 8.73209 21.5295 7.21017 21.5287C5.27679 21.5278 3.68075 22.1767 2.35368 23.5031C1.02704 24.8292 0.377826 26.4241 0.377826 28.3574C0.377826 30.2998 1.0175 31.8653 2.35901 33.2062C3.70061 34.5471 5.26682 35.1865 7.21017 35.1865C9.15352 35.1865 10.7197 34.5471 12.0613 33.2062C13.3142 31.954 13.9662 30.4557 14.0643 28.6037L14.1127 27.6898L14.3375 28.1084C14.816 28.9997 15.7208 30.1621 16.711 31.1576L17.7438 32.1958L17.6253 33.2406L17.5069 34.2854L16.8514 34.4882L16.196 34.691L15.981 34.4998C15.6495 34.2051 15.4237 34.1159 15.0096 34.1159C14.5624 34.1159 11.935 34.8887 11.3016 35.2064C9.79672 35.9616 8.62331 37.2572 8.11107 38.7294C7.92542 39.263 7.21017 42.9707 7.21017 43.3995C7.21017 43.6485 7.58775 44 7.85509 44C8.33078 44 8.43972 43.7489 8.75014 41.9372C9.11414 39.8127 9.28706 39.135 9.6342 38.4723C9.96285 37.845 10.8472 36.9404 11.5147 36.5489C11.9475 36.2951 14.6247 35.4051 14.9555 35.4051C15.072 35.4051 15.1132 35.5213 15.1616 35.9853C15.2491 36.8252 15.4536 37.9902 15.56 38.2555C15.6803 38.5552 16.0431 38.7087 16.3532 38.5908C16.7471 38.4412 16.8004 38.1846 16.6393 37.215C16.4304 35.9577 16.4323 35.9449 16.8464 35.8334C17.0385 35.7817 17.2489 35.719 17.314 35.694C17.3958 35.6626 17.463 35.7637 17.5314 36.021C17.8752 37.3132 19.0732 38.3669 20.603 38.7227C21.352 38.8969 22.8232 38.8934 23.5051 38.7159C25.0028 38.3259 26.1523 37.345 26.4785 36.1787C26.538 35.966 26.6113 35.7628 26.6414 35.7271C26.6714 35.6914 26.9021 35.7234 27.1539 35.7982L27.6119 35.9342L27.5546 36.5076C27.3649 38.4067 26.6918 41.0857 26.0422 42.5277C25.7161 43.2516 25.6924 43.3497 25.788 43.5803C25.9701 44.02 26.3763 44.1244 26.753 43.8283C27.0605 43.5864 27.6741 42.0715 28.0933 40.5191C28.5101 38.9755 28.6504 38.2438 28.8346 36.6544C28.9111 35.9942 28.9919 35.436 29.0141 35.4138C29.0723 35.3555 29.7866 35.547 31.1151 35.9767C32.4372 36.4044 33.2005 36.8596 33.814 37.5864C34.632 38.5555 34.7838 38.9772 35.251 41.5784C35.4435 42.6503 35.6564 43.6137 35.7239 43.7193C35.9721 44.1074 36.6065 44.0508 36.8016 43.623C36.8765 43.4586 36.8303 43.0431 36.579 41.6234C36.4046 40.6379 36.2459 39.7735 36.2263 39.7026C36.1961 39.5934 36.3452 39.5731 37.1999 39.5705C38.6317 39.5661 39.7175 39.2502 40.8497 38.5087C42.7396 37.2711 43.8521 35.3473 43.9864 33.0845C44.0417 32.1542 43.9421 31.9261 43.4387 31.8289C43.2179 31.7863 43.1223 31.8188 42.9443 31.9967C42.7546 32.1863 42.7235 32.2931 42.7222 32.7584C42.715 35.3321 40.7951 37.6731 38.2522 38.2086C37.6327 38.3391 36.35 38.3325 35.8855 38.1966C35.7895 38.1685 35.6024 37.9372 35.4677 37.68C34.9441 36.6804 33.8103 35.683 32.54 35.1044L31.9164 34.8203L31.7624 34.2747C31.5406 33.4887 31.5003 32.4024 31.6642 31.6234C32.1085 29.5109 33.8872 27.7193 35.9735 27.2829C38.1838 26.8207 40.5005 27.7665 41.7835 29.6551C41.9854 29.9522 42.197 30.1625 42.327 30.1951C42.7462 30.3003 43.1536 29.9969 43.1536 29.5796C43.1536 29.3189 42.5199 28.4087 41.963 27.8693L41.4525 27.375L41.7969 26.868C42.6034 25.681 42.9282 24.583 42.9328 23.0285C42.9384 21.0931 42.2975 19.523 40.9536 18.1797C38.8018 16.0288 35.3901 15.5391 32.7873 17.0073L32.3372 17.2612L32.2786 16.8573C32.1439 15.928 31.4457 14.2222 30.8293 13.3163C30.6845 13.1036 30.3352 12.6879 30.0531 12.3924C29.6238 11.943 29.4931 11.8552 29.2527 11.8552C28.8889 11.8552 28.6214 12.1123 28.6214 12.462C28.6214 12.6567 28.7284 12.8409 29.0333 13.1711C29.5383 13.7181 29.8009 14.0773 30.1446 14.6915C31.2067 16.5901 31.4471 19.387 30.6778 20.8943L30.4975 21.2474L30.199 20.6306C29.6642 19.5256 28.5683 18.5991 27.2877 18.1694C26.743 17.9866 26.3201 17.9274 24.8518 17.8283C22.8774 17.6951 22.3603 17.5887 21.3554 17.1093C20.6534 16.7743 19.3815 15.8759 19.0963 15.5135C18.9772 15.3621 18.9119 15.0321 18.8316 14.1751C18.7074 12.85 18.6685 12.942 19.6204 12.3095C20.3219 11.8433 21.2342 11.4733 22.1484 11.2844C23.0717 11.0935 25.128 11.1646 26.0635 11.4197C26.6684 11.5847 26.7531 11.5896 26.9775 11.4737C27.3735 11.269 27.4444 10.9044 27.1588 10.5416C27.0251 10.3716 26.8167 10.283 26.2345 10.149C25.8211 10.0537 25.2655 9.95008 25 9.91862L24.5172 9.86147L24.4694 8.90306C24.375 7.01339 23.7317 5.52115 22.466 4.25599C20.0138 1.80499 16.061 1.5627 13.3799 3.69912C13.2026 3.84042 13.0574 3.92053 13.0574 3.87704C13.0574 3.69844 12.1864 2.49481 11.715 2.02201C10.1242 0.426803 7.73419 -0.312441 5.57638 0.123319ZM35.9735 0.0872203C33.4456 0.586238 31.4038 2.32567 30.6497 4.62273C29.8002 7.21004 30.4062 9.84299 32.2832 11.7191C33.6248 13.06 35.191 13.6993 37.1343 13.6993C39.0777 13.6993 40.6439 13.06 41.9855 11.7191C43.327 10.3781 43.9667 8.81264 43.9667 6.8702C43.9667 5.37598 43.6625 4.3122 42.9051 3.15662C41.9294 1.66833 40.5521 0.682243 38.7694 0.196031C38.1838 0.0363387 36.553 -0.0271773 35.9735 0.0872203ZM38.2952 1.41238C39.8743 1.74268 41.3979 2.92688 42.1101 4.37769C42.5138 5.20005 42.7206 6.0444 42.7206 6.8702C42.7206 8.92506 41.4665 10.9419 39.628 11.8436C37.9722 12.6557 36.2965 12.6557 34.6407 11.8436C33.1892 11.1318 32.0044 9.60887 31.674 8.03051C31.4109 6.77359 31.5696 5.57753 32.1586 4.37769C32.8615 2.94587 34.3869 1.74852 35.9305 1.41719C36.6675 1.25896 37.5529 1.25715 38.2952 1.41238ZM6.34976 2.65304C5.52057 2.90522 4.9128 3.57338 4.75682 4.40459C4.63807 5.03717 5.08297 5.52699 5.5983 5.33112C5.85232 5.2346 5.95645 5.07104 6.03857 4.63966C6.1544 4.03037 6.75778 3.71262 7.28317 3.98422C8.05905 4.38525 7.79919 5.46485 6.89184 5.60985C6.33652 5.69863 6.26429 5.86615 6.26429 7.06513C6.26429 8.02939 6.27504 8.09204 6.47539 8.29222C6.70945 8.52626 6.84343 8.54903 7.15367 8.40782C7.44483 8.2752 7.55412 7.98495 7.55412 7.34464C7.55412 6.85894 7.57536 6.78915 7.73866 6.73732C8.03652 6.64278 8.68497 5.9961 8.85505 5.62394C9.08352 5.12398 9.06495 4.35758 8.8112 3.81292C8.38779 2.90401 7.26477 2.37483 6.34976 2.65304ZM18.7757 3.64704C20.3548 3.97734 21.8783 5.16145 22.5907 6.61235C23.0143 7.47493 23.2208 8.3792 23.1861 9.21935L23.1611 9.82666L22.408 9.93504C20.9132 10.1502 19.4402 10.7599 18.4163 11.5872C17.8976 12.0064 17.8772 12.0144 17.5564 11.9215C17.0586 11.7773 15.8418 11.8068 15.2501 11.9774C14.9664 12.0593 14.4443 12.2814 14.0899 12.4711L13.4455 12.8161L13.206 12.5293C13.0742 12.3715 12.8277 11.9717 12.658 11.6406L12.3496 11.0387L12.7438 10.4023C13.5666 9.07444 13.9232 7.26152 13.651 5.79017L13.5567 5.28024L13.9981 4.87456C14.5347 4.38138 15.6534 3.81447 16.411 3.65185C17.148 3.49362 18.0334 3.49182 18.7757 3.64704ZM17.224 5.01844L17.0129 5.22935V7.77266V10.316L17.224 10.5269C17.3401 10.6429 17.5353 10.7379 17.6578 10.7379C17.7804 10.7379 17.9756 10.6429 18.0916 10.5269L18.3027 10.316V7.77266V5.22935L18.0916 5.01844C17.9756 4.90241 17.7804 4.80743 17.6578 4.80743C17.5353 4.80743 17.3401 4.90241 17.224 5.01844ZM34.1638 6.39361C34.0478 6.50964 33.9527 6.70475 33.9527 6.82722C33.9527 7.11378 34.311 7.47184 34.5977 7.47184C34.8843 7.47184 35.2426 7.11378 35.2426 6.82722C35.2426 6.54067 34.8843 6.18261 34.5977 6.18261C34.4751 6.18261 34.2799 6.27758 34.1638 6.39361ZM36.7435 6.39361C36.6274 6.50964 36.5324 6.70475 36.5324 6.82722C36.5324 7.11378 36.8906 7.47184 37.1773 7.47184C37.464 7.47184 37.8223 7.11378 37.8223 6.82722C37.8223 6.54067 37.464 6.18261 37.1773 6.18261C37.0548 6.18261 36.8596 6.27758 36.7435 6.39361ZM39.3232 6.39361C39.2071 6.50964 39.1121 6.70475 39.1121 6.82722C39.1121 7.11378 39.4703 7.47184 39.757 7.47184C40.0437 7.47184 40.4019 7.11378 40.4019 6.82722C40.4019 6.54067 40.0437 6.18261 39.757 6.18261C39.6345 6.18261 39.4393 6.27758 39.3232 6.39361ZM6.63533 9.87711C6.25586 10.0337 6.14674 10.5737 6.42517 10.9174C6.78573 11.3625 7.55412 11.0647 7.55412 10.48C7.55412 10.0219 7.06399 9.70031 6.63533 9.87711ZM17.0412 13.1389C17.2223 13.181 17.3857 13.2305 17.4042 13.249C17.4227 13.2675 17.4966 13.8125 17.5685 14.4601L17.6991 15.6376L17.4932 16.1843C17.0268 17.4227 16.6182 17.961 15.6113 18.6631C14.4321 19.4854 13.788 20.3193 13.6139 21.2491C13.554 21.5684 13.549 21.5721 13.3817 21.421C13.1399 21.2027 12.7526 20.4048 12.5735 19.7556C12.3547 18.9632 12.3752 17.368 12.6156 16.4695C13.0796 14.7348 14.2432 13.5149 15.7447 13.1888C16.3943 13.0478 16.612 13.0394 17.0412 13.1389ZM19.3504 17.3999C20.1445 17.9979 21.1363 18.4884 22.1293 18.7743C22.7359 18.9489 23.2842 19.0229 24.6659 19.1166C25.6533 19.1835 26.6195 19.2943 26.8625 19.3685C27.7053 19.6256 28.6902 20.4401 29.0554 21.182C29.2614 21.6005 29.2662 21.6561 29.2599 23.5872C29.2528 25.7776 29.173 26.3081 28.7016 27.2952C28.1317 28.4887 26.478 30.4248 25.2654 31.318C23.1316 32.89 21.3211 32.9651 19.1785 31.5706C17.8335 30.6953 16.0142 28.6466 15.371 27.283C14.9154 26.317 14.8456 25.8907 14.7998 23.7898C14.7403 21.0691 14.8533 20.7805 16.4088 19.6781C17.3752 18.9932 17.8288 18.4799 18.2898 17.5493C18.4595 17.2066 18.6261 16.9262 18.6599 16.9262C18.6937 16.9262 19.0044 17.1393 19.3504 17.3999ZM37.2633 17.5707C38.8424 17.901 40.3661 19.0852 41.0782 20.536C41.8845 22.1782 41.89 23.8802 41.0946 25.4781C40.9063 25.8562 40.6638 26.2724 40.5556 26.4029L40.3589 26.6402L39.6799 26.3749C37.9624 25.7039 36.3228 25.7042 34.5806 26.3757C34.1992 26.5227 33.617 26.8326 33.2869 27.0643L32.6867 27.4857L32.3313 27.1236L31.9758 26.7616L32.3121 26.3143C33.3562 24.9253 33.0986 23.0835 31.7323 22.1691L31.5396 22.0401L31.8449 21.4306C32.1743 20.773 32.4011 19.8781 32.4035 19.2258C32.4049 18.8464 32.4302 18.7995 32.7704 18.549C34.0392 17.6144 35.7211 17.2482 37.2633 17.5707ZM35.586 18.8114C34.7568 19.0636 34.1491 19.7317 33.9931 20.5629C33.8743 21.1955 34.3192 21.6853 34.8346 21.4895C35.0886 21.3929 35.1927 21.2294 35.2748 20.798C35.3907 20.1887 35.994 19.871 36.5194 20.1426C37.2953 20.5436 37.0355 21.6232 36.1281 21.7682C35.5728 21.857 35.5005 22.0245 35.5005 23.2235C35.5005 24.1877 35.5113 24.2504 35.7117 24.4506C35.9457 24.6846 36.0797 24.7074 36.3899 24.5662C36.6811 24.4335 36.7904 24.1433 36.7904 23.503C36.7904 23.0173 36.8116 22.9475 36.9749 22.8957C37.2728 22.8011 37.9212 22.1544 38.0913 21.7823C38.3198 21.2823 38.3012 20.5159 38.0475 19.9713C37.624 19.0624 36.501 18.5332 35.586 18.8114ZM8.37102 22.8995C9.08129 23.0481 10.206 23.5819 10.6981 24.0039C11.0065 24.2685 11.0597 24.3708 11.1536 24.8804C11.3002 25.6757 11.6126 26.2455 12.219 26.8241L12.7344 27.3158L12.7752 28.0729C12.9198 30.7614 10.9991 33.2655 8.37102 33.8152C7.11352 34.0781 5.91689 33.9195 4.71649 33.3308C3.6909 32.8278 2.73762 31.875 2.23441 30.8499C1.4219 29.1948 1.4219 27.5199 2.23441 25.8648C2.93729 24.433 4.46273 23.2357 6.00632 22.9043C6.74333 22.7461 7.62876 22.7443 8.37102 22.8995ZM13.49 23.9955C13.4915 24.48 13.5299 25.1635 13.5755 25.5143C13.6211 25.8653 13.6401 26.1706 13.6178 26.1929C13.5359 26.2747 12.9627 25.8123 12.7492 25.4923C12.6282 25.3109 12.4865 24.9588 12.4343 24.7097C12.3475 24.296 12.3573 24.2207 12.5478 23.842C12.7326 23.4744 13.165 23.1145 13.4215 23.1145C13.4577 23.1145 13.4886 23.511 13.49 23.9955ZM30.9933 23.2525C31.6259 23.5526 31.8512 24.495 31.4692 25.2433C31.2996 25.5756 30.6552 26.2086 30.4864 26.2086C30.4392 26.2086 30.4286 26.0724 30.4612 25.8863C30.4924 25.7091 30.5421 25.0128 30.5717 24.3393C30.6012 23.6657 30.6427 23.1145 30.6638 23.1145C30.6849 23.1145 30.8332 23.1766 30.9933 23.2525ZM17.7071 23.4269C17.3623 23.865 17.5302 24.2299 18.2595 24.6275L18.5912 24.8084L18.1875 25.0448C17.5307 25.4296 17.3662 25.8168 17.6897 26.2163C17.9612 26.5514 18.3162 26.4758 19.3743 25.8572C20.9309 24.9473 20.9368 24.6826 19.4205 23.7899C18.2973 23.1285 17.9927 23.0639 17.7071 23.4269ZM24.5799 23.7918C23.064 24.6833 23.0699 24.9474 24.6262 25.8572C25.6843 26.4758 26.0394 26.5514 26.3108 26.2163C26.6344 25.8168 26.4699 25.4296 25.813 25.0448L25.4094 24.8084L25.7411 24.6275C26.4703 24.2299 26.6383 23.865 26.2934 23.4269C26.0093 23.0658 25.7038 23.1308 24.5799 23.7918ZM6.81935 24.2709L6.60825 24.4818V27.0251V29.5685L6.81935 29.7794C6.93543 29.8954 7.13063 29.9904 7.25316 29.9904C7.3757 29.9904 7.57089 29.8954 7.68698 29.7794L7.89808 29.5685V27.0251V24.4818L7.68698 24.2709C7.57089 24.1549 7.3757 24.0599 7.25316 24.0599C7.13063 24.0599 6.93543 24.1549 6.81935 24.2709ZM20.9215 26.5915C20.5529 26.96 20.6737 27.3879 21.2259 27.6695C22.1895 28.1609 23.5709 27.5376 23.2208 26.7695C23.0679 26.4341 22.7607 26.3291 22.3392 26.4681C22.0639 26.559 21.9309 26.5619 21.7096 26.482C21.3028 26.3349 21.1581 26.355 20.9215 26.5915ZM31.3167 27.954L31.7916 28.4101L31.4112 28.9565C30.5007 30.2641 30.0618 32.2652 30.3471 33.8077C30.3977 34.081 30.4199 34.3237 30.3965 34.3471C30.3731 34.3705 30.142 34.328 29.8829 34.2528C29.0348 34.0063 28.6937 34.0622 28.0063 34.5603C27.8929 34.6423 27.7375 34.6252 27.2396 34.4755C26.8961 34.3724 26.6055 34.2782 26.5937 34.2664C26.5819 34.2545 26.5168 33.7832 26.4489 33.2189L26.3256 32.1931L27.2835 31.2421C28.3184 30.2149 29.227 29.0614 29.6736 28.208C29.955 27.6703 30.1157 27.5648 30.7419 27.5071C30.7968 27.502 31.0554 27.7031 31.3167 27.954ZM20.8987 29.3921C20.7759 29.5064 20.7104 29.6695 20.7104 29.8615C20.7104 30.0534 20.7759 30.2165 20.8987 30.3308C21.0635 30.4844 21.1999 30.5061 22.0003 30.5061C22.8007 30.5061 22.937 30.4844 23.1019 30.3308C23.2247 30.2165 23.2901 30.0534 23.2901 29.8615C23.2901 29.6695 23.2247 29.5064 23.1019 29.3921C22.937 29.2385 22.8007 29.2168 22.0003 29.2168C21.1999 29.2168 21.0635 29.2385 20.8987 29.3921ZM6.97929 31.3643C6.59982 31.5209 6.4907 32.0609 6.76913 32.4046C7.12968 32.8496 7.89808 32.5519 7.89808 31.9672C7.89808 31.5091 7.40794 31.1875 6.97929 31.3643ZM34.0779 32.2641C33.9618 32.3802 33.8668 32.5753 33.8668 32.6978C33.8668 32.8202 33.9618 33.0153 34.0779 33.1314C34.1939 33.2474 34.3891 33.3424 34.5117 33.3424C34.6342 33.3424 34.8294 33.2474 34.9455 33.1314C35.0616 33.0153 35.1566 32.8202 35.1566 32.6978C35.1566 32.5753 35.0616 32.3802 34.9455 32.2641C34.8294 32.1481 34.6342 32.0531 34.5117 32.0531C34.3891 32.0531 34.1939 32.1481 34.0779 32.2641ZM36.6575 32.2641C36.5414 32.3802 36.4464 32.5753 36.4464 32.6978C36.4464 32.8202 36.5414 33.0153 36.6575 33.1314C36.7736 33.2474 36.9688 33.3424 37.0913 33.3424C37.2139 33.3424 37.4091 33.2474 37.5252 33.1314C37.6412 33.0153 37.7363 32.8202 37.7363 32.6978C37.7363 32.5753 37.6412 32.3802 37.5252 32.2641C37.4091 32.1481 37.2139 32.0531 37.0913 32.0531C36.9688 32.0531 36.7736 32.1481 36.6575 32.2641ZM39.2372 32.2641C39.1211 32.3802 39.0261 32.5753 39.0261 32.6978C39.0261 32.8202 39.1211 33.0153 39.2372 33.1314C39.3533 33.2474 39.5485 33.3424 39.671 33.3424C39.7935 33.3424 39.9887 33.2474 40.1048 33.1314C40.2209 33.0153 40.3159 32.8202 40.3159 32.6978C40.3159 32.5753 40.2209 32.3802 40.1048 32.2641C39.9887 32.1481 39.7935 32.0531 39.671 32.0531C39.5485 32.0531 39.3533 32.1481 39.2372 32.2641ZM19.3579 33.1823C21.029 34.0345 22.8528 34.0638 24.5171 33.2654C24.8538 33.1039 25.07 33.0427 25.1049 33.0991C25.2019 33.2561 25.3779 35.2926 25.3208 35.5971C25.1787 36.3546 24.4604 37.0458 23.4685 37.3798C22.7235 37.6307 21.4124 37.6322 20.6057 37.3832C19.625 37.0804 18.8575 36.332 18.7566 35.58C18.7108 35.2388 18.8918 32.9986 18.9651 32.9986C18.9829 32.9986 19.1597 33.0813 19.3579 33.1823ZM16.411 40.4761C16.1799 40.7071 16.1935 40.9339 16.4945 41.8717C16.8795 43.0711 17.1631 43.7497 17.3331 43.8786C17.7139 44.1675 18.3027 43.8757 18.3027 43.398C18.3027 43.068 17.4799 40.6594 17.2987 40.4594C17.108 40.2487 16.6295 40.2577 16.411 40.4761Z" fill="#989B86"/>
</svg>
