<svg width="374" height="356" viewBox="0 0 374 356" fill="none" xmlns="http://www.w3.org/2000/svg">
<g style="mix-blend-mode:multiply" opacity="0.1">
<path d="M103.754 202.537C106.618 199.344 109.299 196.023 111.787 192.588C112.727 191.271 113.755 190.005 114.866 188.798C124.05 178.494 134.077 168.812 144.865 159.83C148.033 157.193 151.198 154.553 154.322 151.874C155.12 151.225 155.804 150.471 156.349 149.639C158.785 145.908 160.723 141.936 162.125 137.804C162.891 135.294 163.713 132.797 164.53 130.299C165.86 126.231 167.075 122.129 168.573 118.11C172.473 107.643 178.731 98.2518 185.552 89.14C188.185 85.5184 191.192 82.124 194.533 79.0009C206.137 68.4345 217.649 57.7834 229.435 47.3793C240.059 38.0004 250.312 28.3717 258.77 17.3261C259.083 17.0374 259.447 16.7968 259.848 16.614C260.806 17.1402 260.674 17.8015 260.511 18.4676C259.978 20.6455 259.568 22.8545 258.889 24.9959C254.641 39.0815 248.725 52.724 241.242 65.6933C234.686 76.9944 226.928 87.7071 218.073 97.6834C208.171 108.427 197.292 118.425 185.548 127.574C179.697 132.217 173.928 136.942 168.146 141.654C167.544 142.205 166.988 142.795 166.483 143.418C167.025 143.157 167.551 142.871 168.059 142.561C173.957 138.676 179.815 134.744 185.738 130.891C201.307 120.764 218.167 112.321 235.966 105.738C241.28 103.76 246.094 100.849 250.122 97.1779C256.675 91.2444 262.683 84.8501 268.087 78.057C276.098 68.0853 284.24 58.2023 292.946 48.6934C298.469 42.7342 304.431 37.109 310.79 31.8547C315.158 28.1854 319.742 24.7263 324.522 21.4922C328.98 18.4903 333.734 15.8565 338.726 13.6233C341.252 12.4926 343.903 11.5782 346.521 10.6194C350.606 9.1236 354.738 7.73011 358.8 6.18846C363.451 4.55169 367.958 2.60704 372.284 0.370746C372.78 0.188673 373.299 0.0640629 373.83 -1.48569e-05C373.964 0.446141 374.019 0.908161 373.994 1.36949C373.81 1.86252 373.554 2.33194 373.233 2.76578C364.187 17.3464 353.784 31.2232 342.133 44.2499C334.078 53.3586 325.311 61.9469 315.895 69.9503C310.412 74.5175 304.427 78.5803 298.03 82.077C289.498 86.7552 280.276 90.2342 272.034 94.3708C273.643 93.8986 275.766 93.3144 277.858 92.6547C283.801 90.6981 289.891 89.1157 296.082 87.9192C300.164 87.1821 304.263 86.5004 308.379 85.9417C311.247 85.4756 314.154 85.2299 317.068 85.2073C326.418 85.2599 335.71 86.5204 344.654 88.9495C351.136 90.8829 357.787 92.3346 364.537 93.2898C364.76 93.3187 364.956 93.5112 365.285 93.695L365.307 95.0048C364.44 95.3683 363.644 95.7689 362.798 96.0441C360.449 96.8075 358.101 97.5848 355.712 98.2379C348.381 100.242 341.045 102.237 333.682 104.146C328.6 105.6 323.38 106.638 318.086 107.248C306.634 108.289 295.08 108.054 283.693 106.547C278.755 105.898 273.764 105.512 268.781 105.216C264.796 104.98 260.786 104.997 256.788 105.024C254.039 104.981 251.29 105.124 248.566 105.452C243.182 106.08 237.992 107.659 233.301 110.097C232.099 110.761 230.817 111.309 229.574 111.916C221.394 115.765 213.446 119.995 205.763 124.588C202.312 126.799 198.729 128.842 195.031 130.71C187 134.656 179.407 139.274 172.353 144.5C167.009 148.412 161.558 152.21 156.105 156.002C154.278 157.173 152.723 158.648 151.524 160.346C150.472 162.051 148.906 163.459 147.003 164.411C146.252 164.877 145.601 165.461 145.084 166.134C143.426 167.901 141.804 169.695 140.178 171.485C139.866 171.829 139.595 172.203 139.012 172.927C139.922 172.441 140.358 172.229 140.769 171.985C148.183 167.697 155.997 163.987 164.125 160.896C167.096 159.726 170.149 158.721 173.166 157.643C181.212 154.752 189.572 152.611 198.112 151.252C204.855 150.272 211.653 149.618 218.476 149.293C228.606 148.48 238.798 148.484 248.927 149.304C260.352 150.456 271.777 151.608 283.202 152.76C283.593 152.735 283.984 152.807 284.333 152.967C284.682 153.126 284.975 153.369 285.18 153.667C285.405 154.873 284.298 155.272 283.34 155.648C279.604 157.115 275.875 158.605 272.076 159.938C259.18 164.251 245.656 166.891 231.918 167.777C217.72 168.914 203.474 169.246 189.229 169.528C179.554 169.606 169.924 170.7 160.536 172.789C153.48 174.302 146.644 176.541 140.166 179.46C131.169 183.557 122.948 188.886 115.8 195.253C111.628 199.102 107.752 203.197 104.197 207.511C96.6801 216.332 89.7181 225.519 83.3428 235.028C80.6168 239.204 78.0071 243.434 74.9918 247.458C73.3401 249.663 71.9141 252.002 70.3887 254.282C71.2092 253.817 72.0598 253.389 72.8382 252.874C75.1797 251.324 77.4796 249.724 79.8162 248.168C87.1808 243.265 95.2807 239.405 103.114 235.169C108.328 232.362 113.834 230.012 119.555 228.151C128.319 225.284 137.164 222.613 145.981 219.878C154.75 217.223 163.838 215.497 173.058 214.734C181.919 213.772 190.877 213.773 199.738 214.734C208.069 215.785 216.363 217.076 224.673 218.263C225.005 218.287 225.333 218.351 225.645 218.454C226.148 218.667 226.613 218.95 226.962 219.135C227.133 219.513 227.138 219.935 226.977 220.316C226.815 220.697 226.499 221.011 226.09 221.193C225.517 221.496 224.921 221.762 224.305 221.989C218.864 224.242 213.362 226.386 207.991 228.765C197.353 233.569 186.31 237.623 174.963 240.888C169.873 242.315 164.793 243.773 159.67 245.096C156.392 245.943 153.064 246.667 149.72 247.276C142.618 248.569 135.501 249.798 128.369 250.962C121.484 252.081 114.603 253.278 107.668 254.073C97.0712 255.235 86.6471 257.418 76.5781 260.585C72.1898 262.005 67.9286 263.72 63.8311 265.715C61.7439 266.681 60.0874 268.251 59.1347 270.168C58.6542 271.116 58.1282 272.047 57.6022 272.976C56.0237 275.763 54.4611 278.558 52.844 281.327C50.9575 284.557 48.9134 287.718 47.1242 290.99C41.4166 301.427 35.0522 311.536 28.2129 321.411C21.2917 331.404 14.229 341.322 8.32608 351.844C8.0334 352.422 7.61257 352.941 7.08884 353.369C6.56511 353.798 5.94939 354.127 5.27897 354.338C4.60139 354.607 3.94493 354.916 3.31398 355.264C2.73485 355.54 2.13692 355.782 1.52367 355.99C1.35247 356.045 1.08435 355.86 0.755687 355.749C0.874335 355.088 0.988991 354.448 1.09464 353.86C0.449073 353.176 0.0654532 352.327 -3.99096e-07 351.435C0.555523 350.953 1.1787 350.371 1.85122 349.837C6.23822 346.392 9.99136 342.354 12.9734 337.87C16.2668 332.874 19.2952 327.737 22.349 322.618C28.3801 312.509 34.4478 302.415 40.3147 292.23C45.6136 283.03 51.2875 274.02 57.1292 265.095C65.4963 252.313 74.4663 239.863 83.7189 227.577C85.1771 225.67 86.2822 223.566 86.9918 221.346C87.3968 220.058 87.8114 218.77 88.1477 217.467C89.8204 210.032 90.8464 202.493 91.2165 194.916C91.8024 187.667 91.4781 180.36 91.5739 173.079C91.6336 168.547 91.6628 164.013 91.8287 159.483C92.036 154.502 92.7487 149.549 93.9582 144.682C96.783 132.821 100.562 121.157 105.267 109.781C108.619 101.773 112.308 93.8756 115.971 85.9751C117.626 82.4066 119.583 78.9491 121.412 75.4449C121.684 74.9223 121.888 74.2854 122.821 74.4525C123.585 74.9717 123.471 75.7529 123.542 76.4778C124.445 85.8054 125.306 95.1365 126.259 104.46C128.153 123.998 125.762 143.678 119.219 162.4C115.43 173.114 110.697 183.543 105.064 193.591C101.359 200.403 97.6538 207.215 93.9478 214.027C94.5399 213.425 95.1772 212.853 95.7126 212.212C98.404 208.994 101.023 205.728 103.754 202.537ZM260.637 90.4364C261.131 90.2311 261.599 89.9796 262.033 89.6859C264.509 87.7034 267.012 85.7445 269.387 83.6691C272.002 81.3843 274.501 78.9924 277.022 76.6235C277.556 76.0711 278.057 75.4941 278.524 74.895C279.492 74.0965 280.537 73.3598 281.415 72.4896C288.483 65.4907 295.468 58.4252 302.58 51.4624C305.819 48.2914 309.138 45.19 312.537 42.1583C312.485 42.1251 312.443 42.082 312.412 42.0322C312.381 41.9824 312.363 41.9271 312.359 41.8703C312.355 41.8135 312.366 41.7566 312.389 41.7038C312.413 41.651 312.45 41.6036 312.497 41.5651C326.006 30.2909 340.063 19.62 354.668 9.55228C347.943 12.2454 341.674 15.7635 336.041 20.0046C332.285 23.0331 328.285 25.82 324.455 28.7782C318.618 33.2522 313.088 38.0369 307.898 43.1061C307.883 43.1469 307.861 43.1852 307.831 43.2193C301.646 49.9498 295.446 56.6691 289.23 63.377C286.224 66.6278 283.183 69.8299 280.046 72.9542C279.935 73.0867 279.81 73.2097 279.673 73.3215C279.314 73.6772 278.954 74.0317 278.592 74.3849L278.497 74.8786C277.927 75.2943 277.322 75.6767 276.795 76.1314C276.747 76.1725 276.7 76.2143 276.652 76.2555C274.692 78.1241 272.691 79.9635 270.625 81.7581C267.81 84.2033 264.937 86.5854 262.004 88.9044C261.539 89.4082 261.091 89.9247 260.637 90.4364ZM333.024 18.2199C323.024 24.1433 313.712 30.942 305.225 38.5151C301.641 41.8316 298.257 45.3155 295.087 48.9522C285.272 59.7535 275.962 70.8975 267.024 82.2881C266.011 83.5784 264.998 84.8683 263.984 86.1579C268.736 82.0711 273.505 78.0008 277.963 73.654C284.456 67.3236 290.43 60.5435 296.586 53.9531C299.182 51.1738 301.784 48.399 304.392 45.6288C304.509 45.5037 304.626 45.3776 304.744 45.2532C305.519 44.4287 306.293 43.6036 307.065 42.7778C307.144 42.6926 307.257 42.6384 307.38 42.6269C313.127 36.914 319.319 31.57 325.909 26.6347C329.126 24.277 332.281 21.8482 335.394 19.3811C339.013 16.5216 342.992 14.0452 347.25 12.0014C348.379 11.456 349.493 10.8868 350.581 10.2735C344.45 12.4015 338.57 15.0631 333.024 18.2199V18.2199ZM365.745 5.50241C361.811 7.58916 358.137 10.0436 354.785 12.8242C350.997 15.8343 347.182 18.8164 343.388 21.82C342.02 22.9032 340.627 23.9675 339.334 25.1195C331.508 32.0919 323.698 39.079 315.904 46.0806C315.004 46.8884 314.127 47.7162 313.251 48.545C313.27 48.5992 313.273 48.657 313.257 48.7121C313.242 48.7673 313.21 48.8177 313.165 48.8578C303.001 58.2341 292.844 67.6432 282.308 76.6953C281.719 77.2843 281.126 77.8705 280.537 78.4591C281.316 78.0117 282.125 77.5984 282.851 77.0906C290.377 71.8264 297.405 66.046 304.575 60.4109C309.749 56.3441 315.158 52.5078 320.205 48.3222C320.819 47.8135 321.421 47.2943 322.03 46.7819C322.044 46.7109 322.082 46.6453 322.138 46.5939C328.538 40.8348 334.941 35.0786 341.347 29.3252C347.665 23.6791 354.044 18.0744 360.058 12.1668C362.459 9.80886 364.797 7.40125 367.124 4.98531C366.619 5.0366 366.14 5.21605 365.745 5.50241V5.50241ZM368.467 4.83456L368.215 4.90496C363.362 10.159 358.444 15.3617 353.055 20.1904C350.84 22.1749 348.619 24.154 346.391 26.1279C346.273 26.2903 346.137 26.4422 345.986 26.5811C338.957 32.7925 331.988 39.0603 324.875 45.1932C324.144 45.841 323.412 46.4886 322.68 47.1362C322.633 47.1781 322.575 47.2083 322.511 47.2237C321.964 47.69 321.425 48.1633 320.876 48.6277C315.442 53.224 309.49 57.3291 303.954 61.8353C291.146 72.2621 277.602 81.8963 264.113 91.5939C262.17 92.991 260.266 94.432 258.344 95.8526C257.92 95.6728 257.582 95.7231 257.38 96.1391C256.968 96.4122 256.556 96.6853 256.145 96.9585L256.659 97.0696C258.129 96.5028 259.624 95.9873 261.145 95.5229C267.189 92.1198 273.252 88.7422 279.222 85.2375C281.742 83.7576 284.183 82.1691 286.621 80.5776C296.824 73.1467 306.69 65.3343 316.227 57.2435C328.776 46.6276 340.651 35.3949 351.796 23.5979C357.235 17.8242 362.591 11.9778 367.796 6.0324L368.467 4.83456ZM366.982 8.72567C367.284 8.27603 367.559 7.81234 367.835 7.34849C358.469 18.4244 348.457 29.0528 337.839 39.1896C326.091 50.4803 313.659 61.1885 300.598 71.266C297.524 73.6328 294.4 75.9458 291.25 78.2309C290.993 78.4509 290.724 78.6588 290.443 78.8535C290.289 78.9581 290.13 79.0564 289.976 79.1604C285.989 82.032 281.956 84.8527 277.879 87.6226C277.81 87.67 277.725 87.6945 277.639 87.6916C277.552 87.6887 277.469 87.6586 277.405 87.6067C274.037 89.784 270.617 91.9053 267.123 93.9228C268.178 93.4999 269.229 93.0694 270.261 92.6065C282.723 87.0915 294.446 80.336 305.204 72.4689C308.793 69.8199 312.298 67.0806 315.858 64.3997C315.895 64.3716 315.939 64.3507 315.978 64.3238C317.507 62.9639 319.021 61.5901 320.541 60.2342C323.935 57.2058 327.267 54.123 330.537 50.9858C336.092 45.656 341.47 40.1843 346.788 34.6666C354.047 26.3563 360.789 17.6963 366.982 8.72567ZM286.548 86.3336C289.791 84.8176 292.898 83.0706 296.083 81.4542C301.778 78.4987 307.077 74.9733 311.876 70.9464C321.245 63.2255 329.937 54.8757 337.876 45.9704C338.239 45.5123 338.565 45.0316 338.851 44.5319C336.497 46.8775 334.105 49.1913 331.675 51.4735C328.305 54.618 324.87 57.7063 321.371 60.7384C317.811 63.8233 314.049 66.7059 310.47 69.7686C310.423 69.8113 310.362 69.8382 310.296 69.8446C310.23 69.851 310.163 69.8366 310.108 69.8037C307.502 71.7133 304.819 73.5406 302.185 75.421C293.895 81.29 285.007 86.4536 275.638 90.8442C275.328 91.0216 275.043 91.2318 274.789 91.4702C278.715 89.7679 282.684 88.14 286.548 86.3336ZM274.539 91.5901L272.653 92.1435L272.833 92.491L274.539 91.5901ZM256.194 97.2496L256.096 96.9868C255.355 97.3936 254.6 97.8075 253.727 98.2869C254.541 97.9261 255.362 97.5777 256.194 97.2496ZM250.613 99.4626C253.422 97.6265 256.158 95.6999 259.005 93.9128C264.144 90.6394 269.035 87.0672 273.647 83.2196C273.61 83.1433 273.6 83.0586 273.62 82.9772C273.639 82.8959 273.686 82.822 273.755 82.7659C280.894 76.5326 288.091 70.3515 295.215 64.1057C299.119 60.6033 303.029 57.1058 306.944 53.6131C307.031 53.5355 307.135 53.4731 307.229 53.4009C307.952 52.743 308.673 52.0829 309.391 51.4206C309.541 51.2165 309.71 51.0246 309.898 50.8471C319.48 42.0998 329.074 33.3635 338.682 24.6383C339.263 24.1095 339.871 23.6017 340.493 23.1106C345.968 18.7878 351.433 14.4537 356.939 10.1631C358.591 8.87579 360.366 7.71386 361.97 6.34061C360.879 6.82732 359.789 7.31399 358.698 7.8006C345.871 16.6373 333.393 25.8853 321.264 35.5447C313.14 42.5727 305.242 49.7891 297.685 57.318C289.628 65.3452 281.562 73.3677 273.201 81.1571C266.633 87.1721 259.55 92.7223 252.016 97.7578C250.847 98.6235 249.726 99.5408 248.66 100.506C249.332 100.191 249.984 99.8423 250.613 99.4626V99.4626ZM343.707 89.6609C341.538 88.9946 339.324 88.455 337.077 88.0457C331.028 86.9723 324.888 86.3597 318.723 86.2147C315.307 86.2054 311.901 86.5474 308.572 87.234C303.855 88.1602 299.075 88.8415 294.383 89.8535C290.544 90.6815 286.794 91.84 283.005 92.8521L283.088 93.1019C287.132 92.241 291.176 91.3801 295.22 90.5193C300.167 89.4875 305.214 88.8833 310.292 88.7152C320.443 88.2463 330.621 88.582 340.706 89.7184C341.447 89.8077 342.198 89.8384 342.946 89.8771C343.208 89.8317 343.463 89.7591 343.707 89.6609V89.6609ZM353.562 92.3069C351.343 91.634 349.064 91.1302 346.749 90.8009C339.867 90.2897 332.989 89.5725 326.094 89.3898C317.446 88.9785 308.774 89.3393 300.207 90.4666C296.439 91.0425 292.719 91.8735 288.995 92.6547C284.868 93.5203 280.74 94.3899 276.654 95.3942C273.767 96.1291 270.934 97.0218 268.17 98.0672C269.02 97.8176 269.862 97.5398 270.723 97.3236C273.925 96.5188 277.114 95.6597 280.349 94.9713C282.222 94.6352 284.115 94.3928 286.018 94.2453C289.898 93.8218 293.776 93.3821 297.663 93.0298C300.886 92.7378 304.118 92.4825 307.353 92.3556C310.926 92.2156 314.509 92.1497 318.083 92.2163C322.572 92.2998 327.068 92.4221 331.539 92.7587C338.765 93.167 346.014 93.13 353.234 92.648C353.291 92.6452 353.342 92.541 353.562 92.3069V92.3069ZM356.759 93.4246C354.431 93.4377 352.096 93.4749 349.775 93.6297C342.798 94.049 335.795 93.9892 328.828 93.4511C324.605 93.1541 320.353 93.1749 316.113 93.1151C313.451 93.0777 310.787 93.1695 308.124 93.1788C304.212 93.1727 300.306 93.4482 296.444 94.0028C293.323 94.4622 290.178 94.7696 287.02 94.9236C281.764 95.2431 276.611 96.3815 271.795 98.2872C272.889 98.2014 273.982 98.1031 275.078 98.0319C289.019 97.1253 302.947 96.0855 316.958 96.3944C322.099 96.5077 327.258 96.0055 332.408 95.7747C340.717 95.4025 349.026 95.0251 357.335 94.6427C358.318 94.5973 359.299 94.5107 360.28 94.4433C359.817 94.0477 359.26 93.7506 358.651 93.5742C358.041 93.3978 357.394 93.3467 356.759 93.4246ZM330.912 99.5614C326.564 100.219 322.168 100.595 317.758 100.687C313.935 100.78 310.118 101.056 306.295 101.183C302.392 101.313 298.48 101.504 294.579 101.413C287.167 101.24 279.777 101.528 272.387 101.934C271.534 102.02 270.688 102.157 269.855 102.345C271.127 102.409 272.403 102.549 273.671 102.501C280.155 102.236 286.653 102.388 293.113 102.956C294.521 103.086 295.934 103.149 297.349 103.145C303.588 103.119 309.831 103.169 316.062 102.958C319.214 102.774 322.349 102.404 325.445 101.851C330.278 101.108 335.092 100.27 339.902 99.4174C342.497 98.9576 345.067 98.3845 347.616 97.7216C342.005 98.084 336.443 98.7082 330.912 99.5614V99.5614ZM264.812 103.567C273.422 103.525 281.887 104.84 290.405 105.687C302.007 106.93 313.76 106.413 325.168 104.157C331.376 102.913 337.483 101.298 343.448 99.3212C335.785 100.69 328.724 102.021 321.627 103.181C319.001 103.567 316.347 103.777 313.687 103.808C308.945 103.937 304.202 103.982 299.455 103.942C296.213 103.911 292.966 103.743 289.735 103.495C285.256 103.144 280.759 103.03 276.265 103.153C273.356 103.237 270.441 103.171 267.53 103.22C266.492 103.238 265.458 103.383 264.422 103.478C264.545 103.527 264.677 103.557 264.812 103.567V103.567ZM293.777 100.51C297.937 100.475 302.095 100.317 306.252 100.175C309.996 100.048 313.735 99.7881 317.479 99.7279C322.972 99.5594 328.445 99.0499 333.859 98.2031C338.215 97.5883 342.616 97.2345 346.991 96.7187C348.904 96.508 350.789 96.1326 352.621 95.5978C351.982 95.5846 351.339 95.5297 350.704 95.5645C344.139 95.9256 337.571 96.2441 331.014 96.6905C325.622 97.1236 320.209 97.3023 314.796 97.2257C304.387 97.0979 293.977 97.4546 283.61 98.2944C276.624 98.6284 269.67 99.3597 262.789 100.484C260.913 100.827 259.015 101.102 257.17 101.547C256.419 101.751 255.691 102.018 254.996 102.344C256.294 102.275 257.592 102.211 258.889 102.15C258.961 102.142 259.034 102.149 259.104 102.169C259.173 102.189 259.237 102.222 259.291 102.265C259.345 102.309 259.388 102.362 259.417 102.421C259.446 102.481 259.461 102.545 259.46 102.61C262.278 102.473 265.052 101.994 267.851 101.705C276.464 100.9 285.118 100.501 293.777 100.51V100.51ZM230.193 110.485C228.961 110.601 228.295 110.799 227.853 111.365C228.48 111.129 229.126 110.887 230.193 110.485V110.485ZM227.703 111.447L225.756 112.018C226.108 112.091 226.476 112.076 226.819 111.975C227.162 111.875 227.468 111.692 227.703 111.447V111.447ZM222.078 114.308C221.018 114.356 220.518 114.554 220.155 114.986C220.648 114.812 221.162 114.631 222.078 114.308V114.308ZM197.442 128.033C204.778 123.807 211.882 119.257 219.547 115.491C219.73 115.373 219.891 115.229 220.021 115.064C215.886 116.324 211.972 118.103 208.4 120.348C203.948 123.182 199.426 125.928 194.95 128.731C194.475 129.066 194.031 129.433 193.62 129.829C194.902 129.242 196.237 128.727 197.442 128.033V128.033ZM196.439 80.1329C193.115 83.2567 190.114 86.6414 187.471 90.2458C180.992 98.4418 175.658 107.313 171.589 116.662C170.043 120.496 168.832 124.44 167.506 128.343C167.37 128.9 167.291 129.467 167.272 130.036C168.344 127.806 169.4 125.569 170.493 123.347C171.728 120.835 172.866 118.276 174.274 115.842C179.117 107.472 183.708 98.9768 189.424 91.0314C192.028 87.4106 194.7 83.8283 197.33 80.2217C197.68 79.7414 197.963 79.222 198.275 78.7198C197.659 79.1872 196.998 79.6163 196.439 80.1329V80.1329ZM251.544 27.9874C246.988 32.7335 243.346 38.0828 239.104 43.0396C236.285 46.4488 233.251 49.7116 230.016 52.8123C229.496 53.2943 228.944 53.7529 228.468 54.2679C219.892 63.5558 210.585 72.3087 202.766 82.1536C202.154 82.8351 201.494 83.4815 200.791 84.0888C201.056 83.4874 201.373 82.905 201.738 82.3468C205.613 77.3357 209.799 72.5223 214.277 67.9292C216.616 65.5151 218.858 63.0269 221.194 60.6104C224.18 57.5204 227.269 54.5086 230.216 51.3891C233.216 48.2135 236.101 44.9518 239.019 41.715C239.228 41.4333 239.397 41.1296 239.523 40.8107C239.003 41.1218 238.51 41.4665 238.047 41.8419C228.758 50.2711 219.482 58.7111 210.218 67.1621C208.825 68.4354 207.55 69.8186 206.296 71.2048C198.118 80.3261 190.798 90.0341 184.411 100.23C183.959 100.942 183.5 101.651 183.083 102.378C180.194 107.408 177.315 112.441 174.444 117.479C173.621 118.933 172.913 120.438 172.126 121.971C172.429 122.134 172.62 122.238 172.812 122.34C172.491 123.002 172.208 123.681 171.843 124.323C169.985 127.594 168.098 130.854 166.245 134.127C166.109 134.436 166.02 134.76 165.978 135.09C166.517 134.575 167.015 134.026 167.467 133.448C171.089 128.2 174.861 123.025 178.233 117.651C182.209 111.296 186.617 105.163 191.431 99.2872C194.037 96.1122 196.623 92.9235 199.188 89.7213C202.82 85.1838 206.842 80.9307 210.865 76.6689C216.117 71.1037 221.213 65.42 226.327 59.7516C231.232 54.3151 236.221 48.9311 240.896 43.3406C244.775 38.7029 248.273 33.8103 251.888 28.9995C252.403 28.1963 252.841 27.3555 253.197 26.4861C252.641 26.9824 252.055 27.4559 251.544 27.9874V27.9874ZM231.64 66.4911C228.153 69.8705 224.65 73.238 221.184 76.6347C219.561 78.2252 218.112 79.9653 216.405 81.4774C210.437 86.7656 205.023 92.4948 199.498 98.1373C198.557 99.0783 197.68 100.07 196.873 101.106C191.131 108.658 185.039 116.003 179.846 123.881C179.091 125.026 178.442 126.227 177.745 127.403C177.467 127.757 177.19 128.111 176.913 128.465C177.251 128.143 177.589 127.82 177.927 127.497C178.504 126.969 179.123 126.473 179.651 125.909C188.499 116.452 197.452 107.07 206.141 97.4986C214.833 87.9246 223.074 78.0358 230.994 67.9387C231.297 67.5004 231.569 67.0456 231.808 66.577C232.157 66.0841 232.506 65.5912 232.856 65.0983L231.64 66.4911ZM231.714 64.5936C237.013 57.8549 241.794 50.8042 246.025 43.4896C246.185 43.201 246.323 42.9032 246.468 42.6083C246.004 43.0563 245.575 43.5319 245.184 44.0318C243.141 46.9216 241.056 49.7909 239.132 52.7429C234.555 59.6532 229.243 66.1541 223.268 72.1555C219.98 75.5086 216.765 78.9192 213.545 82.3247C213.136 82.8138 212.772 83.3318 212.456 83.8734C213.08 83.4627 213.671 83.0141 214.225 82.5307C216.253 80.5712 218.243 78.5798 220.23 76.5867C222.438 74.3722 224.65 72.1604 226.817 69.9137C228.565 68.2277 230.2 66.4513 231.714 64.5936V64.5936ZM214.756 79.8667C217.892 76.5893 221.035 73.3171 224.185 70.05C229.101 64.9959 233.496 59.5568 237.317 53.7988C240.367 49.1931 243.563 44.6642 246.641 40.0726C247.622 38.6087 248.469 37.0692 249.299 35.5308C249.596 34.8788 249.836 34.2071 250.016 33.5217C249.462 34.0189 248.949 34.5514 248.482 35.1151C243.273 42.1164 237.614 48.8422 231.533 55.2586C225.934 61.2563 220.498 67.3742 214.99 73.4389C214.466 74.0164 213.965 74.614 213.406 75.164C203.412 85.0015 195.07 95.9616 186.63 106.836C183.18 111.283 180.466 116.184 177.428 120.884C177.34 121.064 177.285 121.255 177.266 121.45C177.791 121.023 178.285 120.567 178.744 120.084C183.486 114.526 188.215 108.96 192.932 103.386C199.831 95.2691 207.347 87.6077 214.756 79.8667V79.8667ZM257.253 24.7329C257.666 23.6523 257.86 22.5147 257.827 21.3733C257.613 21.7082 257.397 22.0418 257.187 22.3785C254.552 26.6844 252.253 31.1476 250.307 35.7363C250.007 36.4288 249.599 37.0844 249.226 37.7519C252.583 33.7755 255.286 29.3915 257.253 24.7329ZM185.301 126.737C206.39 110.771 223.987 91.4644 237.204 69.7902C240.185 64.8097 242.891 59.6974 245.68 54.627C246.002 53.9273 246.254 53.2036 246.433 52.4643C245.967 53.105 245.461 53.7266 245.064 54.3994C243.321 57.3553 241.598 60.3211 239.896 63.2968C236.771 68.7102 233.209 73.9143 229.239 78.8681C226.394 82.4371 223.614 86.0494 220.671 89.5526C217.729 93.0545 214.683 96.4898 211.57 99.8724C207.348 104.461 203.15 109.077 198.7 113.487C194.195 117.95 189.392 122.174 184.728 126.511C184.14 127.058 183.595 127.643 183.035 128.214C183.798 127.73 184.597 127.282 185.301 126.737ZM174.714 133.73C178.202 130.863 181.42 127.745 184.336 124.408C187.158 121.292 190.07 118.241 192.993 115.2C203.551 104.215 214.029 93.1702 223.462 81.3817C225.972 78.2443 228.19 74.9219 230.57 71.7006C231.107 70.9733 231.759 70.3132 232.358 69.6221C232.183 70.177 231.957 70.7184 231.683 71.2408C228.836 75.8554 225.605 80.2728 222.016 84.4558C220.43 86.2668 218.869 88.0983 217.373 89.9686C213.649 94.6229 209.377 98.8765 205.335 103.3C199.346 109.854 192.986 116.115 186.911 122.598C186.35 123.272 185.843 123.98 185.395 124.718C185.83 124.435 186.246 124.13 186.641 123.803C191.984 119.111 197.048 114.173 201.814 109.009C203.641 106.983 205.508 104.981 207.465 103.056C214.502 95.8092 221.071 88.2114 227.141 80.2991C232.408 73.7868 237.042 66.8858 240.995 59.6709C243.838 54.4599 246.842 49.3191 249.717 44.1218C250.147 43.1993 250.498 42.2489 250.767 41.2789L250.019 41.9376C250.214 41.2374 250.457 40.5484 250.746 39.8745C251.933 37.5131 253.171 35.1723 254.392 32.8248C253.728 33.5691 253.128 34.3568 252.596 35.1814C250.827 38.2989 249.187 41.4749 247.426 44.5966C242.437 53.6003 236.632 62.2253 230.068 70.3855C223.299 78.6796 216.391 86.8843 209.45 95.0649C207.039 97.9065 204.335 100.55 201.786 103.299C192.542 113.266 183.307 123.24 174.079 133.22C173.611 133.785 173.185 134.376 172.804 134.991C173.464 134.6 174.102 134.179 174.714 133.73V133.73ZM163.08 143.385C164.965 141.318 166.741 139.173 168.595 137.083C171.812 133.406 174.794 129.57 177.529 125.595C180.95 120.696 184.6 115.925 188.133 111.088C188.588 110.464 188.952 109.786 189.348 109.127C188.852 109.543 188.386 109.985 187.952 110.451C184.183 114.87 180.442 119.308 176.672 123.726C176.246 124.163 175.787 124.572 175.297 124.951L175.292 124.938C175.003 125.602 174.652 126.243 174.245 126.855C171.628 130.192 169.008 133.528 166.298 136.804C164.569 138.704 163.226 140.858 162.329 143.171C162.074 143.931 161.669 144.651 161.328 145.388C162.36 145.045 162.481 144.042 163.08 143.385ZM172.401 142.845C174.97 141.087 177.528 139.317 180.075 137.533C180.291 137.364 180.49 137.178 180.669 136.976C179.699 137.433 178.754 137.933 177.84 138.474C176.114 139.584 174.431 140.752 172.78 141.95C172.219 142.41 171.7 142.909 171.227 143.442C171.636 143.272 172.028 143.072 172.401 142.845V142.845ZM169.739 144.43L167.905 145.821C168.694 145.586 169.351 145.087 169.739 144.43V144.43ZM167.565 146.023C165.277 147.068 163.291 148.571 161.761 150.414C163.696 148.951 165.631 147.487 167.565 146.023V146.023ZM139.841 177.066C140.485 176.848 141.13 176.63 141.774 176.412C141.416 176.35 141.045 176.379 140.703 176.494C140.362 176.61 140.063 176.808 139.841 177.066V177.066ZM202.228 162.58C207.46 162.282 212.675 162.33 217.903 162.465C218.276 162.417 218.653 162.389 219.03 162.38C228.606 162.184 238.151 161.345 247.585 159.871C253.741 158.955 259.868 157.886 266.005 156.869C266.586 156.766 267.133 156.545 267.602 156.222C267.287 156.256 266.971 156.285 266.657 156.324C261.03 156.908 255.352 156.994 249.706 156.579C247.219 156.444 244.714 156.582 242.217 156.603C237.972 156.639 233.727 156.706 229.482 156.711C223.154 156.557 216.822 156.796 210.531 157.427C205.585 158.051 200.651 158.755 195.703 159.364C193.148 159.679 190.568 159.825 188.011 160.126C186.773 160.27 185.552 160.515 184.363 160.855C180.082 162.088 175.784 163.289 171.568 164.683C168.713 165.691 165.921 166.835 163.203 168.109C169.86 166.578 176.621 165.431 183.444 164.677C183.468 164.623 183.509 164.575 183.561 164.539C183.613 164.503 183.675 164.48 183.741 164.473C189.863 163.559 196.033 162.927 202.228 162.58V162.58ZM143.871 175.441C146.919 174.167 149.968 172.893 153.017 171.619C149.761 172.454 146.674 173.744 143.871 175.441V175.441ZM272.37 152.53C272.134 152.458 271.885 152.422 271.635 152.424C260.626 151.299 249.641 149.953 238.549 149.604C231.049 149.532 223.552 149.887 216.102 150.667C210.548 151.124 204.998 151.701 199.484 152.449C190.754 153.714 182.22 155.884 174.054 158.915C171.195 159.944 168.313 160.926 165.489 162.028C157.138 165.22 149.099 169.025 141.454 173.403C138.664 175.027 135.844 176.61 133.047 178.224C132.757 178.41 132.485 178.618 132.235 178.845C135.019 177.475 137.836 176.155 140.576 174.718C148.47 170.578 156.521 166.702 164.825 163.26C170.491 160.913 176.404 159.074 182.478 157.77C185.389 157.143 188.281 156.444 191.172 155.746C196.987 154.449 202.921 153.618 208.902 153.264C213.287 152.928 217.702 152.881 222.105 152.749C224.432 152.678 226.763 152.726 229.091 152.678C231.716 152.623 234.331 152.677 236.948 152.811C248.963 152.229 261.005 152.251 273.017 152.878C272.809 152.75 272.594 152.634 272.37 152.53V152.53ZM276.87 153.827C268.773 153.516 260.673 153.38 252.571 153.377L252.698 153.386L252.697 153.39C249.842 153.901 246.927 154.092 244.02 153.958C243.103 153.961 242.187 153.909 241.278 153.802C240.093 153.687 238.909 153.591 237.724 153.513C237.394 153.519 237.064 153.523 236.734 153.529C236.689 153.531 236.644 153.525 236.601 153.511C236.558 153.498 236.519 153.477 236.485 153.449C228.6 153.109 220.699 153.204 212.827 153.732C204.329 154.098 195.905 155.331 187.721 157.406C183.17 158.614 178.597 159.757 174.05 160.975C168.202 162.729 162.545 164.954 157.15 167.623C153.23 169.413 149.379 171.33 145.596 173.375C145.825 173.362 146.052 173.328 146.273 173.272C151.294 171.473 156.324 169.69 161.328 167.853C165.794 166.213 170.192 164.423 174.691 162.86C179.468 161.09 184.46 159.826 189.567 159.093C196.33 158.256 203.1 157.458 209.862 156.611C216.153 155.961 222.488 155.708 228.819 155.852C233.149 155.856 237.48 155.78 241.81 155.787C245.723 155.794 249.639 155.801 253.549 155.93C257.127 156.079 260.713 155.979 264.275 155.633C266.672 155.38 269.084 155.223 271.494 155.083C273.349 154.918 275.163 154.494 276.87 153.827V153.827ZM280.298 153.975C279.724 153.949 279.15 153.922 278.577 153.899C278.038 154.047 277.513 154.231 277.005 154.449C277.561 154.578 278.141 154.603 278.707 154.521C279.274 154.44 279.816 154.254 280.298 153.975V153.975ZM192.467 167.493C204.952 167.214 217.431 166.774 229.883 165.848C236.856 165.336 243.775 164.347 250.578 162.888C255.269 161.878 259.953 160.807 264.562 159.538C268.068 158.514 271.496 157.29 274.826 155.873C274.204 155.862 273.582 155.888 272.963 155.95C272.062 156.088 271.18 156.323 270.289 156.51C260.806 158.492 251.23 160.058 241.609 161.375C233.797 162.49 225.897 163.04 217.986 163.02C217.522 162.998 217.063 162.928 216.618 162.812C211.866 162.885 207.101 163.105 202.346 163.438C200.18 163.852 197.976 164.088 195.761 164.143C193.074 164.283 190.4 164.507 187.735 164.786C186.462 164.928 185.191 165.075 183.922 165.226L183.909 165.225C179.523 165.779 175.161 166.478 170.816 167.265C164.445 168.307 158.271 170.148 152.479 172.735C153.006 172.704 153.529 172.64 154.046 172.545C166.525 169.266 179.458 167.565 192.467 167.493V167.493ZM139.309 177.313C138.566 177.566 137.731 177.673 137.24 178.333C137.93 177.993 138.62 177.653 139.309 177.313V177.313ZM125.633 184.581C128.249 183.24 130.646 181.585 132.755 179.66C130.849 180.074 129.093 180.914 127.651 182.099C127.028 182.577 126.32 182.966 125.697 183.444C124.973 183.952 124.403 184.613 124.04 185.369C124.573 185.108 125.128 184.878 125.633 184.581V184.581ZM118.632 191.364C120.7 189.758 122.757 188.142 124.804 186.516C125.202 186.169 125.579 185.802 125.931 185.417C123.612 185.881 121.57 187.098 120.202 188.831C119.323 189.907 118.436 190.978 117.552 192.051C117.927 191.841 118.288 191.612 118.632 191.364V191.364ZM3.53794 352.526C4.04948 352.244 4.48913 351.87 4.8286 351.428C5.16807 350.985 5.39973 350.484 5.50874 349.957C4.53973 350.585 3.84364 351.493 3.53794 352.526V352.526ZM2.12323 351.673C3.45656 351.278 3.75086 350.405 4.17382 349.639C3.68889 349.828 3.25488 350.107 2.90116 350.458C2.54743 350.809 2.28216 351.223 2.12323 351.673V351.673ZM6.72105 348.54L7.9812 346.915C7.6464 347.082 7.35883 347.316 7.14047 347.598C6.92211 347.879 6.77867 348.202 6.72105 348.54V348.54ZM45.8769 289.32C44.268 291.931 43.0004 294.71 41.5916 297.42C42.0224 297.048 42.4062 296.634 42.7363 296.187C45.4279 291.839 48.0945 287.479 50.7363 283.106C50.8847 282.795 50.9893 282.468 51.0474 282.134C49.3061 284.521 47.4099 286.831 45.8769 289.32V289.32ZM51.1157 282.021C52.1456 281.075 52.9261 279.935 53.4005 278.686C52.351 279.619 51.5675 280.763 51.1157 282.021V282.021ZM139.689 223.167C132.248 225.538 124.753 227.786 117.396 230.349C110.594 232.774 104.096 235.828 98.0074 239.46C96.3304 240.443 94.6955 241.483 93.0433 242.499C93.6058 242.307 94.1539 242.082 94.684 241.826C102.85 237.532 111.374 233.805 120.18 230.676C127.574 228.011 134.95 225.283 142.31 222.491C141.435 222.714 140.544 222.895 139.689 223.167V223.167ZM106.788 252.215C109.073 251.929 111.367 251.696 113.64 251.349C124.717 249.655 135.809 248.03 146.852 246.172C151.995 245.306 157.078 244.087 162.116 242.803C167.078 241.538 171.95 239.991 176.859 238.561C185.362 235.941 193.648 232.79 201.656 229.132C206.655 226.944 211.628 224.707 216.549 222.335C215.327 222.694 214.071 222.979 212.89 223.424C208.446 225.099 204.028 226.829 199.597 228.531C197.534 229.324 195.472 230.12 193.395 230.883C183.209 234.574 172.816 237.793 162.258 240.529C160.664 240.95 159.002 241.158 157.395 241.542C152.089 242.809 146.817 244.194 141.487 245.371C138.343 246.065 135.122 246.499 131.921 246.966C123.695 248.117 115.548 249.676 107.516 251.634C107.236 251.704 106.963 251.795 106.686 251.876L106.788 252.215ZM63.2103 264.846C64.5121 264.228 65.8324 263.639 67.1103 262.984C73.491 259.74 80.3274 257.269 87.4393 255.635C94.6906 253.935 102.013 252.497 109.146 250.377C116.17 248.484 123.35 247.091 130.62 246.21C136.804 245.416 142.914 244.215 148.899 242.616C153.329 241.348 157.95 240.615 162.481 239.624C164.098 239.27 165.717 238.907 167.305 238.464C175.502 236.179 183.622 233.69 191.59 230.833C196.3 229.144 200.91 227.232 205.609 225.517C209.461 224.11 213.369 222.826 217.27 221.528C218.901 220.985 220.576 220.547 222.762 219.905C221.536 219.306 220.116 219.102 218.741 219.328C218.175 219.451 217.621 219.618 217.067 219.78C210.254 221.771 203.469 223.841 196.621 225.732C192.169 226.962 187.63 227.944 183.122 229.014C179.983 229.759 176.821 230.43 173.688 231.197C166.938 232.848 160.209 234.566 153.456 236.205C150.16 237.004 146.828 237.682 143.516 238.426C141.739 238.825 139.963 239.228 138.197 239.664C129.044 241.924 119.893 244.191 110.744 246.466C110.021 246.645 109.303 246.841 108.59 247.048C103.515 248.516 98.4607 250.043 93.364 251.448C87.9669 252.993 82.7007 254.881 77.6055 257.097C73.6922 258.751 69.8531 260.544 65.9401 262.199C65.291 262.428 64.7085 262.785 64.2358 263.244C63.7632 263.702 63.4125 264.25 63.2103 264.846V264.846ZM65.6803 261.299C67.3668 260.592 69.0757 259.925 70.7307 259.163C79.1053 255.159 87.9245 251.943 97.0458 249.567C99.6141 248.937 102.128 248.129 104.666 247.4C111.725 245.374 118.84 243.527 126.062 242.015C127.521 241.71 128.954 241.304 130.385 240.905C137.464 238.931 144.625 237.236 151.869 235.818C153.491 235.477 155.092 235.059 156.665 234.567C164.103 232.355 171.743 230.822 179.347 229.166C182.016 228.585 184.664 227.928 187.332 227.343C196.888 225.246 206.238 222.549 215.539 219.704C215.867 219.562 216.188 219.405 216.499 219.233C214.82 219.453 213.688 219.63 212.549 219.745C209.591 220.155 206.61 220.424 203.62 220.553C197.875 220.603 192.141 221.035 186.468 221.846C183.343 222.279 180.196 222.592 177.052 222.896C173.573 223.227 170.136 223.844 166.785 224.74C162.242 225.963 157.631 226.997 153.136 228.343C145.794 230.542 138.52 232.92 131.223 235.237C126.673 236.682 122.11 238.102 117.596 239.634C114.02 240.847 110.514 242.223 106.967 243.506C103.959 244.594 100.974 245.745 97.9145 246.704C91.8749 248.619 85.9943 250.912 80.3167 253.566C77.0676 255.07 73.7715 256.502 70.5993 258.126C68.8929 259.099 67.2504 260.158 65.6803 261.299V261.299ZM68.6771 258.096C69.5798 257.624 70.492 257.165 71.378 256.669C71.8294 256.413 72.229 256.09 72.5602 255.715C70.9686 256.029 69.5762 256.883 68.6771 258.096V258.096ZM84.1774 251.201C88.7448 249.206 93.492 247.617 98.2449 246.014C103.379 244.283 108.395 242.275 113.463 240.388C114.001 240.188 114.533 239.972 115.082 239.798C123.795 237.038 132.516 234.297 141.222 231.521C144.358 230.52 147.417 229.314 150.587 228.417C157.335 226.51 164.105 224.657 170.924 222.968C173.446 222.487 176.001 222.15 178.571 221.958C183.021 221.389 187.461 220.744 191.922 220.265C194.895 219.941 197.885 219.752 200.879 219.701C204.959 219.633 209.03 219.35 213.072 218.853C213.582 218.737 214.083 218.592 214.573 218.42C212.307 218.035 210.598 217.795 208.917 217.446C206.498 216.871 203.967 216.77 201.5 217.151C200.267 217.336 199.019 217.429 197.769 217.428C188.201 217.836 178.689 218.973 169.338 220.827C167.714 221.159 166.113 221.578 164.545 222.082C156.791 224.365 149.018 226.602 141.307 228.995C137.065 230.312 132.92 231.881 128.751 233.383C123.658 235.217 118.597 237.123 113.503 238.956C105.708 241.762 97.8549 244.449 90.2764 247.702C87.0572 249.084 83.9784 250.726 80.8478 252.27C80.5363 252.454 80.25 252.669 79.9946 252.912C81.3908 252.345 82.8003 251.803 84.1774 251.201V251.201ZM82.2228 250.683C86.2569 248.6 90.4504 246.774 94.7721 245.217C100.305 243.173 105.838 241.129 111.372 239.085C116.292 237.272 121.252 235.537 126.133 233.643C139.139 228.594 152.7 224.942 166.109 220.908C171.142 219.586 176.289 218.64 181.497 218.082C187.387 217.119 193.351 216.566 199.337 216.427C199.362 216.261 199.387 216.095 199.412 215.929C197.522 215.778 195.636 215.578 193.743 215.485C184.672 215.091 175.58 215.583 166.629 216.953C164.66 217.241 162.701 217.626 160.772 218.08C157.31 218.895 153.827 219.672 150.439 220.694C146.578 221.858 142.81 223.267 139.006 224.581C137.842 224.982 136.715 225.478 135.534 225.829C130.23 227.403 125.181 229.522 120.081 231.531C117.874 232.401 115.649 233.235 113.447 234.115C106.148 237.018 99.0651 240.336 92.2419 244.047C89.332 245.636 86.2953 247.045 83.4383 248.703C80.8548 250.208 78.4383 251.93 76.2216 253.844C78.2221 252.791 80.2225 251.737 82.2228 250.683V250.683ZM69.0173 253.25C69.4469 252.99 69.8137 252.656 70.0957 252.267C70.3777 251.878 70.5693 251.443 70.659 250.987C70.1117 251.741 69.5644 252.495 69.0173 253.25V253.25ZM70.6873 250.938C71.5422 250.373 72.1415 249.553 72.3763 248.628C71.9367 248.893 71.5609 249.234 71.2709 249.631C70.9809 250.028 70.7825 250.472 70.6873 250.938V250.938ZM93.3675 209.4C93.9119 208.468 94.3793 207.501 94.7658 206.508C95.9803 202.701 97.1439 198.882 98.3177 195.065C98.3071 195.026 98.3075 194.985 98.3189 194.945C98.9507 192.766 99.5469 190.578 100.163 188.395C100.174 188.348 100.189 188.301 100.203 188.255C100.407 187.532 100.611 186.809 100.814 186.085C100.847 185.88 100.904 185.678 100.983 185.482C104.598 172.538 107.981 159.544 111.232 146.523C111.885 143.795 112.56 141.072 113.259 138.353C113.495 137.394 113.737 136.436 113.972 135.476C114.957 131.459 115.901 127.435 116.857 123.412C118.307 116.119 119.239 108.752 119.649 101.354C119.888 96.9835 120.306 92.6212 120.652 88.2553C119.03 96.5837 117.101 104.864 115.148 113.137C115.142 113.162 115.121 113.167 115.109 113.185C114.468 116.542 113.815 119.897 113.151 123.25C112.055 128.73 110.888 134.198 109.774 139.675C109.06 143.18 108.418 146.698 107.682 150.199C106.884 153.991 106.047 157.777 105.169 161.555C104.309 165.261 103.436 168.966 102.467 172.651C100.985 178.287 99.5295 183.933 97.8514 189.524C96.1557 194.65 94.865 199.876 93.9889 205.163C93.7952 206.577 93.576 207.988 93.3675 209.4ZM99.1375 196.431C99.4317 195.799 99.7471 195.173 100.002 194.528C103.546 185.573 106.513 176.443 108.887 167.185C111.123 158.437 113.433 149.701 115.471 140.915C116.446 136.713 116.873 132.41 117.533 128.15C117.576 127.733 117.591 127.315 117.577 126.896C117.406 127.114 117.268 127.35 117.166 127.6C116.97 128.289 116.774 128.978 116.579 129.667C112.928 146.001 108.564 162.231 103.856 178.333C102.906 181.581 101.92 184.82 100.948 188.063C100.935 188.452 100.822 188.832 100.616 189.175C100.513 189.516 100.413 189.857 100.31 190.197C100.223 191.264 100.004 192.318 99.6591 193.342C99.4817 194.371 99.3109 195.401 99.1375 196.431ZM97.7705 140.196C95.8629 146.157 94.6405 152.275 94.1222 158.457C94.1024 159.064 94.1181 159.672 94.1693 160.278C94.3165 159.678 94.4769 159.081 94.5992 158.477C95.8091 152.502 97.0123 146.526 98.2088 140.549C98.2833 140.077 98.3301 139.602 98.3489 139.126C98.114 139.463 97.9201 139.822 97.7705 140.196V140.196ZM102.659 125.043C102.367 125.56 102.112 126.093 101.898 126.64C100.935 129.67 99.998 132.707 99.0864 135.75C98.9695 136.263 98.9046 136.784 98.8924 137.307C99.1584 136.667 99.4494 136.034 99.6685 135.381C100.529 132.82 101.383 130.257 102.192 127.683C102.458 126.835 102.581 125.952 102.769 125.085C102.862 124.72 102.954 124.355 103.046 123.991C102.917 124.341 102.788 124.692 102.659 125.043V125.043ZM109.463 109.123C108.173 112.655 106.856 116.18 105.676 119.74C104.119 124.442 102.69 129.177 101.188 133.893C98.2223 143.877 96.115 154.049 94.8845 164.319C93.6972 173.766 93.227 183.273 93.4769 192.776C93.5043 195.145 93.2093 197.516 93.074 199.887C93.041 200.466 93.0515 201.046 93.0429 201.626C93.9078 199.87 94.4233 197.993 94.5666 196.08C95.5872 189.234 96.5299 182.379 97.5222 175.529C98.237 170.595 98.9998 165.666 99.711 160.731C100.305 156.606 100.902 152.482 101.416 148.349C102.657 139.878 104.466 131.481 106.833 123.203C108.03 118.649 109.115 114.071 110.206 109.496C110.318 108.807 110.366 108.111 110.348 107.415C110.01 107.966 109.715 108.537 109.463 109.123V109.123ZM119.974 82.6465C119.926 82.7469 119.878 82.8472 119.831 82.9473C119.421 83.5827 119.057 84.2411 118.743 84.9185C115.648 92.5268 113.261 100.35 111.607 108.308C110.734 112.911 109.542 117.476 108.251 122.002C105.235 131.812 103.118 141.824 101.919 151.94C101.636 154.82 101.075 157.678 100.659 160.548C99.3587 169.526 98.065 178.505 96.7781 187.485C96.7377 187.896 96.7231 188.308 96.7342 188.721C97.0556 188.165 97.3213 187.585 97.5284 186.987C99.0976 180.986 100.63 174.976 102.17 168.968C102.281 168.534 102.335 168.087 102.468 167.658C105.405 158.19 106.79 148.44 109.047 138.85C110.844 131.213 112.212 123.514 113.659 115.825C114.238 112.75 114.974 109.698 115.684 106.644C115.783 106.29 115.929 105.948 116.119 105.625C117.525 98.0063 118.809 90.37 120.159 82.7431L119.974 82.6465ZM108.581 184.316C116.002 170.438 120.992 155.626 123.377 140.398C124.598 132.239 125.023 124.002 124.648 115.778C124.62 115.228 124.526 114.68 124.455 114.131C124.328 114.669 124.173 115.203 124.092 115.747C122.808 124.364 121.92 133.045 120.172 141.587C117.564 155.451 113.709 169.105 108.644 182.417C108.246 183.416 108.017 184.469 107.72 185.5C108.044 185.127 108.332 184.732 108.581 184.316V184.316ZM104.917 189.65C105.641 187.596 106.459 185.567 107.273 183.539C110.569 174.889 113.364 166.094 115.647 157.188C118.846 144.888 121.234 132.431 122.797 119.881C123.905 112.291 124.066 104.614 123.278 96.9922C122.847 93.0049 122.65 88.9976 122.331 85.0004C122.286 84.4442 122.159 83.8937 122.062 83.341C121.533 85.4733 121.455 87.6752 121.834 89.8331L121.864 89.8466C122.15 90.6496 122.085 91.5197 121.681 92.2813L121.682 92.2821C121.799 93.0078 121.869 93.7389 121.893 94.4717C121.195 109.618 119.441 124.711 116.64 139.663C115.736 145.018 114.276 150.304 112.895 155.586C110.985 162.895 109.012 170.194 106.879 177.454C103.826 187.502 100.104 197.377 95.7342 207.03C95.4365 207.799 95.1918 208.584 95.0013 209.379C98.8835 203.046 102.199 196.449 104.917 189.65V189.65Z" fill="#A1A1A1"/>
</g>
</svg>
