<svg width="251" height="302" viewBox="0 0 251 302" fill="none" xmlns="http://www.w3.org/2000/svg">
<g style="mix-blend-mode:multiply" opacity="0.13">
<path d="M46.5088 130.185C48.6763 132.894 50.7051 135.71 52.5873 138.625C53.2989 139.742 54.077 140.816 54.9176 141.84C61.8664 150.581 69.4538 158.795 77.6173 166.413C80.0139 168.651 82.4095 170.89 84.773 173.163C85.3769 173.714 85.8941 174.353 86.3072 175.059C88.1502 178.224 89.6169 181.593 90.6774 185.099C91.2574 187.228 91.8789 189.347 92.4971 191.466C93.5038 194.916 94.4234 198.396 95.5565 201.805C98.5078 210.684 103.243 218.652 108.404 226.381C110.397 229.454 112.672 232.333 115.2 234.982C123.981 243.946 132.692 252.981 141.61 261.807C149.649 269.764 157.407 277.932 163.807 287.302C164.044 287.547 164.32 287.751 164.623 287.906C165.348 287.46 165.248 286.899 165.125 286.334C164.722 284.486 164.411 282.612 163.897 280.796C160.683 268.847 156.207 257.273 150.544 246.271C145.583 236.684 139.713 227.597 133.013 219.134C125.52 210.019 117.288 201.539 108.401 193.777C103.974 189.838 99.6087 185.83 95.2336 181.832C94.778 181.365 94.3573 180.865 93.9749 180.337C94.3849 180.558 94.7832 180.8 95.168 181.063C99.6303 184.359 104.064 187.694 108.545 190.964C120.326 199.554 133.084 206.717 146.552 212.301C150.573 213.979 154.215 216.449 157.263 219.563C162.222 224.596 166.768 230.02 170.857 235.783C176.919 244.242 183.08 252.626 189.667 260.693C193.847 265.748 198.358 270.52 203.17 274.977C206.475 278.09 209.944 281.024 213.561 283.768C216.934 286.314 220.531 288.549 224.309 290.443C226.22 291.402 228.226 292.178 230.207 292.991C233.298 294.26 236.425 295.442 239.499 296.75C243.018 298.139 246.428 299.788 249.702 301.685C250.076 301.84 250.47 301.946 250.871 302C250.973 301.622 251.015 301.23 250.996 300.838C250.856 300.42 250.663 300.022 250.42 299.654C243.575 287.285 235.703 275.513 226.887 264.462C220.792 256.735 214.157 249.45 207.033 242.66C202.884 238.786 198.355 235.339 193.515 232.373C187.059 228.404 180.081 225.453 173.844 221.944C175.062 222.344 176.668 222.84 178.251 223.4C182.748 225.059 187.356 226.402 192.041 227.417C195.129 228.042 198.231 228.62 201.346 229.094C203.516 229.49 205.715 229.698 207.921 229.717C214.995 229.673 222.027 228.603 228.795 226.543C233.7 224.903 238.732 223.671 243.84 222.861C244.008 222.836 244.156 222.673 244.406 222.517L244.422 221.406C243.766 221.098 243.164 220.758 242.523 220.524C240.746 219.877 238.969 219.217 237.162 218.663C231.614 216.963 226.064 215.271 220.492 213.652C216.646 212.418 212.696 211.537 208.691 211.02C200.025 210.137 191.283 210.337 182.666 211.615C178.93 212.165 175.153 212.493 171.382 212.743C168.367 212.944 165.332 212.93 162.307 212.906C160.227 212.943 158.147 212.822 156.086 212.543C152.012 212.011 148.085 210.671 144.535 208.603C143.626 208.04 142.655 207.575 141.715 207.06C135.525 203.795 129.511 200.207 123.698 196.31C121.086 194.435 118.375 192.701 115.577 191.117C109.5 187.769 103.754 183.852 98.4171 179.418C94.373 176.1 90.2485 172.878 86.1224 169.661C84.7401 168.668 83.563 167.417 82.6559 165.976C81.8601 164.53 80.675 163.335 79.235 162.527C78.6663 162.132 78.1741 161.637 77.7826 161.066C76.5286 159.567 75.3012 158.045 74.0704 156.527C73.8341 156.235 73.6294 155.918 73.1884 155.304C73.8766 155.716 74.2064 155.895 74.5177 156.103C80.1277 159.74 86.0406 162.887 92.1909 165.51C94.4392 166.502 96.7493 167.355 99.0322 168.269C105.121 170.721 111.446 172.538 117.908 173.691C123.011 174.522 128.155 175.077 133.317 175.353C140.983 176.042 148.695 176.039 156.359 175.343C165.004 174.366 173.649 173.388 182.294 172.411C182.59 172.432 182.886 172.372 183.15 172.236C183.414 172.101 183.636 171.895 183.791 171.642C183.962 170.619 183.124 170.28 182.399 169.962C179.572 168.717 176.75 167.453 173.876 166.322C164.117 162.664 153.884 160.424 143.489 159.672C132.745 158.708 121.966 158.426 111.187 158.187C103.866 158.121 96.5787 157.192 89.4754 155.42C84.1358 154.137 78.9631 152.238 74.0612 149.762C67.2538 146.286 61.0328 141.765 55.6242 136.364C52.4674 133.099 49.534 129.625 46.8441 125.965C41.1564 118.482 35.8883 110.689 31.0642 102.622C29.0015 99.0796 27.0268 95.4913 24.7451 92.0778C23.4953 90.2076 22.4163 88.2233 21.2621 86.2891C21.8829 86.6831 22.5266 87.0464 23.1155 87.4834C24.8873 88.7981 26.6276 90.1554 28.3957 91.4753C33.9684 95.6352 40.0975 98.9094 46.025 102.503C49.9701 104.884 54.1364 106.878 58.4658 108.456C65.0971 110.888 71.7895 113.154 78.4617 115.475C85.0968 117.726 91.9733 119.191 98.9501 119.838C105.655 120.654 112.434 120.654 119.139 119.838C125.443 118.946 131.719 117.851 138.006 116.844C138.258 116.824 138.506 116.77 138.742 116.682C139.123 116.502 139.475 116.261 139.739 116.105C139.868 115.784 139.872 115.426 139.75 115.103C139.628 114.779 139.388 114.513 139.079 114.359C138.645 114.102 138.194 113.876 137.728 113.684C133.611 111.772 129.448 109.953 125.383 107.935C117.334 103.86 108.978 100.421 100.392 97.6508C96.5404 96.441 92.6964 95.2038 88.8196 94.0812C86.3392 93.3628 83.8213 92.7487 81.2909 92.2323C75.9166 91.1355 70.5313 90.093 65.1349 89.1049C59.9254 88.1562 54.7186 87.1408 49.4705 86.466C41.4522 85.4804 33.5645 83.6283 25.9454 80.9423C22.6249 79.7372 19.4005 78.2822 16.3 76.5897C14.7206 75.771 13.4672 74.4388 12.7463 72.8124C12.3827 72.008 11.9847 71.2187 11.5867 70.4304C10.3923 68.0662 9.2099 65.6955 7.98624 63.3465C6.55877 60.6059 5.01201 57.9248 3.65812 55.149C-0.660712 46.2948 -5.47656 37.7194 -10.6518 29.3427C-15.8889 20.8655 -21.2331 12.4515 -25.6998 3.52518C-25.9213 3.03514 -26.2397 2.59508 -26.636 2.23159C-27.0323 1.86809 -27.4982 1.5887 -28.0055 1.4103C-28.5182 1.18187 -29.0149 0.919186 -29.4924 0.62402C-29.9306 0.390609 -30.383 0.185009 -30.8471 0.00843219C-30.9766 -0.0381216 -31.1795 0.118996 -31.4282 0.212796C-31.3384 0.773659 -31.2516 1.31623 -31.1717 1.81558C-31.6602 2.39534 -31.9505 3.11616 -32 3.87266C-31.5796 4.28112 -31.1081 4.77548 -30.5992 5.22786C-27.2796 8.15021 -24.4397 11.5759 -22.1832 15.3796C-19.6912 19.618 -17.3996 23.9763 -15.0889 28.3187C-10.5252 36.8944 -5.93386 45.4568 -1.49449 54.097C2.5151 61.9011 6.80843 69.5452 11.2288 77.1159C17.5601 87.9591 24.3475 98.5208 31.3488 108.943C32.4522 110.561 33.2884 112.346 33.8254 114.229C34.1318 115.321 34.4455 116.414 34.7 117.52C35.9657 123.827 36.7421 130.223 37.0221 136.649C37.4655 142.799 37.2201 148.998 37.2926 155.175C37.3377 159.02 37.3598 162.866 37.4854 166.708C37.6422 170.933 38.1815 175.136 39.0967 179.264C41.2342 189.326 44.094 199.221 47.6538 208.871C50.19 215.665 52.9815 222.364 55.7538 229.066C57.006 232.093 58.4863 235.026 59.8703 237.999C60.0767 238.442 60.2306 238.983 60.9366 238.841C61.5145 238.4 61.4288 237.738 61.482 237.123C62.166 229.21 62.8167 221.294 63.5384 213.385C64.9717 196.811 63.1623 180.116 58.2114 164.233C55.3443 155.145 51.7628 146.298 47.5004 137.774C44.697 131.995 41.8932 126.216 39.0888 120.438C39.5369 120.948 40.0192 121.434 40.4243 121.977C42.4608 124.707 44.4425 127.478 46.5088 130.185ZM165.22 225.281C165.594 225.456 165.948 225.669 166.277 225.918C168.15 227.6 170.044 229.262 171.841 231.022C173.82 232.961 175.711 234.99 177.618 236.999C178.022 237.468 178.402 237.957 178.755 238.465C179.487 239.143 180.278 239.768 180.943 240.506C186.291 246.443 191.576 252.437 196.958 258.344C199.408 261.034 201.92 263.665 204.492 266.236C204.453 266.265 204.42 266.301 204.397 266.343C204.374 266.386 204.36 266.433 204.357 266.481C204.354 266.529 204.362 266.577 204.38 266.622C204.398 266.667 204.426 266.707 204.462 266.74C214.684 276.304 225.32 285.356 236.371 293.897C231.283 291.612 226.539 288.628 222.277 285.03C219.435 282.461 216.408 280.096 213.51 277.587C209.093 273.792 204.909 269.733 200.982 265.432C200.97 265.398 200.953 265.365 200.931 265.336C196.251 259.627 191.559 253.927 186.856 248.236C184.581 245.479 182.281 242.762 179.907 240.112C179.822 239.999 179.728 239.895 179.624 239.8C179.353 239.499 179.08 239.198 178.806 238.898L178.734 238.479C178.303 238.127 177.845 237.802 177.446 237.417C177.41 237.382 177.375 237.346 177.338 237.311C175.855 235.726 174.341 234.166 172.778 232.643C170.648 230.569 168.474 228.548 166.255 226.581C165.903 226.154 165.564 225.716 165.22 225.281ZM219.994 286.544C212.427 281.519 205.381 275.751 198.959 269.327C196.247 266.514 193.686 263.558 191.288 260.473C183.861 251.31 176.816 241.857 170.053 232.194C169.287 231.099 168.52 230.005 167.753 228.911C171.348 232.378 174.957 235.831 178.331 239.518C183.243 244.888 187.764 250.64 192.422 256.231C194.386 258.589 196.355 260.942 198.329 263.292C198.418 263.399 198.506 263.505 198.595 263.611C199.181 264.31 199.767 265.01 200.352 265.711C200.411 265.783 200.497 265.829 200.59 265.839C204.938 270.685 209.623 275.219 214.61 279.405C217.045 281.405 219.432 283.466 221.787 285.559C224.526 287.984 227.537 290.085 230.758 291.819C231.613 292.282 232.456 292.765 233.279 293.285C228.64 291.48 224.19 289.222 219.994 286.544ZM244.754 297.332C241.777 295.562 238.996 293.48 236.46 291.121C233.594 288.568 230.707 286.038 227.837 283.49C226.801 282.571 225.747 281.668 224.769 280.691C218.847 274.776 212.937 268.849 207.039 262.909C206.359 262.224 205.695 261.522 205.032 260.819C205.047 260.773 205.048 260.724 205.037 260.677C205.026 260.63 205.001 260.587 204.967 260.553C197.276 252.599 189.59 244.617 181.618 236.938C181.172 236.439 180.724 235.941 180.278 235.442C180.868 235.821 181.48 236.172 182.029 236.603C187.724 241.069 193.042 245.972 198.467 250.753C202.382 254.202 206.475 257.457 210.294 261.008C210.758 261.439 211.214 261.88 211.675 262.314C211.686 262.374 211.714 262.43 211.757 262.474C216.6 267.359 221.444 272.242 226.292 277.123C231.073 281.913 235.899 286.667 240.451 291.679C242.267 293.679 244.036 295.721 245.797 297.771C245.415 297.727 245.053 297.575 244.754 297.332ZM246.813 297.899L246.623 297.839C242.951 293.382 239.229 288.968 235.151 284.872C233.475 283.189 231.794 281.51 230.109 279.835C230.02 279.697 229.917 279.569 229.802 279.451C224.484 274.182 219.21 268.865 213.828 263.662C213.274 263.112 212.721 262.563 212.167 262.014C212.132 261.978 212.087 261.953 212.039 261.939C211.625 261.544 211.217 261.142 210.802 260.748C206.69 256.849 202.186 253.367 197.998 249.544C188.306 240.699 178.057 232.526 167.851 224.3C166.38 223.114 164.939 221.892 163.485 220.687C163.164 220.839 162.908 220.797 162.755 220.444C162.444 220.212 162.132 219.98 161.821 219.749L162.21 219.654C163.322 220.135 164.454 220.573 165.604 220.967C170.178 223.853 174.766 226.719 179.283 229.692C181.19 230.947 183.037 232.295 184.882 233.645C192.602 239.949 200.067 246.576 207.284 253.439C216.78 262.445 225.765 271.974 234.198 281.982C238.314 286.879 242.367 291.839 246.306 296.883L246.813 297.899ZM245.69 294.598C245.918 294.979 246.126 295.373 246.335 295.766C239.248 286.37 231.672 277.354 223.637 268.755C214.748 259.177 205.341 250.093 195.458 241.544C193.132 239.536 190.768 237.574 188.384 235.636C188.19 235.449 187.986 235.273 187.773 235.107C187.657 235.019 187.537 234.935 187.42 234.847C184.403 232.411 181.352 230.018 178.266 227.668C178.215 227.628 178.15 227.607 178.085 227.61C178.019 227.612 177.957 227.638 177.908 227.682C175.36 225.835 172.772 224.035 170.128 222.324C170.926 222.683 171.721 223.048 172.502 223.441C181.932 228.119 190.802 233.85 198.943 240.524C201.659 242.771 204.311 245.095 207.005 247.369C207.033 247.393 207.066 247.41 207.095 247.433C208.253 248.587 209.398 249.752 210.548 250.902C213.117 253.471 215.638 256.087 218.112 258.748C222.316 263.269 226.385 267.911 230.409 272.592C235.902 279.642 241.003 286.988 245.69 294.598ZM184.827 228.762C187.281 230.048 189.631 231.53 192.041 232.901C196.351 235.408 200.36 238.399 203.992 241.815C211.081 248.365 217.658 255.448 223.665 263.003C223.94 263.391 224.187 263.799 224.403 264.223C222.622 262.233 220.812 260.27 218.974 258.334C216.423 255.667 213.824 253.047 211.177 250.475C208.483 247.858 205.636 245.412 202.928 242.814C202.893 242.778 202.846 242.755 202.796 242.75C202.746 242.744 202.696 242.757 202.654 242.784C200.682 241.165 198.652 239.614 196.659 238.019C190.386 233.04 183.66 228.66 176.571 224.936C176.336 224.785 176.121 224.607 175.929 224.404C178.899 225.849 181.903 227.23 184.827 228.762ZM175.739 224.303L174.312 223.833L174.449 223.538L175.739 224.303ZM161.858 219.502L161.784 219.725C161.223 219.38 160.652 219.028 159.991 218.622C160.607 218.928 161.229 219.223 161.858 219.502ZM157.635 217.624C159.76 219.182 161.831 220.816 163.985 222.332C167.873 225.109 171.575 228.14 175.064 231.404C175.036 231.468 175.029 231.54 175.044 231.609C175.058 231.678 175.094 231.741 175.146 231.788C180.549 237.076 185.994 242.32 191.384 247.618C194.339 250.589 197.297 253.556 200.26 256.519C200.326 256.585 200.405 256.638 200.475 256.699C201.022 257.257 201.568 257.817 202.111 258.379C202.225 258.552 202.353 258.715 202.495 258.866C209.745 266.286 217.006 273.697 224.275 281.099C224.715 281.548 225.175 281.978 225.646 282.395C229.789 286.062 233.924 289.739 238.091 293.378C239.341 294.471 240.684 295.456 241.897 296.621C241.072 296.208 240.247 295.795 239.422 295.383C229.715 287.886 220.273 280.041 211.095 271.847C204.949 265.885 198.972 259.763 193.253 253.376C187.157 246.567 181.054 239.761 174.727 233.153C169.757 228.051 164.397 223.342 158.697 219.071C157.812 218.336 156.964 217.558 156.157 216.739C156.666 217.007 157.159 217.302 157.635 217.624ZM228.077 225.939C226.437 226.505 224.761 226.962 223.061 227.309C218.484 228.22 213.838 228.74 209.173 228.863C206.588 228.871 204.01 228.581 201.492 227.998C197.923 227.212 194.306 226.634 190.755 225.776C187.85 225.074 185.013 224.091 182.145 223.232L182.208 223.02C185.268 223.751 188.328 224.481 191.388 225.211C195.132 226.086 198.951 226.599 202.793 226.742C210.474 227.139 218.176 226.855 225.807 225.891C226.368 225.815 226.936 225.789 227.502 225.756C227.7 225.794 227.893 225.856 228.077 225.939ZM235.535 223.695C233.856 224.266 232.131 224.693 230.38 224.972C225.172 225.406 219.967 226.014 214.75 226.169C208.206 226.518 201.644 226.212 195.162 225.256C192.311 224.767 189.496 224.062 186.678 223.4C183.555 222.665 180.431 221.928 177.34 221.076C175.156 220.452 173.011 219.695 170.92 218.808C171.564 219.02 172.2 219.256 172.852 219.439C175.275 220.122 177.688 220.85 180.135 221.434C181.553 221.72 182.985 221.925 184.426 222.05C187.361 222.41 190.296 222.783 193.237 223.081C195.676 223.329 198.122 223.546 200.57 223.653C203.273 223.772 205.984 223.828 208.689 223.772C212.085 223.701 215.487 223.597 218.87 223.311C224.338 222.965 229.823 222.996 235.287 223.405C235.33 223.408 235.368 223.496 235.535 223.695ZM237.954 222.747C236.192 222.735 234.426 222.704 232.67 222.572C227.39 222.217 222.091 222.268 216.819 222.724C213.624 222.976 210.406 222.958 207.198 223.009C205.183 223.041 203.168 222.963 201.153 222.955C198.193 222.96 195.237 222.726 192.314 222.256C189.953 221.866 187.573 221.606 185.184 221.475C181.206 221.204 177.307 220.238 173.663 218.622C174.491 218.694 175.318 218.778 176.147 218.838C186.696 219.607 197.235 220.489 207.837 220.227C211.727 220.131 215.631 220.557 219.528 220.753C225.815 221.069 232.103 221.389 238.39 221.713C239.134 221.752 239.876 221.825 240.619 221.882C240.268 222.218 239.847 222.47 239.385 222.62C238.924 222.769 238.435 222.813 237.954 222.747ZM218.396 217.541C215.106 216.983 211.779 216.664 208.443 216.585C205.55 216.507 202.662 216.273 199.769 216.165C196.815 216.055 193.855 215.893 190.904 215.97C185.295 216.116 179.703 215.872 174.111 215.527C173.465 215.455 172.825 215.338 172.195 215.179C173.158 215.125 174.124 215.006 175.082 215.047C179.989 215.271 184.906 215.142 189.794 214.661C190.859 214.551 191.929 214.497 192.999 214.5C197.72 214.523 202.444 214.48 207.16 214.659C209.544 214.815 211.916 215.129 214.26 215.598C217.916 216.229 221.559 216.94 225.199 217.663C227.162 218.053 229.107 218.539 231.036 219.101C226.79 218.794 222.581 218.264 218.396 217.541ZM168.379 214.142C174.894 214.178 181.299 213.063 187.745 212.344C196.524 211.29 205.418 211.729 214.05 213.642C218.747 214.697 223.369 216.068 227.882 217.744C222.083 216.584 216.74 215.454 211.37 214.47C209.383 214.142 207.375 213.965 205.362 213.938C201.774 213.829 198.185 213.791 194.593 213.825C192.14 213.85 189.683 213.993 187.238 214.204C183.849 214.501 180.446 214.598 177.046 214.493C174.844 214.423 172.639 214.478 170.436 214.437C169.65 214.422 168.868 214.298 168.084 214.218C168.177 214.177 168.277 214.151 168.379 214.142ZM190.297 216.736C193.444 216.765 196.591 216.9 199.736 217.02C202.569 217.128 205.398 217.348 208.231 217.399C212.388 217.542 216.529 217.974 220.626 218.693C223.922 219.214 227.253 219.515 230.563 219.952C232.01 220.131 233.437 220.449 234.823 220.903C234.339 220.914 233.853 220.961 233.372 220.931C228.405 220.625 223.435 220.355 218.473 219.976C214.393 219.609 210.297 219.457 206.201 219.522C198.325 219.63 190.448 219.328 182.603 218.615C177.317 218.332 172.055 217.712 166.848 216.758C165.428 216.467 163.993 216.234 162.596 215.856C162.028 215.683 161.478 215.457 160.952 215.18C161.934 215.238 162.916 215.293 163.897 215.345C163.952 215.351 164.007 215.345 164.06 215.329C164.112 215.312 164.16 215.284 164.201 215.247C164.242 215.21 164.275 215.165 164.297 215.114C164.319 215.064 164.33 215.01 164.33 214.954C166.461 215.07 168.561 215.477 170.679 215.722C177.196 216.405 183.744 216.743 190.297 216.736ZM142.183 208.274C141.251 208.175 140.747 208.007 140.413 207.528C140.887 207.728 141.376 207.933 142.183 208.274ZM140.299 207.458L138.826 206.973C139.092 206.912 139.371 206.924 139.63 207.01C139.89 207.095 140.122 207.25 140.299 207.458ZM136.043 205.031C135.241 204.99 134.863 204.822 134.588 204.456C134.961 204.603 135.35 204.757 136.043 205.031ZM117.402 193.388C122.953 196.973 128.328 200.833 134.128 204.028C134.267 204.128 134.388 204.25 134.487 204.389C131.357 203.321 128.396 201.812 125.693 199.907C122.324 197.503 118.903 195.174 115.516 192.795C115.156 192.512 114.82 192.2 114.509 191.864C115.48 192.362 116.49 192.799 117.402 193.388ZM116.642 234.022C114.127 231.372 111.856 228.501 109.857 225.443C104.954 218.49 100.918 210.965 97.8387 203.034C96.6686 199.781 95.7529 196.436 94.7494 193.124C94.646 192.652 94.5868 192.172 94.5723 191.689C95.3834 193.581 96.1827 195.478 97.0094 197.363C97.9439 199.494 98.8047 201.665 99.8701 203.729C103.535 210.83 107.009 218.037 111.334 224.777C113.305 227.848 115.327 230.887 117.316 233.947C117.581 234.354 117.796 234.795 118.032 235.221C117.566 234.824 117.065 234.46 116.642 234.022ZM158.34 278.258C154.892 274.232 152.136 269.694 148.926 265.489C146.793 262.597 144.497 259.829 142.049 257.199C141.656 256.79 141.238 256.401 140.879 255.964C134.389 248.085 127.347 240.659 121.43 232.308C120.967 231.73 120.467 231.181 119.935 230.666C120.136 231.176 120.376 231.67 120.652 232.144C123.584 236.395 126.752 240.478 130.14 244.375C131.91 246.423 133.607 248.533 135.374 250.583C137.633 253.205 139.971 255.76 142.201 258.406C144.471 261.1 146.654 263.867 148.862 266.613C149.02 266.851 149.148 267.109 149.243 267.38C148.85 267.116 148.477 266.823 148.127 266.505C141.098 259.354 134.079 252.194 127.069 245.025C126.015 243.945 125.05 242.772 124.101 241.596C117.913 233.858 112.374 225.623 107.541 216.974C107.199 216.37 106.852 215.768 106.536 215.151C104.35 210.884 102.172 206.614 99.9994 202.341C99.3764 201.108 98.8405 199.83 98.2447 198.53C98.4742 198.392 98.6191 198.304 98.7641 198.217C98.5214 197.655 98.3071 197.08 98.0313 196.535C96.6249 193.76 95.1975 190.995 93.7947 188.218C93.6923 187.956 93.6245 187.681 93.5928 187.401C94.001 187.838 94.3776 188.304 94.7199 188.794C97.4608 193.246 100.314 197.636 102.866 202.195C105.875 207.586 109.21 212.788 112.853 217.773C114.825 220.467 116.782 223.172 118.723 225.888C121.471 229.737 124.514 233.345 127.558 236.961C131.533 241.682 135.389 246.503 139.258 251.312C142.97 255.924 146.745 260.491 150.283 265.234C153.218 269.168 155.864 273.318 158.6 277.399C158.99 278.081 159.321 278.794 159.59 279.531C159.169 279.11 158.726 278.709 158.34 278.258ZM143.279 245.595C140.64 242.728 137.989 239.871 135.367 236.99C134.139 235.64 133.042 234.164 131.75 232.882C127.235 228.395 123.137 223.535 118.957 218.749C118.245 217.95 117.581 217.11 116.971 216.231C112.626 209.824 108.016 203.593 104.087 196.91C103.515 195.938 103.025 194.919 102.497 193.922C102.287 193.622 102.077 193.321 101.867 193.021C102.123 193.295 102.379 193.569 102.635 193.842C103.071 194.29 103.54 194.711 103.939 195.19C110.634 203.212 117.409 211.171 123.984 219.29C130.561 227.412 136.797 235.801 142.79 244.367C143.019 244.738 143.225 245.124 143.405 245.522C143.67 245.94 143.934 246.358 144.198 246.776L143.279 245.595ZM143.334 247.204C147.344 252.921 150.962 258.902 154.164 265.107C154.284 265.352 154.389 265.605 154.498 265.855C154.147 265.475 153.823 265.071 153.527 264.647C151.981 262.196 150.404 259.762 148.947 257.257C145.484 251.395 141.464 245.881 136.943 240.789C134.455 237.945 132.023 235.052 129.586 232.163C129.276 231.748 129.001 231.308 128.762 230.849C129.234 231.197 129.681 231.578 130.1 231.988C131.635 233.65 133.141 235.34 134.644 237.03C136.315 238.909 137.989 240.785 139.629 242.691C140.952 244.121 142.189 245.628 143.334 247.204ZM130.502 234.248C132.876 237.028 135.254 239.804 137.637 242.576C141.357 246.863 144.683 251.477 147.574 256.362C149.882 260.269 152.301 264.111 154.629 268.006C155.372 269.248 156.012 270.554 156.64 271.859C156.866 272.412 157.047 272.982 157.184 273.563C156.764 273.141 156.376 272.69 156.022 272.211C152.081 266.272 147.799 260.566 143.197 255.123C138.961 250.035 134.848 244.845 130.68 239.701C130.283 239.211 129.904 238.704 129.481 238.237C121.919 229.892 115.606 220.594 109.22 211.369C106.609 207.597 104.556 203.439 102.257 199.452C102.19 199.3 102.149 199.138 102.135 198.972C102.532 199.334 102.906 199.721 103.253 200.131C106.841 204.846 110.419 209.567 113.989 214.296C119.209 221.182 124.897 227.681 130.502 234.248ZM162.659 281.019C162.972 281.935 163.119 282.9 163.093 283.869C162.932 283.585 162.768 283.302 162.61 283.016C160.615 279.363 158.876 275.577 157.403 271.684C157.176 271.097 156.868 270.541 156.585 269.975C159.126 273.348 161.171 277.067 162.659 281.019ZM108.214 194.488C124.172 208.031 137.488 224.409 147.489 242.796C149.745 247.021 151.792 251.358 153.902 255.659C154.146 256.253 154.336 256.867 154.472 257.494C154.119 256.95 153.737 256.423 153.436 255.852C152.117 253.345 150.813 250.829 149.526 248.304C147.161 243.712 144.466 239.297 141.462 235.095C139.309 232.067 137.206 229.003 134.979 226.031C132.753 223.06 130.447 220.146 128.092 217.277C124.897 213.384 121.72 209.468 118.353 205.728C114.944 201.941 111.31 198.358 107.781 194.679C107.336 194.215 106.924 193.718 106.5 193.234C107.077 193.645 107.681 194.025 108.214 194.488ZM100.203 188.555C102.843 190.987 105.278 193.632 107.484 196.463C109.619 199.106 111.823 201.694 114.034 204.274C122.024 213.593 129.953 222.962 137.09 232.963C138.989 235.624 140.668 238.443 142.469 241.175C142.875 241.792 143.369 242.352 143.822 242.939C143.689 242.468 143.518 242.009 143.311 241.565C141.157 237.651 138.712 233.903 135.996 230.355C134.796 228.819 133.615 227.265 132.483 225.678C129.665 221.73 126.432 218.122 123.374 214.369C118.842 208.81 114.029 203.498 109.433 197.998C109.008 197.427 108.625 196.826 108.285 196.2C108.615 196.44 108.93 196.699 109.229 196.976C113.271 200.957 117.104 205.146 120.709 209.526C122.092 211.245 123.505 212.943 124.986 214.576C130.311 220.724 135.281 227.169 139.874 233.881C143.859 239.406 147.366 245.26 150.357 251.38C152.508 255.801 154.781 260.162 156.957 264.571C157.282 265.353 157.548 266.16 157.751 266.982L157.185 266.424C157.333 267.018 157.517 267.602 157.736 268.174C158.634 270.177 159.571 272.163 160.495 274.154C159.992 273.523 159.538 272.855 159.136 272.155C157.797 269.511 156.556 266.816 155.224 264.168C151.448 256.53 147.056 249.213 142.089 242.291C136.967 235.255 131.74 228.295 126.488 221.355C124.664 218.944 122.617 216.702 120.688 214.37C113.694 205.914 106.705 197.454 99.7231 188.988C99.369 188.508 99.0465 188.006 98.7578 187.485C99.2574 187.817 99.7399 188.174 100.203 188.555ZM91.4003 180.365C92.8266 182.118 94.1706 183.937 95.5729 185.71C98.0071 188.83 100.264 192.083 102.333 195.456C104.922 199.612 107.684 203.659 110.357 207.762C110.702 208.292 110.977 208.867 111.277 209.426C110.902 209.073 110.549 208.698 110.221 208.302C107.368 204.554 104.538 200.789 101.685 197.041C101.363 196.671 101.015 196.324 100.645 196.002L100.641 196.013C100.422 195.45 100.157 194.906 99.8482 194.387C97.8679 191.556 95.8854 188.727 93.835 185.947C92.5268 184.336 91.5105 182.508 90.8321 180.546C90.6388 179.902 90.3326 179.291 90.0743 178.665C90.8554 178.956 90.9468 179.807 91.4003 180.365ZM98.4532 180.822C100.397 182.313 102.333 183.816 104.26 185.329C104.424 185.472 104.574 185.63 104.71 185.801C103.975 185.414 103.261 184.99 102.569 184.53C101.263 183.589 99.9895 182.598 98.7398 181.582C98.3153 181.191 97.9224 180.768 97.5647 180.316C97.8741 180.46 98.1712 180.63 98.4532 180.822ZM96.4385 179.478L95.051 178.298C95.6482 178.498 96.1452 178.92 96.4385 179.478ZM94.794 178.127C93.0628 177.24 91.5598 175.965 90.4024 174.401C91.8663 175.643 93.3302 176.885 94.794 178.127ZM73.8152 151.792C74.303 151.977 74.7907 152.162 75.2785 152.347C75.0071 152.399 74.7266 152.375 74.4682 152.277C74.2098 152.179 73.9837 152.011 73.8152 151.792ZM121.023 164.081C124.982 164.334 128.928 164.293 132.884 164.179C133.166 164.219 133.451 164.243 133.737 164.251C140.982 164.417 148.205 165.129 155.344 166.379C160.002 167.156 164.638 168.063 169.282 168.926C169.722 169.013 170.135 169.201 170.49 169.475C170.252 169.446 170.013 169.421 169.775 169.388C165.517 168.893 161.221 168.82 156.948 169.171C155.067 169.286 153.171 169.169 151.282 169.151C148.069 169.121 144.857 169.064 141.645 169.059C136.857 169.19 132.066 168.988 127.306 168.452C123.563 167.923 119.83 167.326 116.085 166.809C114.152 166.542 112.2 166.418 110.265 166.163C109.328 166.04 108.404 165.833 107.505 165.544C104.265 164.498 101.013 163.48 97.8227 162.297C95.6624 161.442 93.5496 160.471 91.4931 159.39C96.5304 160.69 101.646 161.662 106.809 162.302C106.828 162.348 106.858 162.389 106.898 162.419C106.937 162.45 106.984 162.469 107.034 162.475C111.666 163.251 116.335 163.787 121.023 164.081ZM76.8646 153.171C79.1716 154.252 81.4785 155.332 83.7853 156.413C81.3216 155.705 78.9857 154.61 76.8646 153.171ZM174.098 172.607C173.919 172.668 173.731 172.698 173.542 172.697C165.212 173.651 156.9 174.793 148.507 175.089C142.831 175.149 137.158 174.848 131.521 174.187C127.319 173.799 123.119 173.31 118.947 172.675C112.341 171.602 105.883 169.761 99.7043 167.19C97.5407 166.318 95.3595 165.484 93.2228 164.549C86.904 161.841 80.821 158.614 75.0363 154.899C72.9251 153.522 70.7909 152.179 68.6746 150.81C68.4552 150.652 68.2496 150.476 68.06 150.283C70.1667 151.445 72.2984 152.565 74.3717 153.784C80.3449 157.296 86.4369 160.584 92.7206 163.504C97.008 165.495 101.483 167.055 106.078 168.161C108.281 168.693 110.469 169.286 112.657 169.878C117.057 170.979 121.547 171.684 126.073 171.984C129.391 172.269 132.732 172.309 136.063 172.421C137.824 172.481 139.588 172.441 141.35 172.481C143.336 172.527 145.315 172.482 147.295 172.369C156.386 172.862 165.498 172.843 174.588 172.312C174.431 172.42 174.267 172.518 174.098 172.607ZM177.503 171.506C171.376 171.77 165.247 171.886 159.117 171.888L159.213 171.88L159.212 171.877C157.052 171.444 154.846 171.282 152.646 171.395C151.952 171.393 151.259 171.437 150.571 171.527C149.675 171.625 148.779 171.707 147.882 171.772C147.632 171.767 147.383 171.764 147.133 171.759C147.099 171.757 147.065 171.762 147.032 171.774C147 171.786 146.97 171.804 146.944 171.827C140.978 172.115 135 172.035 129.043 171.587C122.613 171.277 116.239 170.231 110.046 168.47C106.602 167.446 103.142 166.476 99.7008 165.443C95.2758 163.955 90.9954 162.067 86.9127 159.803C83.9468 158.284 81.0327 156.658 78.1705 154.923C78.3437 154.934 78.5153 154.963 78.6822 155.011C82.482 156.537 86.2877 158.049 90.0742 159.608C93.4536 160.999 96.7819 162.518 100.186 163.844C103.8 165.345 107.578 166.417 111.442 167.039C116.56 167.749 121.683 168.426 126.799 169.144C131.56 169.696 136.353 169.911 141.144 169.788C144.42 169.785 147.697 169.85 150.974 169.843C153.935 169.837 156.898 169.832 159.856 169.722C162.564 169.596 165.278 169.68 167.973 169.974C169.787 170.189 171.612 170.322 173.435 170.441C174.839 170.581 176.211 170.941 177.503 171.506ZM180.097 171.381C179.663 171.403 179.229 171.425 178.795 171.446C178.387 171.32 177.99 171.164 177.605 170.979C178.026 170.869 178.465 170.848 178.894 170.917C179.323 170.987 179.732 171.144 180.097 171.381ZM113.637 159.913C123.084 160.15 132.527 160.523 141.949 161.309C147.225 161.743 152.461 162.582 157.608 163.82C161.158 164.677 164.702 165.585 168.19 166.662C170.843 167.531 173.437 168.569 175.956 169.771C175.486 169.78 175.015 169.758 174.547 169.705C173.865 169.588 173.198 169.389 172.523 169.231C165.348 167.549 158.102 166.22 150.822 165.103C144.911 164.158 138.933 163.691 132.947 163.707C132.596 163.727 132.249 163.786 131.911 163.885C128.316 163.822 124.71 163.636 121.112 163.353C119.473 163.002 117.805 162.802 116.13 162.755C114.096 162.637 112.073 162.447 110.056 162.21C109.093 162.089 108.131 161.964 107.171 161.836L107.161 161.837C103.842 161.367 100.542 160.774 97.2538 160.106C92.4328 159.223 87.7612 157.661 83.3784 155.467C83.7769 155.493 84.1731 155.547 84.5643 155.628C94.0069 158.41 103.793 159.852 113.637 159.913ZM73.4133 151.583C72.8504 151.368 72.2192 151.277 71.8473 150.717C72.3693 151.006 72.8914 151.294 73.4133 151.583ZM63.0647 145.418C65.0444 146.555 66.8577 147.959 68.4533 149.592C67.0115 149.24 65.6826 148.528 64.5913 147.522C64.1198 147.118 63.5844 146.787 63.1133 146.382C62.5652 145.951 62.134 145.39 61.8594 144.749C62.2621 144.97 62.6822 145.166 63.0647 145.418ZM57.7669 139.663C59.3315 141.025 60.8884 142.396 62.4374 143.776C62.7387 144.07 63.0233 144.381 63.2899 144.708C61.5356 144.314 59.9904 143.282 58.9549 141.812C58.2896 140.899 57.6187 139.991 56.95 139.08C57.2336 139.258 57.5064 139.453 57.7669 139.663ZM-29.3229 2.94727C-28.9358 3.18613 -28.6031 3.50348 -28.3463 3.87885C-28.0894 4.25422 -27.9141 4.67927 -27.8316 5.12658C-28.5649 4.59357 -29.0916 3.82377 -29.3229 2.94727ZM-30.3934 3.67052C-29.3845 4.0054 -29.1618 4.74666 -28.8417 5.39606C-29.2087 5.23607 -29.5371 4.99926 -29.8047 4.7016C-30.0724 4.40394 -30.2731 4.05234 -30.3934 3.67052ZM-26.9143 6.3281L-25.9607 7.70726C-26.2141 7.56502 -26.4317 7.36687 -26.5969 7.12788C-26.7621 6.8889 -26.8707 6.61536 -26.9143 6.3281ZM2.71431 56.5659C1.49688 54.3503 0.537723 51.9929 -0.528269 49.6941C-0.202316 50.0101 0.0881199 50.3608 0.337914 50.7399C2.37458 54.4284 4.3924 58.1275 6.39137 61.837C6.5037 62.101 6.58281 62.3779 6.6268 62.6614C5.3092 60.6368 3.87438 58.6769 2.71431 56.5659ZM6.67846 62.7571C7.45779 63.5601 8.04837 64.5266 8.40736 65.5865C7.6132 64.7951 7.02036 63.8249 6.67846 62.7571ZM73.7002 112.684C68.0701 110.672 62.3986 108.765 56.8317 106.591C51.685 104.534 46.7678 101.944 42.1607 98.8623C40.8917 98.0284 39.6547 97.1462 38.4044 96.2841C38.8301 96.4478 39.2448 96.6386 39.646 96.8555C45.825 100.498 52.2748 103.66 58.9384 106.314C64.533 108.575 70.1148 110.889 75.6838 113.258C75.0219 113.068 74.3472 112.915 73.7002 112.684ZM48.8051 88.0427C50.5336 88.2849 52.2699 88.4822 53.9896 88.7771C62.3713 90.2141 70.7646 91.5922 79.1203 93.1691C83.0126 93.9037 86.8586 94.9373 90.6709 96.027C94.4256 97.1001 98.1121 98.412 101.826 99.6254C108.261 101.848 114.531 104.521 120.59 107.624C124.373 109.48 128.135 111.378 131.859 113.39C130.935 113.086 129.984 112.844 129.09 112.466C125.728 111.046 122.385 109.578 119.032 108.134C117.471 107.461 115.911 106.786 114.339 106.138C106.631 103.008 98.767 100.276 90.7778 97.9555C89.5723 97.5989 88.3145 97.4222 87.0984 97.0966C83.0837 96.0213 79.0941 94.8464 75.0607 93.8482C72.6818 93.2594 70.2447 92.8915 67.8223 92.4954C61.5982 91.5187 55.4332 90.1965 49.3558 88.5352C49.144 88.4759 48.9371 88.3988 48.7279 88.33L48.8051 88.0427ZM15.8302 77.3276C16.8153 77.8518 17.8144 78.3512 18.7813 78.9068C23.6095 81.6584 28.7825 83.755 34.164 85.1414C39.6509 86.5829 45.1919 87.8028 50.5894 89.6012C55.9037 91.2072 61.3368 92.3893 66.8379 93.1364C71.5174 93.8098 76.1406 94.8288 80.6694 96.1852C84.0213 97.2612 87.5185 97.8828 90.9469 98.7236C92.1706 99.0237 93.3952 99.3319 94.5971 99.7075C100.799 101.646 106.944 103.758 112.973 106.181C116.537 107.614 120.026 109.236 123.581 110.691C126.496 111.884 129.453 112.974 132.404 114.075C133.639 114.535 134.907 114.907 136.561 115.451C135.633 115.96 134.558 116.133 133.518 115.941C133.09 115.837 132.67 115.695 132.251 115.557C127.096 113.868 121.962 112.112 116.78 110.508C113.411 109.465 109.976 108.632 106.566 107.724C104.19 107.092 101.797 106.523 99.4267 105.872C94.3194 104.471 89.2275 103.015 84.1174 101.624C81.624 100.946 79.1027 100.371 76.5965 99.7395C75.2521 99.4009 73.908 99.0598 72.5718 98.6898C65.6457 96.7723 58.7211 94.8488 51.798 92.9195C51.2513 92.7674 50.7082 92.6011 50.1684 92.4259C46.3285 91.1799 42.5037 89.8851 38.6471 88.6933C34.5632 87.3822 30.5783 85.7807 26.7229 83.9011C23.7617 82.4981 20.8568 80.9765 17.8959 79.573C17.4047 79.3784 16.9639 79.0754 16.6063 78.6866C16.2486 78.2978 15.9833 77.8333 15.8302 77.3276ZM17.6993 80.3362C18.9754 80.9358 20.2685 81.5022 21.5208 82.1479C27.8577 85.5451 34.5311 88.2733 41.433 90.2884C43.3764 90.8231 45.2785 91.5088 47.1989 92.1267C52.5405 93.8455 57.9244 95.4121 63.3895 96.6951C64.4928 96.9541 65.5776 97.2983 66.6605 97.6368C72.0171 99.311 77.4358 100.75 82.9168 101.952C84.1445 102.242 85.3559 102.596 86.5461 103.013C92.1743 104.89 97.9551 106.19 103.709 107.595C105.728 108.088 107.732 108.645 109.751 109.142C116.982 110.92 124.057 113.208 131.095 115.622C131.343 115.743 131.586 115.876 131.821 116.021C130.551 115.834 129.695 115.684 128.832 115.587C126.594 115.239 124.339 115.011 122.076 114.902C117.729 114.859 113.39 114.493 109.097 113.805C106.733 113.437 104.352 113.172 101.972 112.914C99.34 112.634 96.7393 112.11 94.2036 111.35C90.7662 110.312 87.2768 109.435 83.8756 108.293C78.3203 106.428 72.816 104.411 67.2947 102.445C63.8513 101.219 60.3989 100.014 56.9828 98.7153C54.277 97.6863 51.624 96.5186 48.9403 95.4302C46.6644 94.5073 44.4057 93.531 42.0904 92.7178C37.5203 91.0931 33.0706 89.1478 28.7744 86.8964C26.3159 85.6204 23.8217 84.4057 21.4214 83.028C20.1302 82.2027 18.8874 81.304 17.6993 80.3362ZM19.9669 83.0532C20.6499 83.4539 21.3402 83.8429 22.0106 84.2637C22.3522 84.4814 22.6546 84.755 22.9052 85.0731C21.7008 84.8065 20.6472 84.0822 19.9669 83.0532ZM31.6957 88.9025C35.1518 90.5949 38.7439 91.9433 42.3404 93.3026C46.2251 94.771 50.0211 96.4749 53.856 98.0755C54.263 98.2454 54.6657 98.4285 55.0808 98.576C61.6739 100.917 68.2729 103.242 74.8609 105.598C77.2337 106.446 79.548 107.47 81.9471 108.23C87.0526 109.848 92.1756 111.42 97.3353 112.853C99.2441 113.261 101.177 113.547 103.122 113.71C106.489 114.193 109.849 114.74 113.225 115.146C115.474 115.421 117.736 115.581 120.002 115.624C123.089 115.682 126.17 115.922 129.228 116.344C129.614 116.442 129.994 116.565 130.364 116.711C128.65 117.038 127.356 117.241 126.084 117.537C124.254 118.025 122.339 118.11 120.472 117.787C119.539 117.631 118.594 117.552 117.649 117.552C110.408 117.207 103.211 116.242 96.1357 114.669C94.9064 114.387 93.6952 114.032 92.5085 113.605C86.6414 111.668 80.7599 109.77 74.9249 107.74C71.715 106.623 68.5783 105.292 65.4242 104.018C61.5702 102.462 57.7405 100.845 53.8859 99.2899C47.9876 96.9101 42.0453 94.63 36.3108 91.8708C33.8748 90.6988 31.5452 89.3051 29.1763 87.9959C28.9406 87.8399 28.7239 87.657 28.5307 87.4507C29.5871 87.9316 30.6537 88.3922 31.6957 88.9025ZM30.2167 89.342C33.2692 91.1086 36.4424 92.658 39.7126 93.9788C43.8995 95.7126 48.0863 97.4465 52.2732 99.1805C55.9967 100.719 59.7493 102.19 63.4427 103.797C73.2846 108.08 83.5456 111.178 93.6924 114.601C97.5002 115.722 101.395 116.524 105.336 116.998C109.793 117.815 114.306 118.284 118.835 118.402C118.854 118.542 118.873 118.683 118.892 118.824C117.462 118.952 116.035 119.122 114.603 119.201C107.739 119.535 100.859 119.117 94.0853 117.956C92.5955 117.712 91.1136 117.385 89.6536 116.999C87.0342 116.308 84.3986 115.649 81.8351 114.782C78.9136 113.795 76.062 112.599 73.1835 111.485C72.3029 111.144 71.4505 110.724 70.5564 110.426C66.543 109.091 62.7228 107.293 58.8634 105.589C57.1933 104.851 55.51 104.143 53.8438 103.397C48.3206 100.934 42.9611 98.1196 37.798 94.9709C35.5962 93.6235 33.2983 92.4282 31.1364 91.0218C29.1816 89.7449 27.353 88.2844 25.6757 86.6601C27.1895 87.5541 28.7031 88.448 30.2167 89.342ZM20.2243 87.1647C20.5494 87.3851 20.827 87.6686 21.0403 87.9984C21.2537 88.3281 21.3987 88.6974 21.4665 89.0842C21.0524 88.4444 20.6383 87.8046 20.2243 87.1647ZM21.488 89.1257C22.1348 89.605 22.5883 90.3004 22.766 91.0856C22.4334 90.8603 22.149 90.5709 21.9296 90.2344C21.7102 89.8978 21.5601 89.5209 21.488 89.1257ZM38.6497 124.363C39.0617 125.154 39.4154 125.974 39.7078 126.816C40.6268 130.045 41.5073 133.286 42.3955 136.524C42.3875 136.557 42.3878 136.592 42.3964 136.625C42.8745 138.474 43.3256 140.33 43.7921 142.182C43.8001 142.222 43.8118 142.261 43.8219 142.301C43.9764 142.914 44.1304 143.528 44.2841 144.141C44.3093 144.315 44.3523 144.487 44.4125 144.653C47.1478 155.633 49.7079 166.656 52.1672 177.702C52.6614 180.016 53.1727 182.327 53.7012 184.633C53.8798 185.447 54.0632 186.26 54.2411 187.073C54.9864 190.481 55.7006 193.895 56.424 197.308C57.521 203.494 58.2265 209.744 58.5365 216.02C58.7175 219.727 59.0337 223.428 59.2952 227.132C58.068 220.067 56.6083 213.042 55.1305 206.024C55.1261 206.003 55.1103 205.999 55.1016 205.984C54.6162 203.136 54.1221 200.29 53.6193 197.445C52.7903 192.796 51.9076 188.157 51.0639 183.512C50.524 180.538 50.038 177.554 49.4811 174.584C48.8777 171.367 48.2438 168.156 47.5795 164.95C46.9289 161.807 46.2681 158.663 45.5354 155.538C44.4141 150.756 43.3124 145.967 42.0426 141.224C40.7595 136.875 39.7829 132.442 39.12 127.957C38.9734 126.758 38.8075 125.561 38.6497 124.363ZM43.0158 135.365C43.2384 135.901 43.4771 136.432 43.6696 136.979C46.3517 144.576 48.5965 152.32 50.3931 160.174C52.0852 167.596 53.8327 175.007 55.3751 182.459C56.1127 186.024 56.4359 189.675 56.9355 193.289C56.9682 193.642 56.9795 193.997 56.9691 194.352C56.8393 194.168 56.7346 193.967 56.658 193.755C56.5094 193.17 56.3612 192.586 56.2132 192.002C53.4508 178.145 50.1488 164.377 46.5861 150.718C45.8673 147.962 45.1214 145.214 44.3858 142.463C44.3762 142.133 44.2902 141.811 44.1345 141.52C44.0569 141.231 43.9809 140.942 43.9032 140.653C43.8369 139.748 43.6717 138.854 43.4105 137.985C43.2763 137.112 43.147 136.238 43.0158 135.365ZM41.9814 183.07C40.538 178.013 39.613 172.823 39.2208 167.578C39.2058 167.063 39.2177 166.548 39.2565 166.034C39.3678 166.543 39.4892 167.049 39.5818 167.562C40.4973 172.631 41.4077 177.7 42.3131 182.771C42.3695 183.171 42.4049 183.574 42.4191 183.978C42.2413 183.692 42.0946 183.387 41.9814 183.07ZM45.6808 195.924C45.4593 195.486 45.2667 195.033 45.1044 194.569C44.3761 191.999 43.667 189.423 42.9771 186.842C42.8887 186.406 42.8396 185.964 42.8303 185.52C43.0317 186.063 43.2518 186.601 43.4176 187.155C44.0687 189.327 44.7149 191.501 45.3269 193.685C45.5285 194.404 45.6212 195.153 45.7638 195.888C45.8337 196.198 45.9037 196.507 45.9736 196.817C45.8759 196.52 45.7783 196.222 45.6808 195.924ZM50.8286 209.429C49.8529 206.433 48.8562 203.443 47.9637 200.422C46.7852 196.434 45.7041 192.417 44.5674 188.416C42.3233 179.947 40.7288 171.318 39.7977 162.605C38.8993 154.592 38.5434 146.527 38.7325 138.465C38.7533 136.456 38.53 134.444 38.4277 132.433C38.4027 131.942 38.4106 131.449 38.4041 130.958C39.0586 132.447 39.4487 134.039 39.5571 135.663C40.3293 141.47 41.0427 147.286 41.7935 153.096C42.3344 157.282 42.9117 161.463 43.4498 165.65C43.8995 169.148 44.3508 172.647 44.74 176.153C45.6788 183.339 47.0477 190.463 48.8392 197.485C49.7446 201.348 50.5653 205.232 51.3912 209.113C51.4763 209.697 51.5123 210.288 51.4988 210.878C51.2432 210.411 51.0194 209.926 50.8286 209.429ZM58.7825 231.89C58.7461 231.805 58.7101 231.719 58.6741 231.635C58.3638 231.096 58.0889 230.537 57.8511 229.962C55.5089 223.508 53.7027 216.872 52.4509 210.121C51.7906 206.216 50.889 202.344 49.9115 198.504C47.6298 190.182 46.0276 181.688 45.1207 173.107C44.9067 170.664 44.4818 168.24 44.1673 165.805C43.1832 158.189 42.2043 150.572 41.2305 142.954C41.2 142.605 41.1889 142.255 41.1973 141.905C41.4405 142.377 41.6415 142.869 41.7983 143.376C42.9856 148.467 44.1453 153.565 45.3103 158.662C45.3946 159.03 45.4352 159.41 45.5358 159.773C47.7587 167.805 48.8065 176.076 50.5141 184.212C51.874 190.69 52.909 197.221 54.0042 203.744C54.4421 206.353 54.999 208.942 55.5366 211.532C55.6112 211.833 55.7217 212.123 55.8658 212.397C56.9295 218.86 57.9007 225.338 58.9224 231.808L58.7825 231.89ZM50.1616 145.642C55.7767 157.415 59.5527 169.98 61.3578 182.899C62.2814 189.819 62.6031 196.807 62.3194 203.784C62.2983 204.251 62.2268 204.716 62.1734 205.181C62.077 204.725 61.9598 204.271 61.8986 203.81C60.927 196.5 60.2549 189.136 58.9323 181.89C56.9586 170.129 54.0416 158.546 50.2095 147.253C49.9084 146.406 49.7351 145.513 49.51 144.638C49.755 144.954 49.973 145.289 50.1616 145.642ZM47.3892 141.117C47.9369 142.86 48.5555 144.581 49.1719 146.301C51.6658 153.639 53.7808 161.1 55.5086 168.655C57.9292 179.09 59.7358 189.657 60.9189 200.303C61.757 206.742 61.8791 213.254 61.2829 219.72C60.9562 223.103 60.8076 226.502 60.5659 229.893C60.5322 230.365 60.4358 230.832 60.3627 231.301C59.962 229.492 59.9033 227.624 60.1896 225.793L60.2123 225.782C60.4294 225.101 60.3799 224.363 60.0739 223.716C60.1627 223.101 60.2167 222.48 60.2343 221.858C59.7064 209.009 58.379 196.206 56.2599 183.522C55.5755 178.979 54.4708 174.494 53.426 170.014C51.9803 163.814 50.4873 157.622 48.8737 151.463C46.5635 142.94 43.7474 134.562 40.4406 126.374C40.2153 125.721 40.0301 125.055 39.886 124.38C42.8236 129.753 45.3324 135.349 47.3892 141.117Z" fill="#A1A1A1"/>
</g>
</svg>
