<svg width="288" height="211" viewBox="0 0 288 211" fill="none" xmlns="http://www.w3.org/2000/svg">
<g style="mix-blend-mode:multiply" opacity="0.15">
<path d="M69.0688 43.3026C72.2461 44.6952 75.4919 45.9259 78.7938 46.9898C80.0575 47.3878 81.2959 47.8615 82.5026 48.4085C92.7443 52.8582 102.642 58.0611 112.114 63.9745C114.896 65.7103 117.679 67.4447 120.485 69.1396C121.174 69.5803 121.925 69.9144 122.714 70.1307C126.248 71.0918 129.882 71.6364 133.543 71.7535C135.75 71.7626 137.957 71.8146 140.164 71.8634C143.757 71.9427 147.357 71.9302 150.943 72.1424C160.283 72.6951 169.205 75.2067 178.007 78.1915C181.49 79.3212 184.86 80.7736 188.074 82.5297C199.005 88.6916 209.987 94.7669 220.82 101.097C230.586 106.803 240.484 112.183 251.191 115.94C251.489 116.105 251.757 116.318 251.986 116.571C251.742 117.386 251.174 117.435 250.597 117.462C248.708 117.551 246.817 117.736 244.93 117.71C232.556 117.698 220.218 116.37 208.126 113.748C197.582 111.437 187.284 108.119 177.375 103.837C166.632 98.9587 156.31 93.2025 146.513 86.6273C141.562 83.3706 136.561 80.1913 131.567 76.9998C130.998 76.6807 130.406 76.4037 129.796 76.1712C130.116 76.51 130.454 76.8319 130.807 77.1356C135.146 80.5929 139.515 84.0117 143.832 87.4944C155.179 96.6503 165.4 107.12 174.28 118.684C176.941 122.133 180.269 125.013 184.066 127.15C190.211 130.638 196.628 133.625 203.252 136.083C212.992 139.749 222.685 143.53 232.181 147.805C238.146 150.534 243.923 153.656 249.474 157.151C253.336 159.538 257.068 162.129 260.655 164.913C263.987 167.511 267.076 170.408 269.884 173.567C271.305 175.164 272.574 176.901 273.872 178.604C275.898 181.261 277.849 183.976 279.908 186.606C282.16 189.646 284.636 192.514 287.315 195.184C287.562 195.506 287.766 195.859 287.922 196.233C287.583 196.429 287.215 196.57 286.832 196.653C286.392 196.627 285.957 196.543 285.539 196.404C271.82 192.994 258.412 188.437 245.456 182.781C236.414 178.894 227.66 174.371 219.258 169.246C214.442 166.242 209.94 162.759 205.822 158.852C200.318 153.642 195.661 147.666 190.658 142.55C191.36 143.623 192.254 145.046 193.204 146.43C195.972 150.344 198.461 154.448 200.654 158.71C202.057 161.532 203.419 164.378 204.683 167.264C205.626 169.258 206.397 171.328 206.986 173.454C208.774 180.299 209.561 187.367 209.322 194.438C209.007 199.6 209.12 204.78 209.66 209.923C209.68 210.092 209.56 210.278 209.474 210.559L208.405 210.862C207.937 210.309 207.453 209.815 207.062 209.257C205.976 207.707 204.88 206.162 203.877 204.559C200.799 199.641 197.727 194.718 194.721 189.755C192.535 186.359 190.662 182.772 189.125 179.037C186.029 170.895 183.959 162.399 182.964 153.745C182.528 149.994 181.867 146.26 181.134 142.554C180.547 139.589 179.748 136.662 178.942 133.746C178.439 131.727 177.784 129.749 176.981 127.83C175.413 124.033 173.102 120.586 170.186 117.693C169.406 116.96 168.706 116.143 167.965 115.368C163.209 110.235 158.187 105.354 152.919 100.747C150.431 98.7097 148.055 96.54 145.801 94.2472C140.994 89.2437 135.723 84.7075 130.059 80.6996C125.807 77.6523 121.627 74.5023 117.452 71.3493C116.135 70.2712 114.622 69.458 112.996 68.9546C111.393 68.5603 109.932 67.7248 108.779 66.5429C108.25 66.0958 107.645 65.7486 106.992 65.5182C105.219 64.695 103.432 63.9033 101.646 63.1074C101.303 62.9547 100.944 62.839 100.237 62.572C100.813 63.13 101.071 63.4022 101.352 63.6492C106.318 68.1266 110.888 73.0235 115.013 78.2855C116.554 80.2002 117.975 82.211 119.449 84.1795C123.394 89.4258 126.786 95.0656 129.571 101.009C131.695 105.723 133.562 110.548 135.165 115.463C137.815 122.689 139.808 130.139 141.12 137.722C142.413 146.326 143.706 154.929 145 163.532C145.097 163.813 145.115 164.115 145.052 164.405C144.99 164.695 144.849 164.962 144.644 165.177C143.7 165.607 143.156 164.885 142.661 164.268C140.727 161.859 138.775 159.46 136.94 156.977C130.88 148.498 126.068 139.193 122.652 129.346C118.939 119.218 115.877 108.879 112.856 98.5292C110.898 91.4751 108.115 84.6765 104.565 78.2738C101.943 73.4484 98.7697 68.9434 95.1093 64.8494C89.9899 59.1736 84.0133 54.3346 77.3965 50.5081C73.4254 48.304 69.3103 46.3698 65.0793 44.7187C56.3791 41.1616 47.4882 38.09 38.4476 35.5181C34.4919 34.4426 30.5148 33.4638 26.6271 32.1434C24.4971 31.4202 22.3011 30.8916 20.1341 30.2773C20.6754 30.775 21.1929 31.3027 21.7674 31.7585C23.4959 33.1296 25.2574 34.4594 26.9898 35.8255C32.4503 40.1317 37.1994 45.2045 42.2042 50.0001C45.5254 53.1944 48.5296 56.7028 51.1747 60.4761C55.2403 66.252 59.1614 72.1298 63.1295 77.9742C67.0218 83.8003 70.2163 90.0635 72.6472 96.635C75.1704 102.9 76.9247 109.448 77.8718 116.136C78.6424 122.456 79.2092 128.801 79.8635 135.135C79.9095 135.384 79.9209 135.637 79.8976 135.888C79.8221 136.302 79.6805 136.705 79.5979 137C79.3216 137.208 78.9771 137.305 78.6329 137.27C78.2887 137.236 77.97 137.073 77.7403 136.815C77.38 136.462 77.0454 136.085 76.7389 135.685C73.8268 132.203 70.9923 128.652 67.9914 125.248C61.9712 118.528 56.4869 111.347 51.5889 103.77C49.4235 100.363 47.2336 96.9702 45.1458 93.5162C43.8099 91.3062 42.5651 89.033 41.4114 86.7225C38.961 81.8152 36.5602 76.8832 34.2091 71.9264C31.9444 67.1399 29.6159 62.3734 27.6059 57.4787C24.5785 49.9888 20.7481 42.8492 16.1817 36.1849C14.1582 33.2894 11.9182 30.5515 9.4809 27.9947C8.28137 26.681 6.6701 25.8151 4.91261 25.5397C4.04149 25.3967 3.17604 25.2166 2.31164 25.0361C-0.281201 24.4943 -2.87708 23.9658 -5.46277 23.3918C-8.47942 22.7223 -11.4695 21.9222 -14.5011 21.3328C-24.1715 19.4528 -33.7011 17.0205 -43.1318 14.1897C-52.6756 11.3251 -62.1861 8.34066 -71.9643 6.33649C-72.495 6.2494 -73.0025 6.05571 -73.4561 5.76699C-73.9098 5.47828 -74.3003 5.10056 -74.6039 4.65672C-74.9572 4.2206 -75.3395 3.80878 -75.7482 3.42401C-76.0871 3.06114 -76.4028 2.67732 -76.6935 2.2748C-76.7719 2.16172 -76.6727 1.92508 -76.6465 1.66059C-76.0815 1.60215 -75.5349 1.54552 -75.0319 1.4935C-74.5983 0.8716 -73.9772 0.40465 -73.2593 0.161011C-72.756 0.461328 -72.1564 0.788856 -71.5877 1.16332C-67.9058 3.61342 -63.8618 5.46997 -59.6037 6.66507C-54.8647 7.97526 -50.0618 9.06073 -45.2693 10.1688C-35.8047 12.3574 -26.3457 14.5762 -16.8509 16.6281C-8.27494 18.4812 0.219887 20.6498 8.67667 22.9601C20.789 26.2692 32.7476 30.0918 44.6272 34.1569C46.4752 34.8041 48.4153 35.15 50.3732 35.1812C51.5082 35.1944 52.6447 35.2146 53.7785 35.1743C60.1984 34.7644 66.5771 33.859 72.8575 32.4661C78.9123 31.3027 84.8363 29.4613 90.8216 27.9326C94.547 26.9812 98.2678 26.0071 102.012 25.1338C106.134 24.1917 110.332 23.625 114.557 23.4406C124.829 22.901 135.127 23.1024 145.37 24.0431C152.588 24.7347 159.782 25.6971 166.973 26.6403C170.221 27.0664 173.438 27.7371 176.667 28.3045C177.149 28.3892 177.71 28.398 177.756 29.1167C177.48 29.7889 176.818 29.8776 176.238 30.0881C168.772 32.7968 161.294 35.4741 153.841 38.2183C138.203 43.8925 121.608 46.4657 104.986 45.7941C95.4649 45.377 85.992 44.2074 76.6556 42.2963C70.3479 41.0841 64.0404 39.8715 57.7329 38.6584C58.3424 38.9589 58.9363 39.299 59.5657 39.5498C62.7296 40.8104 65.9194 42.0073 69.0688 43.3026ZM191.65 133.356C191.914 133.672 192.212 133.959 192.538 134.212C194.647 135.586 196.743 136.986 198.908 138.266C201.293 139.676 203.742 140.977 206.177 142.299C206.734 142.568 207.305 142.808 207.887 143.017C208.731 143.549 209.539 144.151 210.425 144.603C217.544 148.232 224.701 151.786 231.799 155.455C235.032 157.126 238.223 158.871 241.373 160.69C241.39 160.645 241.417 160.604 241.452 160.571C241.487 160.537 241.529 160.512 241.574 160.497C241.62 160.481 241.669 160.476 241.717 160.482C241.765 160.488 241.811 160.505 241.852 160.53C253.735 167.929 265.232 175.86 276.342 184.324C272.818 180.001 268.708 176.191 264.129 173.005C260.912 170.924 257.845 168.613 254.671 166.463C249.862 163.179 244.858 160.188 239.688 157.507C239.652 157.505 239.616 157.497 239.582 157.483C232.856 154.441 226.136 151.384 219.422 148.314C216.169 146.83 212.95 145.311 209.776 143.704C209.645 143.652 209.52 143.587 209.402 143.512C209.04 143.327 208.679 143.142 208.319 142.955L207.895 142.994C207.443 142.669 207.011 142.31 206.536 142.025C206.492 141.999 206.449 141.974 206.406 141.948C204.491 140.925 202.592 139.867 200.717 138.751C198.162 137.231 195.647 135.653 193.173 134.019C192.669 133.79 192.158 133.576 191.65 133.356ZM265.001 170.408C258.189 164.4 250.794 159.086 242.927 154.546C239.507 152.654 235.99 150.946 232.389 149.427C221.616 144.625 210.661 140.267 199.577 136.235C198.321 135.778 197.066 135.321 195.811 134.863C200.09 137.439 204.359 140.031 208.794 142.335C215.253 145.691 221.979 148.569 228.585 151.621C231.37 152.908 234.154 154.201 236.934 155.499C237.06 155.557 237.186 155.614 237.311 155.674C238.138 156.059 238.966 156.443 239.794 156.827C239.879 156.865 239.946 156.936 239.979 157.023C245.786 159.97 251.378 163.322 256.712 167.055C259.274 168.889 261.882 170.662 264.513 172.395C267.565 174.413 270.374 176.777 272.882 179.44C273.55 180.146 274.235 180.835 274.951 181.496C272.006 177.482 268.674 173.768 265.001 170.408ZM281.83 191.532C279.35 189.114 276.619 186.968 273.684 185.128C270.476 183.021 267.285 180.887 264.081 178.774C262.925 178.012 261.78 177.227 260.583 176.535C253.337 172.346 246.082 168.171 238.819 164.012C237.981 163.532 237.131 163.072 236.28 162.614C236.239 162.64 236.192 162.654 236.144 162.655C236.096 162.656 236.048 162.644 236.007 162.62C226.333 157.25 216.634 151.892 207.153 146.178C206.555 145.877 205.959 145.573 205.361 145.272C205.88 145.743 206.377 146.243 206.936 146.662C212.723 151.007 218.836 154.875 224.858 158.878C229.203 161.767 233.406 164.878 237.824 167.648C238.361 167.985 238.905 168.311 239.444 168.644C239.505 168.638 239.566 168.651 239.619 168.681C245.591 172.094 251.562 175.51 257.531 178.929C263.395 182.308 269.237 185.739 275.255 188.838C277.658 190.075 280.088 191.256 282.524 192.426C282.383 192.068 282.142 191.757 281.83 191.532ZM282.91 193.374L282.803 193.206C277.548 190.813 272.321 188.36 267.309 185.481C265.249 184.298 263.193 183.109 261.139 181.914C260.983 181.864 260.832 181.798 260.688 181.718C254.222 177.944 247.721 174.227 241.303 170.374C240.629 169.982 239.955 169.589 239.281 169.196C239.237 169.171 239.201 169.135 239.176 169.092C238.687 168.795 238.193 168.505 237.705 168.205C232.875 165.243 228.345 161.793 223.569 158.737C212.517 151.665 201.97 143.881 191.382 136.151C189.856 135.037 188.303 133.962 186.762 132.869C186.827 132.52 186.719 132.284 186.339 132.227C186.034 131.986 185.73 131.745 185.425 131.505L185.435 131.905C186.187 132.855 186.903 133.835 187.581 134.844C191.553 138.515 195.508 142.205 199.549 145.798C201.256 147.316 203.035 148.751 204.817 150.184C212.904 156.009 221.238 161.505 229.735 166.699C240.891 173.54 252.421 179.753 264.27 185.309C270.067 188.017 275.906 190.648 281.797 193.147L282.91 193.374ZM279.431 193.143C279.859 193.265 280.292 193.365 280.727 193.464C269.817 189.051 259.147 184.066 248.761 178.531C237.209 172.424 226 165.688 215.184 158.355C212.643 156.628 210.135 154.852 207.646 153.051C207.416 152.912 207.192 152.761 206.978 152.598C206.862 152.508 206.75 152.414 206.635 152.324C203.501 150.04 200.4 147.712 197.332 145.34C197.28 145.301 197.243 145.244 197.228 145.18C197.214 145.116 197.222 145.049 197.252 144.991C194.808 143.007 192.4 140.973 190.063 138.863C190.616 139.541 191.175 140.214 191.756 140.867C198.716 148.765 206.547 155.849 215.1 161.986C217.974 164.027 220.905 165.987 223.799 168C223.829 168.021 223.855 168.049 223.885 168.071C225.298 168.891 226.721 169.696 228.129 170.509C231.276 172.325 234.454 174.083 237.665 175.784C243.12 178.674 248.657 181.403 254.22 184.079C262.451 187.56 270.867 190.586 279.431 193.143ZM200.086 151.394C201.963 153.431 204.003 155.318 205.951 157.291C209.489 160.805 213.415 163.904 217.655 166.528C225.816 171.68 234.36 176.2 243.212 180.047C243.659 180.212 244.116 180.345 244.582 180.444C242.199 179.239 239.834 177.998 237.488 176.723C234.252 174.95 231.048 173.118 227.879 171.226C224.654 169.302 221.555 167.184 218.344 165.241C218.3 165.217 218.266 165.178 218.248 165.131C218.23 165.084 218.229 165.032 218.245 164.984C216.17 163.499 214.147 161.939 212.09 160.427C205.657 155.656 199.686 150.294 194.253 144.41C194.047 144.222 193.819 144.06 193.574 143.927C195.738 146.422 197.849 148.966 200.086 151.394ZM193.427 143.77L192.604 142.513L192.354 142.721L193.427 143.77ZM185.197 131.605L185.393 131.475C184.914 131.023 184.427 130.562 183.863 130.029C184.319 130.545 184.765 131.069 185.197 131.605ZM182.29 128.011C184.345 129.661 186.459 131.238 188.481 132.926C192.17 135.964 196.055 138.755 200.111 141.281C200.166 141.237 200.234 141.211 200.304 141.207C200.375 141.204 200.444 141.222 200.504 141.26C207.01 145.11 213.484 149.012 219.997 152.848C223.631 154.932 227.263 157.022 230.892 159.117C230.972 159.164 231.044 159.226 231.121 159.278C231.802 159.663 232.484 160.044 233.168 160.424C233.364 160.489 233.555 160.571 233.737 160.669C242.781 165.752 251.819 170.846 260.85 175.952C261.397 176.261 261.932 176.594 262.456 176.941C267.071 179.994 271.692 183.036 276.286 186.119C277.665 187.044 278.964 188.086 280.404 188.956C279.791 188.266 279.179 187.576 278.567 186.886C268.814 179.451 258.792 172.361 248.502 165.616C241.152 161.222 233.692 157.033 226.043 153.163C217.887 149.036 209.734 144.903 201.714 140.502C195.498 137.022 189.563 133.063 183.962 128.663C183.024 127.998 182.052 127.38 181.052 126.813C181.443 127.235 181.856 127.635 182.29 128.011ZM208.554 193.901C208.675 192.17 208.683 190.433 208.579 188.701C208.274 184.045 207.573 179.422 206.485 174.885C205.823 172.385 204.876 169.971 203.661 167.689C201.979 164.445 200.484 161.1 198.736 157.893C197.306 155.269 195.622 152.783 194.051 150.235L193.862 150.351C195.36 153.117 196.857 155.884 198.354 158.651C200.169 162.04 201.652 165.597 202.784 169.271C205.157 176.588 206.875 184.101 207.919 191.721C207.991 192.283 208.113 192.838 208.228 193.393C208.316 193.575 208.426 193.745 208.554 193.901ZM208.316 201.686C208.432 199.916 208.399 198.14 208.215 196.376C207.286 191.233 206.527 186.048 205.326 180.969C203.97 174.558 201.976 168.298 199.374 162.284C198.165 159.657 196.755 157.12 195.385 154.57C193.868 151.744 192.347 148.917 190.724 146.152C189.556 144.203 188.27 142.328 186.872 140.537C187.243 141.104 187.636 141.658 187.981 142.24C189.268 144.404 190.596 146.546 191.794 148.759C192.436 150.054 193.005 151.385 193.499 152.744C194.606 155.486 195.726 158.224 196.776 160.988C197.646 163.28 198.488 165.586 199.226 167.923C200.04 170.503 200.796 173.107 201.442 175.735C202.252 179.033 203.033 182.347 203.632 185.688C204.713 191.059 206.163 196.35 207.972 201.521C207.985 201.562 208.081 201.576 208.316 201.686ZM208.026 204.268C207.559 202.569 207.071 200.871 206.49 199.209C204.78 194.201 203.457 189.069 202.534 183.859C201.95 180.707 201.101 177.604 200.319 174.491C199.828 172.538 199.232 170.611 198.702 168.667C197.941 165.806 196.95 163.011 195.74 160.31C194.752 158.131 193.884 155.899 193.14 153.625C191.848 149.853 189.906 146.337 187.402 143.235C187.686 144.016 187.981 144.794 188.254 145.578C191.727 155.569 195.307 165.521 197.798 175.829C198.712 179.612 200.133 183.272 201.331 186.986C203.263 192.977 205.2 198.967 207.14 204.956C207.37 205.665 207.633 206.362 207.881 207.065C208.114 206.64 208.249 206.168 208.274 205.683C208.299 205.199 208.214 204.715 208.026 204.268ZM197.935 186.724C196.545 183.69 195.376 180.559 194.437 177.357C193.612 174.583 192.638 171.854 191.786 169.087C190.915 166.263 189.992 163.446 189.303 160.575C187.992 155.119 186.31 149.781 184.529 144.469C184.292 143.864 184.014 143.275 183.697 142.708C183.894 143.652 184.029 144.616 184.316 145.531C185.803 150.213 186.951 154.995 187.751 159.842C187.921 160.899 188.146 161.946 188.425 162.979C189.669 167.533 190.85 172.108 192.244 176.616C193.012 178.879 193.929 181.089 194.989 183.231C196.544 186.6 198.174 189.935 199.814 193.263C200.699 195.059 201.672 196.811 202.714 198.529C201.318 194.507 199.718 190.579 197.935 186.724ZM181.708 139.291C183.428 145.574 184.009 152.05 184.983 158.462C186.237 167.215 188.962 175.692 193.045 183.535C195.28 187.799 197.8 191.908 200.587 195.833C197.965 190.533 195.491 185.664 193.151 180.732C192.32 178.898 191.629 177.004 191.082 175.066C190.048 171.629 189.082 168.172 188.185 164.694C187.575 162.317 187.077 159.907 186.648 157.491C186.058 154.14 185.271 150.828 184.29 147.571C183.651 145.463 183.135 143.318 182.524 141.201C182.306 140.446 181.985 139.722 181.705 138.986C181.689 139.087 181.69 139.19 181.708 139.291ZM189.885 159.79C190.728 162.823 191.673 165.827 192.603 168.835C193.441 171.543 194.385 174.219 195.168 176.942C196.382 180.92 197.871 184.808 199.626 188.579C200.982 191.628 202.134 194.768 203.414 197.852C203.961 199.203 204.638 200.499 205.435 201.72C205.32 201.25 205.239 200.769 205.086 200.312C203.505 195.593 201.958 190.862 200.308 186.168C198.897 182.322 197.69 178.405 196.693 174.432C194.759 166.796 192.428 159.266 189.71 151.872C188.068 146.84 186.107 141.917 183.838 137.135C183.189 135.839 182.593 134.512 181.867 133.261C181.552 132.757 181.191 132.284 180.788 131.847C181.098 132.781 181.405 133.716 181.709 134.65C181.729 134.701 181.738 134.756 181.735 134.811C181.733 134.866 181.718 134.92 181.693 134.969C181.668 135.018 181.633 135.061 181.59 135.096C181.547 135.13 181.497 135.155 181.444 135.169C182.108 137.198 183.044 139.12 183.828 141.103C186.175 147.221 188.197 153.459 189.885 159.79ZM169.259 115.506C168.923 114.631 168.63 114.188 168.08 113.989C168.396 114.396 168.721 114.814 169.259 115.506ZM167.984 113.898L167.134 112.6C167.143 112.873 167.227 113.139 167.377 113.368C167.527 113.596 167.737 113.78 167.984 113.898ZM164.538 110.415C164.29 109.65 164.03 109.329 163.605 109.158C163.844 109.48 164.093 109.816 164.538 110.415ZM148.466 95.4217C153.366 99.8557 158.485 104.049 163.073 108.824C163.205 108.932 163.355 109.018 163.515 109.077C161.673 106.331 159.449 103.861 156.909 101.743C153.715 99.1118 150.58 96.4093 147.406 93.7533C147.039 93.4798 146.651 93.2355 146.246 93.0226C146.978 93.8306 147.661 94.6934 148.466 95.4217ZM187.519 84.1712C184.309 82.4279 180.948 80.9773 177.477 79.8372C169.492 76.901 161.178 74.9504 152.721 74.0288C149.276 73.7404 145.808 73.7218 142.349 73.6096C141.866 73.632 141.387 73.6991 140.916 73.8102C142.954 74.1039 144.993 74.3849 147.028 74.6955C149.329 75.0467 151.648 75.3162 153.918 75.811C161.725 77.5134 169.585 79.0041 177.215 81.4369C180.692 82.5456 184.151 83.712 187.621 84.8421C188.083 84.9925 188.564 85.0854 189.037 85.2034C188.533 84.8556 188.052 84.4667 187.519 84.1712ZM241.04 112.999C236.259 110.711 231.162 109.223 226.27 107.211C222.924 105.899 219.656 104.398 216.482 102.714C215.985 102.44 215.501 102.137 214.986 101.903C205.696 97.6733 196.701 92.793 187.103 89.2393C186.424 88.9417 185.766 88.6014 185.13 88.2206C185.675 88.2826 186.214 88.3863 186.743 88.5308C191.608 90.2624 196.372 92.2653 201.013 94.5301C203.449 95.7092 205.927 96.802 208.364 97.9782C211.481 99.4825 214.554 101.079 217.687 102.548C220.877 104.043 224.115 105.436 227.338 106.858C227.61 106.949 227.892 107.006 228.178 107.028C227.821 106.717 227.442 106.432 227.044 106.176C218.318 101.237 209.585 96.3102 200.846 91.3946C199.53 90.6561 198.147 90.0282 196.766 89.4154C187.69 85.4408 178.302 82.2223 168.696 79.7925C168.024 79.6189 167.354 79.4391 166.676 79.2935C161.989 78.2868 157.3 77.2874 152.61 76.2953C151.258 76.0126 149.885 75.8257 148.475 75.5868C148.401 75.8442 148.354 76.0068 148.307 76.1695C147.702 76.0803 147.09 76.0224 146.493 75.8969C143.448 75.2567 140.408 74.5935 137.363 73.9572C137.083 73.9263 136.8 73.9318 136.522 73.9737C137.049 74.2548 137.596 74.4981 138.158 74.7019C143.168 76.1972 148.147 77.8174 153.211 79.1022C159.197 80.6131 165.086 82.4879 170.843 84.7163C173.956 85.9245 177.075 87.1145 180.201 88.2863C184.63 89.9445 188.903 91.9502 193.183 93.9547C198.772 96.5719 204.427 99.0487 210.073 101.542C215.489 103.933 220.877 106.397 226.374 108.587C230.934 110.404 235.628 111.887 240.278 113.472C241.037 113.673 241.812 113.808 242.594 113.877C242.078 113.58 241.575 113.255 241.04 112.999ZM205.592 106.905C202.139 105.098 198.694 103.277 195.232 101.49C193.611 100.653 191.901 99.9753 190.328 99.0599C184.826 95.8593 179.071 93.1595 173.366 90.3605C172.41 89.8788 171.426 89.4558 170.419 89.0936C163.106 86.5548 155.895 83.7148 148.422 81.6491C147.336 81.3486 146.225 81.1382 145.125 80.8863C144.78 80.7614 144.436 80.6366 144.091 80.5117C144.422 80.6881 144.753 80.8643 145.083 81.0406C145.629 81.3461 146.157 81.6895 146.723 81.9514C156.204 86.3419 165.645 90.8262 175.19 95.0757C184.737 99.3261 194.454 103.179 204.279 106.751C204.697 106.876 205.123 106.974 205.554 107.046C206.026 107.193 206.499 107.34 206.971 107.487L205.592 106.905ZM207.161 106.542C213.72 108.935 220.434 110.882 227.257 112.369C227.524 112.422 227.795 112.458 228.065 112.499C227.607 112.258 227.134 112.049 226.647 111.873C223.879 111.014 221.12 110.12 218.324 109.362C211.766 107.534 205.398 105.078 199.31 102.029C195.919 100.362 192.495 98.7612 189.073 97.1553C188.593 96.9636 188.097 96.8113 187.591 96.6997C188.05 97.0653 188.533 97.3986 189.038 97.6974C191.041 98.7496 193.062 99.7667 195.084 100.781C197.331 101.909 199.577 103.04 201.843 104.131C203.566 105.039 205.342 105.844 207.161 106.542ZM191.325 97.5006C194.625 99.0735 197.921 100.652 201.215 102.237C206.319 104.72 211.637 106.739 217.104 108.267C221.475 109.486 225.812 110.827 230.177 112.068C231.569 112.464 232.996 112.745 234.419 113.014C235.012 113.088 235.609 113.116 236.206 113.097C235.69 112.801 235.153 112.543 234.6 112.325C227.843 110.056 221.223 107.396 214.775 104.36C208.764 101.585 202.686 98.955 196.638 96.2608C196.062 96.0042 195.474 95.7696 194.914 95.4819C184.896 90.3373 174.281 86.6462 163.717 82.8654C159.398 81.3195 154.85 80.4119 150.404 79.2234C150.24 79.1986 150.073 79.2007 149.909 79.2295C150.361 79.5199 150.832 79.7805 151.318 80.0097C156.801 82.2551 162.287 84.4898 167.779 86.7139C175.781 89.9742 183.531 93.7856 191.325 97.5006ZM244.825 116.457C245.791 116.521 246.761 116.414 247.69 116.138C247.374 116.056 247.058 115.971 246.741 115.892C242.697 114.911 238.589 114.211 234.448 113.796C233.822 113.728 233.205 113.574 232.585 113.448C236.501 115.029 240.622 116.042 244.825 116.457ZM147.151 86.263C164.363 98.1717 183.629 106.794 203.978 111.696C208.643 112.781 213.362 113.636 218.063 114.562C218.699 114.643 219.342 114.669 219.982 114.637C219.366 114.437 218.758 114.204 218.129 114.062C215.365 113.436 212.598 112.828 209.826 112.238C204.778 111.142 199.816 109.681 194.98 107.867C191.498 106.572 187.994 105.333 184.547 103.951C181.101 102.57 177.689 101.097 174.308 99.5646C169.721 97.4861 165.117 95.4315 160.632 93.1469C156.092 90.8344 151.69 88.2514 147.224 85.7947C146.66 85.4847 146.074 85.2152 145.496 84.931C146.042 85.3826 146.566 85.8678 147.151 86.263ZM139.347 80.0604C142.379 81.9801 145.565 83.6477 148.87 85.0466C151.975 86.4246 155.046 87.8833 158.11 89.3518C169.179 94.6572 180.282 99.8906 191.788 104.197C194.851 105.342 198.008 106.234 201.113 107.267C201.814 107.5 202.483 107.831 203.167 108.117C202.678 108.111 202.19 108.064 201.708 107.979C197.369 106.911 193.117 105.52 188.986 103.815C187.192 103.053 185.385 102.315 183.56 101.631C179.017 99.9316 174.695 97.743 170.278 95.7599C163.735 92.822 157.359 89.5477 150.857 86.5313C150.195 86.269 149.516 86.0542 148.823 85.8883C149.14 86.1445 149.472 86.3816 149.817 86.5985C154.708 89.4734 159.746 92.0906 164.911 94.4397C166.929 95.3303 168.935 96.2555 170.896 97.2635C178.212 100.816 185.724 103.949 193.396 106.648C199.764 109.068 206.326 110.94 213.012 112.245C217.839 113.179 222.64 114.245 227.461 115.206C228.302 115.318 229.149 115.365 229.996 115.349L229.31 114.947C229.922 114.936 230.534 114.962 231.143 115.026C233.311 115.374 235.471 115.766 237.634 116.143C236.894 115.821 236.131 115.555 235.351 115.347C232.45 114.738 229.526 114.237 226.624 113.636C218.269 111.966 210.065 109.617 202.093 106.611C193.971 103.485 185.895 100.237 177.832 96.96C175.032 95.8217 172.336 94.4255 169.584 93.1657C159.606 88.598 149.625 84.0376 139.641 79.4845C139.086 79.2665 138.518 79.0849 137.939 78.9409C138.389 79.3377 138.859 79.7113 139.347 80.0604ZM129.157 73.677C131.22 74.6011 133.325 75.4282 135.401 76.324C139.044 77.8679 142.771 79.2058 146.564 80.3317C151.248 81.7562 155.872 83.377 160.528 84.8967C161.128 85.0929 161.755 85.2095 162.372 85.3546C161.935 85.0836 161.481 84.84 161.014 84.6252C156.655 82.8404 152.286 81.0807 147.927 79.295C147.486 79.0798 147.061 78.8339 146.655 78.5591L146.664 78.5527C146.064 78.4868 145.47 78.3714 144.888 78.2079C141.642 77.0277 138.395 75.8451 135.18 74.584C133.284 73.7374 131.256 73.2288 129.186 73.0812C128.513 73.0614 127.843 72.9237 127.173 72.8361C127.656 73.5153 128.502 73.3832 129.157 73.677ZM131.425 80.3711C133.368 81.863 135.32 83.3438 137.28 84.8135C137.461 84.9348 137.653 85.0394 137.853 85.1257C137.289 84.5166 136.694 83.9363 136.072 83.387C134.824 82.369 133.537 81.3956 132.232 80.4515C131.746 80.1425 131.235 79.8725 130.705 79.6441C130.925 79.9055 131.166 80.1487 131.425 80.3711ZM129.604 78.7732L128.105 77.7384C128.453 78.2635 128.99 78.6342 129.604 78.7732ZM127.874 77.5344C126.569 76.0917 124.949 74.9699 123.139 74.2566C124.717 75.3492 126.296 76.4418 127.874 77.5344ZM97.0071 64.0862C97.312 64.5095 97.6169 64.9327 97.9218 65.356C97.902 65.0803 97.806 64.8157 97.6445 64.5914C97.483 64.3672 97.2623 64.1923 97.0071 64.0862ZM121.095 106.505C122.364 110.264 123.346 114.086 124.26 117.936C124.372 118.199 124.469 118.468 124.55 118.741C126.586 125.697 129.143 132.49 132.198 139.062C134.154 143.36 136.23 147.604 138.265 151.865C138.463 152.268 138.752 152.619 139.108 152.891C139.019 152.668 138.933 152.443 138.84 152.222C137.259 148.238 136.077 144.106 135.311 139.889C134.934 138.042 134.33 136.241 133.824 134.42C132.964 131.325 132.078 128.238 131.242 125.136C130.129 120.477 128.693 115.901 126.944 111.442C125.463 107.964 123.921 104.512 122.452 101.029C121.694 99.2314 121.069 97.3777 120.322 95.575C119.961 94.7017 119.522 93.8628 119.01 93.0685C117.161 90.21 115.336 87.3321 113.367 84.5569C111.982 82.6916 110.498 80.9019 108.922 79.1953C111.48 83.7247 113.744 88.4147 115.698 93.236C115.747 93.2417 115.795 93.2608 115.834 93.2911C115.874 93.3214 115.905 93.3618 115.923 93.4082C117.872 97.6817 119.598 102.053 121.095 106.505ZM99.1277 66.675C100.769 68.6236 102.41 70.5721 104.051 72.5206C102.729 70.3242 101.067 68.3512 99.1277 66.675ZM143.067 155.565C143.08 155.376 143.061 155.187 143.01 155.004C141.776 146.711 140.728 138.387 138.841 130.203C137.431 124.705 135.672 119.303 133.574 114.03C132.112 110.071 130.552 106.141 128.86 102.275C126.113 96.1721 122.663 90.4108 118.581 85.1078C117.178 83.2439 115.808 81.3528 114.352 79.5309C110.101 74.1281 105.409 69.0877 100.324 64.4616C98.4472 62.7789 96.5983 61.0648 94.7275 59.3751C94.5183 59.204 94.295 59.051 94.06 58.9176C95.7274 60.6519 97.3607 62.4212 99.0747 64.1083C104.013 68.969 108.766 74.0024 113.213 79.3163C116.245 82.9423 118.911 86.8606 121.169 91.0134C122.252 93.0034 123.391 94.9636 124.53 96.9232C126.732 100.889 128.575 105.043 130.036 109.337C131.17 112.469 132.073 115.685 133.044 118.874C133.557 120.56 133.975 122.274 134.47 123.965C135.029 125.871 135.497 127.795 135.9 129.737C138.73 138.391 141.07 147.197 142.909 156.114C142.973 155.935 143.026 155.751 143.067 155.565ZM142.886 159.139C141.555 153.152 140.08 147.202 138.496 141.28L138.513 141.375L138.51 141.375C137.532 139.4 136.805 137.312 136.345 135.158C136.163 134.488 136.026 133.807 135.935 133.119C135.798 132.228 135.645 131.341 135.476 130.458C135.407 130.218 135.339 129.978 135.269 129.738C135.259 129.706 135.255 129.671 135.258 129.637C135.261 129.602 135.27 129.569 135.286 129.538C134.02 123.701 132.396 117.947 130.422 112.309C128.457 106.178 125.797 100.292 122.494 94.766C120.613 91.7045 118.781 88.6132 116.892 85.5568C114.31 81.6676 111.378 78.0217 108.135 74.6641C105.9 72.1923 103.575 69.7985 101.159 67.4828C101.214 67.6473 101.287 67.8054 101.376 67.9544C103.833 71.2298 106.279 74.5143 108.765 77.7683C110.983 80.6725 113.311 83.4944 115.473 86.4394C117.859 89.542 119.872 92.9135 121.473 96.485C123.484 101.245 125.463 106.017 127.481 110.774C129.246 115.229 130.694 119.804 131.816 124.463C132.66 127.629 133.572 130.777 134.413 133.944C135.174 136.806 135.935 139.669 136.595 142.555C137.174 145.203 137.958 147.803 138.939 150.33C139.616 152.026 140.217 153.755 140.804 155.485C141.303 156.804 142.005 158.037 142.886 159.139ZM143.436 161.677C143.345 161.252 143.254 160.827 143.161 160.402C142.934 160.041 142.681 159.697 142.403 159.374C142.406 159.809 142.499 160.238 142.677 160.634C142.855 161.031 143.113 161.386 143.436 161.677ZM115.158 100.45C117.831 109.513 120.636 118.538 123.833 127.435C125.618 132.42 127.784 137.259 130.312 141.911C132.059 145.118 133.853 148.306 135.796 151.397C137.322 153.734 138.996 155.971 140.809 158.094C140.696 157.637 140.553 157.188 140.381 156.75C140.091 156.121 139.726 155.528 139.399 154.917C135.917 148.422 132.759 141.767 129.795 135.024C127.352 129.559 125.354 123.905 123.821 118.119C123.748 117.775 123.716 117.424 123.724 117.073C122.733 113.616 121.62 110.182 120.416 106.779C119.652 105.287 119.027 103.728 118.548 102.121C117.907 100.188 117.2 98.2827 116.45 96.396C116.084 95.497 115.714 94.6003 115.342 93.7059L115.34 93.6959C114.028 90.6118 112.6 87.5773 111.104 84.5743C109.003 80.1463 106.285 76.0382 103.031 72.3726C103.16 72.7507 103.314 73.1195 103.494 73.4764C108.625 81.8773 112.551 90.957 115.158 100.45ZM96.701 63.7522C96.348 63.264 96.0966 62.6779 95.4592 62.4636C95.8731 62.8932 96.2871 63.3227 96.701 63.7522ZM88.0672 55.352C89.6777 56.9699 91.5038 58.3579 93.4938 59.4766C92.7811 58.1749 91.7493 57.0755 90.4954 56.2817C89.9823 55.9311 89.5245 55.4995 89.011 55.1494C88.4532 54.7314 87.7994 54.4602 87.1095 54.3607C87.4276 54.6924 87.7248 55.0477 88.0672 55.352ZM81.1378 51.724C82.8583 52.8828 84.5852 54.0319 86.3188 55.171C86.6813 55.3858 87.0555 55.5802 87.4397 55.7532C86.6055 54.1606 85.2087 52.9351 83.521 52.3154C82.4669 51.909 81.4157 51.4961 80.3633 51.0857C80.6086 51.3136 80.8672 51.5267 81.1378 51.724ZM-73.4603 2.9864C-73.1294 3.29847 -72.7367 3.53767 -72.3077 3.68864C-71.8786 3.8396 -71.4227 3.89892 -70.9693 3.86282C-71.6739 3.29252 -72.5538 2.98299 -73.4603 2.9864ZM-73.0387 1.7652C-72.4541 2.65306 -71.6805 2.67632 -70.9704 2.81738C-71.2199 2.50435 -71.5336 2.24842 -71.8904 2.06693C-72.2472 1.88543 -72.6388 1.78254 -73.0387 1.7652ZM-69.5712 4.43792L-67.9923 5.00202C-68.1953 4.79412 -68.443 4.63522 -68.7166 4.53748C-68.9902 4.43973 -69.2825 4.40569 -69.5712 4.43792ZM-13.3768 20.0545C-15.832 19.452 -18.3573 19.1356 -20.8537 18.7009C-20.4641 18.934 -20.0502 19.1238 -19.6194 19.2669C-15.5294 20.2795 -11.4342 21.2712 -7.33365 22.242C-7.0496 22.2821 -6.76164 22.2869 -6.47642 22.256C-8.77299 21.5073 -11.0375 20.6286 -13.3768 20.0545ZM-6.37057 22.2811C-5.39324 22.8261 -4.30677 23.1464 -3.19012 23.2188C-4.16008 22.6565 -5.2507 22.335 -6.37057 22.2811ZM59.2014 74.0971C55.8014 69.1795 52.4915 64.1948 48.9506 59.3804C45.6316 54.9414 41.8568 50.8622 37.6879 47.2096C36.5539 46.1997 35.3816 45.2331 34.2253 44.2486C34.4935 44.6174 34.7852 44.9686 35.0986 45.3C40.216 50.3258 44.9397 55.7374 49.228 61.487C52.8599 66.3058 56.5402 71.0983 60.269 75.8646C59.9148 75.2744 59.5921 74.6623 59.2014 74.0971ZM28.9566 56.4279C29.638 58.0349 30.2779 59.6609 31.0078 61.2457C34.5653 68.9699 38.0687 76.7205 41.7545 84.3834C43.4714 87.9529 45.4652 91.4003 47.5045 94.8007C49.5128 98.1497 51.7342 101.371 53.8675 104.645C57.6799 110.284 61.8843 115.649 66.4496 120.699C69.2217 123.872 72.0286 127.015 74.9361 130.092C74.4031 129.277 73.9233 128.422 73.3274 127.656C71.0847 124.776 68.802 121.927 66.539 119.062C65.4854 117.728 64.4291 116.396 63.3973 115.046C58.3783 108.41 53.7046 101.521 49.395 94.4048C48.7385 93.3327 48.2423 92.1635 47.6131 91.0731C45.5353 87.4735 43.3678 83.924 41.3598 80.2863C40.1753 78.1409 39.1892 75.882 38.1796 73.6447C35.6252 67.8854 32.7525 62.2727 29.5748 56.8325C29.4627 56.6432 29.3348 56.4633 29.2141 56.279L28.9566 56.4279ZM10.0721 27.3499C10.8334 28.1658 11.5744 29.0015 12.3613 29.7917C16.2688 33.7433 19.6328 38.1973 22.3648 43.0366C25.1773 47.9635 27.7897 52.9999 30.9238 57.7481C33.8505 62.4656 36.3986 67.4077 38.5439 72.528C40.4055 76.8737 42.5864 81.0756 45.0688 85.0991C46.9757 88.0583 48.4811 91.2754 50.1807 94.3694C50.7873 95.4737 51.4019 96.5768 52.0758 97.6405C55.5534 103.13 59.1833 108.518 63.0849 113.715C65.3913 116.787 67.8605 119.737 70.1866 122.794C72.0932 125.301 73.9114 127.875 75.7388 130.441C76.5033 131.514 77.1903 132.643 78.1439 134.099C78.395 133.072 78.284 131.989 77.8297 131.034C77.6181 130.647 77.3725 130.279 77.1312 129.909C74.1652 125.367 71.1402 120.862 68.2498 116.273C66.3703 113.288 64.6764 110.186 62.9168 107.127C61.6912 104.996 60.5223 102.832 59.2805 100.71C56.6055 96.1394 53.8803 91.598 51.2149 87.0219C49.9144 84.7889 48.7062 82.5025 47.4478 80.245C46.7728 79.034 46.0954 77.824 45.3922 76.6292C41.7474 70.4353 38.0973 64.2445 34.4419 58.0567C34.1534 57.568 33.8523 57.0864 33.5433 56.6104C31.3459 53.2238 29.1053 49.8644 26.9559 46.4477C24.6325 42.8423 22.0542 39.4077 19.2409 36.1701C17.1193 33.6729 14.8977 31.2608 12.7756 28.764C12.4605 28.34 12.0538 27.9927 11.5856 27.7478C11.1175 27.5029 10.6001 27.3669 10.0721 27.3499ZM13.4619 28.3766C14.3714 29.4541 15.2532 30.5565 16.201 31.5991C21.1225 36.8408 25.485 42.5806 29.2178 48.7258C30.2372 50.4646 31.3918 52.1244 32.4858 53.8194C35.5284 58.5342 38.4351 63.3291 41.0889 68.276C41.6246 69.2747 42.2379 70.2334 42.8452 71.1918C45.8486 75.9326 48.6406 80.7943 51.2212 85.7772C51.8183 86.8882 52.4738 87.9667 53.1851 89.0083C56.4548 93.9589 59.2066 99.2063 62.0527 104.4C63.0517 106.224 64.1088 108.015 65.1108 109.836C68.7 116.361 72.7413 122.603 76.8943 128.776C77.0753 128.985 77.2667 129.184 77.4677 129.374C76.9587 128.195 76.5921 127.407 76.275 126.599C75.36 124.527 74.5554 122.408 73.8648 120.251C72.6983 116.062 71.2212 111.967 69.4458 107.998C68.4786 105.81 67.6065 103.578 66.7409 101.347C65.789 98.8763 64.6101 96.4997 63.2193 94.2473C61.3275 91.1955 59.5775 88.0519 57.594 85.0622C54.3546 80.179 50.9816 75.3842 47.6537 70.5599C45.5782 67.5512 43.5211 64.5282 41.3821 61.5648C39.6878 59.2174 37.8733 56.957 36.1274 54.6465C34.6469 52.687 33.1192 50.758 31.7345 48.732C28.9824 44.7381 25.9517 40.9435 22.665 37.3765C20.7962 35.3319 18.9774 33.2372 17.0253 31.2752C15.894 30.2416 14.7042 29.2738 13.4619 28.3766ZM16.6732 29.8638C17.2371 30.4198 17.7915 30.9859 18.3715 31.5245C18.6701 31.7981 19.0127 32.0194 19.3849 32.1792C18.8156 31.0848 17.8432 30.2546 16.6732 29.8638ZM25.3589 39.679C27.8881 42.5793 30.1203 45.7001 32.3641 48.8221C34.7879 52.1945 37.4162 55.4201 39.9548 58.71C40.2242 59.0592 40.5054 59.4008 40.7552 59.7636C44.7231 65.5261 48.6769 71.2984 52.6571 77.0523C54.0909 79.1246 55.6787 81.0952 57.034 83.2158C59.9182 87.7286 62.7628 92.27 65.4823 96.883C66.3704 98.6212 67.147 100.414 67.8074 102.251C69.1451 105.378 70.5434 108.482 71.8093 111.638C72.6573 113.739 73.397 115.883 74.0254 118.06C74.8805 121.027 75.9099 123.941 77.1082 126.786C77.3035 127.133 77.5203 127.468 77.7572 127.788C77.6292 126.047 77.4906 124.745 77.4474 123.44C77.4449 121.546 77.0317 119.674 76.2365 117.954C75.8437 117.093 75.5234 116.202 75.2788 115.288C73.0712 108.384 70.2767 101.682 66.926 95.2543C66.3354 94.1399 65.6786 93.062 64.959 92.0263C61.5692 86.8605 58.2144 81.6703 54.7429 76.5597C52.833 73.7483 50.7354 71.063 48.6889 68.346C46.1883 65.0261 43.6355 61.7453 41.1356 58.4246C37.3103 53.3432 33.5698 48.1936 29.4205 43.3686C27.658 41.3189 25.7088 39.4294 23.8311 37.48C23.6194 37.2928 23.3866 37.1308 23.1374 36.9976C23.8753 37.8936 24.5963 38.8046 25.3589 39.679ZM25.4006 38.1367C27.897 40.6279 30.2149 43.2919 32.3371 46.1089C35.0955 49.7044 37.854 53.2998 40.6125 56.8952C43.0624 60.0936 45.4545 63.3376 47.9629 66.4892C54.6472 74.8873 60.2954 83.9967 66.2275 92.912C68.2963 96.2998 70.0788 99.8543 71.5563 103.539C73.499 107.632 75.1205 111.87 76.4061 116.214C76.547 116.196 76.688 116.178 76.8288 116.16C76.5826 114.746 76.3772 113.323 76.0831 111.919C74.629 105.202 72.4449 98.665 69.5698 92.4232C68.9483 91.0473 68.2491 89.7005 67.4991 88.39C66.1533 86.0388 64.8342 83.6636 63.3338 81.4118C61.6237 78.8454 59.7309 76.4004 57.9098 73.9083C57.3528 73.1459 56.7258 72.4314 56.2071 71.6448C53.8783 68.1138 51.1535 64.8889 48.5079 61.6023C47.363 60.1801 46.2438 58.7372 45.0917 57.321C41.2833 52.6234 37.1776 48.1749 32.7999 44.0027C30.9285 42.2247 29.1793 40.3145 27.2612 38.5903C25.5219 37.0325 23.6379 35.6443 21.6348 34.4445C22.8901 35.6753 24.1453 36.906 25.4006 38.1367ZM20.7113 29.0483C21.0083 29.3052 21.354 29.4999 21.7277 29.6207C22.1015 29.7415 22.4957 29.7859 22.8869 29.7514C22.1617 29.5169 21.4365 29.2826 20.7113 29.0483ZM22.9325 29.7614C23.5629 30.2621 24.352 30.5201 25.1565 30.4886C24.8527 30.2256 24.4996 30.0258 24.1177 29.901C23.7359 29.7761 23.3329 29.7287 22.9325 29.7614ZM61.4109 37.2182C62.2815 37.4114 63.165 37.5409 64.0544 37.6053C67.4115 37.6572 70.7692 37.669 74.1267 37.689C74.1568 37.6726 74.1905 37.6639 74.2248 37.6636C76.1347 37.6468 78.0439 37.6022 79.9537 37.5735C79.9944 37.5709 80.0353 37.572 80.0762 37.5715C80.7086 37.562 81.3409 37.552 81.9732 37.5417C82.1483 37.5208 82.325 37.5181 82.5006 37.5333C93.815 37.3334 105.125 36.9533 116.431 36.47C118.794 36.3483 121.159 36.2442 123.523 36.1577C124.355 36.1196 125.188 36.0865 126.02 36.0478C129.504 35.8856 132.987 35.6918 136.47 35.5074C142.73 34.9657 148.95 34.0297 155.092 32.7048C158.72 31.92 162.376 31.2677 166.021 30.5618C158.879 31.2049 151.717 31.6129 144.555 32.0019C144.534 32.0031 144.525 31.989 144.509 31.9845C141.632 32.2528 138.755 32.5122 135.877 32.7628C131.172 33.1651 126.463 33.5131 121.757 33.9007C118.745 34.1488 115.737 34.4516 112.724 34.6823C109.461 34.9321 106.195 35.151 102.927 35.3389C99.7214 35.5242 96.5144 35.6994 93.3058 35.8006C88.3967 35.9551 83.4856 36.1305 78.5752 36.1317C74.0428 36.0177 69.508 36.2218 65.0041 36.7423C63.8077 36.9111 62.6088 37.0606 61.4109 37.2182ZM73.168 38.588C73.7437 38.6643 74.3181 38.7574 74.8961 38.8019C82.9286 39.4263 90.9901 39.5902 99.0413 39.2928C106.648 39.0064 114.259 38.7764 121.857 38.3372C125.491 38.127 129.101 37.4943 132.721 37.0417C133.07 36.9818 133.416 36.9007 133.757 36.7989C133.545 36.7212 133.324 36.6721 133.099 36.6529C132.496 36.6607 131.893 36.6688 131.291 36.677C117.191 37.5951 103.038 37.969 88.9217 38.063C86.0741 38.0819 83.2265 38.0727 80.3788 38.0742C80.058 38.1503 79.7239 38.1507 79.4029 38.0755C79.1037 38.0754 78.8045 38.0769 78.5054 38.0766C77.6145 38.2466 76.7077 38.3186 75.8012 38.2911C74.9232 38.3874 74.0457 38.4887 73.168 38.588ZM118.98 25.2419C113.722 25.1564 108.469 25.6064 103.302 26.5849C102.8 26.7037 102.305 26.8487 101.819 27.0191C102.339 26.995 102.86 26.981 103.379 26.9378C108.512 26.5103 113.644 26.0776 118.776 25.6398C119.178 25.5906 119.576 25.5205 119.97 25.4297C119.648 25.3321 119.316 25.2691 118.98 25.2419ZM132.354 25.4883C131.873 25.3879 131.386 25.319 130.896 25.2822C128.224 25.244 125.553 25.2258 122.881 25.2276C122.437 25.2548 121.997 25.3218 121.566 25.4278C122.143 25.4816 122.719 25.5552 123.297 25.572C125.564 25.6386 127.831 25.7002 130.099 25.7261C130.845 25.7348 131.593 25.6304 132.34 25.5777C132.657 25.5652 132.975 25.5527 133.292 25.54C132.979 25.5227 132.666 25.5054 132.354 25.4883ZM146.73 26.9654C143.584 26.7983 140.438 26.6095 137.289 26.5292C133.132 26.4231 128.972 26.4185 124.813 26.356C116.051 26.3805 107.304 27.0736 98.6474 28.4292C90.6743 29.6355 82.7918 31.3792 75.0538 33.6483C73.1183 34.1884 71.1175 34.4934 69.1485 34.915C68.6678 35.018 68.194 35.1532 67.7172 35.2742C69.3255 35.5208 70.9643 35.4855 72.5605 35.1701C78.37 34.4129 84.1718 33.5969 89.9787 32.8182C94.162 32.2573 98.3503 31.7326 102.533 31.1689C106.029 30.6978 109.526 30.2281 113.013 29.6967C120.197 28.7436 127.432 28.2222 134.679 28.1351C138.644 28.0098 142.608 27.7975 146.571 27.5907C147.157 27.5216 147.737 27.4036 148.304 27.2378C147.786 27.1119 147.26 27.0209 146.73 26.9654ZM170.485 28.835C170.393 28.8219 170.301 28.8092 170.21 28.7964C169.609 28.6362 168.998 28.5152 168.382 28.4342C161.541 27.8423 154.664 27.8152 147.819 28.3534C143.876 28.7261 139.902 28.8575 135.94 28.9073C127.311 28.8572 118.693 29.5078 110.169 30.8527C107.754 31.2784 105.302 31.4955 102.869 31.8218C95.2573 32.8425 87.6465 33.8684 80.0363 34.8994C79.6917 34.9601 79.3507 35.04 79.015 35.1386C79.5334 35.2515 80.0606 35.3184 80.5908 35.3386C85.816 35.1678 91.0404 34.9684 96.2648 34.7747C96.6425 34.7607 97.0196 34.7017 97.3967 34.7048C105.73 34.7731 113.991 33.6446 122.291 33.1884C128.901 32.825 135.477 32.1346 142.061 31.5041C144.694 31.2521 147.339 31.1199 149.98 30.9686C150.29 30.9629 150.599 30.9946 150.901 31.0628C157.419 30.4176 163.928 29.6791 170.442 28.9913L170.485 28.835ZM84.9442 42.8304C97.7697 45.207 110.884 45.6023 123.829 44.0024C130.753 43.1033 137.586 41.6055 144.252 39.5258C144.697 39.3846 145.128 39.1951 145.564 39.0231C145.098 39.0481 144.63 39.0523 144.168 39.1124C136.856 40.0659 129.568 41.3228 122.227 41.9206C110.356 43.0582 98.4129 43.2384 86.513 42.4597C85.6163 42.3883 84.7089 42.452 83.8058 42.4609C84.1742 42.6159 84.555 42.7394 84.9442 42.8304ZM79.8561 41.3237C81.6813 41.4016 83.504 41.5536 85.3252 41.7038C93.0584 42.2136 100.813 42.3254 108.557 42.039C119.263 41.6765 129.938 40.6864 140.527 39.0739C146.964 38.2169 153.285 36.6493 159.377 34.3999C162.559 33.2089 165.805 32.1856 169.017 31.0744C169.464 30.9198 169.891 30.7058 170.324 30.5138C168.474 30.595 166.654 31.0217 164.96 31.772L164.955 31.797C164.353 32.1829 163.627 32.3262 162.924 32.1978C162.352 32.4429 161.767 32.6558 161.171 32.8337C148.623 35.6493 135.912 37.681 123.112 38.917C118.547 39.4315 113.929 39.5252 109.331 39.6756C102.967 39.884 96.6001 40.0445 90.2335 40.0798C81.4029 40.0543 72.5816 39.5026 63.8166 38.4277C63.128 38.3789 62.4371 38.3724 61.7477 38.4079C67.6977 39.8548 73.7526 40.8297 79.8561 41.3237Z" fill="#A1A1A1"/>
</g>
</svg>
