<svg width="243" height="211" viewBox="0 0 243 211" fill="none" xmlns="http://www.w3.org/2000/svg">
<g style="mix-blend-mode:multiply" opacity="0.15">
<path d="M218.886 43.3026C215.709 44.6952 212.463 45.9259 209.161 46.9898C207.898 47.3878 206.659 47.8615 205.452 48.4085C195.211 52.8582 185.313 58.0611 175.841 63.9745C173.059 65.7103 170.276 67.4447 167.47 69.1396C166.781 69.5803 166.03 69.9144 165.241 70.1307C161.707 71.0918 158.073 71.6364 154.412 71.7535C152.205 71.7626 149.998 71.8146 147.791 71.8634C144.198 71.9427 140.598 71.9302 137.012 72.1424C127.672 72.6951 118.751 75.2067 109.948 78.1915C106.465 79.3212 103.095 80.7736 99.8814 82.5297C88.9505 88.6916 77.9684 94.7669 67.135 101.097C57.3691 106.803 47.4713 112.183 36.7639 115.94C36.4661 116.105 36.1977 116.318 35.9693 116.571C36.213 117.386 36.7807 117.435 37.3584 117.462C39.2473 117.551 41.1379 117.736 43.0255 117.71C55.3992 117.698 67.7366 116.37 79.8293 113.748C90.3734 111.437 100.671 108.119 110.58 103.837C121.323 98.9587 131.645 93.2025 141.442 86.6273C146.393 83.3706 151.395 80.1913 156.388 76.9998C156.957 76.6807 157.549 76.4037 158.159 76.1712C157.839 76.51 157.501 76.8319 157.148 77.1356C152.81 80.5929 148.44 84.0117 144.123 87.4944C132.776 96.6503 122.555 107.12 113.675 118.684C111.014 122.133 107.686 125.013 103.889 127.15C97.7436 130.638 91.3275 133.625 84.7029 136.083C74.9629 139.749 65.2703 143.53 55.7736 147.805C49.8088 150.534 44.0319 153.656 38.481 157.151C34.6189 159.538 30.8868 162.129 27.3006 164.913C23.9679 167.511 20.8786 170.408 18.0709 173.567C16.6497 175.164 15.3814 176.901 14.0829 178.604C12.0573 181.261 10.1062 183.976 8.04738 186.606C5.79536 189.646 3.31918 192.514 0.63958 195.184C0.393376 195.506 0.189479 195.859 0.0329946 196.233C0.372346 196.429 0.7401 196.57 1.12306 196.653C1.56313 196.627 1.99786 196.543 2.41619 196.404C16.1353 192.994 29.5435 188.437 42.4994 182.781C51.5406 178.894 60.2951 174.371 68.6971 169.246C73.5134 166.242 78.0146 162.759 82.1326 158.852C87.637 153.642 92.2937 147.666 97.2974 142.55C96.5954 143.623 95.701 145.046 94.7507 146.43C91.9835 150.344 89.4943 154.448 87.3013 158.71C85.8979 161.532 84.5366 164.378 83.2726 167.264C82.3291 169.258 81.5585 171.328 80.9691 173.454C79.1811 180.299 78.3942 187.367 78.6329 194.438C78.9477 199.6 78.8348 204.78 78.2955 209.923C78.2755 210.092 78.395 210.278 78.481 210.559L79.5501 210.862C80.0176 210.309 80.5017 209.815 80.8931 209.257C81.9786 207.707 83.0753 206.162 84.0784 204.559C87.1566 199.641 90.2279 194.718 93.2338 189.755C95.4203 186.359 97.2935 182.772 98.8302 179.037C101.926 170.895 103.996 162.399 104.991 153.745C105.427 149.994 106.088 146.26 106.821 142.554C107.408 139.589 108.207 136.662 109.013 133.746C109.516 131.727 110.171 129.749 110.974 127.83C112.542 124.033 114.853 120.586 117.77 117.693C118.549 116.96 119.249 116.143 119.99 115.368C124.746 110.235 129.768 105.354 135.036 100.747C137.524 98.7097 139.9 96.54 142.154 94.2472C146.961 89.2437 152.232 84.7075 157.896 80.6996C162.148 77.6523 166.328 74.5023 170.503 71.3493C171.82 70.2712 173.333 69.458 174.959 68.9546C176.562 68.5603 178.023 67.7248 179.176 66.5429C179.705 66.0958 180.31 65.7486 180.963 65.5182C182.736 64.695 184.524 63.9033 186.309 63.1074C186.652 62.9547 187.011 62.839 187.719 62.572C187.142 63.13 186.884 63.4022 186.603 63.6492C181.637 68.1266 177.067 73.0235 172.942 78.2855C171.401 80.2002 169.98 82.211 168.506 84.1795C164.561 89.4258 161.169 95.0656 158.384 101.009C156.26 105.723 154.393 110.548 152.79 115.463C150.141 122.689 148.147 130.139 146.835 137.722C145.542 146.326 144.249 154.929 142.955 163.532C142.858 163.813 142.84 164.115 142.903 164.405C142.965 164.695 143.106 164.962 143.311 165.177C144.255 165.607 144.799 164.885 145.294 164.268C147.228 161.859 149.18 159.46 151.015 156.977C157.075 148.498 161.887 139.193 165.303 129.346C169.016 119.218 172.078 108.879 175.099 98.5292C177.057 91.4751 179.84 84.6765 183.39 78.2738C186.012 73.4484 189.185 68.9434 192.846 64.8494C197.965 59.1736 203.942 54.3346 210.559 50.5081C214.53 48.304 218.645 46.3698 222.876 44.7187C231.576 41.1616 240.467 38.09 249.508 35.5181C253.463 34.4426 257.44 33.4638 261.328 32.1434C263.458 31.4202 265.654 30.8916 267.821 30.2773C267.28 30.775 266.762 31.3027 266.188 31.7585C264.459 33.1296 262.698 34.4594 260.965 35.8255C255.505 40.1317 250.756 45.2045 245.751 50.0001C242.43 53.1944 239.425 56.7028 236.78 60.4761C232.715 66.252 228.794 72.1298 224.826 77.9742C220.933 83.8003 217.739 90.0635 215.308 96.635C212.785 102.9 211.03 109.448 210.083 116.136C209.313 122.456 208.746 128.801 208.092 135.135C208.046 135.384 208.034 135.637 208.058 135.888C208.133 136.302 208.275 136.705 208.357 137C208.634 137.208 208.978 137.305 209.322 137.27C209.666 137.236 209.985 137.073 210.215 136.815C210.575 136.462 210.91 136.085 211.216 135.685C214.128 132.203 216.963 128.652 219.964 125.248C225.984 118.528 231.468 111.347 236.366 103.77C238.532 100.363 240.721 96.9702 242.809 93.5162C244.145 91.3062 245.39 89.033 246.544 86.7225C248.994 81.8152 251.395 76.8832 253.746 71.9264C256.011 67.1399 258.339 62.3734 260.349 57.4787C263.377 49.9888 267.207 42.8492 271.773 36.1849C273.797 33.2894 276.037 30.5515 278.474 27.9947C279.674 26.681 281.285 25.8151 283.042 25.5397C283.914 25.3967 284.779 25.2166 285.643 25.0361C288.236 24.4943 290.832 23.9658 293.418 23.3918C296.434 22.7223 299.425 21.9222 302.456 21.3328C312.127 19.4528 321.656 17.0205 331.087 14.1897C340.631 11.3251 350.141 8.34066 359.919 6.33649C360.45 6.2494 360.958 6.05571 361.411 5.76699C361.865 5.47828 362.255 5.10056 362.559 4.65672C362.912 4.2206 363.295 3.80878 363.703 3.42401C364.042 3.06114 364.358 2.67732 364.649 2.2748C364.727 2.16172 364.628 1.92508 364.602 1.66059C364.037 1.60215 363.49 1.54552 362.987 1.4935C362.553 0.8716 361.932 0.40465 361.214 0.161011C360.711 0.461328 360.111 0.788856 359.543 1.16332C355.861 3.61342 351.817 5.46997 347.559 6.66507C342.82 7.97526 338.017 9.06073 333.224 10.1688C323.76 12.3574 314.301 14.5762 304.806 16.6281C296.23 18.4812 287.735 20.6498 279.278 22.9601C267.166 26.2692 255.207 30.0918 243.328 34.1569C241.48 34.8041 239.54 35.15 237.582 35.1812C236.447 35.1944 235.31 35.2146 234.177 35.1743C227.757 34.7644 221.378 33.859 215.098 32.4661C209.043 31.3027 203.119 29.4613 197.133 27.9326C193.408 26.9812 189.687 26.0071 185.943 25.1338C181.821 24.1917 177.623 23.625 173.398 23.4406C163.126 22.901 152.828 23.1024 142.585 24.0431C135.367 24.7347 128.173 25.6971 120.982 26.6403C117.734 27.0664 114.517 27.7371 111.288 28.3045C110.806 28.3892 110.245 28.398 110.199 29.1167C110.475 29.7889 111.137 29.8776 111.717 30.0881C119.183 32.7968 126.661 35.4741 134.114 38.2183C149.752 43.8925 166.347 46.4657 182.969 45.7941C192.49 45.377 201.963 44.2074 211.299 42.2963C217.607 41.0841 223.915 39.8715 230.222 38.6584C229.613 38.9589 229.019 39.299 228.389 39.5498C225.225 40.8104 222.036 42.0073 218.886 43.3026ZM96.3056 133.356C96.0407 133.672 95.7428 133.959 95.4171 134.212C93.3079 135.586 91.2124 136.986 89.0467 138.266C86.6624 139.676 84.2131 140.977 81.7782 142.299C81.221 142.568 80.6501 142.808 80.0678 143.017C79.2239 143.549 78.4157 144.151 77.5306 144.603C70.4115 148.232 63.2538 151.786 56.1556 155.455C52.923 157.126 49.7317 158.871 46.5817 160.69C46.5647 160.645 46.5378 160.604 46.503 160.571C46.4682 160.537 46.4264 160.512 46.3807 160.497C46.3349 160.481 46.2862 160.476 46.2383 160.482C46.1904 160.488 46.1443 160.505 46.1036 160.53C34.2197 167.929 22.7229 175.86 11.6131 184.324C15.1368 180.001 19.2474 176.191 23.8257 173.005C27.043 170.924 30.11 168.613 33.2839 166.463C38.0932 163.179 43.0967 160.188 48.2669 157.507C48.3033 157.505 48.3391 157.497 48.3727 157.483C55.0991 154.441 61.8192 151.384 68.533 148.314C71.7857 146.83 75.0049 145.311 78.1793 143.704C78.3097 143.652 78.435 143.587 78.5534 143.512C78.9152 143.327 79.2762 143.142 79.6366 142.955L80.0597 142.994C80.5118 142.669 80.9438 142.31 81.4196 142.025C81.4626 141.999 81.5061 141.974 81.5492 141.948C83.4643 140.925 85.3634 139.867 87.2385 138.751C89.7933 137.231 92.308 135.653 94.7825 134.019C95.2864 133.79 95.7973 133.576 96.3056 133.356ZM22.9541 170.408C29.7662 164.4 37.161 159.086 45.0285 154.546C48.4479 152.654 51.9655 150.946 55.5663 149.427C66.3392 144.625 77.2939 140.267 88.378 136.235C89.6336 135.778 90.889 135.321 92.1442 134.863C87.8649 137.439 83.5956 140.031 79.1607 142.335C72.702 145.691 65.9763 148.569 59.3705 151.621C56.5847 152.908 53.8015 154.201 51.0207 155.499C50.8952 155.557 50.7691 155.614 50.644 155.674C49.8167 156.059 48.989 156.443 48.161 156.827C48.0758 156.865 48.0092 156.936 47.9757 157.023C42.169 159.97 36.5775 163.322 31.2428 167.055C28.6808 168.889 26.0727 170.662 23.4416 172.395C20.3896 174.413 17.5813 176.777 15.0727 179.44C14.4047 180.146 13.72 180.835 13.0044 181.496C15.9488 177.482 19.2814 173.768 22.9541 170.408ZM6.12505 191.532C8.60549 189.114 11.3362 186.968 14.2712 185.128C17.4794 183.021 20.6702 180.887 23.8743 178.774C25.0299 178.012 26.1748 177.227 27.372 176.535C34.618 172.346 41.8728 168.171 49.1364 164.012C49.9745 163.532 50.8246 163.072 51.6753 162.614C51.7159 162.64 51.7628 162.654 51.811 162.655C51.8591 162.656 51.9066 162.644 51.9484 162.62C61.622 157.25 71.3212 151.892 80.802 146.178C81.3999 145.877 81.9962 145.573 82.5939 145.272C82.0748 145.743 81.5776 146.243 81.0194 146.662C75.232 151.007 69.1191 154.875 63.0975 158.878C58.7518 161.767 54.549 164.878 50.1308 167.648C49.5938 167.985 49.0504 168.311 48.5112 168.644C48.4503 168.638 48.3893 168.651 48.3361 168.681C42.3637 172.094 36.393 175.51 30.424 178.929C24.5602 182.308 18.7183 185.739 12.6997 188.838C10.2974 190.075 7.86671 191.256 5.43134 192.426C5.57237 192.068 5.81311 191.757 6.12505 191.532ZM5.04491 193.374L5.15178 193.206C10.4075 190.813 15.6337 188.36 20.6459 185.481C22.7058 184.298 24.7625 183.109 26.8161 181.914C26.9724 181.864 27.1234 181.798 27.2669 181.718C33.733 177.944 40.2339 174.227 46.6523 170.374C47.3264 169.982 48.0004 169.589 48.6743 169.196C48.7178 169.171 48.7539 169.135 48.7791 169.092C49.2683 168.795 49.7617 168.505 50.2497 168.205C55.0803 165.243 59.6097 161.793 64.3861 158.737C75.4384 151.665 85.9853 143.881 96.5732 136.151C98.0986 135.037 99.6523 133.962 101.193 132.869C101.129 132.52 101.236 132.284 101.616 132.227C101.921 131.986 102.225 131.745 102.53 131.505L102.52 131.905C101.768 132.855 101.052 133.835 100.374 134.844C96.4018 138.515 92.4467 142.205 88.4059 145.798C86.6995 147.316 84.9199 148.751 83.1383 150.184C75.0513 156.009 66.7175 161.505 58.22 166.699C47.0636 173.54 35.5339 179.753 23.6847 185.309C17.8884 188.017 12.0488 190.648 6.15768 193.147L5.04491 193.374ZM8.52407 193.143C8.0965 193.265 7.66263 193.365 7.22857 193.464C18.1384 189.051 28.8083 184.066 39.1941 178.531C50.7464 172.424 61.9556 165.688 72.771 158.355C75.3124 156.628 77.8196 154.852 80.3089 153.051C80.5395 152.912 80.7626 152.761 80.9773 152.598C81.0931 152.508 81.2047 152.414 81.3202 152.324C84.454 150.04 87.555 147.712 90.6233 145.34C90.6756 145.301 90.7122 145.244 90.7268 145.18C90.7414 145.116 90.733 145.049 90.703 144.991C93.1467 143.007 95.5547 140.973 97.892 138.863C97.3389 139.541 96.7804 140.214 96.199 140.867C89.2393 148.765 81.408 155.849 72.8546 161.986C69.9812 164.027 67.0501 165.987 64.1563 168C64.126 168.021 64.1001 168.049 64.0705 168.071C62.6567 168.891 61.2345 169.696 59.8258 170.509C56.6795 172.325 53.5009 174.083 50.29 175.784C44.8347 178.674 39.298 181.403 33.7353 184.079C25.504 187.56 17.0876 190.586 8.52407 193.143ZM87.8692 151.394C85.9918 153.431 83.9519 155.318 82.0036 157.291C78.4665 160.805 74.54 163.904 70.3004 166.528C62.139 171.68 53.5949 176.2 44.743 180.047C44.2965 180.212 43.8388 180.345 43.3733 180.444C45.7562 179.239 48.1207 177.998 50.4666 176.723C53.7034 174.95 56.9066 173.118 60.0763 171.226C63.3014 169.302 66.4003 167.184 69.6108 165.241C69.6548 165.217 69.6889 165.178 69.7071 165.131C69.7254 165.084 69.7265 165.032 69.7105 164.984C71.7856 163.499 73.8084 161.939 75.865 160.427C82.2976 155.656 88.2694 150.294 93.702 144.41C93.9081 144.222 94.1361 144.06 94.3811 143.927C92.2174 146.422 90.1061 148.966 87.8692 151.394ZM94.5284 143.77L95.3511 142.513L95.6006 142.721L94.5284 143.77ZM102.758 131.605L102.562 131.475C103.041 131.023 103.528 130.562 104.092 130.029C103.637 130.545 103.19 131.069 102.758 131.605ZM105.665 128.011C103.61 129.661 101.496 131.238 99.4739 132.926C95.7852 135.964 91.9002 138.755 87.8441 141.281C87.789 141.237 87.7214 141.211 87.651 141.207C87.5805 141.204 87.5106 141.222 87.4512 141.26C80.9454 145.11 74.4713 149.012 67.9582 152.848C64.3237 154.932 60.692 157.022 57.0633 159.117C56.9826 159.164 56.9112 159.226 56.8337 159.278C56.153 159.663 55.471 160.044 54.7876 160.424C54.591 160.489 54.4005 160.571 54.2184 160.669C45.1742 165.752 36.1365 170.846 27.1055 175.952C26.5582 176.261 26.0231 176.594 25.4988 176.941C20.8844 179.994 16.2629 183.036 11.6687 186.119C10.2903 187.044 8.99058 188.086 7.55127 188.956C8.16368 188.266 8.77603 187.576 9.38832 186.886C19.1413 179.451 29.163 172.361 39.4535 165.616C46.8032 161.222 54.2633 157.033 61.9126 153.163C70.068 149.036 78.2213 144.903 86.2414 140.502C92.4566 137.022 98.3917 133.063 103.993 128.663C104.932 127.998 105.903 127.38 106.903 126.813C106.512 127.235 106.099 127.635 105.665 128.011ZM79.4014 193.901C79.2801 192.17 79.2717 190.433 79.3764 188.701C79.6813 184.045 80.3819 179.422 81.4704 174.885C82.1319 172.385 83.0793 169.971 84.2938 167.689C85.9765 164.445 87.4708 161.1 89.2189 157.893C90.6494 155.269 92.333 152.783 93.9045 150.235L94.0929 150.351C92.5954 153.117 91.0981 155.884 89.6007 158.651C87.7863 162.04 86.3028 165.597 85.1707 169.271C82.7983 176.588 81.0801 184.101 80.0361 191.721C79.9642 192.283 79.8423 192.838 79.7276 193.393C79.639 193.575 79.5296 193.745 79.4014 193.901ZM79.6395 201.686C79.5227 199.916 79.5562 198.14 79.7397 196.376C80.6687 191.233 81.4281 186.048 82.6287 180.969C83.9853 174.558 85.9793 168.298 88.5809 162.284C89.7905 159.657 91.2001 157.12 92.5696 154.57C94.0871 151.744 95.6081 148.917 97.2312 146.152C98.3988 144.203 99.6852 142.328 101.083 140.537C100.712 141.104 100.32 141.658 99.9738 142.24C98.6872 144.404 97.3587 146.546 96.1612 148.759C95.5189 150.054 94.9496 151.385 94.4559 152.744C93.3491 155.486 92.2294 158.224 91.1793 160.988C90.3088 163.28 89.4667 165.586 88.7291 167.923C87.9147 170.503 87.159 173.107 86.5135 175.735C85.7029 179.033 84.9226 182.347 84.3228 185.688C83.2422 191.059 81.7922 196.35 79.9832 201.521C79.9698 201.562 79.8745 201.576 79.6395 201.686ZM79.9292 204.268C80.3959 202.569 80.8836 200.871 81.465 199.209C83.175 194.201 84.4976 189.069 85.4211 183.859C86.0047 180.707 86.8546 177.604 87.636 174.491C88.1266 172.538 88.7235 170.611 89.2527 168.667C90.0138 165.806 91.0046 163.011 92.2154 160.31C93.2029 158.131 94.0709 155.899 94.8155 153.625C96.1067 149.853 98.0486 146.337 100.553 143.235C100.269 144.016 99.9742 144.794 99.7013 145.578C96.2281 155.569 92.6484 165.521 90.1575 175.829C89.2435 179.612 87.8217 183.272 86.6239 186.986C84.6916 192.977 82.7552 198.967 80.8146 204.956C80.5849 205.665 80.3218 206.362 80.0743 207.065C79.8408 206.64 79.7065 206.168 79.6814 205.683C79.6563 205.199 79.7409 204.715 79.9292 204.268ZM90.0198 186.724C91.41 183.69 92.5792 180.559 93.5185 177.357C94.3432 174.583 95.3167 171.854 96.1695 169.087C97.0405 166.263 97.9628 163.446 98.6523 160.575C99.9627 155.119 101.646 149.781 103.426 144.469C103.663 143.864 103.941 143.275 104.258 142.708C104.061 143.652 103.926 144.616 103.639 145.531C102.152 150.213 101.004 154.995 100.204 159.842C100.035 160.899 99.8094 161.946 99.5296 162.979C98.2863 167.533 97.1047 172.108 95.7115 176.616C94.9433 178.879 94.0262 181.089 92.9663 183.231C91.411 186.6 89.7815 189.935 88.141 193.263C87.2561 195.059 86.2833 196.811 85.2408 198.529C86.6367 194.507 88.2375 190.579 90.0198 186.724ZM106.247 139.291C104.527 145.574 103.946 152.05 102.972 158.462C101.719 167.215 98.9928 175.692 94.9103 183.535C92.6753 187.799 90.1555 191.908 87.3679 195.833C89.9898 190.533 92.4639 185.664 94.8044 180.732C95.6348 178.898 96.3262 177.004 96.873 175.066C97.9073 171.629 98.873 168.172 99.7698 164.694C100.38 162.317 100.878 159.907 101.307 157.491C101.897 154.14 102.684 150.828 103.665 147.571C104.304 145.463 104.821 143.318 105.431 141.201C105.649 140.446 105.97 139.722 106.25 138.986C106.266 139.087 106.265 139.19 106.247 139.291ZM98.0699 159.79C97.2268 162.823 96.2822 165.827 95.3521 168.835C94.5144 171.543 93.5696 174.219 92.787 176.942C91.5732 180.92 90.0838 184.808 88.3296 188.579C86.9727 191.628 85.8209 194.768 84.5415 197.852C83.9942 199.203 83.3174 200.499 82.5205 201.72C82.6348 201.25 82.7156 200.769 82.8686 200.312C84.4501 195.593 85.9974 190.862 87.6474 186.168C89.0582 182.322 90.2648 178.405 91.2621 174.432C93.196 166.796 95.5269 159.266 98.2454 151.872C99.8872 146.84 101.848 141.917 104.117 137.135C104.766 135.839 105.362 134.512 106.089 133.261C106.403 132.757 106.764 132.284 107.167 131.847C106.857 132.781 106.55 133.716 106.246 134.65C106.226 134.701 106.217 134.756 106.22 134.811C106.222 134.866 106.237 134.92 106.262 134.969C106.287 135.018 106.322 135.061 106.365 135.096C106.408 135.13 106.458 135.155 106.511 135.169C105.847 137.198 104.911 139.12 104.127 141.103C101.78 147.221 99.7582 153.459 98.0699 159.79ZM118.696 115.506C119.032 114.631 119.325 114.188 119.875 113.989C119.559 114.396 119.234 114.814 118.696 115.506ZM119.972 113.898L120.821 112.6C120.812 112.873 120.728 113.139 120.578 113.368C120.428 113.596 120.218 113.78 119.972 113.898ZM123.417 110.415C123.665 109.65 123.925 109.329 124.35 109.158C124.111 109.48 123.862 109.816 123.417 110.415ZM139.489 95.4217C134.589 99.8557 129.47 104.049 124.882 108.824C124.75 108.932 124.6 109.018 124.44 109.077C126.282 106.331 128.507 103.861 131.046 101.743C134.24 99.1118 137.375 96.4093 140.549 93.7533C140.916 93.4798 141.304 93.2355 141.709 93.0226C140.977 93.8306 140.294 94.6934 139.489 95.4217ZM100.436 84.1712C103.646 82.4279 107.008 80.9773 110.479 79.8372C118.463 76.901 126.777 74.9504 135.234 74.0288C138.679 73.7404 142.148 73.7218 145.606 73.6096C146.089 73.632 146.569 73.6991 147.039 73.8102C145.001 74.1039 142.962 74.3849 140.927 74.6955C138.627 75.0467 136.307 75.3162 134.037 75.811C126.23 77.5134 118.37 79.0041 110.74 81.4369C107.263 82.5456 103.804 83.712 100.334 84.8421C99.8718 84.9925 99.3908 85.0854 98.9181 85.2034C99.4218 84.8556 99.9028 84.4667 100.436 84.1712ZM46.9151 112.999C51.6965 110.711 56.793 109.223 61.6854 107.211C65.0309 105.899 68.2988 104.398 71.4731 102.714C71.9699 102.44 72.4537 102.137 72.9688 101.903C82.2592 97.6733 91.254 92.793 100.852 89.2393C101.531 88.9417 102.19 88.6014 102.825 88.2206C102.28 88.2826 101.741 88.3863 101.212 88.5308C96.347 90.2624 91.583 92.2653 86.9423 94.5301C84.5062 95.7092 82.0282 96.802 79.5907 97.9782C76.4738 99.4825 73.4009 101.079 70.2676 102.548C67.0781 104.043 63.8404 105.436 60.6167 106.858C60.3449 106.949 60.0628 107.006 59.7769 107.028C60.1336 106.717 60.5126 106.432 60.911 106.176C69.637 101.237 78.3696 96.3102 87.1087 91.3946C88.4249 90.6561 89.8079 90.0282 91.1895 89.4154C100.265 85.4408 109.654 82.2223 119.259 79.7925C119.931 79.6189 120.602 79.4391 121.28 79.2935C125.966 78.2868 130.655 77.2874 135.345 76.2953C136.697 76.0126 138.07 75.8257 139.48 75.5868C139.554 75.8442 139.601 76.0068 139.648 76.1695C140.253 76.0803 140.865 76.0224 141.462 75.8969C144.507 75.2567 147.547 74.5935 150.592 73.9572C150.872 73.9263 151.155 73.9318 151.434 73.9737C150.906 74.2548 150.359 74.4981 149.797 74.7019C144.787 76.1972 139.808 77.8174 134.744 79.1022C128.758 80.6131 122.87 82.4879 117.112 84.7163C114 85.9245 110.88 87.1145 107.754 88.2863C103.325 89.9445 99.052 91.9502 94.772 93.9547C89.1831 96.5719 83.5279 99.0487 77.8816 101.542C72.4663 103.933 67.0776 106.397 61.581 108.587C57.0211 110.404 52.3271 111.887 47.6771 113.472C46.918 113.673 46.1432 113.808 45.3612 113.877C45.8768 113.58 46.3797 113.255 46.9151 112.999ZM82.3635 106.905C85.8156 105.098 89.2609 103.277 92.723 101.49C94.3441 100.653 96.0538 99.9753 97.6271 99.0599C103.129 95.8593 108.884 93.1595 114.589 90.3605C115.545 89.8788 116.529 89.4558 117.536 89.0936C124.849 86.5548 132.06 83.7148 139.533 81.6491C140.619 81.3486 141.73 81.1382 142.83 80.8863C143.175 80.7614 143.519 80.6366 143.864 80.5117C143.533 80.6881 143.202 80.8643 142.872 81.0406C142.326 81.3461 141.798 81.6895 141.233 81.9514C131.751 86.3419 122.31 90.8262 112.765 95.0757C103.218 99.3261 93.5009 103.179 83.6762 106.751C83.2577 106.876 82.8318 106.974 82.4011 107.046C81.9288 107.193 81.4565 107.34 80.9842 107.487L82.3635 106.905ZM80.7942 106.542C74.2347 108.935 67.5209 110.882 60.6985 112.369C60.4309 112.422 60.1598 112.458 59.8898 112.499C60.3477 112.258 60.8214 112.049 61.3077 111.873C64.0756 111.014 66.8351 110.12 69.6308 109.362C76.1896 107.534 82.5569 105.078 88.6446 102.029C92.0361 100.362 95.4604 98.7612 98.8816 97.1553C99.3625 96.9636 99.8582 96.8113 100.364 96.6997C99.9052 97.0653 99.4218 97.3986 98.9172 97.6974C96.9144 98.7496 94.8929 99.7667 92.8706 100.781C90.6236 101.909 88.3779 103.04 86.1126 104.131C84.3887 105.039 82.6128 105.844 80.7942 106.542ZM96.6303 97.5006C93.3306 99.0735 90.0337 100.652 86.7398 102.237C81.6356 104.72 76.318 106.739 70.8515 108.267C66.4802 109.486 62.1432 110.827 57.7781 112.068C56.3865 112.464 54.9591 112.745 53.5361 113.014C52.9435 113.088 52.3461 113.116 51.7492 113.097C52.2651 112.801 52.802 112.543 53.3555 112.325C60.1123 110.056 66.7319 107.396 73.1806 104.36C79.1915 101.585 85.2692 98.955 91.3174 96.2608C91.8934 96.0042 92.4811 95.7696 93.0411 95.4819C103.059 90.3373 113.674 86.6462 124.238 82.8654C128.557 81.3195 133.105 80.4119 137.551 79.2234C137.715 79.1986 137.882 79.2007 138.046 79.2295C137.594 79.5199 137.123 79.7805 136.637 80.0097C131.155 82.2551 125.668 84.4898 120.176 86.7139C112.174 89.9742 104.424 93.7856 96.6303 97.5006ZM43.1304 116.457C42.164 116.521 41.1937 116.414 40.2651 116.138C40.5813 116.056 40.8969 115.971 41.214 115.892C45.2584 114.911 49.3659 114.211 53.5069 113.796C54.1332 113.728 54.7502 113.574 55.3703 113.448C51.4545 115.029 47.3329 116.042 43.1304 116.457ZM140.804 86.263C123.592 98.1717 104.326 106.794 83.977 111.696C79.3121 112.781 74.5933 113.636 69.8923 114.562C69.2559 114.643 68.6136 114.669 67.9728 114.637C68.589 114.437 69.1974 114.204 69.8263 114.062C72.59 113.436 75.3575 112.828 78.1291 112.238C83.1771 111.142 88.1389 109.681 92.9755 107.867C96.4571 106.572 99.9615 105.333 103.408 103.951C106.854 102.57 110.266 101.097 113.647 99.5646C118.234 97.4861 122.838 95.4315 127.323 93.1469C131.863 90.8344 136.265 88.2514 140.731 85.7947C141.295 85.4847 141.881 85.2152 142.459 84.931C141.913 85.3826 141.389 85.8678 140.804 86.263ZM148.608 80.0604C145.576 81.9801 142.391 83.6477 139.085 85.0466C135.98 86.4246 132.909 87.8833 129.845 89.3518C118.776 94.6572 107.674 99.8906 96.1667 104.197C93.1043 105.342 89.9474 106.234 86.8418 107.267C86.1406 107.5 85.472 107.831 84.7885 108.117C85.2775 108.111 85.7653 108.064 86.247 107.979C90.5858 106.911 94.8383 105.52 98.9687 103.815C100.763 103.053 102.57 102.315 104.395 101.631C108.938 99.9316 113.261 97.743 117.677 95.7599C124.22 92.822 130.596 89.5477 137.098 86.5313C137.76 86.269 138.439 86.0542 139.132 85.8883C138.815 86.1445 138.483 86.3816 138.138 86.5985C133.247 89.4734 128.209 92.0906 123.044 94.4397C121.027 95.3303 119.02 96.2555 117.059 97.2635C109.743 100.816 102.231 103.949 94.5591 106.648C88.1914 109.068 81.6289 110.94 74.9429 112.245C70.1162 113.179 65.3154 114.245 60.4936 115.206C59.6535 115.318 58.806 115.365 57.9586 115.349L58.6448 114.947C58.0328 114.936 57.4206 114.962 56.8118 115.026C54.6444 115.374 52.4838 115.766 50.3212 116.143C51.0611 115.821 51.8241 115.555 52.6039 115.347C55.5049 114.738 58.4286 114.237 61.3313 113.636C69.6861 111.966 77.8905 109.617 85.8626 106.611C93.9844 103.485 102.06 100.237 110.123 96.96C112.923 95.8217 115.619 94.4255 118.371 93.1657C128.349 88.598 138.33 84.0376 148.314 79.4845C148.869 79.2665 149.437 79.0849 150.016 78.9409C149.566 79.3377 149.096 79.7113 148.608 80.0604ZM158.798 73.677C156.735 74.6011 154.63 75.4282 152.554 76.324C148.911 77.8679 145.184 79.2058 141.391 80.3317C136.707 81.7562 132.083 83.377 127.427 84.8967C126.827 85.0929 126.2 85.2095 125.583 85.3546C126.02 85.0836 126.474 84.84 126.941 84.6252C131.3 82.8404 135.669 81.0807 140.028 79.295C140.469 79.0798 140.894 78.8339 141.301 78.5591L141.291 78.5527C141.891 78.4868 142.485 78.3714 143.067 78.2079C146.313 77.0277 149.56 75.8451 152.776 74.584C154.671 73.7374 156.699 73.2288 158.769 73.0812C159.442 73.0614 160.112 72.9237 160.782 72.8361C160.299 73.5153 159.453 73.3832 158.798 73.677ZM156.53 80.3711C154.587 81.863 152.635 83.3438 150.675 84.8135C150.494 84.9348 150.302 85.0394 150.102 85.1257C150.666 84.5166 151.261 83.9363 151.883 83.387C153.131 82.369 154.418 81.3956 155.723 80.4515C156.21 80.1425 156.72 79.8725 157.25 79.6441C157.03 79.9055 156.789 80.1487 156.53 80.3711ZM158.351 78.7732L159.85 77.7384C159.502 78.2635 158.965 78.6342 158.351 78.7732ZM160.081 77.5344C161.386 76.0917 163.007 74.9699 164.816 74.2566C163.238 75.3492 161.659 76.4418 160.081 77.5344ZM190.948 64.0862C190.643 64.5095 190.338 64.9327 190.033 65.356C190.053 65.0803 190.149 64.8157 190.311 64.5914C190.472 64.3672 190.693 64.1923 190.948 64.0862ZM166.86 106.505C165.591 110.264 164.609 114.086 163.696 117.936C163.583 118.199 163.486 118.468 163.405 118.741C161.369 125.697 158.812 132.49 155.757 139.062C153.801 143.36 151.725 147.604 149.69 151.865C149.492 152.268 149.203 152.619 148.847 152.891C148.936 152.668 149.022 152.443 149.115 152.222C150.696 148.238 151.878 144.106 152.645 139.889C153.021 138.042 153.625 136.241 154.131 134.42C154.991 131.325 155.878 128.238 156.714 125.136C157.826 120.477 159.262 115.901 161.011 111.442C162.492 107.964 164.034 104.512 165.503 101.029C166.261 99.2314 166.886 97.3777 167.633 95.575C167.994 94.7017 168.433 93.8628 168.945 93.0685C170.794 90.21 172.619 87.3321 174.588 84.5569C175.973 82.6916 177.457 80.9019 179.034 79.1953C176.475 83.7247 174.211 88.4147 172.257 93.236C172.208 93.2417 172.161 93.2608 172.121 93.2911C172.081 93.3214 172.05 93.3618 172.032 93.4082C170.083 97.6817 168.357 102.053 166.86 106.505ZM188.827 66.675C187.186 68.6236 185.545 70.5721 183.904 72.5206C185.226 70.3242 186.888 68.3512 188.827 66.675ZM144.888 155.565C144.875 155.376 144.894 155.187 144.945 155.004C146.179 146.711 147.227 138.387 149.114 130.203C150.524 124.705 152.283 119.303 154.381 114.03C155.843 110.071 157.403 106.141 159.096 102.275C161.842 96.1721 165.292 90.4108 169.374 85.1078C170.777 83.2439 172.147 81.3528 173.603 79.5309C177.854 74.1281 182.546 69.0877 187.631 64.4616C189.508 62.7789 191.357 61.0648 193.228 59.3751C193.437 59.204 193.66 59.051 193.895 58.9176C192.228 60.6519 190.594 62.4212 188.88 64.1083C183.942 68.969 179.189 74.0024 174.742 79.3163C171.71 82.9423 169.045 86.8606 166.786 91.0134C165.703 93.0034 164.564 94.9636 163.425 96.9232C161.223 100.889 159.381 105.043 157.919 109.337C156.785 112.469 155.882 115.685 154.911 118.874C154.398 120.56 153.98 122.274 153.485 123.965C152.926 125.871 152.458 127.795 152.055 129.737C149.225 138.391 146.885 147.197 145.046 156.114C144.982 155.935 144.929 155.751 144.888 155.565ZM145.069 159.139C146.4 153.152 147.875 147.202 149.459 141.28L149.442 141.375L149.445 141.375C150.423 139.4 151.15 137.312 151.61 135.158C151.792 134.488 151.929 133.807 152.02 133.119C152.157 132.228 152.31 131.341 152.479 130.458C152.548 130.218 152.616 129.978 152.686 129.738C152.696 129.706 152.7 129.671 152.697 129.637C152.694 129.602 152.685 129.569 152.669 129.538C153.935 123.701 155.559 117.947 157.533 112.309C159.498 106.178 162.158 100.292 165.461 94.766C167.342 91.7045 169.174 88.6132 171.063 85.5568C173.645 81.6676 176.577 78.0217 179.82 74.6641C182.055 72.1923 184.38 69.7985 186.796 67.4828C186.741 67.6473 186.668 67.8054 186.579 67.9544C184.122 71.2298 181.676 74.5143 179.19 77.7683C176.972 80.6725 174.644 83.4944 172.482 86.4394C170.096 89.542 168.083 92.9135 166.482 96.485C164.471 101.245 162.492 106.017 160.474 110.774C158.709 115.229 157.261 119.804 156.139 124.463C155.295 127.629 154.384 130.777 153.542 133.944C152.781 136.806 152.02 139.669 151.36 142.555C150.781 145.203 149.997 147.803 149.016 150.33C148.339 152.026 147.738 153.755 147.151 155.485C146.653 156.804 145.95 158.037 145.069 159.139ZM144.519 161.677C144.611 161.252 144.701 160.827 144.794 160.402C145.021 160.041 145.274 159.697 145.552 159.374C145.549 159.809 145.456 160.238 145.278 160.634C145.1 161.031 144.842 161.386 144.519 161.677ZM172.797 100.45C170.124 109.513 167.319 118.538 164.122 127.435C162.337 132.42 160.171 137.259 157.643 141.911C155.896 145.118 154.102 148.306 152.159 151.397C150.633 153.734 148.959 155.971 147.146 158.094C147.259 157.637 147.402 157.188 147.574 156.75C147.864 156.121 148.229 155.528 148.556 154.917C152.038 148.422 155.197 141.767 158.16 135.024C160.603 129.559 162.601 123.905 164.135 118.119C164.207 117.775 164.239 117.424 164.231 117.073C165.222 113.616 166.336 110.182 167.539 106.779C168.303 105.287 168.928 103.728 169.407 102.121C170.048 100.188 170.755 98.2827 171.505 96.396C171.872 95.497 172.241 94.6003 172.613 93.7059L172.615 93.6959C173.928 90.6118 175.355 87.5773 176.851 84.5743C178.952 80.1463 181.67 76.0382 184.924 72.3726C184.795 72.7507 184.641 73.1195 184.461 73.4764C179.33 81.8773 175.404 90.957 172.797 100.45ZM191.254 63.7522C191.607 63.264 191.859 62.6779 192.496 62.4636C192.082 62.8932 191.668 63.3227 191.254 63.7522ZM199.888 55.352C198.277 56.9699 196.451 58.3579 194.461 59.4766C195.174 58.1749 196.206 57.0755 197.46 56.2817C197.973 55.9311 198.431 55.4995 198.944 55.1494C199.502 54.7314 200.156 54.4602 200.846 54.3607C200.528 54.6924 200.23 55.0477 199.888 55.352ZM206.817 51.724C205.097 52.8828 203.37 54.0319 201.636 55.171C201.274 55.3858 200.9 55.5802 200.515 55.7532C201.35 54.1606 202.746 52.9351 204.434 52.3154C205.488 51.909 206.539 51.4961 207.592 51.0857C207.346 51.3136 207.088 51.5267 206.817 51.724ZM361.415 2.9864C361.084 3.29847 360.692 3.53767 360.263 3.68864C359.834 3.8396 359.378 3.89892 358.924 3.86282C359.629 3.29252 360.509 2.98299 361.415 2.9864ZM360.994 1.7652C360.409 2.65306 359.636 2.67632 358.925 2.81738C359.175 2.50435 359.489 2.24842 359.846 2.06693C360.202 1.88543 360.594 1.78254 360.994 1.7652ZM357.526 4.43792L355.947 5.00202C356.15 4.79412 356.398 4.63522 356.672 4.53748C356.945 4.43973 357.238 4.40569 357.526 4.43792ZM301.332 20.0545C303.787 19.452 306.312 19.1356 308.809 18.7009C308.419 18.934 308.005 19.1238 307.574 19.2669C303.484 20.2795 299.389 21.2712 295.289 22.242C295.005 22.2821 294.717 22.2869 294.431 22.256C296.728 21.5073 298.993 20.6286 301.332 20.0545ZM294.326 22.2811C293.348 22.8261 292.262 23.1464 291.145 23.2188C292.115 22.6565 293.206 22.335 294.326 22.2811ZM228.754 74.0971C232.154 69.1795 235.464 64.1948 239.005 59.3804C242.323 54.9414 246.098 50.8622 250.267 47.2096C251.401 46.1997 252.573 45.2331 253.73 44.2486C253.462 44.6174 253.17 44.9686 252.856 45.3C247.739 50.3258 243.015 55.7374 238.727 61.487C235.095 66.3058 231.415 71.0983 227.686 75.8646C228.04 75.2744 228.363 74.6623 228.754 74.0971ZM258.998 56.4279C258.317 58.0349 257.677 59.6609 256.947 61.2457C253.39 68.9699 249.886 76.7205 246.201 84.3834C244.484 87.9529 242.49 91.4003 240.451 94.8007C238.442 98.1497 236.221 101.371 234.088 104.645C230.275 110.284 226.071 115.649 221.505 120.699C218.733 123.872 215.926 127.015 213.019 130.092C213.552 129.277 214.032 128.422 214.628 127.656C216.87 124.776 219.153 121.927 221.416 119.062C222.47 117.728 223.526 116.396 224.558 115.046C229.577 108.41 234.25 101.521 238.56 94.4048C239.217 93.3327 239.713 92.1635 240.342 91.0731C242.42 87.4735 244.587 83.924 246.595 80.2863C247.78 78.1409 248.766 75.882 249.775 73.6447C252.33 67.8854 255.203 62.2727 258.38 56.8325C258.492 56.6432 258.62 56.4633 258.741 56.279L258.998 56.4279ZM277.883 27.3499C277.122 28.1658 276.381 29.0015 275.594 29.7917C271.686 33.7433 268.322 38.1973 265.59 43.0366C262.778 47.9635 260.165 52.9999 257.031 57.7481C254.105 62.4656 251.557 67.4077 249.411 72.528C247.55 76.8737 245.369 81.0756 242.886 85.0991C240.979 88.0583 239.474 91.2754 237.774 94.3694C237.168 95.4737 236.553 96.5768 235.879 97.6405C232.402 103.13 228.772 108.518 224.87 113.715C222.564 116.787 220.095 119.737 217.768 122.794C215.862 125.301 214.044 127.875 212.216 130.441C211.452 131.514 210.765 132.643 209.811 134.099C209.56 133.072 209.671 131.989 210.125 131.034C210.337 130.647 210.583 130.279 210.824 129.909C213.79 125.367 216.815 120.862 219.705 116.273C221.585 113.288 223.279 110.186 225.038 107.127C226.264 104.996 227.433 102.832 228.675 100.71C231.35 96.1394 234.075 91.598 236.74 87.0219C238.041 84.7889 239.249 82.5025 240.507 80.245C241.182 79.034 241.86 77.824 242.563 76.6292C246.208 70.4353 249.858 64.2445 253.513 58.0567C253.802 57.568 254.103 57.0864 254.412 56.6104C256.609 53.2238 258.85 49.8644 260.999 46.4477C263.323 42.8423 265.901 39.4077 268.714 36.1701C270.836 33.6729 273.057 31.2608 275.179 28.764C275.495 28.34 275.901 27.9927 276.369 27.7478C276.838 27.5029 277.355 27.3669 277.883 27.3499ZM274.493 28.3766C273.584 29.4541 272.702 30.5565 271.754 31.5991C266.833 36.8408 262.47 42.5806 258.737 48.7258C257.718 50.4646 256.563 52.1244 255.469 53.8194C252.427 58.5342 249.52 63.3291 246.866 68.276C246.33 69.2747 245.717 70.2334 245.11 71.1918C242.106 75.9326 239.314 80.7943 236.734 85.7772C236.137 86.8882 235.481 87.9667 234.77 89.0083C231.5 93.9589 228.748 99.2063 225.902 104.4C224.903 106.224 223.846 108.015 222.844 109.836C219.255 116.361 215.214 122.603 211.061 128.776C210.88 128.985 210.688 129.184 210.487 129.374C210.996 128.195 211.363 127.407 211.68 126.599C212.595 124.527 213.4 122.408 214.09 120.251C215.257 116.062 216.734 111.967 218.509 107.998C219.476 105.81 220.349 103.578 221.214 101.347C222.166 98.8763 223.345 96.4997 224.736 94.2473C226.628 91.1955 228.378 88.0519 230.361 85.0622C233.601 80.179 236.973 75.3842 240.301 70.5599C242.377 67.5512 244.434 64.5282 246.573 61.5648C248.267 59.2174 250.082 56.957 251.828 54.6465C253.308 52.687 254.836 50.758 256.221 48.732C258.973 44.7381 262.003 40.9435 265.29 37.3765C267.159 35.3319 268.978 33.2372 270.93 31.2752C272.061 30.2416 273.251 29.2738 274.493 28.3766ZM271.282 29.8638C270.718 30.4198 270.164 30.9859 269.584 31.5245C269.285 31.7981 268.942 32.0194 268.57 32.1792C269.14 31.0848 270.112 30.2546 271.282 29.8638ZM262.596 39.679C260.067 42.5793 257.835 45.7001 255.591 48.8221C253.167 52.1945 250.539 55.4201 248 58.71C247.731 59.0592 247.45 59.4008 247.2 59.7636C243.232 65.5261 239.278 71.2984 235.298 77.0523C233.864 79.1246 232.276 81.0952 230.921 83.2158C228.037 87.7286 225.192 92.27 222.473 96.883C221.585 98.6212 220.808 100.414 220.148 102.251C218.81 105.378 217.412 108.482 216.146 111.638C215.298 113.739 214.558 115.883 213.93 118.06C213.075 121.027 212.045 123.941 210.847 126.786C210.652 127.133 210.435 127.468 210.198 127.788C210.326 126.047 210.464 124.745 210.508 123.44C210.51 121.546 210.923 119.674 211.719 117.954C212.111 117.093 212.432 116.202 212.676 115.288C214.884 108.384 217.678 101.682 221.029 95.2543C221.62 94.1399 222.276 93.062 222.996 92.0263C226.386 86.8605 229.741 81.6703 233.212 76.5597C235.122 73.7483 237.22 71.063 239.266 68.346C241.767 65.0261 244.32 61.7453 246.819 58.4246C250.645 53.3432 254.385 48.1936 258.535 43.3686C260.297 41.3189 262.246 39.4294 264.124 37.48C264.336 37.2928 264.568 37.1308 264.818 36.9976C264.08 37.8936 263.359 38.8046 262.596 39.679ZM262.555 38.1367C260.058 40.6279 257.74 43.2919 255.618 46.1089C252.86 49.7044 250.101 53.2998 247.343 56.8952C244.893 60.0936 242.501 63.3376 239.992 66.4892C233.308 74.8873 227.66 83.9967 221.728 92.912C219.659 96.2998 217.876 99.8543 216.399 103.539C214.456 107.632 212.835 111.87 211.549 116.214C211.408 116.196 211.267 116.178 211.126 116.16C211.372 114.746 211.578 113.323 211.872 111.919C213.326 105.202 215.51 98.665 218.385 92.4232C219.007 91.0473 219.706 89.7005 220.456 88.39C221.802 86.0388 223.121 83.6636 224.621 81.4118C226.331 78.8454 228.224 76.4004 230.045 73.9083C230.602 73.1459 231.229 72.4314 231.748 71.6448C234.077 68.1138 236.802 64.8889 239.447 61.6023C240.592 60.1801 241.711 58.7372 242.863 57.321C246.672 52.6234 250.777 48.1749 255.155 44.0027C257.027 42.2247 258.776 40.3145 260.694 38.5903C262.433 37.0325 264.317 35.6443 266.32 34.4445C265.065 35.6753 263.81 36.906 262.555 38.1367ZM267.244 29.0483C266.947 29.3052 266.601 29.4999 266.227 29.6207C265.854 29.7415 265.459 29.7859 265.068 29.7514C265.793 29.5169 266.519 29.2826 267.244 29.0483ZM265.023 29.7614C264.392 30.2621 263.603 30.5201 262.799 30.4886C263.102 30.2256 263.456 30.0258 263.837 29.901C264.219 29.7761 264.622 29.7287 265.023 29.7614ZM226.544 37.2182C225.674 37.4114 224.79 37.5409 223.901 37.6053C220.544 37.6572 217.186 37.669 213.828 37.689C213.798 37.6726 213.765 37.6639 213.73 37.6636C211.82 37.6468 209.911 37.6022 208.001 37.5735C207.961 37.5709 207.92 37.572 207.879 37.5715C207.246 37.562 206.614 37.552 205.982 37.5417C205.807 37.5208 205.63 37.5181 205.454 37.5333C194.14 37.3334 182.83 36.9533 171.524 36.47C169.161 36.3483 166.797 36.2442 164.432 36.1577C163.6 36.1196 162.767 36.0865 161.935 36.0478C158.451 35.8856 154.968 35.6918 151.485 35.5074C145.225 34.9657 139.005 34.0297 132.863 32.7048C129.235 31.92 125.579 31.2677 121.934 30.5618C129.076 31.2049 136.239 31.6129 143.4 32.0019C143.421 32.0031 143.43 31.989 143.446 31.9845C146.323 32.2528 149.2 32.5122 152.078 32.7628C156.783 33.1651 161.492 33.5131 166.198 33.9007C169.21 34.1488 172.218 34.4516 175.231 34.6823C178.495 34.9321 181.76 35.151 185.029 35.3389C188.234 35.5242 191.441 35.6994 194.649 35.8006C199.558 35.9551 204.469 36.1305 209.38 36.1317C213.912 36.0177 218.447 36.2218 222.951 36.7423C224.147 36.9111 225.346 37.0606 226.544 37.2182ZM214.787 38.588C214.211 38.6643 213.637 38.7574 213.059 38.8019C205.027 39.4263 196.965 39.5902 188.914 39.2928C181.307 39.0064 173.697 38.7764 166.098 38.3372C162.464 38.127 158.854 37.4943 155.235 37.0417C154.885 36.9818 154.539 36.9007 154.199 36.7989C154.41 36.7212 154.631 36.6721 154.856 36.6529C155.459 36.6607 156.062 36.6688 156.664 36.677C170.764 37.5951 184.917 37.969 199.033 38.063C201.881 38.0819 204.729 38.0727 207.576 38.0742C207.897 38.1503 208.231 38.1507 208.552 38.0755C208.851 38.0754 209.151 38.0769 209.45 38.0766C210.341 38.2466 211.247 38.3186 212.154 38.2911C213.032 38.3874 213.909 38.4887 214.787 38.588ZM168.975 25.2419C174.233 25.1564 179.486 25.6064 184.653 26.5849C185.155 26.7037 185.65 26.8487 186.136 27.0191C185.616 26.995 185.095 26.981 184.576 26.9378C179.443 26.5103 174.311 26.0776 169.179 25.6398C168.777 25.5906 168.379 25.5205 167.985 25.4297C168.308 25.3321 168.639 25.2691 168.975 25.2419ZM155.602 25.4883C156.082 25.3879 156.569 25.319 157.059 25.2822C159.731 25.244 162.403 25.2258 165.075 25.2276C165.518 25.2548 165.958 25.3218 166.389 25.4278C165.812 25.4816 165.236 25.5552 164.658 25.572C162.391 25.6386 160.124 25.7002 157.856 25.7261C157.11 25.7348 156.362 25.6304 155.615 25.5777C155.298 25.5652 154.981 25.5527 154.663 25.54C154.976 25.5227 155.289 25.5054 155.602 25.4883ZM141.225 26.9654C144.371 26.7983 147.517 26.6095 150.666 26.5292C154.823 26.4231 158.983 26.4185 163.142 26.356C171.904 26.3805 180.651 27.0736 189.308 28.4292C197.281 29.6355 205.163 31.3792 212.901 33.6483C214.837 34.1884 216.838 34.4934 218.807 34.915C219.287 35.018 219.761 35.1532 220.238 35.2742C218.63 35.5208 216.991 35.4855 215.395 35.1701C209.585 34.4129 203.783 33.5969 197.976 32.8182C193.793 32.2573 189.605 31.7326 185.422 31.1689C181.926 30.6978 178.429 30.2281 174.942 29.6967C167.758 28.7436 160.523 28.2222 153.277 28.1351C149.311 28.0098 145.347 27.7975 141.384 27.5907C140.798 27.5216 140.218 27.4036 139.651 27.2378C140.169 27.1119 140.695 27.0209 141.225 26.9654ZM117.471 28.835C117.562 28.8219 117.654 28.8092 117.745 28.7964C118.346 28.6362 118.957 28.5152 119.573 28.4342C126.414 27.8423 133.292 27.8152 140.137 28.3534C144.079 28.7261 148.053 28.8575 152.015 28.9073C160.644 28.8572 169.262 29.5078 177.786 30.8527C180.201 31.2784 182.653 31.4955 185.086 31.8218C192.698 32.8425 200.309 33.8684 207.919 34.8994C208.263 34.9601 208.604 35.04 208.94 35.1386C208.422 35.2515 207.894 35.3184 207.364 35.3386C202.139 35.1678 196.915 34.9684 191.69 34.7747C191.313 34.7607 190.935 34.7017 190.558 34.7048C182.225 34.7731 173.965 33.6446 165.664 33.1884C159.054 32.825 152.478 32.1346 145.894 31.5041C143.261 31.2521 140.616 31.1199 137.975 30.9686C137.665 30.9629 137.356 30.9946 137.054 31.0628C130.536 30.4176 124.027 29.6791 117.513 28.9913L117.471 28.835ZM203.011 42.8304C190.185 45.207 177.071 45.6023 164.126 44.0024C157.202 43.1033 150.369 41.6055 143.704 39.5258C143.258 39.3846 142.827 39.1951 142.392 39.0231C142.857 39.0481 143.326 39.0523 143.787 39.1124C151.099 40.0659 158.387 41.3228 165.728 41.9206C177.599 43.0582 189.542 43.2384 201.442 42.4597C202.339 42.3883 203.246 42.452 204.149 42.4609C203.781 42.6159 203.4 42.7394 203.011 42.8304ZM208.099 41.3237C206.274 41.4016 204.451 41.5536 202.63 41.7038C194.897 42.2136 187.142 42.3254 179.398 42.039C168.692 41.6765 158.018 40.6864 147.428 39.0739C140.992 38.2169 134.67 36.6493 128.578 34.3999C125.396 33.2089 122.151 32.1856 118.938 31.0744C118.491 30.9198 118.065 30.7058 117.631 30.5138C119.482 30.595 121.301 31.0217 122.995 31.772L123 31.797C123.602 32.1829 124.328 32.3262 125.031 32.1978C125.603 32.4429 126.189 32.6558 126.784 32.8337C139.332 35.6493 152.043 37.681 164.844 38.917C169.408 39.4315 174.026 39.5252 178.624 39.6756C184.988 39.884 191.355 40.0445 197.722 40.0798C206.552 40.0543 215.373 39.5026 224.138 38.4277C224.827 38.3789 225.518 38.3724 226.207 38.4079C220.257 39.8548 214.202 40.8297 208.099 41.3237Z" fill="#A1A1A1"/>
</g>
</svg>
