<svg width="163" height="86" viewBox="0 0 163 86" fill="none" xmlns="http://www.w3.org/2000/svg">
<path d="M117.001 61.7531C116.197 61.7531 115.626 62.2756 115.626 62.9898C115.626 63.524 115.911 63.8114 116.525 63.8114C117.235 63.8114 117.861 63.2772 117.861 62.563C117.858 61.9853 117.572 61.7531 117.001 61.7531ZM162.019 75.5111C158.749 76.7159 155.274 73.9985 152.332 72.9099C149.823 71.9838 147.294 72.1202 144.75 72.8663C142.221 73.6124 139.796 74.7214 137.318 75.6272C136.09 76.0743 132.701 76.8756 131.476 75.8507C131.19 75.6156 131.02 75.2846 131.02 74.8288V74.7853C131.008 74.765 131.008 74.733 131.008 74.7011C131.008 74.5618 131.06 74.4253 131.199 74.1785C131.199 74.1785 135.19 67.5826 135.476 67.2516C137.901 65.2891 138.801 64.4704 140.419 62.9898C142.599 61.126 145.353 58.4493 145.829 57.9267C147.355 56.2545 148.921 54.4313 148.921 53.0465C148.921 52.3846 148.54 52.0014 147.969 52.0014C147.207 52.0014 146.403 52.4281 145.163 53.4297C144.029 54.3878 142.083 56.298 140.747 57.6828C138.758 59.837 136.808 62.6588 134.576 66.102L132.055 69.9283C131.917 69.4058 131.579 69.1183 131.06 69.1183C129.82 69.1183 127.735 70.2157 126.455 71.4525C126.328 71.5802 126.201 71.708 126.074 71.8357C125.503 72.3699 122.221 75.183 121.088 75.183C120.802 75.183 120.652 75.0437 120.652 74.7563C120.652 74.5211 120.938 74.0856 121.604 73.1799L122.844 71.5076C123.13 71.0809 123.363 70.6454 123.363 70.1635C123.363 69.5016 122.887 69.1183 122.123 69.1183C121.128 69.1183 119.657 70.2157 117.517 71.9315L117.042 72.3147L118.798 69.31H117.232C116.756 69.9719 116.427 70.3115 115.337 71.3567L114.861 71.8357C114.809 71.8792 114.766 71.9199 114.723 71.9634C114.564 72.1231 114.417 72.2625 114.235 72.4221C114.172 72.4744 114.109 72.5295 114.045 72.5934C112.416 74.0014 110.509 75.183 109.78 75.183C109.451 75.183 109.261 74.9479 109.261 74.7563C109.261 74.6169 109.356 74.373 109.451 74.2337L113.145 69.31H111.155C110.7 69.8528 108.54 72.6979 108.54 72.6979L108.116 73.3598C106.708 75.3543 105.151 77.3343 103.458 79.05C99.3082 83.2596 97.35 84.0492 97.4019 83.248C97.6557 79.3897 115.115 59.117 119.911 53.0436C126.463 44.6883 129.134 40.7865 129.693 38.8037V38.792C130.732 37.1837 129.809 36.426 128.159 36.9485C128.773 36.0863 128.964 35.4679 128.964 34.6028C128.964 33.8886 128.817 33.218 128.349 32.1613C128.912 31.7345 129.82 30.9681 129.82 30.4455C129.82 30.1058 129.63 29.9665 129.194 29.9665C128.009 29.9665 127.343 30.6371 127.15 32.0248C126.302 32.8348 125.393 33.6012 124.546 34.2747C123.741 35.0644 122.821 35.7989 121.962 36.3853C121.422 36.4928 121.042 36.7366 120.915 37.0473H120.903C120.214 37.4421 119.631 37.6656 119.274 37.6656C118.936 37.6656 118.798 37.5263 118.798 37.2824C118.798 37.0473 118.936 36.8556 119.317 36.3244L122.694 31.7403H120.693L118.648 34.4693C117.324 36.2808 115.377 37.8166 114.383 37.8166C113.947 37.8166 113.757 37.625 113.757 37.3376C113.757 37.146 113.947 36.8034 114.383 36.2837L117.653 31.7432H115.608C115.089 32.4138 114.804 32.7448 113.713 33.8015L113.238 34.2806C113.079 34.4402 112.941 34.568 112.793 34.6957C112.678 34.8031 112.571 34.8989 112.433 35.0267C112.358 35.0789 112.274 35.1544 112.191 35.2299C111.64 35.6886 111.279 35.8599 110.91 35.8599C110.486 35.8599 110.149 35.5202 110.149 35.1341C110.149 35.0905 110.149 34.8989 110.244 34.6551C110.581 33.7493 110.625 33.7057 110.625 33.2703C110.625 32.1729 109.959 31.5022 108.773 31.5022C107.778 31.5022 106.212 32.1729 104.877 33.1744C104.41 33.5141 103.997 33.8886 103.649 34.2835C103.628 34.2951 103.605 34.3038 103.597 34.327C101.84 36.0312 99.4149 37.6308 98.567 37.6308C98.2296 37.6308 98.0364 37.3869 98.0364 37.1924C98.0364 37.0531 98.1316 36.8092 98.2267 36.6698L101.933 31.7461H99.9427C99.2217 32.6083 98.8958 32.9393 97.996 33.8044C97.2346 34.5186 92.978 37.6743 91.8648 37.6743C91.0602 37.6743 90.7227 37.3869 90.7227 36.8121C90.7227 35.8628 91.3889 34.6173 92.3839 33.5606C93.1049 32.7506 93.8662 32.2716 94.2902 32.2716C94.4805 32.2716 94.6189 32.3674 94.6189 32.559C94.6189 32.707 94.5238 32.707 94.4805 32.7506C94.2382 32.9422 94.0998 33.1774 94.0998 33.4648C94.0998 33.9438 94.5757 34.3822 95.1467 34.3822C95.9513 34.3822 96.5656 33.7115 96.5656 32.9422C96.5656 32.08 95.8994 31.5574 94.9563 31.5574C93.5807 31.5574 91.536 32.559 90.0652 34.0396C89.9816 34.1238 89.9066 34.2109 89.8316 34.2951L89.8201 34.2835C88.0205 35.9992 87.2995 36.426 85.5951 36.9573C86.2094 36.095 86.3997 35.4767 86.3997 34.6115C86.3997 33.8973 86.2613 33.2267 85.7854 32.17C86.3564 31.7432 87.2562 30.9768 87.2562 30.4542C87.2562 30.1145 87.0659 29.9752 86.642 29.9752C85.4451 29.9752 84.7905 30.6458 84.5972 32.0335C83.7407 32.8435 82.8409 33.6099 81.9815 34.2835C81.6643 34.5709 80.5194 35.5725 79.3658 36.394C78.8265 36.5102 78.4458 36.7686 78.3276 37.0966H78.316C77.7767 37.416 77.3095 37.6308 76.9923 37.6308C76.7068 37.6308 76.5684 37.4827 76.5684 37.1924C76.5684 36.9573 76.8423 36.5218 77.5114 35.616L78.7515 33.9438C79.037 33.517 79.2706 33.0816 79.2706 32.6112C79.2706 31.9406 78.7948 31.5574 78.0421 31.5574C77.0356 31.5574 75.5648 32.6548 73.4249 34.3822L72.9577 34.7567L74.714 31.7519H73.148C72.6722 32.4225 72.3319 32.7535 71.2417 33.8102L70.7659 34.2893C70.6823 34.3735 70.5957 34.4489 70.5236 34.5244C70.4169 34.6202 70.3016 34.7276 70.1862 34.8321C70.0593 34.9483 69.9123 35.076 69.7306 35.2386C69.1682 35.6973 68.8192 35.8686 68.4386 35.8686C68.0146 35.8686 67.6859 35.5289 67.6859 35.1428C67.6859 35.0992 67.6859 34.9076 67.781 34.6638C68.1098 33.758 68.1502 33.7144 68.1502 33.279C68.1502 32.1816 67.4926 31.5109 66.2987 31.5109C65.3037 31.5109 63.7378 32.1816 62.414 33.1832C62.0449 33.459 61.693 33.758 61.3873 34.0686C55.6281 37.9705 51.9742 39.1753 49.9006 39.1753C48.4183 39.1753 47.7607 38.1737 47.7607 36.2111C47.7607 27.3217 64.2886 4.03554 78.6333 4.03554C80.3377 4.03554 81.0039 4.65391 81.0039 5.61195C81.0039 9.82152 67.8445 21.0567 64.9548 21.0973C64.8596 21.0973 64.8596 21.0538 64.8596 21.0015C64.8596 20.5748 66.0449 19.8606 66.0449 19.5209C66.0449 19.4251 65.9497 19.3293 65.8546 19.3293C64.998 19.3293 63.1985 21.3877 63.1985 21.9625C63.1985 22.4967 63.9079 22.6331 64.3318 22.6331C69.6585 22.6331 81.621 10.3992 81.621 5.46389C81.621 4.22715 80.8597 3.46071 79.0053 3.46071C62.9014 3.46071 47.233 24.1253 45.941 34.6551L38.0015 40.923C40.0462 37.6192 40.574 36.905 42.5235 34.3676C43.6137 33.5054 44.4183 32.5996 44.4183 32.0771C44.4183 31.8855 44.2798 31.7374 43.9424 31.7374C43.233 31.7374 42.4716 32.0771 41.8977 32.7912L40.4788 34.6551C39.7175 35.6566 38.6677 36.5624 37.6727 37.2331C36.9114 37.7556 36.3375 38.043 36.1068 38.043C35.778 38.043 35.6309 37.8514 35.6309 37.6163C35.6309 37.3811 35.778 37.1373 36.2567 36.5189L39.6223 31.9784H37.6324C36.6691 32.7564 26.1226 44.0119 24.9488 45.1528C23.9539 46.1109 22.9589 46.9005 21.7938 47.5073C20.62 48.1141 20.4614 47.7657 20.4268 47.6205C19.8125 44.999 39.7722 21.7273 44.5682 15.651C52.0203 6.13451 54.4457 2.41268 54.4457 0.688206C54.4457 0.30499 54.2986 0.0175781 53.9151 0.0175781C52.2107 0.0175781 27.1291 24.3605 18.8176 31.6706C18.8176 31.6706 18.7743 31.6706 18.7743 31.6271C18.7743 30.9971 35.3425 11.0147 35.3425 7.72254C35.3425 7.28416 35.0138 7.11288 34.685 7.14771C33.5487 7.25223 0.377697 37.1198 0.0633484 37.6772C-0.236581 38.2085 0.593992 38.914 1.34382 38.2521C5.84275 34.3415 30.3764 10.8899 33.5516 8.6138C33.641 8.54994 33.69 8.518 33.7419 8.518C33.7564 8.518 33.7852 8.518 33.7852 8.56155C33.7852 9.8099 15.5011 31.8477 11.5097 36.8702C10.9906 37.5408 10.8002 37.924 10.8002 38.1185C10.8002 38.3537 11.7 38.4495 12.1759 38.4495C12.6114 38.4495 12.8853 38.2579 13.266 37.8747C19.4492 31.9406 51.8415 2.5259 53.0095 1.20206C53.2229 0.958199 53.2979 1.03949 53.2979 1.09465C53.2979 1.71302 45.1854 11.4792 44.0953 12.7276C37.964 19.518 18.7022 41.4397 19.6799 47.9631C19.775 48.5931 20.4672 49.3595 23.279 47.3447C24.3403 46.587 32.3202 38.7108 34.0563 36.8353C33.9496 37.0705 33.8775 37.3376 33.8775 37.6018C33.8775 38.5075 34.313 38.795 35.3079 38.795C36.1644 38.795 36.9691 38.4117 38.0073 37.7411L38.6735 37.3143C38.4399 37.6976 35.7838 41.7591 35.4031 42.4297L32.3634 45.0629C30.1716 46.9267 24.0952 52.2772 21.6698 55.6245C20.4412 57.3519 19.5097 58.9283 19.5097 60.1215C19.5097 61.1231 20.0173 62.0811 20.8969 62.2843C22.3792 62.6356 24 61.6979 27.9914 56.4867C30.5956 53.0872 33.7823 48.4508 37.1594 42.3339L45.8718 35.5231C45.8602 35.6712 44.9778 40.8881 48.8999 40.5426C51.8098 40.2872 56.3203 37.9734 60.3347 35.4041C59.9973 35.9789 59.8041 36.545 59.8041 37.0443C59.8041 38.0459 60.3751 38.6643 61.5604 38.6643C63.3167 38.6643 65.5518 37.236 66.9274 35.796C67.3081 36.3186 67.6887 36.5102 68.303 36.5102C69.1394 36.5102 69.6066 36.1908 71.0572 34.8786L71.2043 34.7944L68.874 38.3769H70.7255C71.7637 36.8005 73.2345 35.1805 74.8553 33.8886C76.0406 32.9306 76.9952 32.408 77.4163 32.408C77.5114 32.408 77.6585 32.5038 77.6585 32.5996C77.6585 32.8348 77.373 33.218 76.652 34.0802C74.8092 36.2344 74.4718 36.6582 74.4718 37.3724C74.4718 38.1388 74.9909 38.5656 75.9022 38.5656C76.6866 38.5656 77.5633 38.2346 78.4112 37.7672C78.7919 38.2898 79.9051 38.5656 81.4595 38.5656C82.5929 38.5656 83.4927 38.374 84.5396 37.7121C86.4459 37.5205 87.6629 36.8905 88.6694 36.1124C88.554 36.4318 88.4906 36.7511 88.4906 37.0385C88.4906 38.1359 89.2 38.5627 90.7141 38.5627C92.9895 38.5627 95.5418 36.7308 97.0991 35.4708L96.8021 35.9412C96.3666 36.5595 96.1359 36.9427 96.1359 37.3695C96.1359 38.1359 96.655 38.5627 97.5115 38.5627C99.089 38.5627 100.995 37.294 102.434 36.1328C102.328 36.4521 102.264 36.7511 102.264 37.0385C102.264 38.0401 102.827 38.6585 104.021 38.6585C105.777 38.6585 108 37.2302 109.379 35.7902C109.76 36.3128 110.14 36.5044 110.766 36.5044C111.464 36.5044 111.908 36.2808 112.906 35.4186C112.133 36.3999 111.899 36.815 111.899 37.3695C111.899 38.1795 112.47 38.5627 113.52 38.5627C114.567 38.5627 115.565 38.1795 116.981 37.1343C116.938 37.326 116.886 37.4653 116.886 37.6134C116.886 38.2317 117.321 38.5627 118.166 38.5627C119.046 38.5627 120.018 38.2114 120.952 37.7208C121.29 38.2753 122.414 38.5627 124.012 38.5627C125.154 38.5627 126.057 38.3711 127.104 37.7092C127.654 37.6569 127.92 37.8369 127.983 38.1679C122.446 42.3571 101.598 62.5108 94.1661 69.0545C94.1661 69.0545 94.1229 69.0545 94.1229 69.0022C94.1229 68.3839 110.691 48.4015 110.691 45.0977C110.691 44.6709 110.362 44.5229 110.025 44.5229C109.315 44.5229 108.892 45.1935 108.554 45.5361C103.905 49.6934 90.2699 62.1189 83.1437 68.6219C83.0053 68.7177 81.8085 69.8703 81.7248 69.8703C82.9967 68.378 91.6023 57.1138 93.1798 54.2658V54.2542C93.3817 54.0946 93.5086 53.8913 93.3586 53.6562C93.0933 53.2091 91.6658 53.6678 91.3687 53.7723C89.1885 54.6142 87.0486 55.5519 84.6866 55.7348C82.3045 55.9148 79.9022 55.5316 77.5835 55.0003C72.9894 53.9349 68.551 52.3265 63.8618 51.6849C59.2244 51.055 54.4601 51.1943 49.8545 52.0594C46.0333 52.762 41.7131 53.8594 38.9907 56.8554C37.7939 58.1677 36.8191 60.1912 38.1025 61.7792C39.256 63.2279 41.5113 63.4195 43.2041 63.4746C43.8934 63.4949 44.8451 63.3672 45.3757 62.8882C45.7679 62.5369 45.8631 62.1305 45.1739 62.1101C43.7348 62.0579 41.765 61.9389 40.897 60.5657C39.8069 58.8383 41.4478 56.8235 42.76 55.79C45.7997 53.4239 50.3938 52.9768 54.0881 52.7533C58.4919 52.4978 62.8639 53.0204 67.1321 54.1294C71.1754 55.1832 75.1581 56.5593 79.3283 57.018C84.0406 57.529 88.1272 56.2922 92.4675 54.6316C92.4992 54.62 92.5425 54.5997 92.5742 54.5881C89.0154 58.2112 75.4004 74.3266 75.4004 75.0843C75.4004 75.0843 75.4523 75.6591 76.6808 75.6591C80.7155 71.258 105.987 48.6424 108.889 46.0093C108.984 45.9657 109.027 45.9135 109.079 45.9135C109.079 45.9135 109.122 45.9135 109.122 45.9657C109.122 47.2141 90.8381 69.2548 86.8467 74.2743C86.3276 74.945 86.1373 75.3195 86.1373 75.5111C86.1373 75.755 87.0371 75.8507 87.5129 75.8507C87.9368 75.8507 88.2224 75.6591 88.603 75.2759C94.3421 69.7774 123.522 42.7258 127.934 38.9227C127.819 39.3611 127.597 39.8604 127.34 40.3714C125.053 43.3993 120.257 49.1853 119.432 50.123C113.301 56.9135 95.0169 78.7597 95.0169 85.3586C95.0169 85.7969 95.2534 86.0524 95.7263 85.9886C97.5173 85.736 99.6658 84.6676 104.45 79.5523C105.572 78.3475 106.642 77.0788 107.649 75.7695C107.882 76.0133 108.251 76.1411 108.718 76.1411C110.954 76.1411 113.855 73.5834 115.144 72.4425L115.271 72.367L112.952 75.9495H114.795C115.842 74.373 117.315 72.7531 118.933 71.4525C120.119 70.5032 121.073 69.9719 121.494 69.9719C121.589 69.9719 121.728 70.0677 121.728 70.1635C121.728 70.4073 121.454 70.7935 120.733 71.6441C118.881 73.7982 118.553 74.2337 118.553 74.9479C118.553 75.7143 119.072 76.1411 119.972 76.1411C121.529 76.1411 123.487 74.8085 124.843 73.7227C124.672 74.106 124.589 74.4572 124.589 74.7563C124.589 75.6185 125.108 76.1411 125.964 76.1411C126.916 76.1411 127.816 75.7579 129.29 74.7011C129.183 74.9566 129.099 75.0959 129.068 75.1917C129.068 75.2034 129.068 75.2121 129.068 75.2121C129.056 75.2324 129.047 75.2556 129.047 75.2759C129.036 75.2875 129.036 75.2875 129.036 75.2962C128.993 77.822 133.737 76.9482 135.23 76.6927C137.719 76.2862 140.11 75.125 142.44 74.2105C144.315 73.4847 146.285 72.7386 148.326 72.8663C150.403 73.0057 152.254 74.016 154.106 74.8811C156.825 76.1498 159.611 76.9394 162.533 75.8624C163.574 75.4908 162.611 75.2992 162.019 75.5111ZM140.514 60.0257C143.118 56.4867 144.494 54.9103 145.639 53.9087C146.253 53.3862 146.781 53.0465 147.109 53.0465C147.352 53.0465 147.395 53.1946 147.395 53.4297C147.395 53.9087 146.634 55.1977 145.16 56.9687C144.07 58.3128 142.025 60.5599 139.983 62.4672C138.564 63.8114 138.034 64.3311 136.523 65.623C138.037 63.2772 138.706 62.4237 140.514 60.0257ZM30.3649 50.9882C26.5206 57.4883 23.7693 60.7399 21.9149 60.7399C21.3843 60.7399 21.0584 60.4089 21.0584 59.8776C21.0584 58.876 22.2437 56.8177 24.0548 54.5794C25.4737 52.7562 31.6453 46.256 34.4081 44.1571L30.3649 50.9882ZM66.3621 34.2747C65.122 36.2779 63.4609 37.7179 62.4227 37.7179C61.9468 37.7179 61.7565 37.5263 61.7565 37.0473C61.7565 36.4724 62.1372 35.6073 62.7947 34.6057C63.3657 33.7957 65.0298 32.26 65.9815 32.26C66.3102 32.26 66.4573 32.3558 66.5957 32.5996C66.3621 32.9306 66.267 33.1657 66.267 33.549C66.267 33.6999 66.3073 33.9351 66.3621 34.2747ZM81.6585 37.953C80.802 37.953 80.2713 37.7179 80.2713 37.474C80.2713 37.2824 80.3665 37.1431 80.802 37.1431C81.2778 37.1431 83.037 37.6221 83.037 37.6221C82.4112 37.8572 82.0825 37.953 81.6585 37.953ZM83.6917 36.995C83.0457 36.9631 81.5518 36.4928 80.5165 36.365C81.448 35.6392 82.1574 34.9686 82.368 34.7973C83.1726 34.2225 84.0291 33.549 84.603 33.0293C84.4559 35.8947 84.4127 36.3215 83.6917 36.995ZM108.828 34.2747C107.588 36.2779 105.927 37.7179 104.88 37.7179C104.404 37.7179 104.214 37.5263 104.214 37.0473C104.214 36.4724 104.594 35.6073 105.261 34.6057C105.832 33.7957 107.496 32.26 108.447 32.26C108.776 32.26 108.923 32.3558 109.062 32.5996C108.828 32.9306 108.733 33.1657 108.733 33.549C108.733 33.6999 108.773 33.9351 108.828 34.2747ZM124.211 37.953C123.354 37.953 122.835 37.7179 122.835 37.474C122.835 37.2824 122.931 37.1431 123.354 37.1431C123.83 37.1431 125.59 37.6221 125.59 37.6221C124.972 37.8572 124.644 37.953 124.211 37.953ZM126.253 36.995C125.595 36.9631 124.104 36.484 123.066 36.365C124.168 35.5434 124.929 34.7973 124.929 34.7973C125.734 34.2225 126.59 33.549 127.153 33.0293C127.017 35.8947 126.962 36.3215 126.253 36.995ZM127.069 75.0843C126.74 75.0843 126.593 75.0408 126.593 74.7011C126.593 74.1785 126.931 73.5079 127.64 72.4628C128.445 71.258 129.725 69.8296 130.87 69.8296C131.199 69.8296 131.389 70.0648 131.389 70.4044C131.389 70.9793 130.818 72.0244 129.875 73.1769C128.92 74.3295 127.778 75.0843 127.069 75.0843ZM105.777 24.1834C104.972 24.1834 104.401 24.706 104.401 25.4318C104.401 25.9543 104.687 26.2417 105.313 26.2417C106.022 26.2417 106.636 25.7192 106.636 24.9934C106.636 24.4186 106.351 24.1834 105.777 24.1834ZM46.6504 44.7725V47.6379H46.2842V45.838L45.2661 47.2896H45.2575L44.2654 45.899V47.6379H43.9078V44.7725H43.9107L45.269 46.7118L46.6447 44.7725H46.6504ZM47.7752 44.8625H49.569V45.2196H48.1443V46.0644H49.4161V46.4215H48.1443V47.2809H49.6209V47.6379H47.7752V44.8625ZM52.9893 44.8596V47.7279H52.9807L50.9533 45.658L50.959 47.6379H50.5899V44.7754H50.6101L52.6317 46.8686L52.6259 44.8596H52.9893ZM53.9122 44.8625H55.7435V45.2196H55.0023V47.6409H54.6332V45.2196H53.9122V44.8625ZM57.3989 44.7464H57.3758L56.1703 47.6379H56.5337L56.8278 46.9093H57.892L58.1775 47.6379H58.6015L57.3989 44.7464ZM56.9605 46.5841L57.3729 45.5709L57.768 46.5841H56.9605ZM59.4522 44.8625H59.8214V47.2838H61.223V47.6409H59.4522V44.8625ZM65.8719 44.8625V47.6409H65.5056V46.4244H64.0579V47.6409H63.6887V44.8625H64.0579V46.0702H65.5056V44.8625H65.8719ZM66.9908 44.8625H68.7846V45.2196H67.36V46.0644H68.6318V46.4215H67.36V47.2809H68.8365V47.6379H66.9879V44.8625H66.9908ZM70.763 44.7464H70.7399L69.5345 47.6379H69.8978L70.192 46.9093H71.2562L71.5417 47.6379H71.9656L70.763 44.7464ZM70.3247 46.5841L70.7342 45.5738L71.1293 46.5841H70.3247ZM72.8135 44.8625H73.1826V47.2838H74.5842V47.6409H72.8135V44.8625ZM74.9937 44.8625H76.8251V45.2196H76.0839V47.6409H75.7147V45.2196H74.9937V44.8625ZM79.9253 44.8625V47.6409H79.559V46.4244H78.1113V47.6409H77.7421V44.8625H78.1113V46.0702H79.559V44.8625H79.9253ZM84.6059 47.4318C84.5598 47.4609 84.4992 47.4957 84.4184 47.5334C84.3377 47.5712 84.2454 47.6031 84.1416 47.6292C84.0349 47.6554 83.9195 47.667 83.7955 47.667C83.5821 47.6641 83.3889 47.6263 83.2187 47.5508C83.0457 47.4754 82.9015 47.3738 82.7804 47.246C82.6592 47.1183 82.5698 46.9702 82.5035 46.8018C82.4372 46.6335 82.4055 46.4564 82.4055 46.2648C82.4055 46.0557 82.4401 45.8641 82.5064 45.6899C82.5727 45.5128 82.6679 45.3619 82.7919 45.2341C82.913 45.1035 83.0572 45.0048 83.2245 44.9322C83.3918 44.8596 83.5735 44.8248 83.7724 44.8248C83.9368 44.8248 84.0868 44.848 84.2223 44.8916C84.3579 44.9351 84.4732 44.9903 84.5684 45.0512L84.4184 45.3967C84.3406 45.3445 84.2512 45.298 84.1416 45.2516C84.032 45.2051 83.9138 45.1819 83.7811 45.1819C83.6456 45.1819 83.5187 45.208 83.4004 45.2632C83.2793 45.3183 83.1755 45.3938 83.0832 45.4896C82.9909 45.5883 82.9188 45.7015 82.8669 45.8293C82.815 45.957 82.789 46.0964 82.789 46.2444C82.789 46.3954 82.8121 46.5347 82.8582 46.6654C82.9044 46.7931 82.9736 46.9063 83.0601 47.0022C83.1466 47.098 83.2533 47.1705 83.3773 47.2257C83.5014 47.278 83.6427 47.307 83.7984 47.307C83.9397 47.307 84.0637 47.2838 84.1733 47.2402C84.2829 47.1967 84.3723 47.1473 84.4444 47.0951L84.6059 47.4318ZM85.5576 44.8625H87.3514V45.2196H85.9267V46.0644H87.1986V46.4215H85.9267V47.2809H87.4033V47.6379H85.5547V44.8625H85.5576ZM90.7746 44.8596V47.7279H90.7631L88.7357 45.658L88.7443 47.6379H88.3723V44.7754H88.3925L90.417 46.8715L90.4084 44.8596H90.7746ZM91.6946 44.8625H93.5259V45.2196H92.7847V47.6409H92.4156V45.2196H91.6946V44.8625ZM94.443 44.8625H96.2368V45.2196H94.8121V46.0644H96.084V46.4215H94.8121V47.2809H96.2887V47.6379H94.443V44.8625ZM98.5122 46.5173C98.6132 46.4709 98.6968 46.407 98.7631 46.3315C98.8381 46.2444 98.89 46.1486 98.9218 46.0441C98.9535 45.9396 98.9708 45.8322 98.9708 45.7219C98.9708 45.5796 98.9448 45.4577 98.8958 45.3503C98.8439 45.2458 98.7776 45.1528 98.6882 45.0803C98.6016 45.0077 98.4978 44.9525 98.3796 44.9148C98.2613 44.88 98.1316 44.8596 97.9931 44.8596H97.2606V47.6379H97.6297V46.616H98.0364C98.0681 46.616 98.0969 46.616 98.1258 46.6131L98.7776 47.6379H99.2073L98.5122 46.5173ZM98.0306 46.2589H97.6297V45.2167H98.0566C98.1546 45.2167 98.2354 45.2341 98.3046 45.2661C98.3709 45.3009 98.4257 45.3445 98.469 45.3938C98.5094 45.4461 98.5411 45.5012 98.5584 45.5622C98.5786 45.6232 98.5872 45.6812 98.5872 45.7364C98.5872 45.7886 98.5786 45.8496 98.5613 45.9106C98.544 45.9715 98.5122 46.0296 98.4719 46.079C98.4315 46.1312 98.3767 46.1748 98.3046 46.2096C98.2325 46.2415 98.1402 46.2589 98.0306 46.2589Z" fill="#1A1818"/>
</svg>
