<svg width="163" height="86" viewBox="0 0 163 86" fill="none" xmlns="http://www.w3.org/2000/svg">
<path d="M117.002 61.7531C116.197 61.7531 115.626 62.2756 115.626 62.9898C115.626 63.524 115.911 63.8114 116.526 63.8114C117.235 63.8114 117.861 63.2772 117.861 62.563C117.858 61.9853 117.573 61.7531 117.002 61.7531ZM162.02 75.5111C158.749 76.7159 155.274 73.9985 152.333 72.9099C149.824 71.9838 147.294 72.1202 144.751 72.8663C142.222 73.6124 139.796 74.7214 137.319 75.6272C136.09 76.0743 132.702 76.8756 131.476 75.8507C131.191 75.6156 131.02 75.2846 131.02 74.8288V74.7853C131.009 74.765 131.009 74.733 131.009 74.7011C131.009 74.5618 131.061 74.4253 131.199 74.1785C131.199 74.1785 135.191 67.5826 135.476 67.2516C137.902 65.2891 138.801 64.4704 140.419 62.9898C142.599 61.126 145.354 58.4493 145.829 57.9267C147.355 56.2545 148.921 54.4313 148.921 53.0465C148.921 52.3846 148.54 52.0014 147.969 52.0014C147.208 52.0014 146.403 52.4281 145.163 53.4297C144.03 54.3878 142.083 56.298 140.748 57.6828C138.758 59.837 136.809 62.6588 134.576 66.102L132.056 69.9283C131.917 69.4058 131.58 69.1183 131.061 69.1183C129.821 69.1183 127.736 70.2157 126.455 71.4525C126.328 71.5802 126.201 71.708 126.074 71.8357C125.503 72.3699 122.222 75.183 121.088 75.183C120.803 75.183 120.653 75.0437 120.653 74.7563C120.653 74.5211 120.938 74.0856 121.604 73.1799L122.844 71.5076C123.13 71.0809 123.364 70.6454 123.364 70.1635C123.364 69.5016 122.888 69.1183 122.123 69.1183C121.129 69.1183 119.658 70.2157 117.518 71.9315L117.042 72.3147L118.798 69.31H117.232C116.756 69.9719 116.428 70.3115 115.338 71.3567L114.862 71.8357C114.81 71.8792 114.767 71.9199 114.723 71.9634C114.565 72.1231 114.418 72.2625 114.236 72.4221C114.172 72.4744 114.109 72.5295 114.046 72.5934C112.416 74.0014 110.51 75.183 109.78 75.183C109.451 75.183 109.261 74.9479 109.261 74.7563C109.261 74.6169 109.356 74.373 109.451 74.2337L113.146 69.31H111.156C110.7 69.8528 108.54 72.6979 108.54 72.6979L108.116 73.3598C106.709 75.3543 105.152 77.3343 103.459 79.05C99.3087 83.2596 97.3505 84.0492 97.4024 83.248C97.6562 79.3897 115.116 59.117 119.912 53.0436C126.464 44.6883 129.134 40.7865 129.694 38.8037V38.792C130.732 37.1837 129.809 36.426 128.16 36.9485C128.774 36.0863 128.964 35.4679 128.964 34.6028C128.964 33.8886 128.817 33.218 128.35 32.1613C128.912 31.7345 129.821 30.9681 129.821 30.4455C129.821 30.1058 129.63 29.9665 129.195 29.9665C128.01 29.9665 127.343 30.6371 127.15 32.0248C126.302 32.8348 125.394 33.6012 124.546 34.2747C123.741 35.0644 122.821 35.7989 121.962 36.3853C121.423 36.4928 121.042 36.7366 120.915 37.0473H120.904C120.214 37.4421 119.632 37.6656 119.274 37.6656C118.937 37.6656 118.798 37.5263 118.798 37.2824C118.798 37.0473 118.937 36.8556 119.317 36.3244L122.695 31.7403H120.693L118.648 34.4693C117.325 36.2808 115.378 37.8166 114.383 37.8166C113.948 37.8166 113.757 37.625 113.757 37.3376C113.757 37.146 113.948 36.8034 114.383 36.2837L117.653 31.7432H115.609C115.09 32.4138 114.804 32.7448 113.714 33.8015L113.238 34.2806C113.079 34.4402 112.941 34.568 112.794 34.6957C112.679 34.8031 112.572 34.8989 112.433 35.0267C112.358 35.0789 112.275 35.1544 112.191 35.2299C111.64 35.6886 111.28 35.8599 110.911 35.8599C110.487 35.8599 110.149 35.5202 110.149 35.1341C110.149 35.0905 110.149 34.8989 110.245 34.6551C110.582 33.7493 110.625 33.7057 110.625 33.2703C110.625 32.1729 109.959 31.5022 108.774 31.5022C107.779 31.5022 106.213 32.1729 104.878 33.1744C104.41 33.5141 103.998 33.8886 103.649 34.2835C103.629 34.2951 103.606 34.3038 103.597 34.327C101.841 36.0312 99.4154 37.6308 98.5675 37.6308C98.2301 37.6308 98.0369 37.3869 98.0369 37.1924C98.0369 37.0531 98.132 36.8092 98.2272 36.6698L101.933 31.7461H99.9432C99.2222 32.6083 98.8963 32.9393 97.9965 33.8044C97.2351 34.5186 92.9785 37.6743 91.8653 37.6743C91.0606 37.6743 90.7232 37.3869 90.7232 36.8121C90.7232 35.8628 91.3894 34.6173 92.3844 33.5606C93.1053 32.7506 93.8667 32.2716 94.2906 32.2716C94.481 32.2716 94.6194 32.3674 94.6194 32.559C94.6194 32.707 94.5242 32.707 94.481 32.7506C94.2387 32.9422 94.1003 33.1774 94.1003 33.4648C94.1003 33.9438 94.5762 34.3822 95.1472 34.3822C95.9518 34.3822 96.5661 33.7115 96.5661 32.9422C96.5661 32.08 95.8999 31.5574 94.9568 31.5574C93.5812 31.5574 91.5365 32.559 90.0657 34.0396C89.982 34.1238 89.9071 34.2109 89.8321 34.2951L89.8205 34.2835C88.021 35.9992 87.3 36.426 85.5956 36.9573C86.2099 36.095 86.4002 35.4767 86.4002 34.6115C86.4002 33.8973 86.2618 33.2267 85.7859 32.17C86.3569 31.7432 87.2567 30.9768 87.2567 30.4542C87.2567 30.1145 87.0664 29.9752 86.6424 29.9752C85.4456 29.9752 84.791 30.6458 84.5977 32.0335C83.7412 32.8435 82.8414 33.6099 81.982 34.2835C81.6648 34.5709 80.5199 35.5725 79.3663 36.394C78.827 36.5102 78.4463 36.7686 78.3281 37.0966H78.3165C77.7772 37.416 77.31 37.6308 76.9928 37.6308C76.7073 37.6308 76.5689 37.4827 76.5689 37.1924C76.5689 36.9573 76.8428 36.5218 77.5119 35.616L78.752 33.9438C79.0375 33.517 79.2711 33.0816 79.2711 32.6112C79.2711 31.9406 78.7953 31.5574 78.0425 31.5574C77.0361 31.5574 75.5653 32.6548 73.4254 34.3822L72.9582 34.7567L74.7145 31.7519H73.1485C72.6727 32.4225 72.3324 32.7535 71.2422 33.8102L70.7664 34.2893C70.6828 34.3735 70.5962 34.4489 70.5241 34.5244C70.4174 34.6202 70.3021 34.7276 70.1867 34.8321C70.0598 34.9483 69.9127 35.076 69.7311 35.2386C69.1687 35.6973 68.8197 35.8686 68.439 35.8686C68.0151 35.8686 67.6863 35.5289 67.6863 35.1428C67.6863 35.0992 67.6863 34.9076 67.7815 34.6638C68.1103 33.758 68.1507 33.7144 68.1507 33.279C68.1507 32.1816 67.4931 31.5109 66.2992 31.5109C65.3042 31.5109 63.7382 32.1816 62.4145 33.1832C62.0454 33.459 61.6935 33.758 61.3878 34.0686C55.6286 37.9705 51.9747 39.1753 49.9011 39.1753C48.4188 39.1753 47.7612 38.1737 47.7612 36.2111C47.7612 27.3217 64.2891 4.03554 78.6338 4.03554C80.3382 4.03554 81.0044 4.65391 81.0044 5.61195C81.0044 9.82152 67.845 21.0567 64.9553 21.0973C64.8601 21.0973 64.8601 21.0538 64.8601 21.0015C64.8601 20.5748 66.0454 19.8606 66.0454 19.5209C66.0454 19.4251 65.9502 19.3293 65.855 19.3293C64.9985 19.3293 63.1989 21.3877 63.1989 21.9625C63.1989 22.4967 63.9084 22.6331 64.3323 22.6331C69.659 22.6331 81.6215 10.3992 81.6215 5.46389C81.6215 4.22715 80.8602 3.46071 79.0058 3.46071C62.9019 3.46071 47.2335 24.1253 45.9415 34.6551L38.002 40.923C40.0467 37.6192 40.5745 36.905 42.524 34.3676C43.6141 33.5054 44.4188 32.5996 44.4188 32.0771C44.4188 31.8855 44.2803 31.7374 43.9429 31.7374C43.2335 31.7374 42.4721 32.0771 41.8982 32.7912L40.4793 34.6551C39.7179 35.6566 38.6682 36.5624 37.6732 37.2331C36.9119 37.7556 36.338 38.043 36.1073 38.043C35.7785 38.043 35.6314 37.8514 35.6314 37.6163C35.6314 37.3811 35.7785 37.1373 36.2572 36.5189L39.6228 31.9784H37.6329C36.6696 32.7564 26.1231 44.0119 24.9493 45.1528C23.9544 46.1109 22.9594 46.9005 21.7943 47.5073C20.6205 48.1141 20.4619 47.7657 20.4273 47.6205C19.813 44.999 39.7727 21.7273 44.5687 15.651C52.0208 6.13451 54.4462 2.41268 54.4462 0.688206C54.4462 0.30499 54.2991 0.0175781 53.9156 0.0175781C52.2112 0.0175781 27.1296 24.3605 18.8181 31.6706C18.8181 31.6706 18.7748 31.6706 18.7748 31.6271C18.7748 30.9971 35.343 11.0147 35.343 7.72254C35.343 7.28416 35.0142 7.11288 34.6855 7.14771C33.5492 7.25223 0.378186 37.1198 0.0638367 37.6772C-0.236093 38.2085 0.594481 38.914 1.3443 38.2521C5.84324 34.3415 30.3769 10.8899 33.5521 8.6138C33.6415 8.54994 33.6905 8.518 33.7424 8.518C33.7568 8.518 33.7857 8.518 33.7857 8.56155C33.7857 9.8099 15.5015 31.8477 11.5102 36.8702C10.9911 37.5408 10.8007 37.924 10.8007 38.1185C10.8007 38.3537 11.7005 38.4495 12.1764 38.4495C12.6118 38.4495 12.8858 38.2579 13.2665 37.8747C19.4496 31.9406 51.842 2.5259 53.01 1.20206C53.2234 0.958199 53.2984 1.03949 53.2984 1.09465C53.2984 1.71302 45.1859 11.4792 44.0958 12.7276C37.9645 19.518 18.7027 41.4397 19.6804 47.9631C19.7755 48.5931 20.4677 49.3595 23.2795 47.3447C24.3408 46.587 32.3206 38.7108 34.0568 36.8353C33.9501 37.0705 33.878 37.3376 33.878 37.6018C33.878 38.5075 34.3134 38.795 35.3084 38.795C36.1649 38.795 36.9696 38.4117 38.0078 37.7411L38.674 37.3143C38.4404 37.6976 35.7843 41.7591 35.4036 42.4297L32.3639 45.0629C30.1721 46.9267 24.0957 52.2772 21.6703 55.6245C20.4417 57.3519 19.5102 58.9283 19.5102 60.1215C19.5102 61.1231 20.0178 62.0811 20.8974 62.2843C22.3797 62.6356 24.0005 61.6979 27.9919 56.4867C30.5961 53.0872 33.7828 48.4508 37.1599 42.3339L45.8723 35.5231C45.8607 35.6712 44.9782 40.8881 48.9004 40.5426C51.8103 40.2872 56.3208 37.9734 60.3352 35.4041C59.9978 35.9789 59.8046 36.545 59.8046 37.0443C59.8046 38.0459 60.3756 38.6643 61.5609 38.6643C63.3172 38.6643 65.5522 37.236 66.9279 35.796C67.3086 36.3186 67.6892 36.5102 68.3035 36.5102C69.1398 36.5102 69.607 36.1908 71.0577 34.8786L71.2047 34.7944L68.8745 38.3769H70.726C71.7642 36.8005 73.235 35.1805 74.8558 33.8886C76.0411 32.9306 76.9957 32.408 77.4167 32.408C77.5119 32.408 77.659 32.5038 77.659 32.5996C77.659 32.8348 77.3735 33.218 76.6525 34.0802C74.8097 36.2344 74.4722 36.6582 74.4722 37.3724C74.4722 38.1388 74.9913 38.5656 75.9027 38.5656C76.6871 38.5656 77.5638 38.2346 78.4117 37.7672C78.7924 38.2898 79.9056 38.5656 81.46 38.5656C82.5934 38.5656 83.4932 38.374 84.5401 37.7121C86.4463 37.5205 87.6634 36.8905 88.6698 36.1124C88.5545 36.4318 88.491 36.7511 88.491 37.0385C88.491 38.1359 89.2005 38.5627 90.7146 38.5627C92.99 38.5627 95.5423 36.7308 97.0996 35.4708L96.8026 35.9412C96.3671 36.5595 96.1364 36.9427 96.1364 37.3695C96.1364 38.1359 96.6555 38.5627 97.512 38.5627C99.0895 38.5627 100.996 37.294 102.435 36.1328C102.328 36.4521 102.265 36.7511 102.265 37.0385C102.265 38.0401 102.827 38.6585 104.021 38.6585C105.777 38.6585 108.001 37.2302 109.379 35.7902C109.76 36.3128 110.141 36.5044 110.767 36.5044C111.464 36.5044 111.909 36.2808 112.906 35.4186C112.134 36.3999 111.9 36.815 111.9 37.3695C111.9 38.1795 112.471 38.5627 113.521 38.5627C114.568 38.5627 115.565 38.1795 116.981 37.1343C116.938 37.326 116.886 37.4653 116.886 37.6134C116.886 38.2317 117.322 38.5627 118.167 38.5627C119.046 38.5627 120.018 38.2114 120.953 37.7208C121.29 38.2753 122.415 38.5627 124.012 38.5627C125.155 38.5627 126.057 38.3711 127.104 37.7092C127.655 37.6569 127.92 37.8369 127.984 38.1679C122.446 42.3571 101.599 62.5108 94.1666 69.0545C94.1666 69.0545 94.1234 69.0545 94.1234 69.0022C94.1234 68.3839 110.692 48.4015 110.692 45.0977C110.692 44.6709 110.363 44.5229 110.025 44.5229C109.316 44.5229 108.892 45.1935 108.555 45.5361C103.906 49.6934 90.2704 62.1189 83.1442 68.6219C83.0058 68.7177 81.809 69.8703 81.7253 69.8703C82.9972 68.378 91.6028 57.1138 93.1803 54.2658V54.2542C93.3822 54.0946 93.5091 53.8913 93.3591 53.6562C93.0938 53.2091 91.6663 53.6678 91.3692 53.7723C89.189 54.6142 87.0491 55.5519 84.6871 55.7348C82.305 55.9148 79.9027 55.5316 77.584 55.0003C72.9899 53.9349 68.5515 52.3265 63.8622 51.6849C59.2249 51.055 54.4606 51.1943 49.855 52.0594C46.0338 52.762 41.7136 53.8594 38.9912 56.8554C37.7944 58.1677 36.8196 60.1912 38.1029 61.7792C39.2565 63.2279 41.5117 63.4195 43.2046 63.4746C43.8939 63.4949 44.8456 63.3672 45.3762 62.8882C45.7684 62.5369 45.8636 62.1305 45.1743 62.1101C43.7353 62.0579 41.7655 61.9389 40.8975 60.5657C39.8073 58.8383 41.4483 56.8235 42.7605 55.79C45.8002 53.4239 50.3943 52.9768 54.0886 52.7533C58.4924 52.4978 62.8644 53.0204 67.1326 54.1294C71.1759 55.1832 75.1586 56.5593 79.3288 57.018C84.0411 57.529 88.1277 56.2922 92.468 54.6316C92.4997 54.62 92.543 54.5997 92.5747 54.5881C89.0159 58.2112 75.4009 74.3266 75.4009 75.0843C75.4009 75.0843 75.4528 75.6591 76.6813 75.6591C80.716 71.258 105.988 48.6424 108.889 46.0093C108.984 45.9657 109.028 45.9135 109.079 45.9135C109.079 45.9135 109.123 45.9135 109.123 45.9657C109.123 47.2141 90.8386 69.2548 86.8472 74.2743C86.3281 74.945 86.1378 75.3195 86.1378 75.5111C86.1378 75.755 87.0375 75.8507 87.5134 75.8507C87.9373 75.8507 88.2228 75.6591 88.6035 75.2759C94.3426 69.7774 123.522 42.7258 127.935 38.9227C127.819 39.3611 127.597 39.8604 127.341 40.3714C125.054 43.3993 120.258 49.1853 119.433 50.123C113.302 56.9135 95.0174 78.7597 95.0174 85.3586C95.0174 85.7969 95.2539 86.0524 95.7268 85.9886C97.5178 85.736 99.6663 84.6676 104.451 79.5523C105.573 78.3475 106.643 77.0788 107.649 75.7695C107.883 76.0133 108.252 76.1411 108.719 76.1411C110.954 76.1411 113.855 73.5834 115.144 72.4425L115.271 72.367L112.953 75.9495H114.795C115.842 74.373 117.316 72.7531 118.934 71.4525C120.119 70.5032 121.074 69.9719 121.495 69.9719C121.59 69.9719 121.728 70.0677 121.728 70.1635C121.728 70.4073 121.454 70.7935 120.733 71.6441C118.882 73.7982 118.553 74.2337 118.553 74.9479C118.553 75.7143 119.072 76.1411 119.972 76.1411C121.529 76.1411 123.488 74.8085 124.843 73.7227C124.673 74.106 124.589 74.4572 124.589 74.7563C124.589 75.6185 125.108 76.1411 125.965 76.1411C126.917 76.1411 127.816 75.7579 129.29 74.7011C129.183 74.9566 129.1 75.0959 129.068 75.1917C129.068 75.2034 129.068 75.2121 129.068 75.2121C129.056 75.2324 129.048 75.2556 129.048 75.2759C129.036 75.2875 129.036 75.2875 129.036 75.2962C128.993 77.822 133.737 76.9482 135.231 76.6927C137.72 76.2862 140.111 75.125 142.441 74.2105C144.315 73.4847 146.285 72.7386 148.327 72.8663C150.403 73.0057 152.255 74.016 154.106 74.8811C156.826 76.1498 159.612 76.9394 162.533 75.8624C163.574 75.4908 162.611 75.2992 162.02 75.5111ZM140.514 60.0257C143.119 56.4867 144.494 54.9103 145.639 53.9087C146.253 53.3862 146.781 53.0465 147.11 53.0465C147.352 53.0465 147.395 53.1946 147.395 53.4297C147.395 53.9087 146.634 55.1977 145.16 56.9687C144.07 58.3128 142.026 60.5599 139.984 62.4672C138.565 63.8114 138.034 64.3311 136.523 65.623C138.037 63.2772 138.706 62.4237 140.514 60.0257ZM30.3653 50.9882C26.5211 57.4883 23.7698 60.7399 21.9154 60.7399C21.3848 60.7399 21.0589 60.4089 21.0589 59.8776C21.0589 58.876 22.2442 56.8177 24.0553 54.5794C25.4742 52.7562 31.6458 46.256 34.4086 44.1571L30.3653 50.9882ZM66.3626 34.2747C65.1225 36.2779 63.4614 37.7179 62.4232 37.7179C61.9473 37.7179 61.757 37.5263 61.757 37.0473C61.757 36.4724 62.1377 35.6073 62.7952 34.6057C63.3662 33.7957 65.0302 32.26 65.9819 32.26C66.3107 32.26 66.4578 32.3558 66.5962 32.5996C66.3626 32.9306 66.2674 33.1657 66.2674 33.549C66.2674 33.6999 66.3078 33.9351 66.3626 34.2747ZM81.659 37.953C80.8025 37.953 80.2718 37.7179 80.2718 37.474C80.2718 37.2824 80.367 37.1431 80.8025 37.1431C81.2783 37.1431 83.0375 37.6221 83.0375 37.6221C82.4117 37.8572 82.0829 37.953 81.659 37.953ZM83.6922 36.995C83.0462 36.9631 81.5523 36.4928 80.517 36.365C81.4485 35.6392 82.1579 34.9686 82.3684 34.7973C83.1731 34.2225 84.0296 33.549 84.6035 33.0293C84.4564 35.8947 84.4132 36.3215 83.6922 36.995ZM108.829 34.2747C107.588 36.2779 105.927 37.7179 104.88 37.7179C104.405 37.7179 104.214 37.5263 104.214 37.0473C104.214 36.4724 104.595 35.6073 105.261 34.6057C105.832 33.7957 107.496 32.26 108.448 32.26C108.777 32.26 108.924 32.3558 109.062 32.5996C108.829 32.9306 108.733 33.1657 108.733 33.549C108.733 33.6999 108.774 33.9351 108.829 34.2747ZM124.211 37.953C123.355 37.953 122.836 37.7179 122.836 37.474C122.836 37.2824 122.931 37.1431 123.355 37.1431C123.831 37.1431 125.59 37.6221 125.59 37.6221C124.973 37.8572 124.644 37.953 124.211 37.953ZM126.253 36.995C125.596 36.9631 124.105 36.484 123.067 36.365C124.168 35.5434 124.93 34.7973 124.93 34.7973C125.734 34.2225 126.591 33.549 127.153 33.0293C127.018 35.8947 126.963 36.3215 126.253 36.995ZM127.069 75.0843C126.741 75.0843 126.594 75.0408 126.594 74.7011C126.594 74.1785 126.931 73.5079 127.64 72.4628C128.445 71.258 129.726 69.8296 130.87 69.8296C131.199 69.8296 131.39 70.0648 131.39 70.4044C131.39 70.9793 130.819 72.0244 129.876 73.1769C128.921 74.3295 127.779 75.0843 127.069 75.0843ZM105.777 24.1834C104.973 24.1834 104.402 24.706 104.402 25.4318C104.402 25.9543 104.687 26.2417 105.313 26.2417C106.022 26.2417 106.637 25.7192 106.637 24.9934C106.637 24.4186 106.351 24.1834 105.777 24.1834ZM46.6509 44.7725V47.6379H46.2847V45.838L45.2666 47.2896H45.258L44.2659 45.899V47.6379H43.9083V44.7725H43.9112L45.2695 46.7118L46.6452 44.7725H46.6509ZM47.7757 44.8625H49.5695V45.2196H48.1448V46.0644H49.4166V46.4215H48.1448V47.2809H49.6214V47.6379H47.7757V44.8625ZM52.9898 44.8596V47.7279H52.9812L50.9538 45.658L50.9595 47.6379H50.5904V44.7754H50.6106L52.6322 46.8686L52.6264 44.8596H52.9898ZM53.9127 44.8625H55.744V45.2196H55.0028V47.6409H54.6337V45.2196H53.9127V44.8625ZM57.3993 44.7464H57.3763L56.1708 47.6379H56.5342L56.8283 46.9093H57.8925L58.178 47.6379H58.6019L57.3993 44.7464ZM56.961 46.5841L57.3734 45.5709L57.7685 46.5841H56.961ZM59.4527 44.8625H59.8219V47.2838H61.2234V47.6409H59.4527V44.8625ZM65.8724 44.8625V47.6409H65.5061V46.4244H64.0584V47.6409H63.6892V44.8625H64.0584V46.0702H65.5061V44.8625H65.8724ZM66.9913 44.8625H68.7851V45.2196H67.3605V46.0644H68.6323V46.4215H67.3605V47.2809H68.837V47.6379H66.9884V44.8625H66.9913ZM70.7635 44.7464H70.7404L69.535 47.6379H69.8983L70.1925 46.9093H71.2567L71.5422 47.6379H71.9661L70.7635 44.7464ZM70.3251 46.5841L70.7347 45.5738L71.1298 46.5841H70.3251ZM72.814 44.8625H73.1831V47.2838H74.5847V47.6409H72.814V44.8625ZM74.9942 44.8625H76.8255V45.2196H76.0844V47.6409H75.7152V45.2196H74.9942V44.8625ZM79.9258 44.8625V47.6409H79.5595V46.4244H78.1118V47.6409H77.7426V44.8625H78.1118V46.0702H79.5595V44.8625H79.9258ZM84.6064 47.4318C84.5602 47.4609 84.4997 47.4957 84.4189 47.5334C84.3382 47.5712 84.2459 47.6031 84.1421 47.6292C84.0354 47.6554 83.92 47.667 83.796 47.667C83.5826 47.6641 83.3894 47.6263 83.2192 47.5508C83.0462 47.4754 82.902 47.3738 82.7809 47.246C82.6597 47.1183 82.5703 46.9702 82.504 46.8018C82.4377 46.6335 82.4059 46.4564 82.4059 46.2648C82.4059 46.0557 82.4406 45.8641 82.5069 45.6899C82.5732 45.5128 82.6684 45.3619 82.7924 45.2341C82.9135 45.1035 83.0577 45.0048 83.225 44.9322C83.3923 44.8596 83.5739 44.8248 83.7729 44.8248C83.9373 44.8248 84.0873 44.848 84.2228 44.8916C84.3584 44.9351 84.4737 44.9903 84.5689 45.0512L84.4189 45.3967C84.3411 45.3445 84.2517 45.298 84.1421 45.2516C84.0325 45.2051 83.9142 45.1819 83.7816 45.1819C83.646 45.1819 83.5191 45.208 83.4009 45.2632C83.2798 45.3183 83.176 45.3938 83.0837 45.4896C82.9914 45.5883 82.9193 45.7015 82.8674 45.8293C82.8155 45.957 82.7895 46.0964 82.7895 46.2444C82.7895 46.3954 82.8126 46.5347 82.8587 46.6654C82.9049 46.7931 82.9741 46.9063 83.0606 47.0022C83.1471 47.098 83.2538 47.1705 83.3778 47.2257C83.5018 47.278 83.6432 47.307 83.7989 47.307C83.9402 47.307 84.0642 47.2838 84.1738 47.2402C84.2834 47.1967 84.3728 47.1473 84.4449 47.0951L84.6064 47.4318ZM85.5581 44.8625H87.3519V45.2196H85.9272V46.0644H87.199V46.4215H85.9272V47.2809H87.4038V47.6379H85.5552V44.8625H85.5581ZM90.7751 44.8596V47.7279H90.7636L88.7362 45.658L88.7448 47.6379H88.3728V44.7754H88.393L90.4175 46.8715L90.4089 44.8596H90.7751ZM91.6951 44.8625H93.5264V45.2196H92.7852V47.6409H92.4161V45.2196H91.6951V44.8625ZM94.4435 44.8625H96.2373V45.2196H94.8126V46.0644H96.0844V46.4215H94.8126V47.2809H96.2892V47.6379H94.4435V44.8625ZM98.5127 46.5173C98.6137 46.4709 98.6973 46.407 98.7636 46.3315C98.8386 46.2444 98.8905 46.1486 98.9222 46.0441C98.954 45.9396 98.9713 45.8322 98.9713 45.7219C98.9713 45.5796 98.9453 45.4577 98.8963 45.3503C98.8444 45.2458 98.778 45.1528 98.6886 45.0803C98.6021 45.0077 98.4983 44.9525 98.3801 44.9148C98.2618 44.88 98.132 44.8596 97.9936 44.8596H97.2611V47.6379H97.6302V46.616H98.0369C98.0686 46.616 98.0974 46.616 98.1263 46.6131L98.778 47.6379H99.2077L98.5127 46.5173ZM98.0311 46.2589H97.6302V45.2167H98.0571C98.1551 45.2167 98.2359 45.2341 98.3051 45.2661C98.3714 45.3009 98.4262 45.3445 98.4695 45.3938C98.5098 45.4461 98.5416 45.5012 98.5589 45.5622C98.5791 45.6232 98.5877 45.6812 98.5877 45.7364C98.5877 45.7886 98.5791 45.8496 98.5618 45.9106C98.5444 45.9715 98.5127 46.0296 98.4724 46.079C98.432 46.1312 98.3772 46.1748 98.3051 46.2096C98.233 46.2415 98.1407 46.2589 98.0311 46.2589Z" fill="white"/>
</svg>
