<svg width="257" height="234" viewBox="0 0 257 234" fill="none" xmlns="http://www.w3.org/2000/svg">
<g style="mix-blend-mode:multiply" opacity="0.15">
<path d="M52.5088 171.815C54.6763 169.106 56.7051 166.29 58.5873 163.375C59.2989 162.258 60.077 161.184 60.9176 160.16C67.8664 151.419 75.4538 143.205 83.6173 135.587C86.0139 133.349 88.4095 131.11 90.773 128.837C91.3769 128.286 91.8941 127.647 92.3072 126.941C94.1502 123.776 95.6169 120.407 96.6774 116.901C97.2574 114.772 97.8789 112.653 98.4971 110.534C99.5038 107.084 100.423 103.604 101.556 100.195C104.508 91.3155 109.243 83.3485 114.404 75.6187C116.397 72.5465 118.672 69.667 121.2 67.0177C129.981 58.054 138.692 49.0185 147.61 40.1926C155.649 32.2363 163.407 24.0682 169.807 14.698C170.044 14.4531 170.32 14.249 170.623 14.0939C171.348 14.5403 171.248 15.1013 171.125 15.6663C170.722 17.5139 170.411 19.3879 169.897 21.2044C166.683 33.1534 162.207 44.7266 156.544 55.7286C151.583 65.3155 145.713 74.4032 139.013 82.8663C131.52 91.9805 123.288 100.461 114.401 108.223C109.974 112.162 105.609 116.17 101.234 120.168C100.778 120.635 100.357 121.135 99.9749 121.663C100.385 121.442 100.783 121.2 101.168 120.937C105.63 117.641 110.064 114.306 114.545 111.036C126.326 102.446 139.084 95.2835 152.552 89.6988C156.573 88.0209 160.215 85.5515 163.263 82.4375C168.222 77.404 172.768 71.9796 176.857 66.2169C182.919 57.7577 189.08 49.3739 195.667 41.3073C199.847 36.2521 204.358 31.4801 209.17 27.0228C212.475 23.9101 215.944 20.9757 219.561 18.2322C222.934 15.6856 226.531 13.4513 230.309 11.5569C232.22 10.5977 234.226 9.82202 236.207 9.00858C239.298 7.73972 242.425 6.55759 245.499 5.24979C249.018 3.8613 252.428 2.21161 255.702 0.314545C256.076 0.160095 256.47 0.0543518 256.871 0C256.973 0.378479 257.015 0.770416 256.996 1.16177C256.856 1.58002 256.663 1.97824 256.42 2.34628C249.575 14.7152 241.703 26.4871 232.887 37.5379C226.792 45.2649 220.157 52.5504 213.033 59.3399C208.884 63.2143 204.355 66.6609 199.515 69.6272C193.059 73.5957 186.081 76.547 179.844 80.0562C181.062 79.6556 182.668 79.16 184.251 78.6004C188.748 76.9406 193.356 75.5982 198.041 74.5832C201.129 73.9579 204.231 73.3796 207.346 72.9056C209.516 72.5102 211.715 72.3018 213.921 72.2826C220.995 72.3272 228.027 73.3965 234.795 75.4572C239.7 77.0973 244.732 78.3288 249.84 79.1391C250.008 79.1636 250.156 79.327 250.406 79.4828L250.422 80.594C249.766 80.9023 249.164 81.2422 248.523 81.4756C246.746 82.1232 244.969 82.7826 243.162 83.3367C237.614 85.037 232.064 86.7294 226.492 88.3484C222.646 89.5816 218.696 90.4626 214.691 90.9802C206.025 91.8633 197.283 91.6635 188.666 90.3854C184.93 89.8349 181.153 89.5071 177.382 89.2565C174.367 89.0559 171.332 89.0701 168.307 89.0936C166.227 89.0569 164.147 89.1783 162.086 89.4568C158.012 89.989 154.085 91.3285 150.535 93.3971C149.626 93.9605 148.655 94.4252 147.715 94.9401C141.525 98.2053 135.511 101.793 129.698 105.69C127.086 107.565 124.375 109.299 121.577 110.883C115.5 114.231 109.754 118.148 104.417 122.582C100.373 125.9 96.2485 129.122 92.1224 132.339C90.7401 133.332 89.563 134.583 88.6559 136.024C87.8601 137.47 86.675 138.665 85.235 139.473C84.6663 139.868 84.1741 140.363 83.7826 140.934C82.5286 142.433 81.3012 143.955 80.0704 145.473C79.8342 145.765 79.6294 146.082 79.1884 146.696C79.8766 146.284 80.2064 146.105 80.5177 145.897C86.1277 142.26 92.0406 139.113 98.1909 136.49C100.439 135.498 102.749 134.645 105.032 133.731C111.121 131.279 117.446 129.462 123.908 128.309C129.011 127.478 134.155 126.923 139.317 126.647C146.983 125.958 154.695 125.961 162.359 126.657C171.004 127.634 179.649 128.612 188.294 129.589C188.59 129.568 188.886 129.628 189.15 129.764C189.414 129.899 189.636 130.105 189.791 130.358C189.962 131.381 189.124 131.719 188.399 132.038C185.572 133.283 182.75 134.547 179.876 135.678C170.117 139.336 159.884 141.576 149.489 142.328C138.745 143.292 127.966 143.574 117.187 143.813C109.866 143.879 102.579 144.808 95.4754 146.58C90.1358 147.863 84.9631 149.762 80.0612 152.238C73.2538 155.714 67.0328 160.235 61.6242 165.636C58.4674 168.901 55.534 172.375 52.8441 176.035C47.1564 183.518 41.8883 191.311 37.0642 199.378C35.0015 202.92 33.0268 206.509 30.7451 209.922C29.4953 211.792 28.4163 213.777 27.2621 215.711C27.8829 215.317 28.5266 214.954 29.1155 214.517C30.8873 213.202 32.6276 211.845 34.3957 210.525C39.9684 206.365 46.0975 203.091 52.025 199.497C55.9701 197.116 60.1364 195.122 64.4658 193.544C71.0971 191.112 77.7895 188.846 84.4617 186.525C91.0968 184.274 97.9733 182.809 104.95 182.162C111.655 181.346 118.434 181.346 125.139 182.162C131.443 183.054 137.719 184.149 144.006 185.156C144.258 185.176 144.506 185.23 144.742 185.318C145.123 185.498 145.475 185.739 145.739 185.895C145.868 186.216 145.872 186.574 145.75 186.897C145.628 187.221 145.388 187.487 145.079 187.641C144.645 187.898 144.194 188.124 143.728 188.316C139.611 190.228 135.448 192.047 131.383 194.065C123.334 198.14 114.978 201.579 106.392 204.349C102.54 205.559 98.6964 206.796 94.8196 207.919C92.3392 208.637 89.8213 209.251 87.2909 209.768C81.9166 210.864 76.5313 211.907 71.1349 212.895C65.9254 213.844 60.7186 214.859 55.4705 215.534C47.4522 216.52 39.5645 218.372 31.9454 221.058C28.6249 222.263 25.4005 223.718 22.3 225.41C20.7206 226.229 19.4672 227.561 18.7463 229.188C18.3827 229.992 17.9847 230.781 17.5867 231.57C16.3923 233.934 15.2099 236.304 13.9862 238.653C12.5588 241.394 11.012 244.075 9.65812 246.851C5.33929 255.705 0.523443 264.281 -4.65176 272.657C-9.88889 281.135 -15.2331 289.549 -19.6998 298.475C-19.9213 298.965 -20.2397 299.405 -20.636 299.768C-21.0323 300.132 -21.4982 300.411 -22.0055 300.59C-22.5182 300.818 -23.0149 301.081 -23.4924 301.376C-23.9306 301.609 -24.383 301.815 -24.8471 301.992C-24.9766 302.038 -25.1795 301.881 -25.4282 301.787C-25.3384 301.226 -25.2516 300.684 -25.1717 300.184C-25.6602 299.605 -25.9505 298.884 -26 298.127C-25.5796 297.719 -25.1081 297.225 -24.5992 296.772C-21.2796 293.85 -18.4397 290.424 -16.1832 286.62C-13.6912 282.382 -11.3996 278.024 -9.08887 273.681C-4.52523 265.106 0.066143 256.543 4.50551 247.903C8.5151 240.099 12.8084 232.455 17.2288 224.884C23.5601 214.041 30.3475 203.479 37.3488 193.057C38.4522 191.439 39.2884 189.654 39.8254 187.771C40.1319 186.679 40.4455 185.586 40.7 184.48C41.9657 178.173 42.7421 171.777 43.0221 165.351C43.4655 159.201 43.2201 153.002 43.2926 146.825C43.3377 142.98 43.3598 139.134 43.4854 135.292C43.6422 131.067 44.1815 126.864 45.0967 122.736C47.2342 112.674 50.094 102.779 53.6538 93.1286C56.19 86.3355 58.9815 79.636 61.7538 72.9339C63.006 69.9067 64.4863 66.9737 65.8703 64.001C66.0767 63.5576 66.2306 63.0174 66.9366 63.1592C67.5145 63.5996 67.4288 64.2623 67.482 64.8772C68.166 72.79 68.8167 80.7057 69.5384 88.6149C70.9717 105.189 69.1623 121.884 64.2114 137.767C61.3443 146.855 57.7628 155.702 53.5004 164.226C50.697 170.005 47.8932 175.784 45.0888 181.562C45.5369 181.052 46.0192 180.566 46.4243 180.023C48.4608 177.293 50.4425 174.522 52.5088 171.815ZM171.22 76.7185C171.594 76.5444 171.948 76.331 172.277 76.0819C174.15 74.4001 176.044 72.7383 177.841 70.9777C179.82 69.0395 181.711 67.0104 183.618 65.0008C184.022 64.5322 184.402 64.0428 184.755 63.5345C185.487 62.8571 186.278 62.2322 186.943 61.494C192.29 55.5568 197.576 49.563 202.958 43.6563C205.408 40.9663 207.92 38.3354 210.492 35.7635C210.453 35.7354 210.42 35.6988 210.397 35.6566C210.374 35.6143 210.36 35.5674 210.357 35.5192C210.354 35.471 210.362 35.4227 210.38 35.378C210.398 35.3332 210.426 35.293 210.462 35.2603C220.684 25.6963 231.32 16.644 242.371 8.10336C237.283 10.388 232.539 13.3724 228.277 16.9702C225.435 19.5394 222.408 21.9035 219.51 24.413C215.093 28.2084 210.909 32.2673 206.982 36.5675C206.97 36.6022 206.953 36.6347 206.931 36.6635C202.251 42.3732 197.559 48.0732 192.856 53.7636C190.581 56.5214 188.281 59.2377 185.907 61.8881C185.822 62.0005 185.728 62.1049 185.624 62.1997C185.353 62.5015 185.08 62.8022 184.806 63.1018L184.734 63.5207C184.303 63.8733 183.845 64.1976 183.446 64.5834C183.41 64.6183 183.375 64.6537 183.338 64.6886C181.855 66.2738 180.341 67.8342 178.778 69.3566C176.648 71.4309 174.474 73.4517 172.255 75.4189C171.903 75.8463 171.564 76.2844 171.22 76.7185ZM225.994 15.4562C218.427 20.4811 211.381 26.2486 204.959 32.6729C202.247 35.4863 199.686 38.4418 197.288 41.5269C189.861 50.6898 182.816 60.1434 176.053 69.8062C175.287 70.9008 174.52 71.9951 173.753 73.089C177.348 69.6221 180.957 66.1692 184.331 62.4818C189.243 57.1116 193.764 51.36 198.422 45.7692C200.386 43.4115 202.355 41.0576 204.329 38.7076C204.418 38.6015 204.506 38.4945 204.595 38.3889C205.181 37.6895 205.767 36.9896 206.352 36.289C206.411 36.2168 206.497 36.1708 206.59 36.161C210.938 31.3147 215.623 26.7813 220.61 22.5946C223.045 20.5946 225.432 18.5341 227.787 16.4413C230.526 14.0155 233.537 11.9148 236.758 10.1809C237.613 9.71832 238.456 9.23547 239.279 8.71521C234.64 10.5204 230.19 12.7783 225.994 15.4562ZM250.754 4.66779C247.777 6.43799 244.996 8.52011 242.46 10.879C239.594 13.4325 236.707 15.9622 233.837 18.5102C232.801 19.4291 231.747 20.332 230.769 21.3092C224.847 27.2241 218.937 33.1513 213.039 39.0909C212.359 39.7761 211.695 40.4783 211.032 41.1815C211.047 41.2274 211.048 41.2764 211.037 41.3232C211.026 41.37 211.001 41.4128 210.967 41.4468C203.276 49.4008 195.59 57.3828 187.618 65.0618C187.172 65.5614 186.724 66.0587 186.278 66.558C186.868 66.1785 187.48 65.8278 188.029 65.3971C193.724 60.9314 199.042 56.0278 204.467 51.2475C208.382 47.7975 212.475 44.5432 216.294 40.9925C216.758 40.5609 217.214 40.1204 217.675 39.6858C217.686 39.6255 217.714 39.5699 217.757 39.5263C222.6 34.6408 227.444 29.7577 232.292 24.877C237.073 20.0873 241.899 15.3328 246.451 10.3213C248.267 8.32104 250.036 6.27859 251.797 4.22913C251.415 4.27264 251.053 4.42487 250.754 4.66779ZM252.813 4.10126L252.623 4.16098C248.951 8.6181 245.229 13.0316 241.151 17.1279C239.475 18.8113 237.794 20.4902 236.109 22.1647C236.02 22.3025 235.917 22.4313 235.802 22.5492C230.484 27.8183 225.21 33.1354 219.828 38.3381C219.274 38.8876 218.721 39.437 218.167 39.9863C218.132 40.0219 218.087 40.0475 218.039 40.0606C217.625 40.4561 217.217 40.8577 216.802 41.2516C212.69 45.1508 208.186 48.6331 203.998 52.4558C194.306 61.301 184.057 69.4738 173.851 77.7004C172.38 78.8856 170.939 80.108 169.485 81.3132C169.164 81.1606 168.908 81.2033 168.755 81.5562C168.444 81.7879 168.132 82.0196 167.821 82.2513L168.21 82.3456C169.322 81.8648 170.454 81.4274 171.604 81.0335C176.178 78.1466 180.766 75.2813 185.283 72.3082C187.19 71.0528 189.037 69.7052 190.882 68.3552C198.602 62.0514 206.067 55.424 213.284 48.5605C222.78 39.5549 231.765 30.026 240.198 20.0185C244.314 15.1205 248.367 10.161 252.306 5.1174L252.813 4.10126ZM251.69 7.40213C251.918 7.02069 252.126 6.62735 252.335 6.23386C245.248 15.6297 237.672 24.646 229.637 33.2452C220.748 42.8232 211.341 51.9071 201.458 60.456C199.132 62.4638 196.768 64.4259 194.384 66.3644C194.19 66.5511 193.986 66.7274 193.773 66.8926C193.657 66.9813 193.537 67.0647 193.42 67.153C190.403 69.589 187.352 71.9818 184.266 74.3315C184.215 74.3718 184.15 74.3925 184.085 74.3901C184.019 74.3876 183.957 74.3621 183.908 74.3181C181.36 76.1651 178.772 77.9646 176.128 79.6761C176.926 79.3173 177.721 78.9521 178.502 78.5594C187.932 73.881 196.802 68.1502 204.943 61.4764C207.659 59.2292 210.311 56.9054 213.005 54.6312C213.033 54.6074 213.066 54.5897 213.095 54.5668C214.253 53.4132 215.398 52.2478 216.548 51.0976C219.117 48.5285 221.638 45.9133 224.112 43.252C228.316 38.7306 232.385 34.089 236.409 29.4082C241.902 22.3585 247.003 15.012 251.69 7.40213ZM190.827 73.2381C193.281 71.952 195.631 70.4701 198.041 69.0988C202.351 66.5916 206.36 63.6009 209.992 60.1848C217.081 53.6351 223.658 46.5519 229.665 38.9973C229.94 38.6088 230.187 38.201 230.403 37.7771C228.622 39.7668 226.812 41.7297 224.974 43.6657C222.423 46.3333 219.824 48.9531 217.177 51.5253C214.483 54.1423 211.636 56.5876 208.928 59.1857C208.893 59.222 208.846 59.2448 208.796 59.2502C208.746 59.2557 208.696 59.2434 208.654 59.2155C206.682 60.8355 204.652 62.3856 202.659 63.9808C196.386 68.9595 189.66 73.3399 182.571 77.0645C182.336 77.215 182.121 77.3933 181.929 77.5956C184.899 76.1514 187.903 74.7704 190.827 73.2381ZM181.739 77.6972L180.312 78.1667L180.449 78.4615L181.739 77.6972ZM167.858 82.4982L167.784 82.2753C167.223 82.6204 166.652 82.9715 165.991 83.3782C166.607 83.0721 167.229 82.7766 167.858 82.4982ZM163.635 84.3756C165.76 82.818 167.831 81.1837 169.985 79.6676C173.873 76.8907 177.575 73.8604 181.064 70.5964C181.036 70.5317 181.029 70.4598 181.044 70.3908C181.058 70.3218 181.094 70.2591 181.146 70.2115C186.549 64.9238 191.994 59.6802 197.384 54.3818C200.339 51.4107 203.297 48.4437 206.26 45.4808C206.326 45.4149 206.405 45.3621 206.475 45.3008C207.022 44.7427 207.568 44.1827 208.111 43.6208C208.225 43.4477 208.353 43.2849 208.495 43.1344C215.745 35.7139 223.006 28.3028 230.275 20.9011C230.715 20.4524 231.175 20.0217 231.646 19.605C235.789 15.938 239.924 12.2613 244.091 8.62155C245.341 7.52948 246.684 6.54379 247.897 5.37885C247.072 5.79175 246.247 6.20459 245.422 6.61737C235.715 14.1136 226.273 21.9589 217.095 30.1531C210.949 36.1151 204.972 42.2368 199.253 48.6237C193.157 55.4333 187.054 62.2389 180.727 68.8468C175.757 73.9493 170.397 78.6577 164.697 82.9294C163.812 83.6637 162.964 84.4419 162.157 85.2611C162.666 84.9933 163.159 84.6977 163.635 84.3756ZM234.077 76.0607C232.437 75.4954 230.761 75.0377 229.061 74.6905C224.484 73.7799 219.838 73.2602 215.173 73.1372C212.588 73.1293 210.01 73.4195 207.492 74.0019C203.923 74.7876 200.306 75.3655 196.755 76.224C193.85 76.9265 191.013 77.9092 188.145 78.7678L188.208 78.9797C191.268 78.2494 194.328 77.5191 197.388 76.7889C201.132 75.9136 204.951 75.401 208.793 75.2584C216.474 74.8606 224.176 75.1454 231.807 76.1094C232.368 76.1852 232.936 76.2113 233.502 76.2441C233.7 76.2056 233.893 76.144 234.077 76.0607ZM241.535 78.3053C239.856 77.7345 238.131 77.3071 236.38 77.0278C231.172 76.5941 225.967 75.9857 220.75 75.8307C214.206 75.4818 207.644 75.7878 201.162 76.7441C198.311 77.2327 195.496 77.9376 192.678 78.6003C189.555 79.3347 186.431 80.0723 183.34 80.9243C181.156 81.5477 179.011 82.305 176.92 83.1918C177.564 82.9801 178.2 82.7444 178.852 82.561C181.275 81.8784 183.688 81.1496 186.135 80.5656C187.553 80.2805 188.985 80.0748 190.426 79.9497C193.361 79.5904 196.296 79.2174 199.237 78.9186C201.676 78.6709 204.122 78.4543 206.57 78.3466C209.273 78.2279 211.984 78.1719 214.689 78.2285C218.085 78.2993 221.487 78.403 224.87 78.6886C230.338 79.035 235.823 79.0036 241.287 78.5947C241.33 78.5923 241.368 78.5039 241.535 78.3053ZM243.954 79.2535C242.192 79.2645 240.426 79.2962 238.67 79.4275C233.39 79.7831 228.091 79.7324 222.819 79.2759C219.624 79.024 216.406 79.0416 213.198 78.9909C211.183 78.9592 209.168 79.037 207.153 79.0449C204.193 79.0397 201.237 79.2735 198.314 79.7439C195.953 80.1336 193.573 80.3944 191.184 80.5251C187.206 80.7961 183.307 81.7618 179.663 83.3785C180.491 83.3057 181.318 83.2223 182.147 83.1619C192.696 82.3928 203.235 81.5108 213.837 81.7728C217.727 81.869 221.631 81.4429 225.528 81.2471C231.815 80.9313 238.103 80.6112 244.39 80.2868C245.134 80.2483 245.876 80.1748 246.619 80.1176C246.268 79.7821 245.847 79.5301 245.385 79.3804C244.924 79.2308 244.435 79.1874 243.954 79.2535ZM224.396 84.4595C221.106 85.017 217.779 85.3362 214.443 85.4146C211.55 85.4932 208.662 85.7272 205.769 85.835C202.815 85.9452 199.855 86.107 196.904 86.03C191.295 85.8836 185.703 86.1275 180.111 86.4725C179.465 86.5453 178.825 86.6615 178.195 86.8205C179.158 86.8747 180.124 86.9939 181.082 86.9529C185.989 86.7286 190.906 86.8577 195.794 87.3391C196.859 87.449 197.929 87.5026 198.999 87.4997C203.72 87.4774 208.444 87.52 213.16 87.3411C215.544 87.1848 217.916 86.8709 220.26 86.4016C223.916 85.7711 227.559 85.0604 231.199 84.3372C233.162 83.9472 235.107 83.461 237.036 82.8987C232.79 83.2061 228.581 83.7357 224.396 84.4595ZM174.379 87.8576C180.894 87.8219 187.299 88.9373 193.745 89.6559C202.524 90.7102 211.418 90.2714 220.05 88.3579C224.747 87.3028 229.369 85.9323 233.882 84.2556C228.083 85.4164 222.74 86.5461 217.37 87.5302C215.383 87.8576 213.375 88.0353 211.362 88.0618C207.774 88.1714 204.185 88.2093 200.593 88.1754C198.14 88.1495 195.683 88.0067 193.238 87.7962C189.849 87.4988 186.446 87.402 183.046 87.5065C180.844 87.5775 178.639 87.5216 176.436 87.5633C175.65 87.5783 174.868 87.7017 174.084 87.7815C174.177 87.8232 174.277 87.8489 174.379 87.8576ZM196.297 85.2643C199.444 85.2348 202.591 85.1001 205.736 84.98C208.569 84.8718 211.398 84.6518 214.231 84.6006C218.388 84.4577 222.529 84.0255 226.626 83.3071C229.922 82.7856 233.253 82.4855 236.563 82.0479C238.01 81.8691 239.437 81.5507 240.823 81.0971C240.339 81.0858 239.853 81.0393 239.372 81.0688C234.405 81.3751 229.435 81.6453 224.473 82.024C220.393 82.3914 216.297 82.543 212.201 82.478C204.325 82.3696 196.448 82.6722 188.603 83.3846C183.317 83.6679 178.055 84.2883 172.848 85.2419C171.428 85.5328 169.993 85.766 168.596 86.1436C168.028 86.317 167.478 86.5433 166.952 86.8196C167.934 86.7616 168.916 86.7068 169.897 86.655C169.952 86.6489 170.007 86.6545 170.06 86.6715C170.112 86.6884 170.16 86.7162 170.201 86.7531C170.242 86.79 170.275 86.8351 170.297 86.8856C170.319 86.936 170.33 86.9905 170.33 87.0455C172.461 86.9296 174.561 86.5231 176.679 86.2782C183.196 85.595 189.744 85.2565 196.297 85.2643ZM148.183 93.7264C147.251 93.8247 146.747 93.9926 146.413 94.4724C146.887 94.2723 147.376 94.0667 148.183 93.7264ZM146.299 94.5418L144.826 95.0266C145.092 95.0883 145.371 95.0757 145.63 94.9903C145.89 94.9048 146.122 94.7497 146.299 94.5418ZM142.043 96.9689C141.241 97.01 140.863 97.1782 140.588 97.5444C140.961 97.3968 141.35 97.2431 142.043 96.9689ZM123.402 108.612C128.953 105.027 134.328 101.167 140.128 97.9724C140.267 97.8723 140.388 97.7501 140.487 97.6106C137.357 98.6791 134.396 100.188 131.693 102.093C128.324 104.497 124.903 106.826 121.516 109.205C121.156 109.488 120.82 109.8 120.509 110.136C121.48 109.638 122.49 109.201 123.402 108.612ZM122.642 67.9779C120.127 70.6279 117.856 73.4991 115.857 76.5568C110.954 83.5096 106.918 91.035 103.839 98.9658C102.669 102.219 101.753 105.564 100.749 108.876C100.646 109.348 100.587 109.828 100.572 110.311C101.383 108.419 102.183 106.522 103.009 104.637C103.944 102.506 104.805 100.335 105.87 98.2706C109.535 91.1704 113.009 83.9635 117.334 77.2233C119.305 74.1517 121.327 71.1128 123.316 68.0533C123.581 67.6458 123.796 67.2052 124.032 66.7791C123.566 67.1757 123.065 67.5396 122.642 67.9779ZM164.34 23.7421C160.892 27.7683 158.136 32.3062 154.926 36.5111C152.793 39.4032 150.497 42.1711 148.049 44.8015C147.656 45.2103 147.238 45.5994 146.879 46.0362C140.389 53.9153 133.347 61.3405 127.43 69.6921C126.967 70.2703 126.467 70.8186 125.935 71.3338C126.136 70.8236 126.376 70.3295 126.652 69.856C129.584 65.605 132.752 61.5218 136.14 57.6254C137.91 55.5774 139.607 53.4667 141.374 51.4167C143.633 48.7954 145.971 46.2404 148.201 43.5941C150.471 40.9002 152.654 38.1333 154.862 35.3875C155.02 35.1485 155.148 34.8908 155.243 34.6203C154.85 34.8842 154.477 35.1766 154.127 35.4951C147.098 42.6457 140.079 49.8055 133.069 56.9746C132.015 58.0547 131.05 59.2281 130.101 60.404C123.913 68.1418 118.374 76.3772 113.541 85.0264C113.199 85.6304 112.852 86.2318 112.536 86.8491C110.35 91.1155 108.172 95.3855 105.999 99.659C105.376 100.892 104.84 102.17 104.245 103.47C104.474 103.608 104.619 103.696 104.764 103.783C104.521 104.345 104.307 104.92 104.031 105.465C102.625 108.24 101.197 111.005 99.7947 113.782C99.6923 114.044 99.6245 114.319 99.5928 114.599C100.001 114.162 100.378 113.696 100.72 113.206C103.461 108.754 106.314 104.364 108.866 99.8054C111.875 94.4142 115.21 89.2117 118.853 84.2268C120.825 81.5334 122.782 78.8284 124.723 76.1119C127.471 72.2626 130.514 68.6547 133.558 65.0393C137.533 60.3183 141.389 55.4968 145.258 50.6881C148.97 46.0763 152.745 41.509 156.283 36.7665C159.218 32.8323 161.864 28.6818 164.6 24.6007C164.99 23.9193 165.321 23.206 165.59 22.4685C165.169 22.8896 164.726 23.2913 164.34 23.7421ZM149.279 56.4054C146.64 59.2722 143.99 62.1289 141.367 65.0104C140.139 66.3596 139.042 67.8357 137.75 69.1185C133.235 73.6045 129.137 78.4647 124.957 83.2513C124.245 84.0496 123.581 84.8905 122.971 85.7693C118.626 92.176 114.016 98.4069 110.087 105.09C109.515 106.062 109.025 107.081 108.497 108.078C108.287 108.378 108.077 108.679 107.867 108.979C108.123 108.705 108.379 108.431 108.635 108.158C109.071 107.71 109.54 107.289 109.939 106.81C116.634 98.7876 123.409 90.8293 129.984 82.7095C136.561 74.5877 142.797 66.1989 148.79 57.6334C149.019 57.2616 149.225 56.8758 149.405 56.4783C149.67 56.0601 149.934 55.642 150.198 55.2238L149.279 56.4054ZM149.334 54.7957C153.344 49.0792 156.962 43.0979 160.164 36.8929C160.284 36.648 160.389 36.3954 160.498 36.1452C160.147 36.5253 159.823 36.9287 159.527 37.3528C157.981 39.8043 156.404 42.2383 154.947 44.7426C151.484 50.6047 147.464 56.1195 142.943 61.2105C140.455 64.055 138.023 66.9483 135.586 69.8373C135.276 70.2522 135.001 70.6916 134.762 71.151C135.234 70.8027 135.681 70.4221 136.1 70.012C137.635 68.3498 139.141 66.6604 140.644 64.9696C142.315 63.091 143.989 61.2147 145.629 59.3088C146.952 57.8786 148.189 56.3716 149.334 54.7957ZM136.502 67.7521C138.876 64.9719 141.254 62.196 143.637 59.4245C147.357 55.1369 150.683 50.5229 153.574 45.6383C155.882 41.7313 158.301 37.8893 160.629 33.9942C161.372 32.7523 162.012 31.4464 162.64 30.1413C162.866 29.5883 163.047 29.0184 163.184 28.437C162.764 28.8587 162.376 29.3105 162.022 29.7887C158.081 35.728 153.799 41.4336 149.197 46.8767C144.961 51.9646 140.848 57.1546 136.68 62.2993C136.283 62.7892 135.904 63.2962 135.481 63.7627C127.919 72.108 121.606 81.4056 115.22 90.6309C112.609 94.4027 110.556 98.5607 108.257 102.548C108.19 102.7 108.149 102.862 108.135 103.028C108.532 102.666 108.906 102.279 109.253 101.869C112.841 97.1541 116.419 92.4325 119.989 87.7039C125.209 80.8181 130.897 74.3189 136.502 67.7521ZM168.659 20.9813C168.972 20.0646 169.119 19.0995 169.093 18.1313C168.932 18.4154 168.768 18.6984 168.61 18.9841C166.615 22.6368 164.876 26.423 163.403 30.3156C163.176 30.9031 162.868 31.4592 162.585 32.0255C165.126 28.6522 167.171 24.9332 168.659 20.9813ZM114.214 107.512C130.172 93.9688 143.488 77.5906 153.489 59.204C155.745 54.979 157.792 50.6422 159.902 46.3409C160.146 45.7473 160.336 45.1334 160.472 44.5062C160.119 45.0497 159.737 45.5771 159.436 46.1478C158.117 48.6553 156.813 51.1712 155.526 53.6956C153.161 58.2879 150.466 62.7026 147.462 66.9049C145.309 69.9326 143.206 72.997 140.979 75.9688C138.753 78.9395 136.447 81.8537 134.092 84.7233C130.897 88.6159 127.72 92.5317 124.353 96.2725C120.944 100.059 117.31 103.642 113.781 107.321C113.336 107.785 112.924 108.282 112.5 108.766C113.077 108.355 113.681 107.975 114.214 107.512ZM106.203 113.445C108.843 111.013 111.278 108.368 113.484 105.537C115.619 102.894 117.823 100.306 120.034 97.7262C128.024 88.4073 135.953 79.0376 143.09 69.0373C144.989 66.3758 146.668 63.5574 148.469 60.8247C148.875 60.2077 149.369 59.6477 149.822 59.0615C149.689 59.5322 149.518 59.9914 149.311 60.4346C147.157 64.3492 144.712 68.0966 141.996 71.6451C140.796 73.1814 139.615 74.7351 138.483 76.3217C135.665 80.27 132.432 83.8784 129.374 87.6309C124.842 93.1904 120.029 98.5025 115.433 104.002C115.008 104.573 114.625 105.174 114.285 105.8C114.615 105.56 114.93 105.301 115.229 105.024C119.271 101.043 123.104 96.8542 126.709 92.4736C128.092 90.7553 129.505 89.0568 130.986 87.4237C136.311 81.2764 141.281 74.831 145.874 68.1189C149.859 62.5945 153.366 56.7402 156.357 50.6197C158.508 46.1992 160.781 41.8381 162.957 37.4292C163.282 36.6466 163.548 35.8404 163.751 35.0175L163.185 35.5763C163.333 34.9823 163.517 34.3978 163.736 33.8261C164.634 31.8229 165.571 29.8372 166.495 27.8458C165.992 28.4771 165.538 29.1454 165.136 29.8449C163.797 32.4895 162.556 35.1838 161.224 37.832C157.448 45.4699 153.056 52.7866 148.089 59.7091C142.967 66.7451 137.74 73.7053 132.488 80.645C130.664 83.0555 128.617 85.2977 126.688 87.6298C119.694 96.0856 112.705 104.546 105.723 113.012C105.369 113.492 105.047 113.994 104.758 114.515C105.257 114.183 105.74 113.826 106.203 113.445ZM97.4003 121.635C98.8266 119.882 100.171 118.063 101.573 116.29C104.007 113.17 106.264 109.917 108.333 106.544C110.922 102.388 113.684 98.3411 116.357 94.2375C116.702 93.7081 116.977 93.1331 117.277 92.5744C116.902 92.9265 116.549 93.3017 116.221 93.6976C113.368 97.446 110.538 101.211 107.685 104.959C107.363 105.329 107.015 105.676 106.645 105.998L106.641 105.987C106.422 106.55 106.157 107.094 105.848 107.613C103.868 110.444 101.885 113.273 99.835 116.053C98.5268 117.664 97.5105 119.492 96.8321 121.454C96.6388 122.098 96.3326 122.709 96.0743 123.335C96.8554 123.044 96.9468 122.193 97.4003 121.635ZM104.453 121.178C106.397 119.687 108.333 118.184 110.26 116.671C110.424 116.528 110.574 116.37 110.71 116.199C109.975 116.586 109.261 117.01 108.569 117.47C107.263 118.411 105.99 119.402 104.74 120.418C104.315 120.809 103.922 121.232 103.565 121.684C103.874 121.54 104.171 121.37 104.453 121.178ZM102.439 122.522L101.051 123.702C101.648 123.503 102.145 123.08 102.439 122.522ZM100.794 123.873C99.0628 124.76 97.5598 126.035 96.4024 127.599C97.8663 126.357 99.3302 125.115 100.794 123.873ZM79.8152 150.208C80.303 150.023 80.7907 149.838 81.2785 149.653C81.0071 149.601 80.7266 149.625 80.4682 149.723C80.2098 149.821 79.9837 149.989 79.8152 150.208ZM127.023 137.919C130.982 137.666 134.928 137.707 138.884 137.821C139.166 137.781 139.451 137.757 139.737 137.749C146.982 137.583 154.205 136.871 161.344 135.621C166.002 134.844 170.638 133.937 175.282 133.074C175.722 132.987 176.135 132.799 176.49 132.525C176.252 132.554 176.013 132.579 175.775 132.612C171.517 133.107 167.221 133.18 162.948 132.829C161.067 132.714 159.171 132.831 157.282 132.849C154.069 132.879 150.857 132.936 147.645 132.941C142.857 132.81 138.066 133.012 133.306 133.548C129.563 134.077 125.83 134.674 122.085 135.191C120.152 135.458 118.2 135.582 116.265 135.837C115.328 135.96 114.404 136.167 113.505 136.456C110.265 137.502 107.013 138.52 103.823 139.703C101.662 140.558 99.5496 141.529 97.4931 142.61C102.53 141.31 107.646 140.338 112.809 139.698C112.828 139.652 112.858 139.611 112.898 139.581C112.937 139.55 112.984 139.531 113.034 139.525C117.666 138.749 122.335 138.213 127.023 137.919ZM82.8646 148.829C85.1716 147.748 87.4785 146.668 89.7853 145.587C87.3216 146.295 84.9857 147.39 82.8646 148.829ZM180.098 129.393C179.919 129.332 179.731 129.302 179.542 129.303C171.212 128.349 162.9 127.207 154.507 126.911C148.831 126.851 143.158 127.152 137.521 127.813C133.319 128.201 129.119 128.69 124.947 129.325C118.341 130.398 111.883 132.239 105.704 134.81C103.541 135.682 101.36 136.516 99.2228 137.451C92.904 140.159 86.821 143.386 81.0363 147.101C78.9251 148.478 76.7909 149.821 74.6746 151.19C74.4552 151.348 74.2496 151.524 74.06 151.717C76.1667 150.555 78.2984 149.435 80.3717 148.216C86.3449 144.704 92.4369 141.416 98.7206 138.496C103.008 136.505 107.483 134.945 112.078 133.839C114.281 133.307 116.469 132.714 118.657 132.122C123.057 131.021 127.547 130.316 132.073 130.016C135.391 129.731 138.732 129.691 142.063 129.579C143.824 129.519 145.588 129.559 147.35 129.519C149.336 129.473 151.315 129.518 153.295 129.631C162.386 129.138 171.498 129.157 180.588 129.688C180.431 129.58 180.267 129.482 180.098 129.393ZM183.503 130.494C177.376 130.23 171.247 130.114 165.117 130.112L165.213 130.12L165.212 130.123C163.052 130.556 160.846 130.718 158.646 130.605C157.952 130.607 157.259 130.563 156.571 130.473C155.675 130.375 154.779 130.293 153.882 130.228C153.632 130.233 153.383 130.236 153.133 130.241C153.099 130.243 153.065 130.238 153.032 130.226C153 130.214 152.97 130.196 152.944 130.173C146.978 129.885 141 129.965 135.043 130.413C128.613 130.723 122.239 131.769 116.046 133.53C112.602 134.554 109.142 135.524 105.701 136.557C101.276 138.045 96.9954 139.933 92.9127 142.197C89.9468 143.715 87.0327 145.342 84.1705 147.077C84.3437 147.066 84.5153 147.037 84.6822 146.989C88.482 145.463 92.2877 143.951 96.0742 142.392C99.4536 141.001 102.782 139.482 106.186 138.156C109.8 136.655 113.578 135.583 117.442 134.961C122.56 134.251 127.683 133.574 132.799 132.856C137.56 132.304 142.353 132.089 147.144 132.212C150.42 132.215 153.697 132.15 156.974 132.157C159.935 132.163 162.898 132.168 165.856 132.278C168.564 132.404 171.278 132.32 173.973 132.026C175.787 131.811 177.612 131.678 179.435 131.559C180.839 131.419 182.211 131.059 183.503 130.494ZM186.097 130.619C185.663 130.597 185.229 130.575 184.795 130.554C184.387 130.68 183.99 130.836 183.605 131.021C184.026 131.131 184.465 131.152 184.894 131.083C185.323 131.013 185.732 130.856 186.097 130.619ZM119.637 142.087C129.084 141.85 138.527 141.477 147.949 140.691C153.225 140.257 158.461 139.418 163.608 138.18C167.158 137.323 170.702 136.415 174.19 135.338C176.843 134.469 179.437 133.431 181.956 132.229C181.486 132.22 181.015 132.242 180.547 132.295C179.865 132.412 179.198 132.611 178.523 132.769C171.348 134.451 164.102 135.78 156.822 136.897C150.911 137.842 144.933 138.309 138.947 138.293C138.596 138.273 138.249 138.214 137.911 138.115C134.316 138.178 130.71 138.364 127.112 138.647C125.473 138.998 123.805 139.198 122.13 139.245C120.096 139.363 118.073 139.553 116.056 139.79C115.093 139.911 114.131 140.036 113.171 140.164L113.161 140.163C109.842 140.633 106.542 141.226 103.254 141.894C98.4328 142.777 93.7612 144.339 89.3784 146.533C89.7769 146.507 90.1731 146.453 90.5643 146.372C100.007 143.59 109.793 142.148 119.637 142.087ZM79.4133 150.417C78.8504 150.632 78.2192 150.723 77.8473 151.283C78.3693 150.994 78.8914 150.706 79.4133 150.417ZM69.0647 156.582C71.0444 155.445 72.8577 154.041 74.4533 152.408C73.0115 152.76 71.6826 153.472 70.5913 154.478C70.1198 154.882 69.5844 155.213 69.1133 155.618C68.5652 156.049 68.134 156.61 67.8594 157.251C68.2621 157.03 68.6822 156.834 69.0647 156.582ZM63.7669 162.337C65.3316 160.975 66.8884 159.604 68.4374 158.224C68.7387 157.93 69.0233 157.619 69.2899 157.292C67.5356 157.686 65.9904 158.718 64.9549 160.188C64.2896 161.101 63.6187 162.009 62.95 162.92C63.2336 162.742 63.5064 162.547 63.7669 162.337ZM-23.3229 299.053C-22.9358 298.814 -22.6031 298.497 -22.3463 298.121C-22.0894 297.746 -21.9141 297.321 -21.8316 296.873C-22.5649 297.406 -23.0916 298.176 -23.3229 299.053ZM-24.3934 298.329C-23.3845 297.995 -23.1618 297.253 -22.8417 296.604C-23.2087 296.764 -23.5371 297.001 -23.8047 297.298C-24.0724 297.596 -24.2731 297.948 -24.3934 298.329ZM-20.9143 295.672L-19.9607 294.293C-20.2141 294.435 -20.4317 294.633 -20.5969 294.872C-20.7621 295.111 -20.8707 295.385 -20.9143 295.672ZM8.71431 245.434C7.49688 247.65 6.53772 250.007 5.47173 252.306C5.79768 251.99 6.08812 251.639 6.33791 251.26C8.37458 247.572 10.3924 243.873 12.3914 240.163C12.5037 239.899 12.5828 239.622 12.6268 239.339C11.3092 241.363 9.87437 243.323 8.71431 245.434ZM12.6785 239.243C13.4578 238.44 14.0484 237.473 14.4074 236.414C13.6132 237.205 13.0204 238.175 12.6785 239.243ZM79.7002 189.316C74.0701 191.328 68.3986 193.235 62.8317 195.409C57.685 197.466 52.7678 200.056 48.1607 203.138C46.8917 203.972 45.6547 204.854 44.4044 205.716C44.8301 205.552 45.2448 205.361 45.646 205.144C51.825 201.502 58.2748 198.34 64.9384 195.686C70.533 193.425 76.1148 191.111 81.6838 188.742C81.0219 188.932 80.3472 189.085 79.7002 189.316ZM54.8051 213.957C56.5336 213.715 58.2699 213.518 59.9896 213.223C68.3713 211.786 76.7646 210.408 85.1203 208.831C89.0126 208.096 92.8586 207.063 96.6709 205.973C100.426 204.9 104.112 203.588 107.826 202.375C114.261 200.152 120.531 197.479 126.59 194.376C130.373 192.52 134.135 190.622 137.859 188.61C136.935 188.914 135.984 189.156 135.09 189.534C131.728 190.954 128.385 192.422 125.032 193.866C123.471 194.539 121.911 195.214 120.339 195.862C112.631 198.992 104.767 201.724 96.7778 204.044C95.5723 204.401 94.3145 204.578 93.0984 204.903C89.0837 205.979 85.0941 207.154 81.0607 208.152C78.6818 208.741 76.2447 209.108 73.8223 209.505C67.5982 210.481 61.4332 211.803 55.3558 213.465C55.144 213.524 54.9371 213.601 54.7279 213.67L54.8051 213.957ZM21.8302 224.672C22.8153 224.148 23.8144 223.649 24.7813 223.093C29.6095 220.342 34.7825 218.245 40.164 216.859C45.6509 215.417 51.1919 214.197 56.5894 212.399C61.9037 210.793 67.3368 209.611 72.8379 208.864C77.5174 208.19 82.1406 207.171 86.6694 205.815C90.0213 204.739 93.5185 204.117 96.9469 203.276C98.1706 202.976 99.3952 202.668 100.597 202.292C106.799 200.354 112.944 198.242 118.973 195.819C122.537 194.386 126.026 192.764 129.581 191.309C132.496 190.116 135.453 189.026 138.404 187.925C139.639 187.465 140.907 187.093 142.561 186.549C141.633 186.04 140.558 185.867 139.518 186.059C139.09 186.163 138.67 186.305 138.251 186.443C133.096 188.132 127.962 189.888 122.78 191.492C119.411 192.535 115.976 193.368 112.566 194.276C110.19 194.908 107.797 195.477 105.427 196.128C100.319 197.529 95.2275 198.985 90.1174 200.376C87.624 201.054 85.1027 201.629 82.5965 202.26C81.2521 202.599 79.908 202.94 78.5718 203.31C71.6457 205.228 64.7211 207.151 57.798 209.08C57.2513 209.233 56.7082 209.399 56.1684 209.574C52.3285 210.82 48.5037 212.115 44.6471 213.307C40.5632 214.618 36.5783 216.219 32.7229 218.099C29.7617 219.502 26.8568 221.023 23.8959 222.427C23.4047 222.622 22.9639 222.925 22.6063 223.313C22.2486 223.702 21.9833 224.167 21.8302 224.672ZM23.6993 221.664C24.9754 221.064 26.2685 220.498 27.5208 219.852C33.8577 216.455 40.5311 213.727 47.433 211.712C49.3764 211.177 51.2785 210.491 53.1989 209.873C58.5405 208.155 63.9244 206.588 69.3895 205.305C70.4928 205.046 71.5776 204.702 72.6605 204.363C78.0171 202.689 83.4358 201.25 88.9168 200.048C90.1445 199.758 91.3559 199.404 92.5461 198.987C98.1743 197.11 103.955 195.81 109.709 194.405C111.728 193.912 113.732 193.355 115.751 192.858C122.982 191.08 130.057 188.792 137.095 186.378C137.343 186.257 137.586 186.124 137.821 185.979C136.551 186.166 135.695 186.316 134.832 186.413C132.594 186.76 130.339 186.989 128.076 187.098C123.729 187.141 119.39 187.507 115.097 188.195C112.733 188.563 110.352 188.828 107.972 189.086C105.34 189.366 102.739 189.89 100.204 190.65C96.7662 191.688 93.2768 192.565 89.8756 193.707C84.3203 195.572 78.816 197.589 73.2947 199.555C69.8513 200.781 66.3989 201.986 62.9828 203.285C60.277 204.314 57.624 205.481 54.9403 206.57C52.6644 207.493 50.4057 208.469 48.0904 209.282C43.5203 210.907 39.0706 212.852 34.7744 215.104C32.3159 216.38 29.8217 217.594 27.4214 218.972C26.1302 219.797 24.8874 220.696 23.6993 221.664ZM25.9669 218.947C26.6499 218.546 27.3402 218.157 28.0106 217.736C28.3522 217.519 28.6546 217.245 28.9052 216.927C27.7008 217.194 26.6472 217.918 25.9669 218.947ZM37.6957 213.098C41.1518 211.405 44.7439 210.057 48.3404 208.697C52.2251 207.229 56.0211 205.525 59.856 203.924C60.263 203.755 60.6657 203.571 61.0808 203.424C67.6739 201.083 74.2729 198.758 80.8609 196.402C83.2337 195.554 85.548 194.53 87.9471 193.77C93.0526 192.152 98.1756 190.58 103.335 189.147C105.244 188.739 107.177 188.453 109.122 188.29C112.489 187.807 115.849 187.26 119.225 186.854C121.474 186.579 123.736 186.419 126.002 186.376C129.089 186.318 132.17 186.078 135.228 185.656C135.614 185.558 135.994 185.435 136.364 185.289C134.65 184.962 133.356 184.759 132.084 184.463C130.254 183.975 128.339 183.89 126.472 184.213C125.539 184.369 124.594 184.448 123.649 184.448C116.408 184.793 109.211 185.758 102.136 187.331C100.906 187.613 99.6952 187.968 98.5085 188.395C92.6414 190.332 86.7599 192.23 80.9249 194.26C77.715 195.377 74.5783 196.708 71.4242 197.982C67.5702 199.538 63.7404 201.155 59.8859 202.71C53.9876 205.09 48.0453 207.37 42.3108 210.129C39.8748 211.301 37.5452 212.695 35.1763 214.004C34.9406 214.16 34.7239 214.343 34.5307 214.549C35.5871 214.068 36.6537 213.608 37.6957 213.098ZM36.2167 212.658C39.2692 210.891 42.4424 209.342 45.7126 208.021C49.8995 206.287 54.0863 204.553 58.2732 202.82C61.9967 201.281 65.7493 199.81 69.4427 198.203C79.2846 193.92 89.5456 190.822 99.6924 187.399C103.5 186.278 107.395 185.476 111.336 185.002C115.793 184.185 120.306 183.716 124.835 183.598C124.854 183.458 124.873 183.317 124.892 183.176C123.462 183.048 122.035 182.878 120.603 182.799C113.739 182.465 106.859 182.883 100.085 184.044C98.5955 184.288 97.1136 184.615 95.6536 185.001C93.0342 185.692 90.3986 186.351 87.8351 187.218C84.9136 188.205 82.062 189.401 79.1835 190.515C78.3029 190.856 77.4505 191.276 76.5564 191.574C72.543 192.909 68.7228 194.707 64.8634 196.411C63.1933 197.149 61.51 197.857 59.8438 198.603C54.3206 201.066 48.9611 203.88 43.798 207.029C41.5962 208.376 39.2983 209.572 37.1364 210.978C35.1816 212.255 33.353 213.716 31.6757 215.34C33.1895 214.446 34.7031 213.552 36.2167 212.658ZM26.2243 214.835C26.5494 214.615 26.827 214.331 27.0403 214.002C27.2537 213.672 27.3987 213.303 27.4665 212.916C27.0524 213.556 26.6383 214.195 26.2243 214.835ZM27.488 212.874C28.1348 212.395 28.5883 211.7 28.766 210.914C28.4334 211.14 28.149 211.429 27.9296 211.766C27.7102 212.102 27.5601 212.479 27.488 212.874ZM44.6497 177.637C45.0617 176.846 45.4154 176.026 45.7078 175.184C46.6268 171.955 47.5073 168.714 48.3955 165.476C48.3875 165.443 48.3878 165.408 48.3964 165.375C48.8745 163.526 49.3256 161.67 49.7921 159.818C49.8001 159.778 49.8118 159.739 49.8219 159.699C49.9764 159.086 50.1304 158.472 50.2841 157.859C50.3093 157.685 50.3523 157.513 50.4125 157.347C53.1478 146.367 55.7079 135.344 58.1672 124.298C58.6614 121.984 59.1727 119.673 59.7012 117.367C59.8798 116.553 60.0632 115.74 60.2411 114.927C60.9864 111.519 61.7006 108.105 62.424 104.692C63.521 98.5055 64.2265 92.2556 64.5365 85.9799C64.7175 82.2725 65.0337 78.5719 65.2952 74.8683C64.068 81.9334 62.6083 88.9577 61.1305 95.9757C61.1261 95.9966 61.1103 96.0011 61.1016 96.0162C60.6162 98.8641 60.1221 101.71 59.6193 104.555C58.7903 109.204 57.9076 113.843 57.0639 118.488C56.524 121.462 56.038 124.446 55.4811 127.416C54.8777 130.633 54.2438 133.844 53.5795 137.05C52.9289 140.193 52.2681 143.337 51.5354 146.462C50.4141 151.244 49.3124 156.033 48.0426 160.776C46.7595 165.125 45.7829 169.558 45.12 174.043C44.9734 175.242 44.8075 176.439 44.6497 177.637ZM49.0158 166.635C49.2384 166.099 49.4771 165.568 49.6696 165.021C52.3517 157.424 54.5965 149.68 56.3931 141.826C58.0852 134.404 59.8327 126.993 61.3751 119.541C62.1127 115.976 62.4359 112.325 62.9355 108.711C62.9682 108.358 62.9795 108.003 62.9691 107.648C62.8393 107.832 62.7346 108.033 62.658 108.245C62.5094 108.83 62.3612 109.414 62.2132 109.998C59.4508 123.855 56.1488 137.623 52.5861 151.282C51.8673 154.038 51.1214 156.786 50.3858 159.537C50.3762 159.867 50.2902 160.189 50.1345 160.48C50.0569 160.769 49.9809 161.058 49.9032 161.347C49.8369 162.252 49.6717 163.146 49.4105 164.015C49.2763 164.888 49.147 165.762 49.0158 166.635ZM47.9814 118.93C46.538 123.987 45.613 129.177 45.2208 134.422C45.2058 134.937 45.2177 135.452 45.2565 135.966C45.3678 135.457 45.4892 134.951 45.5818 134.438C46.4973 129.369 47.4077 124.3 48.3131 119.229C48.3695 118.829 48.4049 118.426 48.4191 118.022C48.2413 118.308 48.0946 118.613 47.9814 118.93ZM51.6808 106.076C51.4593 106.514 51.2667 106.967 51.1044 107.431C50.3761 110.001 49.667 112.577 48.9771 115.158C48.8887 115.594 48.8396 116.036 48.8303 116.48C49.0317 115.937 49.2518 115.399 49.4176 114.845C50.0687 112.673 50.7149 110.499 51.3269 108.315C51.5285 107.596 51.6212 106.847 51.7638 106.112C51.8337 105.802 51.9037 105.493 51.9736 105.183C51.8759 105.48 51.7783 105.778 51.6808 106.076ZM56.8286 92.571C55.8529 95.5667 54.8562 98.5568 53.9637 101.578C52.7852 105.566 51.7041 109.583 50.5674 113.584C48.3233 122.053 46.7288 130.682 45.7977 139.395C44.8993 147.408 44.5434 155.473 44.7325 163.535C44.7533 165.544 44.53 167.556 44.4277 169.567C44.4027 170.058 44.4107 170.551 44.4041 171.042C45.0586 169.553 45.4487 167.961 45.5571 166.337C46.3293 160.53 47.0427 154.714 47.7935 148.904C48.3344 144.718 48.9117 140.537 49.4498 136.35C49.8995 132.852 50.3508 129.353 50.74 125.847C51.6788 118.661 53.0477 111.537 54.8392 104.515C55.7446 100.652 56.5653 96.7685 57.3912 92.8872C57.4763 92.3028 57.5123 91.7123 57.4988 91.1219C57.2432 91.5894 57.0194 92.0735 56.8286 92.571ZM64.7825 70.1102C64.7461 70.1954 64.7101 70.2805 64.6741 70.3654C64.3638 70.9044 64.0889 71.463 63.8511 72.0376C61.5089 78.4919 59.7027 85.1282 58.4509 91.8793C57.7906 95.7837 56.889 99.6564 55.9115 103.496C53.6298 111.818 52.0276 120.312 51.1207 128.893C50.9067 131.336 50.4818 133.76 50.1673 136.195C49.1832 143.811 48.2043 151.428 47.2305 159.046C47.2 159.395 47.1889 159.745 47.1973 160.095C47.4405 159.623 47.6415 159.131 47.7983 158.624C48.9856 153.533 50.1453 148.435 51.3103 143.338C51.3946 142.97 51.4352 142.59 51.5358 142.227C53.7587 134.195 54.8065 125.924 56.5141 117.788C57.874 111.31 58.909 104.779 60.0042 98.2558C60.4421 95.6474 60.999 93.0584 61.5366 90.4679C61.6112 90.1674 61.7217 89.8771 61.8658 89.6031C62.9295 83.1402 63.9007 76.6622 64.9224 70.1922L64.7825 70.1102ZM56.1616 156.358C61.7767 144.585 65.5527 132.02 67.3578 119.101C68.2814 112.181 68.6031 105.193 68.3194 98.2164C68.2983 97.7493 68.2268 97.2845 68.1734 96.8189C68.077 97.2752 67.9598 97.7287 67.8986 98.1896C66.927 105.5 66.2549 112.864 64.9323 120.11C62.9586 131.871 60.0416 143.454 56.2095 154.747C55.9084 155.594 55.7351 156.487 55.51 157.362C55.755 157.046 55.973 156.711 56.1616 156.358ZM53.3892 160.883C53.9369 159.14 54.5555 157.419 55.1719 155.699C57.6658 148.361 59.7808 140.9 61.5086 133.345C63.9292 122.91 65.7358 112.343 66.9189 101.697C67.757 95.258 67.8791 88.7459 67.2829 82.2799C66.9562 78.8974 66.8076 75.498 66.5659 72.107C66.5322 71.6353 66.4358 71.1682 66.3627 70.6994C65.962 72.5083 65.9033 74.3762 66.1896 76.2067L66.2123 76.2182C66.4294 76.8994 66.3799 77.6375 66.0739 78.2836C66.1627 78.8992 66.2167 79.52 66.2343 80.1417C65.7064 92.9908 64.379 105.794 62.2599 118.478C61.5755 123.021 60.4708 127.505 59.426 131.986C57.9803 138.186 56.4873 144.378 54.8737 150.537C52.5635 159.06 49.7474 167.438 46.4406 175.626C46.2153 176.279 46.0301 176.945 45.886 177.62C48.8236 172.247 51.3324 166.651 53.3892 160.883Z" fill="#A1A1A1"/>
</g>
</svg>
