<svg width="175" height="148" viewBox="0 0 175 148" fill="none" xmlns="http://www.w3.org/2000/svg">
<g style="mix-blend-mode:multiply" opacity="0.15">
<path d="M75.4384 27.3285C77.008 28.6076 78.6402 29.8048 80.3288 30.9155C80.9764 31.3354 81.5985 31.7946 82.1919 32.2906C87.2571 36.3911 92.0167 40.8685 96.4317 45.6858C97.7283 47.1001 99.0259 48.5137 100.343 49.9084C100.662 50.2648 101.032 50.57 101.441 50.8138C103.275 51.9013 105.228 52.7669 107.259 53.3927C108.493 53.7349 109.721 54.1017 110.949 54.4665C112.948 55.0606 114.965 55.6032 116.94 56.2718C122.085 58.0134 126.702 60.8076 131.181 63.8533C132.961 65.0292 134.63 66.3718 136.165 67.8636C141.359 73.0454 146.595 78.1856 151.71 83.4481C156.32 88.1922 161.053 92.7704 166.483 96.5471C166.625 96.6869 166.743 96.8495 166.833 97.0284C166.574 97.456 166.249 97.3971 165.922 97.3244C164.851 97.0866 163.765 96.9032 162.713 96.6001C155.789 94.7033 149.082 92.0618 142.707 88.7203C137.152 85.7931 131.886 82.3287 126.981 78.375C121.7 73.9534 116.786 69.0958 112.288 63.8516C110.006 61.2392 107.683 58.6631 105.367 56.0813C105.096 55.8125 104.806 55.5642 104.5 55.3385C104.628 55.5805 104.768 55.8155 104.921 56.0426C106.831 58.6759 108.763 61.2919 110.658 63.9365C115.636 70.8883 119.786 78.4169 123.022 86.3645C123.995 88.7373 125.425 90.8869 127.23 92.6853C130.147 95.6116 133.29 98.2942 136.629 100.707C141.531 104.285 146.389 107.92 151.064 111.807C153.993 114.274 156.758 116.936 159.341 119.775C161.145 121.726 162.845 123.772 164.435 125.907C165.911 127.897 167.205 130.02 168.303 132.249C168.859 133.377 169.308 134.561 169.78 135.73C170.515 137.554 171.2 139.399 171.958 141.213C172.763 143.29 173.718 145.302 174.818 147.234C174.907 147.455 174.968 147.687 175 147.924C174.781 147.984 174.554 148.009 174.327 147.997C174.084 147.915 173.854 147.801 173.64 147.658C166.473 143.618 159.651 138.973 153.248 133.771C148.77 130.174 144.549 126.259 140.614 122.055C138.369 119.606 136.372 116.934 134.653 114.078C132.353 110.268 130.643 106.15 128.61 102.47C128.842 103.188 129.129 104.136 129.453 105.07C130.415 107.724 131.193 110.443 131.781 113.208C132.144 115.03 132.479 116.861 132.753 118.699C132.982 119.979 133.103 121.277 133.114 122.579C133.089 126.754 132.469 130.903 131.275 134.897C130.324 137.791 129.611 140.76 129.141 143.775C129.127 143.874 129.032 143.961 128.942 144.109L128.298 144.118C128.12 143.731 127.923 143.376 127.787 142.998C127.412 141.949 127.03 140.901 126.709 139.834C125.724 136.56 124.743 133.285 123.805 129.997C123.09 127.728 122.58 125.397 122.28 123.033C121.768 117.919 121.884 112.761 122.624 107.676C122.943 105.471 123.133 103.242 123.279 101.017C123.395 99.2376 123.387 97.447 123.373 95.6619C123.394 94.4345 123.324 93.2071 123.162 91.9905C122.854 89.5865 122.078 87.2692 120.879 85.1745C120.553 84.6378 120.283 84.0651 119.985 83.5105C118.093 79.8578 116.014 76.3087 113.756 72.8781C112.669 71.337 111.665 69.7374 110.747 68.0862C108.807 64.5 106.537 61.1094 103.968 57.9599C102.045 55.5734 100.178 53.1396 98.3135 50.7047C97.738 49.889 97.0129 49.1944 96.1783 48.6591C95.34 48.1895 94.6477 47.4902 94.1798 46.6404C93.9509 46.3048 93.664 46.0144 93.3331 45.7834C92.4643 45.0434 91.5825 44.3191 90.7025 43.5928C90.5335 43.4534 90.3497 43.3325 89.9938 43.0723C90.2327 43.4784 90.3366 43.673 90.4568 43.8567C92.5646 47.1672 94.3884 50.6565 95.9079 54.2858C96.483 55.6125 96.977 56.9757 97.5069 58.3229C98.928 61.9157 99.9808 65.6485 100.649 69.4617C101.13 72.4728 101.452 75.5082 101.612 78.5546C102.011 83.078 102.009 87.6289 101.606 92.152C101.04 97.2535 100.473 102.355 99.907 107.456C99.9194 107.631 99.8843 107.806 99.8058 107.962C99.7272 108.117 99.6081 108.248 99.4615 108.34C98.8688 108.44 98.6725 107.946 98.4877 107.518C97.7664 105.85 97.0339 104.185 96.3789 102.489C94.2587 96.73 92.961 90.6912 92.5254 84.5571C91.9665 78.2172 91.8032 71.8562 91.6647 65.4953C91.6264 61.1753 91.0883 56.8751 90.0615 52.6834C89.3176 49.5324 88.2172 46.48 86.7824 43.5873C84.7682 39.5702 82.1487 35.8992 79.019 32.7075C77.1268 30.8447 75.1136 29.1137 72.993 27.5263C68.6568 24.17 64.141 21.0613 59.4665 18.2146C57.4137 16.9974 55.3344 15.832 53.3563 14.4857C52.2726 13.7481 51.1228 13.1114 50.0019 12.4303C50.2303 12.7966 50.4408 13.1765 50.694 13.524C51.4559 14.5695 52.2424 15.5965 53.0072 16.6398C55.4177 19.9283 57.3151 23.5451 59.3972 27.043C60.7771 29.3711 61.9324 31.8296 62.847 34.3844C64.2564 38.2976 65.5696 42.2468 66.9141 46.1841C68.2189 50.0995 69.0676 54.1574 69.4427 58.2744C69.9153 62.231 69.9152 66.2314 69.4423 70.1879C68.9258 73.908 68.2914 77.6113 67.7076 81.3217C67.6961 81.4702 67.6645 81.6164 67.6138 81.7561C67.5094 81.9806 67.3698 82.1883 67.2793 82.344C67.0934 82.4204 66.8861 82.4228 66.6986 82.3506C66.5111 82.2785 66.3572 82.1371 66.2673 81.9546C66.1185 81.6988 65.9878 81.4325 65.8763 81.1578C64.7685 78.7281 63.7145 76.2713 62.5454 73.8728C60.1835 69.123 58.1909 64.192 56.5857 59.1251C55.8847 56.8524 55.1678 54.5841 54.5172 52.2964C54.1009 50.8327 53.7451 49.3469 53.4459 47.8536C52.8103 44.6822 52.2062 41.5043 51.6336 38.3199C51.0839 35.2457 50.4955 32.1732 50.1045 29.0762C49.5333 24.3446 48.4601 19.69 46.9037 15.1939C46.2054 13.2345 45.3622 11.3318 44.3814 9.50211C43.907 8.57013 43.1351 7.83048 42.1926 7.40506C41.7265 7.19053 41.2691 6.95566 40.8123 6.72076C39.4423 6.01593 38.0686 5.31821 36.7074 4.59612C35.1193 3.75376 33.5657 2.84101 31.9572 2.04207C26.8265 -0.506499 21.8572 -3.34836 17.0032 -6.40227C12.0909 -9.49274 7.21525 -12.6464 2.04274 -15.2822C1.75877 -15.4129 1.50377 -15.6008 1.29314 -15.8347C1.0825 -16.0685 0.920605 -16.3435 0.817229 -16.6428C0.68486 -16.9454 0.532641 -17.2385 0.361601 -17.5202C0.226346 -17.7788 0.107207 -18.0458 0.00488617 -18.3196C-0.0220904 -18.3961 0.0689547 -18.5158 0.123309 -18.6626C0.448312 -18.6096 0.762717 -18.5584 1.05207 -18.5112C1.38803 -18.7995 1.80572 -18.9708 2.24409 -19C2.48078 -18.7519 2.76725 -18.4737 3.02939 -18.1734C4.7228 -16.2145 6.70788 -14.5386 8.91203 -13.2071C11.368 -11.7365 13.8935 -10.3842 16.4098 -9.02064C21.3792 -6.32761 26.3409 -3.61821 31.3476 -0.998515C35.8699 1.36757 40.2994 3.90108 44.6864 6.50958C50.9696 10.2457 57.0899 14.251 63.1295 18.3825C64.0668 19.0336 65.1009 19.5271 66.192 19.844C66.8254 20.0248 67.4585 20.2099 68.0991 20.3601C71.754 21.107 75.4601 21.5651 79.1843 21.7304C82.7478 21.992 86.3398 21.8472 89.9192 21.89C92.1471 21.9166 94.3758 21.9297 96.6023 22.0037C99.0508 22.0963 101.486 22.4146 103.878 22.9546C109.709 24.2159 115.442 25.9035 121.035 28.0042C124.971 29.5008 128.853 31.1481 132.737 32.784C134.491 33.523 136.191 34.3965 137.913 35.2132C138.17 35.335 138.483 35.4258 138.401 35.8425C138.146 36.1835 137.762 36.1329 137.406 36.1643C132.82 36.5679 128.233 36.9519 123.65 37.3778C114.046 38.2236 104.372 37.1559 95.1684 34.2343C89.9019 32.5424 84.7751 30.4289 79.8359 27.9136C76.4871 26.2593 73.1385 24.6048 69.79 22.95C70.086 23.2144 70.3674 23.4989 70.6821 23.738C72.264 24.9398 73.8699 26.1092 75.4384 27.3285ZM130.544 97.3808C130.645 97.6013 130.768 97.8104 130.913 98.0043C131.887 99.1095 132.85 100.227 133.871 101.288C134.994 102.456 136.169 103.571 137.334 104.697C137.605 104.936 137.889 105.159 138.184 105.367C138.576 105.8 138.938 106.266 139.366 106.659C142.807 109.815 146.28 112.934 149.702 116.109C151.261 117.555 152.786 119.038 154.276 120.555C154.292 120.532 154.314 120.513 154.338 120.499C154.363 120.486 154.39 120.478 154.418 120.476C154.446 120.474 154.474 120.479 154.5 120.489C154.525 120.5 154.549 120.516 154.568 120.537C160.11 126.569 165.355 132.846 170.304 139.368C168.98 136.365 167.251 133.565 165.166 131.05C163.678 129.373 162.308 127.587 160.853 125.877C158.654 123.27 156.302 120.802 153.81 118.484C153.79 118.477 153.771 118.467 153.755 118.454C150.446 115.692 147.143 112.924 143.846 110.148C142.248 108.806 140.674 107.448 139.138 106.047C139.073 105.998 139.012 105.942 138.957 105.881C138.782 105.72 138.608 105.559 138.434 105.398L138.192 105.356C137.987 105.101 137.799 104.831 137.576 104.595C137.556 104.574 137.535 104.553 137.515 104.532C136.596 103.656 135.692 102.763 134.81 101.841C133.608 100.584 132.437 99.3007 131.297 97.9912C131.049 97.7835 130.795 97.5836 130.544 97.3808ZM166.044 129.703C163.132 125.238 159.79 121.08 156.067 117.291C154.437 115.69 152.724 114.179 150.936 112.763C145.627 108.381 140.149 104.224 134.549 100.232C133.915 99.7804 133.281 99.328 132.647 98.8752C134.656 100.997 136.657 103.127 138.794 105.117C141.906 108.016 145.238 110.684 148.478 113.433C149.844 114.592 151.208 115.754 152.57 116.918C152.632 116.971 152.694 117.023 152.755 117.076C153.16 117.422 153.566 117.767 153.972 118.112C154.013 118.147 154.04 118.198 154.046 118.253C156.854 120.819 159.481 123.583 161.907 126.526C163.066 127.963 164.26 129.371 165.473 130.761C166.878 132.378 168.096 134.154 169.1 136.055C169.369 136.559 169.648 137.057 169.95 137.543C168.904 134.805 167.595 132.179 166.044 129.703ZM172.295 144.314C171.269 142.557 170.063 140.917 168.696 139.42C167.216 137.729 165.75 136.025 164.274 134.331C163.741 133.72 163.218 133.098 162.652 132.521C159.224 129.026 155.79 125.539 152.348 122.059C151.951 121.657 151.544 121.265 151.137 120.874C151.11 120.883 151.082 120.884 151.054 120.877C151.027 120.87 151.003 120.856 150.983 120.836C146.374 116.297 141.748 111.762 137.299 107.057C137.009 106.794 136.721 106.53 136.432 106.267C136.652 106.615 136.855 106.976 137.104 107.3C139.692 110.66 142.534 113.799 145.304 117C147.303 119.31 149.189 121.726 151.246 123.979C151.496 124.253 151.751 124.522 152.003 124.794C152.038 124.8 152.07 124.817 152.096 124.842C154.927 127.7 157.756 130.559 160.585 133.42C163.36 136.241 166.115 139.089 169.019 141.775C170.178 142.847 171.362 143.891 172.549 144.93C172.524 144.704 172.436 144.49 172.295 144.314ZM172.623 145.529L172.589 145.417C170.006 143.25 167.449 141.054 165.075 138.647C164.099 137.658 163.127 136.667 162.156 135.672C162.076 135.619 162.002 135.559 161.933 135.491C158.88 132.353 155.799 129.241 152.784 126.065C152.466 125.738 152.147 125.411 151.829 125.084C151.808 125.063 151.794 125.037 151.786 125.009C151.557 124.765 151.324 124.524 151.096 124.279C148.836 121.852 146.819 119.195 144.603 116.723C139.478 111.004 134.742 104.956 129.975 98.933C129.288 98.0652 128.58 97.2151 127.881 96.3568C127.97 96.1674 127.945 96.0164 127.741 95.9263C127.606 95.7424 127.472 95.5585 127.338 95.3747L127.283 95.6046C127.562 96.2608 127.815 96.9284 128.044 97.6075C129.716 100.306 131.377 103.014 133.1 105.679C133.827 106.805 134.608 107.895 135.39 108.983C139.043 113.539 142.883 117.944 146.861 122.203C152.079 127.807 157.601 133.109 163.4 138.085C166.238 140.514 169.112 142.906 172.035 145.23L172.623 145.529ZM170.711 144.866C170.932 145.001 171.16 145.124 171.388 145.247C165.943 141.065 160.718 136.594 155.735 131.853C150.185 126.608 144.921 121.056 139.968 115.224C138.804 113.852 137.667 112.457 136.544 111.05C136.436 110.936 136.333 110.815 136.238 110.69C136.186 110.621 136.138 110.55 136.087 110.481C134.675 108.701 133.289 106.9 131.927 105.079C131.904 105.049 131.892 105.011 131.893 104.972C131.895 104.934 131.909 104.897 131.935 104.868C130.865 103.364 129.822 101.837 128.83 100.277C129.038 100.748 129.25 101.217 129.477 101.678C132.188 107.243 135.509 112.477 139.376 117.281C140.678 118.884 142.025 120.449 143.343 122.038C143.357 122.055 143.367 122.075 143.38 122.092C144.049 122.775 144.724 123.451 145.39 124.129C146.879 125.645 148.395 127.133 149.937 128.593C152.557 131.073 155.246 133.474 157.959 135.849C162.044 139.09 166.301 142.101 170.711 144.866ZM132.561 108.951C133.306 110.399 134.165 111.786 134.959 113.208C136.412 115.751 138.145 118.117 140.125 120.26C143.92 124.444 148.025 128.325 152.402 131.87C152.627 132.032 152.864 132.177 153.109 132.305C151.956 131.254 150.819 130.186 149.697 129.101C148.151 127.596 146.633 126.062 145.143 124.5C143.626 122.91 142.209 121.23 140.704 119.632C140.683 119.612 140.669 119.584 140.666 119.555C140.663 119.525 140.67 119.495 140.686 119.471C139.748 118.307 138.849 117.109 137.925 115.933C135.04 112.231 132.502 108.262 130.343 104.079C130.256 103.94 130.153 103.813 130.036 103.7C130.873 105.453 131.673 107.225 132.561 108.951ZM129.977 103.588L129.705 102.746L129.534 102.827L129.977 103.588ZM127.195 95.3969L127.324 95.3531C127.124 95.022 126.92 94.6852 126.685 94.2951C126.862 94.6587 127.033 95.0254 127.195 95.3969ZM126.107 92.9048C127.009 94.1589 127.956 95.3806 128.835 96.6518C130.444 98.9465 132.2 101.131 134.091 103.19C134.129 103.173 134.171 103.169 134.211 103.178C134.251 103.186 134.287 103.208 134.315 103.238C137.379 106.426 140.417 109.639 143.487 112.82C145.209 114.564 146.928 116.31 148.645 118.058C148.683 118.097 148.714 118.143 148.75 118.185C149.073 118.508 149.397 118.83 149.723 119.15C149.823 119.217 149.918 119.293 150.005 119.377C154.305 123.655 158.599 127.94 162.888 132.23C163.148 132.489 163.398 132.761 163.639 133.038C165.764 135.483 167.895 137.923 170.004 140.382C170.637 141.12 171.208 141.912 171.883 142.628C171.644 142.141 171.405 141.654 171.165 141.167C166.822 135.44 162.275 129.868 157.527 124.452C154.072 120.825 150.525 117.298 146.824 113.923C142.878 110.326 138.934 106.724 135.105 102.991C132.149 100.058 129.42 96.8951 126.945 93.5313C126.519 93.009 126.068 92.5088 125.594 92.0325C125.749 92.3327 125.92 92.6239 126.107 92.9048ZM130.925 134.473C131.253 133.505 131.518 132.516 131.719 131.513C132.247 128.812 132.548 126.07 132.619 123.318C132.624 121.792 132.456 120.271 132.118 118.785C131.663 116.679 131.328 114.544 130.83 112.449C130.423 110.735 129.854 109.06 129.356 107.368L129.234 107.406C129.657 109.211 130.08 111.017 130.503 112.823C131.01 115.032 131.307 117.286 131.39 119.553C131.62 124.086 131.455 128.63 130.897 133.134C130.853 133.465 130.838 133.8 130.819 134.134C130.841 134.251 130.877 134.365 130.925 134.473ZM129.624 138.874C129.955 137.883 130.203 136.865 130.365 135.832C130.616 132.759 130.969 129.687 131.058 126.609C131.261 122.747 131.083 118.875 130.529 115.049C130.246 113.367 129.837 111.706 129.453 110.043C129.028 108.201 128.6 106.357 128.107 104.533C127.746 103.244 127.307 101.978 126.793 100.744C126.915 101.124 127.052 101.5 127.158 101.884C127.554 103.314 127.976 104.738 128.315 106.182C128.48 107.019 128.599 107.864 128.672 108.714C128.88 110.446 129.096 112.178 129.269 113.914C129.413 115.353 129.538 116.796 129.6 118.241C129.669 119.836 129.702 121.436 129.669 123.032C129.628 125.036 129.568 127.044 129.402 129.04C129.202 132.267 129.22 135.504 129.457 138.728C129.458 138.753 129.509 138.776 129.624 138.874ZM129.075 140.302C129.069 139.262 129.05 138.22 128.974 137.183C128.768 134.068 128.797 130.94 129.062 127.83C129.208 125.944 129.198 124.045 129.227 122.152C129.246 120.963 129.2 119.774 129.196 118.585C129.199 116.838 129.063 115.094 128.791 113.369C128.565 111.976 128.414 110.571 128.338 109.161C128.181 106.814 127.621 104.514 126.685 102.363C126.727 102.852 126.775 103.34 126.81 103.829C127.256 110.054 127.767 116.273 127.615 122.529C127.559 124.825 127.806 127.128 127.92 129.428C128.103 133.138 128.288 136.849 128.476 140.559C128.499 140.998 128.541 141.435 128.574 141.874C128.769 141.667 128.915 141.418 129.001 141.146C129.088 140.874 129.113 140.585 129.075 140.302ZM126.058 128.76C125.735 126.819 125.55 124.856 125.505 122.887C125.459 121.18 125.324 119.475 125.261 117.768C125.197 116.025 125.104 114.279 125.148 112.537C125.233 109.227 125.092 105.927 124.892 102.628C124.85 102.246 124.782 101.868 124.69 101.497C124.659 102.065 124.59 102.635 124.613 103.2C124.743 106.096 124.669 108.997 124.39 111.882C124.326 112.511 124.295 113.142 124.297 113.774C124.309 116.559 124.285 119.347 124.388 122.129C124.479 123.537 124.661 124.936 124.933 126.319C125.298 128.477 125.71 130.627 126.129 132.775C126.355 133.933 126.637 135.081 126.963 136.219C126.785 133.713 126.478 131.23 126.058 128.76ZM124.089 99.2449C124.11 103.09 123.463 106.869 123.047 110.673C122.436 115.853 122.69 121.102 123.799 126.196C124.411 128.968 125.205 131.694 126.176 134.358C125.504 130.936 124.849 127.783 124.279 124.614C124.089 123.442 123.986 122.257 123.971 121.069C123.907 118.952 123.885 116.833 123.905 114.714C123.92 113.266 124.003 111.816 124.125 110.373C124.297 108.374 124.353 106.366 124.293 104.359C124.251 103.06 124.284 101.758 124.26 100.458C124.251 99.9951 124.179 99.5332 124.133 99.0706C124.109 99.1258 124.094 99.1847 124.089 99.2449ZM125.592 112.179C125.609 114.036 125.687 115.893 125.757 117.749C125.819 119.421 125.947 121.09 125.976 122.762C126.059 125.215 126.31 127.659 126.726 130.076C127.028 132.021 127.202 133.986 127.456 135.94C127.559 136.794 127.744 137.636 128.007 138.454C128.013 138.168 128.04 137.882 128.023 137.598C127.846 134.666 127.689 131.734 127.47 128.806C127.257 126.398 127.169 123.981 127.206 121.564C127.269 116.916 127.094 112.268 126.681 107.639C126.517 104.519 126.157 101.414 125.605 98.3415C125.436 97.5037 125.301 96.6566 125.082 95.8325C124.982 95.4972 124.851 95.1723 124.691 94.8619C124.724 95.4416 124.756 96.021 124.786 96.6001C124.79 96.6324 124.786 96.6651 124.776 96.696C124.767 96.7269 124.751 96.7554 124.729 96.7795C124.708 96.8036 124.682 96.8228 124.652 96.8359C124.623 96.849 124.592 96.8556 124.56 96.8553C124.627 98.1132 124.862 99.352 125.004 100.602C125.4 104.448 125.596 108.312 125.592 112.179ZM120.688 83.7866C120.631 83.2366 120.534 82.9392 120.256 82.7418C120.372 83.0219 120.491 83.3101 120.688 83.7866ZM120.216 82.6749L119.935 81.8053C119.899 81.9626 119.906 82.1268 119.956 82.2801C120.006 82.4334 120.095 82.57 120.216 82.6749ZM118.809 80.1632C118.786 79.6899 118.688 79.4667 118.476 79.3044C118.561 79.5245 118.651 79.7541 118.809 80.1632ZM112.062 69.1627C114.14 72.4385 116.377 75.6105 118.228 79.033C118.286 79.1149 118.357 79.1864 118.438 79.2448C117.818 77.3981 116.944 75.6507 115.84 74.0554C114.447 72.0677 113.097 70.0485 111.719 68.0498C111.555 67.8379 111.374 67.6394 111.179 67.4561C111.468 68.0286 111.721 68.6247 112.062 69.1627ZM135.609 68.7146C134.073 67.2305 132.409 65.8903 130.638 64.7104C126.609 61.8172 122.248 59.4357 117.652 57.6186C115.767 56.9281 113.829 56.3878 111.91 55.7956C111.636 55.7346 111.358 55.6996 111.078 55.6911C112.174 56.1697 113.274 56.6414 114.366 57.1292C115.601 57.6807 116.859 58.1886 118.055 58.8173C122.169 60.98 126.346 63.0303 130.251 65.5823C132.031 66.7453 133.792 67.9384 135.565 69.1125C135.801 69.2688 136.057 69.3953 136.303 69.5347C136.074 69.2595 135.863 68.9644 135.609 68.7146ZM161.242 93.3206C158.909 91.2859 156.28 89.6598 153.843 87.7655C152.167 86.5071 150.563 85.1522 149.039 83.7075C148.802 83.4754 148.577 83.229 148.323 83.0167C143.758 79.1869 139.455 75.0313 134.616 71.5398C134.28 71.2665 133.963 70.9719 133.664 70.6578C133.96 70.7764 134.246 70.9179 134.521 71.081C136.984 72.8111 139.35 74.6803 141.608 76.68C142.795 77.7241 144.018 78.7255 145.206 79.7682C146.725 81.1017 148.205 82.4813 149.739 83.7971C151.3 85.1365 152.903 86.4249 154.494 87.7277C154.632 87.8211 154.782 87.8967 154.939 87.9528C154.786 87.7208 154.616 87.5005 154.432 87.2938C150.288 83.1461 146.139 79.004 141.985 74.8673C141.359 74.2454 140.679 73.6762 139.998 73.116C135.514 69.4643 130.742 66.1959 125.73 63.3438C125.38 63.1423 125.031 62.9374 124.674 62.7508C122.201 61.4612 119.727 60.1754 117.251 58.8936C116.536 58.526 115.796 58.2098 115.042 57.8582C114.962 57.9936 114.911 58.0791 114.861 58.1647C114.535 58.0214 114.202 57.895 113.886 57.7322C112.278 56.9023 110.676 56.06 109.067 55.2322C108.915 55.1718 108.756 55.1318 108.593 55.1131C108.847 55.3539 109.116 55.5762 109.4 55.7782C111.98 57.3956 114.524 59.0795 117.166 60.5853C120.29 62.3608 123.304 64.3288 126.193 66.4783C127.754 67.6423 129.321 68.797 130.895 69.9424C133.126 71.5641 135.217 73.3599 137.312 75.1562C140.047 77.5016 142.841 79.7771 145.628 82.0605C148.3 84.2506 150.947 86.4782 153.695 88.5661C155.975 90.2981 158.38 91.8599 160.745 93.474C161.139 93.7042 161.553 93.8997 161.98 94.0586C161.736 93.8102 161.503 93.5484 161.242 93.3206ZM142.315 84.433C140.654 82.8757 138.998 81.3118 137.328 79.7641C136.547 79.0394 135.691 78.3921 134.948 77.6301C132.348 74.9654 129.532 72.5476 126.758 70.0808C126.296 69.6603 125.809 69.2689 125.299 68.9086C121.587 66.3446 117.976 63.6244 114.104 61.3057C113.541 60.9685 112.95 60.6788 112.372 60.3672C112.198 60.2435 112.024 60.1197 111.85 59.9959C112.009 60.1469 112.167 60.2979 112.326 60.4489C112.585 60.7063 112.829 60.9827 113.107 61.2183C117.756 65.1691 122.367 69.167 127.072 73.047C131.779 76.9279 136.64 80.608 141.603 84.1445C141.819 84.2797 142.042 84.401 142.273 84.5078C142.515 84.6636 142.757 84.8196 142.999 84.9756L142.315 84.433ZM143.248 84.4659C146.56 86.8319 150.026 88.9669 153.622 90.8563C153.764 90.9273 153.91 90.9891 154.055 91.0537C153.835 90.8467 153.601 90.6552 153.355 90.4804C151.935 89.5684 150.524 88.6374 149.073 87.7781C145.676 85.7345 142.48 83.3623 139.53 80.6945C137.882 79.2262 136.205 77.7907 134.531 76.3529C134.291 76.1701 134.036 76.0076 133.77 75.8668C133.972 76.1452 134.193 76.4091 134.43 76.6564C135.393 77.5621 136.372 78.4506 137.352 79.3378C138.441 80.3237 139.528 81.3116 140.632 82.2792C141.461 83.0598 142.334 83.79 143.248 84.4659ZM135.74 76.8935C137.351 78.2941 138.959 79.6975 140.565 81.1038C143.05 83.2989 145.723 85.2614 148.554 86.9677C150.818 88.3298 153.044 89.7569 155.301 91.131C156.021 91.5691 156.778 91.9473 157.534 92.3178C157.854 92.4508 158.185 92.5579 158.522 92.6384C158.277 92.3908 158.015 92.1617 157.738 91.953C154.297 89.6275 150.99 87.1005 147.836 84.3849C144.888 81.8851 141.881 79.4577 138.899 76.9983C138.616 76.764 138.322 76.5406 138.051 76.2911C133.216 71.8285 127.828 68.1035 122.482 64.335C120.296 62.7942 117.887 61.5822 115.577 60.2257C115.488 60.1865 115.394 60.1622 115.299 60.1536C115.508 60.3882 115.732 60.6086 115.97 60.8135C118.702 62.9307 121.438 65.0425 124.178 67.1489C128.168 70.2295 131.934 73.5856 135.74 76.8935ZM162.842 95.8694C163.373 96.054 163.932 96.1409 164.493 96.1258C164.329 96.0306 164.165 95.934 163.999 95.8403C161.883 94.6634 159.689 93.6369 157.433 92.7681C157.093 92.634 156.77 92.452 156.442 92.2853C158.397 93.7844 160.552 94.9913 162.842 95.8694ZM112.7 63.7413C120.548 73.1581 130.039 81.0157 140.693 86.9175C143.141 88.2486 145.654 89.4566 148.147 90.7022C148.491 90.8458 148.847 90.9582 149.21 91.038C148.895 90.8301 148.589 90.6044 148.259 90.4272C146.806 89.6485 145.348 88.8793 143.885 88.1195C141.224 86.7238 138.666 85.1334 136.231 83.3608C134.476 82.0906 132.7 80.8492 130.978 79.5351C129.257 78.2214 127.568 76.8609 125.905 75.471C123.65 73.5857 121.381 71.7114 119.213 69.7242C117.019 67.7127 114.942 65.5681 112.811 63.4856C112.542 63.2228 112.254 62.9797 111.973 62.7294C112.211 63.0702 112.432 63.4268 112.7 63.7413ZM109.262 59.014C110.671 60.5714 112.204 62.0084 113.844 63.3106C115.376 64.5703 116.876 65.8708 118.371 67.1758C123.771 71.8905 129.2 76.5692 134.995 80.781C136.537 81.9019 138.17 82.8925 139.754 83.9552C140.111 84.195 140.436 84.486 140.776 84.7535C140.503 84.6751 140.237 84.5743 139.98 84.4522C137.712 83.1809 135.54 81.738 133.484 80.1357C132.594 79.4274 131.693 78.7304 130.774 78.0622C128.486 76.3994 126.395 74.4917 124.22 72.6869C120.999 70.013 117.921 67.1727 114.734 64.4604C114.403 64.2098 114.055 63.9835 113.692 63.7833C113.831 63.9777 113.981 64.1635 114.142 64.3398C116.448 66.7255 118.876 68.9869 121.414 71.1146C122.41 71.9304 123.394 72.7642 124.341 73.6382C127.903 76.7804 131.638 79.7137 135.527 82.4237C138.728 84.7756 142.121 86.8451 145.667 88.6099C148.229 89.8794 150.756 91.2208 153.311 92.5047C153.764 92.6967 154.232 92.8534 154.708 92.9733L154.385 92.6394C154.729 92.7266 155.067 92.8351 155.399 92.9642C156.56 93.4941 157.71 94.047 158.864 94.5922C158.498 94.2957 158.111 94.0277 157.706 93.7904C156.173 93.0002 154.612 92.2679 153.077 91.4818C148.652 89.254 144.412 86.6617 140.4 83.7308C136.323 80.7085 132.29 77.624 128.269 74.5247C126.872 73.4481 125.573 72.2406 124.221 71.1022C119.321 66.9747 114.419 62.8509 109.513 58.7306C109.235 58.5216 108.944 58.3313 108.642 58.1609C108.834 58.4558 109.041 58.7405 109.262 59.014ZM104.516 53.8192C105.532 54.6609 106.586 55.454 107.614 56.2816C109.421 57.718 111.307 59.0498 113.261 60.2709C115.669 61.7983 118.014 63.4284 120.392 65.0057C120.699 65.2093 121.032 65.3714 121.356 65.5484C121.152 65.3271 120.934 65.119 120.705 64.9252C118.533 63.2421 116.351 61.5718 114.179 59.8882C113.965 59.6982 113.764 59.4931 113.577 59.2744L113.584 59.2722C113.258 59.1429 112.942 58.9864 112.641 58.8044C111.001 57.6358 109.361 56.4659 107.751 55.256C106.817 54.484 105.758 53.8843 104.621 53.4839C104.248 53.3699 103.894 53.1892 103.531 53.0368C103.7 53.4977 104.193 53.5516 104.516 53.8192ZM104.781 57.9812C105.645 59.1283 106.516 60.2705 107.392 61.4076C107.476 61.5045 107.567 61.5933 107.666 61.6731C107.442 61.2397 107.196 60.8182 106.93 60.4099C106.384 59.6391 105.81 58.8878 105.221 58.1504C104.995 57.8998 104.75 57.668 104.488 57.4569C104.571 57.6395 104.67 57.8148 104.781 57.9812ZM104.002 56.7923L103.318 55.9736C103.434 56.326 103.679 56.6193 104.002 56.7923ZM103.219 55.8219C102.705 54.8003 101.966 53.9134 101.06 53.2304C101.78 54.0943 102.5 54.9581 103.219 55.8219ZM87.9591 43.4422C88.0663 43.73 88.1735 44.0178 88.2807 44.3057C88.311 44.1455 88.2969 43.98 88.2401 43.8275C88.1834 43.675 88.0861 43.5416 87.9591 43.4422ZM95.0799 71.2997C95.2264 73.6359 95.2029 75.9645 95.1367 78.2988C95.1602 78.4657 95.1742 78.6337 95.1786 78.8023C95.2749 83.0779 95.6872 87.3401 96.4119 91.5528C96.8618 94.3015 97.3873 97.0375 97.8874 99.7775C97.9379 100.037 98.0468 100.281 98.2056 100.491C98.1889 100.35 98.1743 100.209 98.1555 100.069C97.8683 97.556 97.8262 95.0206 98.0298 92.4996C98.0961 91.3892 98.0283 90.2705 98.0181 89.1556C98.0007 87.2601 97.9677 85.3647 97.9649 83.4692C98.0408 80.6436 97.9233 77.8162 97.6131 75.0073C97.3062 72.7987 96.9603 70.5956 96.6608 68.386C96.5062 67.2454 96.4343 66.0933 96.2865 64.9516C96.2153 64.3987 96.0953 63.8534 95.9278 63.3225C95.3217 61.4108 94.7318 59.4916 94.0462 57.6091C93.5506 56.3344 92.9884 55.0876 92.3619 53.874C93.1149 56.8466 93.6784 59.8656 94.049 62.9121C94.0759 62.923 94.0994 62.941 94.1171 62.9644C94.1347 62.9877 94.1458 63.0155 94.1493 63.0447C94.599 65.7782 94.9096 68.5335 95.0799 71.2997ZM88.7578 45.2416C89.3842 46.603 90.0105 47.9643 90.6369 49.3256C90.2264 47.8717 89.5922 46.4933 88.7578 45.2416ZM100.02 102.62C100.056 102.514 100.073 102.403 100.073 102.291C100.625 97.3757 101.287 92.4708 101.459 87.518C101.494 84.169 101.319 80.8212 100.936 77.4948C100.711 75.0148 100.428 72.5365 100.06 70.0745C99.4382 66.1764 98.3715 62.3657 96.8819 58.7195C96.376 57.4428 95.8929 56.1556 95.3513 54.8947C93.7823 51.166 91.912 47.5763 89.7596 44.1628C88.9613 42.917 88.1835 41.6575 87.3897 40.4087C87.2983 40.2792 87.1963 40.1579 87.0847 40.046C87.7579 41.2892 88.4067 42.5471 89.1131 43.7706C91.1483 47.2954 93.0537 50.8903 94.7457 54.5984C95.8993 57.1284 96.8034 59.7688 97.4444 62.4808C97.7525 63.7806 98.0962 65.072 98.4394 66.3628C99.0773 68.9594 99.4856 71.6089 99.6595 74.2797C99.8249 76.2379 99.8479 78.2091 99.9129 80.1752C99.9474 81.2143 99.9242 82.2552 99.9478 83.2947C99.9745 84.4667 99.9479 85.6346 99.8824 86.803C100.168 92.1679 100.157 97.545 99.8495 102.909C99.9121 102.816 99.9692 102.72 100.02 102.62ZM99.3827 104.629C99.5356 101.013 99.6025 97.3968 99.6041 93.7791L99.5996 93.8358L99.5977 93.8352C99.3466 92.5606 99.2527 91.259 99.3183 89.9608C99.3171 89.5513 99.3427 89.1423 99.3949 88.7363C99.4516 88.2075 99.499 87.6786 99.537 87.1495C99.5341 87.0022 99.5324 86.8549 99.5292 86.7076C99.5282 86.6873 99.5312 86.6671 99.5379 86.6479C99.5447 86.6288 99.5551 86.6112 99.5685 86.5962C99.7355 83.0754 99.6892 79.5475 99.4297 76.0325C99.2497 72.2378 98.6437 68.4765 97.6233 64.8222C97.0298 62.7899 96.468 60.7481 95.8692 58.7174C95.007 56.1062 93.9131 53.5803 92.6011 51.1711C91.7212 49.4209 90.7786 47.7013 89.7735 46.0123C89.7797 46.1145 89.7967 46.2157 89.8242 46.3142C90.7085 48.5565 91.5849 50.8023 92.4882 53.0367C93.2944 55.0309 94.1743 56.995 94.9424 59.0038C95.8125 61.1366 96.434 63.3659 96.7943 65.6461C97.2057 68.6662 97.598 71.689 98.0142 74.7085C98.3335 77.5176 98.4582 80.3461 98.3872 83.1731C98.3852 85.1067 98.423 87.0405 98.4192 88.9741C98.4158 90.7214 98.4125 92.4699 98.349 94.2155C98.2759 95.8135 98.3247 97.4148 98.4951 99.0051C98.6193 100.076 98.6967 101.153 98.7656 102.229C98.8467 103.057 99.055 103.867 99.3827 104.629ZM99.3101 106.16C99.3227 105.904 99.3359 105.647 99.3476 105.391C99.2747 105.151 99.1843 104.916 99.0772 104.689C99.0136 104.938 99.0014 105.196 99.0415 105.45C99.0816 105.703 99.1731 105.945 99.3101 106.16ZM92.6649 66.9414C92.8019 72.5161 93.0183 78.0882 93.4735 83.6482C93.7251 86.7619 94.2117 89.8513 94.9289 92.889C95.4254 94.9838 95.9517 97.0752 96.5756 99.1332C97.0789 100.699 97.6807 102.23 98.3771 103.716C98.3823 103.439 98.3697 103.161 98.3392 102.885C98.2712 102.482 98.1557 102.089 98.0641 101.69C97.0894 97.4561 96.3198 93.1802 95.6724 88.8843C95.1244 85.396 94.8539 81.8685 94.8636 78.3359C94.8748 78.129 94.9092 77.924 94.9662 77.7251C94.9302 75.6032 94.822 73.4758 94.6585 71.3524C94.4549 70.3852 94.3389 69.401 94.3119 68.4122C94.2431 67.2122 94.133 66.0182 93.9958 64.8282C93.9258 64.2599 93.8536 63.6923 93.7793 63.1257L93.7796 63.1196C93.5076 61.1613 93.1639 59.2137 92.7769 57.2734C92.2649 54.4285 91.3597 51.6718 90.0883 49.0855C90.1036 49.3207 90.1347 49.5545 90.1816 49.7853C91.7936 55.3574 92.6296 61.1325 92.6649 66.9414ZM87.8379 43.205C87.7135 42.8728 87.6607 42.5003 87.3361 42.2809C87.5033 42.589 87.6706 42.897 87.8379 43.205ZM84.2652 37.0983C84.924 38.2665 85.7379 39.3365 86.684 40.2781C86.4803 39.4273 86.0677 38.6431 85.4848 37.9991C85.2502 37.7209 85.0588 37.4049 84.8238 37.127C84.5743 36.8035 84.249 36.549 83.8778 36.387C84.0061 36.6246 84.1192 36.8725 84.2652 37.0983ZM80.9308 33.972C81.7199 34.8953 82.5142 35.814 83.3137 36.7281C83.4844 36.9059 83.6647 37.0738 83.8538 37.2312C83.6257 36.1959 83.0277 35.2841 82.176 34.6731C81.6469 34.2805 81.1205 33.8845 80.593 33.4899C80.6961 33.6573 80.8089 33.8182 80.9308 33.972ZM1.70785 -17.4202C1.84626 -17.1918 2.03016 -16.9955 2.24768 -16.8439C2.46519 -16.6923 2.7115 -16.5889 2.9707 -16.5402C2.66183 -16.9729 2.21576 -17.2837 1.70785 -17.4202ZM2.12696 -18.0519C2.32101 -17.4566 2.75055 -17.3251 3.12685 -17.1363C3.03415 -17.3528 2.89692 -17.5466 2.72444 -17.7046C2.55195 -17.8625 2.34821 -17.981 2.12696 -18.0519ZM3.66695 -15.9989L4.46613 -15.4362C4.3837 -15.5857 4.26888 -15.7141 4.1304 -15.8116C3.99191 -15.9091 3.8334 -15.9732 3.66695 -15.9989ZM32.7782 1.48512C31.4944 0.766712 30.1284 0.200704 28.7962 -0.428343C28.9794 -0.235997 29.1826 -0.0646083 29.4022 0.0827974C31.5396 1.28464 33.6831 2.47537 35.8327 3.65498C35.9856 3.72127 36.1461 3.76795 36.3104 3.7939C35.1372 3.01638 34.0015 2.16968 32.7782 1.48512ZM36.3659 3.82439C36.8312 4.28428 37.3913 4.63278 38.0054 4.84463C37.5468 4.37598 36.9846 4.02615 36.3659 3.82439ZM65.2969 43.3743C64.1314 40.052 63.0263 36.7052 61.7664 33.4201C60.5745 30.383 59.0734 27.4813 57.2878 24.7627C56.8045 24.0138 56.2933 23.2838 55.7938 22.5461C55.8886 22.7973 55.9992 23.042 56.1249 23.2787C58.2355 26.925 60.0678 30.7311 61.6058 34.6633C62.9159 37.9647 64.2571 41.2585 65.6294 44.5448C65.5196 44.1543 65.4308 43.7561 65.2969 43.3743ZM51.0181 28.6836C51.1585 29.7036 51.2728 30.7282 51.4437 31.743C52.2764 36.6891 53.0749 41.642 53.9887 46.5728C54.4144 48.8696 55.0133 51.1392 55.6448 53.3888C56.2666 55.6045 57.0268 57.7799 57.7299 59.9718C59.018 63.7686 60.5667 67.4685 62.3647 71.0441C63.4403 73.2764 64.54 75.4968 65.7061 77.6943C65.5298 77.1487 65.3896 76.5877 65.1709 76.0604C64.3476 74.0761 63.4972 72.1034 62.6602 70.1249C62.2705 69.2037 61.8791 68.2831 61.5041 67.3557C59.6899 62.8071 58.1072 58.1664 56.7623 53.4519C56.5556 52.7405 56.4533 51.9983 56.2646 51.2807C55.6415 48.9116 54.9606 46.5573 54.3823 44.1772C54.041 42.7734 53.8279 41.3352 53.5983 39.9058C53.0323 36.2328 52.2662 32.5949 51.3035 29.0086C51.2691 28.8836 51.2245 28.7615 51.1846 28.638L51.0181 28.6836ZM44.809 9.22491C45.1128 9.80621 45.4022 10.3958 45.7242 10.9664C47.3186 13.8155 48.5335 16.8681 49.3369 20.0438C50.1722 23.2816 50.8791 26.5514 51.9212 29.7365C52.8519 32.8725 53.5368 36.0786 53.9697 39.3249C54.36 42.0862 54.9505 44.8144 55.7365 47.4869C56.36 49.4649 56.7201 51.5286 57.2074 53.5517C57.3813 54.2738 57.5599 54.9964 57.7775 55.7057C58.9008 59.3657 60.1244 62.9915 61.5288 66.5495C62.359 68.6528 63.2987 70.7112 64.1421 72.8095C64.8333 74.5294 65.4649 76.2745 66.1029 78.0161C66.3699 78.7446 66.5852 79.4927 66.9005 80.4687C67.1952 79.9212 67.2954 79.2871 67.1844 78.6732C67.1239 78.4205 67.0417 78.173 66.9621 77.9256C65.9831 74.8836 64.9657 71.8537 64.0362 68.7962C63.4318 66.808 62.9488 64.7811 62.4228 62.7686C62.0564 61.3667 61.7267 59.9547 61.3498 58.5557C60.538 55.5418 59.6938 52.5371 58.8882 49.5216C58.4952 48.0502 58.1619 46.5624 57.7961 45.0835C57.5999 44.2901 57.4022 43.4969 57.1878 42.7085C56.0766 38.6213 54.9621 34.535 53.8441 30.4497C53.7559 30.1271 53.6596 29.8066 53.558 29.4881C52.836 27.2221 52.0857 24.9651 51.3951 22.6893C50.6354 20.2794 49.7074 17.9278 48.6182 15.6527C47.8052 13.9053 46.9235 12.1911 46.1102 10.4438C45.9974 10.154 45.8218 9.89392 45.5965 9.68285C45.3712 9.47179 45.102 9.31522 44.809 9.22491ZM46.5524 10.3278C46.8999 11.0809 47.2281 11.844 47.6022 12.583C49.5708 16.3224 51.1518 20.2604 52.3194 24.3333C52.6293 25.4801 53.0266 26.6025 53.3847 27.7357C54.3807 30.8878 55.2885 34.0649 56.0319 37.2899C56.182 37.941 56.3815 38.5811 56.5776 39.2202C57.5477 42.3811 58.3813 45.5787 59.0784 48.8131C59.246 49.5375 59.4512 50.2524 59.6931 50.9547C60.7808 54.276 61.534 57.6873 62.348 61.0826C62.6338 62.2743 62.9568 63.4569 63.2445 64.6482C64.2749 68.9151 65.6008 73.0903 66.9995 77.2432C67.0695 77.3899 67.1466 77.533 67.2307 77.6719C67.1226 76.9222 67.0356 76.417 66.9793 75.9082C66.7779 74.5873 66.6454 73.2565 66.5823 71.9214C66.5576 69.3558 66.3451 66.7957 65.9466 64.2623C65.7334 62.8672 65.58 61.4619 65.4301 60.0579C65.2678 58.5045 64.9644 56.9698 64.5237 55.4735C63.9226 53.4451 63.4145 51.3859 62.7527 49.3789C61.6719 46.1007 60.503 42.8525 59.3639 39.5944C58.6534 37.5624 57.9554 35.5251 57.2026 33.5093C56.6063 31.9126 55.9296 30.347 55.299 28.7634C54.7642 27.4203 54.1984 26.0875 53.7272 24.7212C52.7857 22.0243 51.6585 19.3985 50.3538 16.8633C49.6145 15.4125 48.9106 13.9407 48.1122 12.5243C47.634 11.7623 47.1132 11.0289 46.5524 10.3278ZM48.1268 11.666C48.359 12.069 48.5845 12.4764 48.8283 12.872C48.9544 13.0735 49.113 13.252 49.2973 13.3999C49.1428 12.6892 48.7231 12.0675 48.1268 11.666ZM51.5163 18.5872C52.497 20.6267 53.2784 22.7464 54.0661 24.8687C54.917 27.1611 55.9044 29.4011 56.8318 31.6641C56.9303 31.9043 57.0364 32.1419 57.1218 32.3869C58.4785 36.2775 59.8258 40.1716 61.1907 44.0592C61.6824 45.4594 62.2756 46.8251 62.7162 48.2409C63.6537 51.2537 64.5648 54.2767 65.3951 57.3215C65.6315 58.4479 65.7973 59.5885 65.8914 60.7364C66.1712 62.7233 66.4884 64.7057 66.7236 66.6979C66.8831 68.0254 66.9756 69.3603 67.0008 70.6973C67.0344 72.519 67.1736 74.3369 67.4176 76.1419C67.4749 76.3695 67.546 76.5934 67.6306 76.812C67.82 75.8003 67.9377 75.037 68.1093 74.2866C68.392 73.2061 68.4415 72.0762 68.2543 70.9744C68.1635 70.4239 68.118 69.8667 68.1182 69.3085C67.9179 65.0361 67.359 60.789 66.4474 56.6137C66.284 55.8883 66.078 55.1735 65.8306 54.4732C64.708 51.011 63.6086 47.5403 62.432 44.097C61.7847 42.2028 61.0133 40.3518 60.2753 38.4906C59.3736 36.2163 58.4368 33.9564 57.5355 31.6818C56.1565 28.2012 54.8352 24.6946 53.2364 21.3106C52.5573 19.8731 51.7496 18.4984 50.991 17.1005C50.9006 16.9614 50.7946 16.8335 50.6751 16.7195C50.9538 17.3429 51.2206 17.9723 51.5163 18.5872ZM51.771 17.7145C52.7947 19.5158 53.6925 21.3883 54.4579 23.318C55.4626 25.7888 56.4674 28.2594 57.4721 30.7301C58.3637 32.9274 59.2161 35.1418 60.1475 37.3213C62.6293 43.1291 64.4245 49.1841 66.4078 55.1719C67.0577 57.4189 67.5222 59.7172 67.7967 62.0429C68.2702 64.6726 68.5421 67.3359 68.6102 70.0086C68.6918 70.0198 68.7734 70.031 68.855 70.0421C68.9292 69.1985 69.0276 68.3563 69.0736 67.511C69.267 63.4605 69.025 59.4006 68.3519 55.4037C68.2103 54.5246 68.021 53.6501 67.7977 52.7885C67.3971 51.2428 67.015 49.6875 66.5129 48.1748C65.9406 46.4508 65.2479 44.768 64.6023 43.0694C64.4048 42.5497 64.1611 42.0467 63.9887 41.5192C63.2148 39.1508 62.1733 36.8965 61.1854 34.619C60.7579 33.6335 60.3478 32.6402 59.9154 31.6569C58.4883 28.3977 56.8574 25.235 55.0328 22.1882C54.252 20.8889 53.5594 19.5329 52.7444 18.2572C52.0045 17.1036 51.1582 16.0246 50.217 15.0348C50.735 15.9281 51.253 16.8213 51.771 17.7145ZM50.5094 11.8179C50.6371 12.0097 50.8013 12.1735 50.9924 12.2994C51.1835 12.4254 51.3975 12.5109 51.6217 12.5509C51.2509 12.3066 50.8801 12.0622 50.5094 11.8179ZM51.6457 12.5636C51.9234 12.9453 52.3264 13.2129 52.7814 13.3178C52.6508 13.1215 52.4831 12.9537 52.2881 12.8242C52.0931 12.6947 51.8747 12.6061 51.6457 12.5636ZM72.0646 22.6908C72.5229 22.9339 72.9981 23.1426 73.4862 23.3152C75.3575 23.8575 77.2351 24.3771 79.1114 24.9012C79.1307 24.8965 79.1509 24.8967 79.1701 24.9017C80.2417 25.1839 81.317 25.4501 82.3902 25.7254C82.4134 25.7301 82.4361 25.737 82.4591 25.743C82.8145 25.8341 83.1699 25.925 83.5254 26.0157C83.6265 26.0306 83.7258 26.056 83.8218 26.0915C90.1848 27.7056 96.5722 29.2163 102.973 30.6676C104.314 30.9592 105.653 31.2609 106.99 31.5728C107.461 31.6782 107.932 31.7864 108.403 31.8914C110.378 32.3312 112.357 32.7527 114.334 33.1795C117.919 33.8269 121.541 34.2432 125.177 34.4261C127.326 34.5329 129.47 34.7195 131.616 34.8739C127.522 34.1497 123.452 33.2883 119.385 32.4162C119.373 32.4136 119.37 32.4043 119.362 32.3992C117.711 32.1128 116.062 31.8212 114.413 31.5245C111.72 31.0352 109.032 30.5144 106.339 30.0165C104.616 29.6979 102.887 29.4111 101.166 29.0825C99.3021 28.7264 97.4413 28.3524 95.5839 27.9603C93.7621 27.5764 91.9407 27.1865 90.1296 26.7541C87.3587 26.0924 84.5835 25.4423 81.8349 24.693C79.3151 23.9358 76.7462 23.3595 74.1472 22.9683C73.4523 22.8818 72.7587 22.7839 72.0646 22.6908ZM78.44 25.2673C78.7507 25.3987 79.0583 25.5395 79.3752 25.6531C83.7775 27.2358 88.2651 28.5605 92.8162 29.6207C97.1168 30.6192 101.411 31.6504 105.73 32.5605C107.796 32.9958 109.911 33.1866 112.005 33.4814C112.21 33.5007 112.416 33.5073 112.621 33.5012C112.514 33.4246 112.398 33.3628 112.275 33.3176C111.937 33.2299 111.598 33.1425 111.259 33.0551C103.23 31.425 95.2518 29.4765 87.3364 27.3741C85.7398 26.9499 84.1473 26.5098 82.5531 26.0757C82.3621 26.0701 82.175 26.0193 82.0066 25.9274C81.8392 25.8816 81.6715 25.8368 81.5041 25.7909C80.98 25.7518 80.4616 25.6543 79.9584 25.5002C79.4525 25.421 78.9461 25.3447 78.44 25.2673ZM106.084 24.6569C103.153 23.8051 100.146 23.2593 97.1067 23.0279C96.8082 23.019 96.5094 23.026 96.2115 23.0489C96.5064 23.1146 96.8002 23.1862 97.0971 23.2408C100.034 23.7811 102.972 24.3183 105.91 24.8526C106.142 24.8859 106.376 24.9068 106.61 24.9152C106.444 24.8103 106.268 24.7237 106.084 24.6569ZM113.532 26.8399C113.278 26.7092 113.016 26.5956 112.747 26.4998C111.258 26.07 109.765 25.6515 108.269 25.2445C108.017 25.1923 107.761 25.1633 107.503 25.1578C107.818 25.2766 108.13 25.4065 108.45 25.5044C109.709 25.8886 110.969 26.2699 112.235 26.6311C112.651 26.75 113.085 26.8047 113.511 26.8889C113.691 26.9302 113.87 26.9714 114.05 27.0127C113.877 26.955 113.705 26.8974 113.532 26.8399ZM121.358 29.8776C119.622 29.3019 117.889 28.7137 116.139 28.187C113.828 27.4916 111.5 26.8537 109.182 26.1829C104.274 24.8586 99.2736 23.9177 94.225 23.3682C89.5813 22.8381 84.9078 22.6281 80.2363 22.7397C79.072 22.7519 77.9063 22.6202 76.741 22.5598C76.4565 22.5451 76.171 22.5497 75.886 22.5459C76.7492 22.9321 77.6718 23.1623 78.6125 23.2263C81.9778 23.682 85.3476 24.103 88.7146 24.546C91.1403 24.8652 93.5633 25.2058 95.9891 25.5234C98.0165 25.7888 100.044 26.055 102.075 26.2847C106.24 26.8388 110.367 27.6465 114.437 28.7037C116.675 29.238 118.926 29.7223 121.175 30.2096C121.513 30.2599 121.855 30.2811 122.198 30.2732C121.927 30.1223 121.646 29.9902 121.358 29.8776ZM134.373 34.5713C134.324 34.5498 134.275 34.5286 134.225 34.5073C133.913 34.3242 133.589 34.162 133.256 34.0217C129.516 32.6395 125.671 31.5737 121.759 30.835C119.496 30.4453 117.252 29.9133 115.027 29.3365C110.205 27.99 105.283 27.0446 100.311 26.5094C98.8947 26.3831 97.4899 26.1324 96.079 25.9468C91.6656 25.3661 87.2518 24.7884 82.8375 24.2138C82.6355 24.1957 82.4327 24.1892 82.23 24.1941C82.5032 24.3377 82.7883 24.4563 83.082 24.5488C86.0323 25.2495 88.9865 25.9338 91.9397 26.6213C92.1532 26.671 92.3731 26.695 92.5837 26.7543C97.2381 28.0661 102.031 28.6844 106.745 29.6921C110.499 30.4945 114.284 31.1053 118.064 31.7516C119.575 32.01 121.075 32.3386 122.577 32.6559C122.751 32.6999 122.919 32.7651 123.078 32.8501C126.823 33.4779 130.577 34.051 134.326 34.6539L134.373 34.5713ZM84.3951 29.484C91.2174 32.7975 98.4985 35.0258 105.984 36.091C109.995 36.636 114.044 36.8259 118.087 36.6584C118.357 36.646 118.627 36.6038 118.896 36.5723C118.632 36.5154 118.369 36.4463 118.102 36.4101C113.866 35.8368 109.598 35.4402 105.4 34.6597C98.5846 33.495 91.8727 31.7737 85.3288 29.5123C84.8376 29.3347 84.3202 29.2324 83.8134 29.0995C83.9963 29.2441 84.1909 29.3727 84.3951 29.484ZM81.7732 27.8481C82.7831 28.1713 83.7805 28.5363 84.7773 28.9C89.0293 30.3717 93.3528 31.6198 97.7306 32.6393C103.777 34.0677 109.901 35.1338 116.07 35.832C119.801 36.3266 123.574 36.3986 127.321 36.0468C129.281 35.854 131.251 35.7664 133.216 35.6237C133.489 35.6038 133.76 35.5469 134.032 35.5038C132.984 35.2673 131.901 35.2327 130.84 35.4016L130.834 35.415C130.439 35.5431 130.011 35.5139 129.637 35.3334C129.28 35.3858 128.921 35.4176 128.56 35.428C121.115 35.1165 113.695 34.3332 106.345 33.0827C103.713 32.6788 101.114 32.027 98.5182 31.4104C94.9251 30.5573 91.3371 29.6763 87.7682 28.724C82.8293 27.3608 77.9746 25.699 73.2298 23.7476C72.8517 23.6147 72.4659 23.5054 72.0747 23.4204C75.1881 25.1539 78.431 26.6343 81.7732 27.8481Z" fill="#A1A1A1"/>
</g>
</svg>
